<svg preserveAspectRatio="none" width="100%" height="100%" overflow="visible" style="display: block;" viewBox="0 0 674 613.77" fill="none" xmlns="http://www.w3.org/2000/svg">
<g id="Group 1000002659">
<g id="Cloud 15">
<path d="M470.366 413.004C470.366 523.884 380.48 613.77 269.6 613.77C158.72 613.77 68.834 523.884 68.834 413.004C68.834 302.124 158.72 212.238 269.6 212.238C380.48 212.238 470.366 302.124 470.366 413.004Z" fill="var(--fill-0, #D1EEF9)" fill-opacity="0.8"/>
<path d="M309.753 306.885C309.753 392.421 240.413 461.762 154.877 461.762C69.3406 461.762 0 392.421 0 306.885C0 221.349 69.3406 152.009 154.877 152.009C240.413 152.009 309.753 221.349 309.753 306.885Z" fill="var(--fill-0, #D1EEF9)" fill-opacity="0.8"/>
<path d="M453.157 183.557C453.157 284.933 370.976 367.115 269.6 367.115C168.224 367.115 86.0426 284.933 86.0426 183.557C86.0426 82.1815 168.224 0 269.6 0C370.976 0 453.157 82.1815 453.157 183.557Z" fill="var(--fill-0, #D1EEF9)" fill-opacity="0.8"/>
<path d="M579.353 258.128C579.353 343.664 510.013 413.004 424.477 413.004C338.941 413.004 269.6 343.664 269.6 258.128C269.6 172.592 338.941 103.251 424.477 103.251C510.013 103.251 579.353 172.592 579.353 258.128Z" fill="var(--fill-0, #D1EEF9)" fill-opacity="0.8"/>
<path d="M674 349.906C674 419.602 617.5 476.102 547.804 476.102C478.108 476.102 421.609 419.602 421.609 349.906C421.609 280.21 478.108 223.711 547.804 223.711C617.5 223.711 674 280.21 674 349.906Z" fill="var(--fill-0, #D1EEF9)" fill-opacity="0.8"/>
</g>
</g>
</svg>
