<svg preserveAspectRatio="none" width="100%" height="100%" overflow="visible" style="display: block;" viewBox="0 0 674 442.724" fill="none" xmlns="http://www.w3.org/2000/svg">
<g id="Group 1000002664">
<g id="Cloud 15">
<path d="M470.366 241.957C470.366 352.837 380.48 442.723 269.6 442.723C158.72 442.723 68.834 352.837 68.834 241.957C68.834 131.078 158.72 41.1915 269.6 41.1915C380.48 41.1915 470.366 131.078 470.366 241.957Z" fill="var(--fill-0, #D1EEF9)" fill-opacity="0.8"/>
<path d="M309.753 222.83C309.753 308.366 240.413 377.706 154.877 377.706C69.3406 377.706 0 308.366 0 222.83C0 137.294 69.3406 67.9532 154.877 67.9532C240.413 67.9532 309.753 137.294 309.753 222.83Z" fill="var(--fill-0, #D1EEF9)" fill-opacity="0.8"/>
<path d="M328 120.979C328 187.793 273.836 241.957 207.021 241.957C140.207 241.957 86.0426 187.793 86.0426 120.979C86.0426 54.164 140.207 0 207.021 0C273.836 0 328 54.164 328 120.979Z" fill="var(--fill-0, #D1EEF9)" fill-opacity="0.8"/>
<path d="M579.353 198.953C579.353 284.489 510.013 353.83 424.477 353.83C338.941 353.83 269.6 284.489 269.6 198.953C269.6 113.417 338.941 44.0766 424.477 44.0766C510.013 44.0766 579.353 113.417 579.353 198.953Z" fill="var(--fill-0, #D1EEF9)" fill-opacity="0.8"/>
<path d="M674 178.86C674 248.556 617.5 305.055 547.804 305.055C478.108 305.055 421.609 248.556 421.609 178.86C421.609 109.164 478.108 52.6639 547.804 52.6639C617.5 52.6639 674 109.164 674 178.86Z" fill="var(--fill-0, #D1EEF9)" fill-opacity="0.8"/>
</g>
</g>
</svg>
