<svg preserveAspectRatio="none" width="100%" height="100%" overflow="visible" style="display: block;" viewBox="0 0 708.39 274" fill="none" xmlns="http://www.w3.org/2000/svg">
<g id="Group 1000002653">
<g id="Cloud 9">
<path d="M481.171 133.659C481.171 207.476 421.33 267.317 347.512 267.317C273.695 267.317 213.854 207.476 213.854 133.659C213.854 59.841 273.695 0 347.512 0C421.33 0 481.171 59.841 481.171 133.659Z" fill="var(--fill-0, #CAEBF8)" fill-opacity="0.8"/>
<path d="M151.48 191.577C151.48 233.407 117.57 267.317 75.7399 267.317C33.91 267.317 8.99062e-05 233.407 8.99062e-05 191.577C8.99062e-05 149.747 33.91 115.837 75.7399 115.837C117.57 115.837 151.48 149.747 151.48 191.577Z" fill="var(--fill-0, #CAEBF8)" fill-opacity="0.8"/>
<path d="M274 158.163C274 209.835 232.111 251.724 180.439 251.724C128.767 251.724 86.8781 209.835 86.8781 158.163C86.8781 106.49 128.767 64.6016 180.439 64.6016C232.111 64.6016 274 106.49 274 158.163Z" fill="var(--fill-0, #CAEBF8)" fill-opacity="0.8"/>
<path d="M405.431 140.341C405.431 196.935 359.553 242.813 302.959 242.813C246.366 242.813 200.488 196.935 200.488 140.341C200.488 83.748 246.366 37.8699 302.959 37.8699C359.553 37.8699 405.431 83.748 405.431 140.341Z" fill="var(--fill-0, #CAEBF8)" fill-opacity="0.8"/>
<path d="M539.09 140.341C539.09 196.935 493.211 242.813 436.618 242.813C380.025 242.813 334.146 196.935 334.146 140.341C334.146 83.748 380.025 37.8699 436.618 37.8699C493.211 37.8699 539.09 83.748 539.09 140.341Z" fill="var(--fill-0, #CAEBF8)" fill-opacity="0.8"/>
<path d="M641.561 162.618C641.561 211.83 601.667 251.724 552.455 251.724C503.244 251.724 463.35 211.83 463.35 162.618C463.35 113.406 503.244 73.5122 552.455 73.5122C601.667 73.5122 641.561 113.406 641.561 162.618Z" fill="var(--fill-0, #CAEBF8)" fill-opacity="0.8"/>
<path d="M708.39 198.26C708.39 240.09 674.48 274 632.651 274C590.821 274 556.911 240.09 556.911 198.26C556.911 156.43 590.821 122.52 632.651 122.52C674.48 122.52 708.39 156.43 708.39 198.26Z" fill="var(--fill-0, #CAEBF8)" fill-opacity="0.8"/>
</g>
</g>
</svg>
