<svg preserveAspectRatio="none" width="100%" height="100%" overflow="visible" style="display: block;" viewBox="0 0 590.19 302" fill="none" xmlns="http://www.w3.org/2000/svg">
<g id="Group 1000002657">
<g id="Cloud 12">
<path d="M590.19 151C590.19 234.395 522.585 302 439.19 302C355.795 302 288.19 234.395 288.19 151C288.19 67.605 355.795 0 439.19 0C522.585 0 590.19 67.605 590.19 151Z" fill="var(--fill-0, #7BB8D8)" fill-opacity="0.8"/>
<path d="M172.571 183.357C172.571 231.011 133.94 269.643 86.2857 269.643C38.6314 269.643 0 231.011 0 183.357C0 135.703 38.6314 97.0714 86.2857 97.0714C133.94 97.0714 172.571 135.703 172.571 183.357Z" fill="var(--fill-0, #7BB8D8)" fill-opacity="0.8"/>
<path d="M276.833 136.619C276.833 192.216 231.763 237.286 176.167 237.286C120.57 237.286 75.5 192.216 75.5 136.619C75.5 81.0224 120.57 35.9524 176.167 35.9524C231.763 35.9524 276.833 81.0224 276.833 136.619Z" fill="var(--fill-0, #7BB8D8)" fill-opacity="0.8"/>
<path d="M395.476 111.452C395.476 173.006 345.577 222.905 284.024 222.905C222.47 222.905 172.571 173.006 172.571 111.452C172.571 49.8989 377.637 0 439.19 0C500.744 0 395.476 49.8989 395.476 111.452Z" fill="var(--fill-0, #7BB8D8)" fill-opacity="0.8"/>
<path d="M488.952 140.214C488.952 195.811 443.882 240.881 388.286 240.881C332.689 240.881 287.619 195.811 287.619 140.214C287.619 84.6176 332.689 39.5476 388.286 39.5476C443.882 39.5476 488.952 84.6176 488.952 140.214Z" fill="var(--fill-0, #7BB8D8)" fill-opacity="0.8"/>
<path d="M546.476 183.357C546.476 229.026 509.454 266.048 463.786 266.048C418.117 266.048 381.095 229.026 381.095 183.357C381.095 137.688 418.117 100.667 463.786 100.667C509.454 100.667 546.476 137.688 546.476 183.357Z" fill="var(--fill-0, #7BB8D8)" fill-opacity="0.8"/>
</g>
</g>
</svg>
