<svg preserveAspectRatio="none" width="100%" height="100%" overflow="visible" style="display: block;" viewBox="0 0 645.894 333" fill="none" xmlns="http://www.w3.org/2000/svg">
<g id="Group 1000002650">
<g id="Cloud 6">
<path d="M512.39 185.296C512.39 266.871 430.855 333 330.277 333C229.699 333 148.164 266.871 148.164 185.296C148.164 103.721 229.699 37.5916 330.277 37.5916C430.855 37.5916 512.39 103.721 512.39 185.296Z" fill="var(--fill-0, #B5D8F0)" fill-opacity="0.8"/>
<path d="M189.4 173.887C189.4 224.846 148.089 266.157 97.1292 266.157C46.1696 266.157 4.85871 224.846 4.85871 173.887C4.85871 122.927 46.1696 81.6163 97.1292 81.6163C148.089 81.6163 189.4 122.927 189.4 173.887Z" fill="var(--fill-0, #B5D8F0)" fill-opacity="0.8"/>
<path d="M366.654 126.265C366.654 195.999 310.123 252.53 240.389 252.53C170.655 252.53 114.124 195.999 114.124 126.265C114.124 56.5307 170.655 0 240.389 0C310.123 0 366.654 56.5307 366.654 126.265Z" fill="var(--fill-0, #B5D8F0)" fill-opacity="0.8"/>
<path d="M490.491 145.69C490.491 210.06 438.308 262.243 373.938 262.243C309.568 262.243 257.386 210.06 257.386 145.69C257.386 81.3203 309.568 29.1381 373.938 29.1381C438.308 29.1381 490.491 81.3203 490.491 145.69Z" fill="var(--fill-0, #B5D8F0)" fill-opacity="0.8"/>
<path d="M585.189 194.254C585.189 250.578 539.53 296.237 483.206 296.237C426.882 296.237 381.223 250.578 381.223 194.254C381.223 137.93 426.882 92.2705 483.206 92.2705C539.53 92.2705 585.189 137.93 585.189 194.254Z" fill="var(--fill-0, #B5D8F0)" fill-opacity="0.8"/>
<path d="M645.894 233.104C645.894 278.7 608.931 315.662 563.336 315.662C517.74 315.662 480.778 278.7 480.778 233.104C480.778 187.509 517.74 150.547 563.336 150.547C608.931 150.547 645.894 187.509 645.894 233.104Z" fill="var(--fill-0, #B5D8F0)" fill-opacity="0.8"/>
</g>
</g>
</svg>
