<svg preserveAspectRatio="none" width="100%" height="100%" overflow="visible" style="display: block;" viewBox="0 0 639 467.694" fill="none" xmlns="http://www.w3.org/2000/svg">
<g id="Group 1000002663">
<g id="Cloud 14">
<path d="M418.749 282.792C418.749 384.91 335.965 467.694 233.847 467.694C131.728 467.694 48.9447 384.91 48.9447 282.792C48.9447 180.673 131.728 97.8894 233.847 97.8894C335.965 97.8894 418.749 180.673 418.749 282.792Z" fill="var(--fill-0, #E5F3FB)" fill-opacity="0.8"/>
<path d="M304.545 165.868C304.545 249.966 236.37 318.14 152.272 318.14C68.1746 318.14 0 249.966 0 165.868C0 81.7704 68.1746 13.5957 152.272 13.5957C236.37 13.5957 304.545 81.7704 304.545 165.868Z" fill="var(--fill-0, #E5F3FB)" fill-opacity="0.8"/>
<path d="M508.481 157.711C508.481 244.812 437.871 315.421 350.77 315.421C263.669 315.421 193.06 244.812 193.06 157.711C193.06 70.6095 263.669 0 350.77 0C437.871 0 508.481 70.6095 508.481 157.711Z" fill="var(--fill-0, #E5F3FB)" fill-opacity="0.8"/>
<path d="M639 228.409C639 297.489 582.999 353.489 513.919 353.489C444.839 353.489 388.838 297.489 388.838 228.409C388.838 159.328 444.839 103.328 513.919 103.328C582.999 103.328 639 159.328 639 228.409Z" fill="var(--fill-0, #E5F3FB)" fill-opacity="0.8"/>
</g>
</g>
</svg>
