<svg preserveAspectRatio="none" width="100%" height="100%" overflow="visible" style="display: block;" viewBox="0 0 433.171 204.375" fill="none" xmlns="http://www.w3.org/2000/svg">
<g id="Group 1000002661">
<g id="Cloud 9">
<path d="M324.878 90.2439C324.878 140.084 284.474 180.488 234.634 180.488C184.794 180.488 144.39 140.084 144.39 90.2439C144.39 40.4036 184.794 0 234.634 0C284.474 0 324.878 40.4036 324.878 90.2439Z" fill="var(--fill-0, #CAEBF8)" fill-opacity="0.8"/>
<path d="M102.276 129.35C102.276 157.592 79.3811 180.488 51.1382 180.488C22.8954 180.488 0 157.592 0 129.35C0 101.107 22.8954 78.2114 51.1382 78.2114C79.3811 78.2114 102.276 101.107 102.276 129.35Z" fill="var(--fill-0, #CAEBF8)" fill-opacity="0.8"/>
<path d="M185 106.789C185 141.677 156.717 169.959 121.829 169.959C86.941 169.959 58.6585 141.677 58.6585 106.789C58.6585 71.9004 86.941 43.6179 121.829 43.6179C156.717 43.6179 185 71.9004 185 106.789Z" fill="var(--fill-0, #CAEBF8)" fill-opacity="0.8"/>
<path d="M279.756 109.619C279.756 161.952 237.332 204.375 185 204.375C132.668 204.375 90.244 161.952 90.244 109.619C90.244 57.2871 132.668 14.8634 185 14.8634C237.332 14.8634 279.756 57.2871 279.756 109.619Z" fill="var(--fill-0, #CAEBF8)" fill-opacity="0.8"/>
<path d="M363.984 94.7561C363.984 132.967 333.008 163.943 294.797 163.943C256.586 163.943 225.61 132.967 225.61 94.7561C225.61 56.5452 256.586 25.5691 294.797 25.5691C333.008 25.5691 363.984 56.5452 363.984 94.7561Z" fill="var(--fill-0, #CAEBF8)" fill-opacity="0.8"/>
<path d="M433.171 109.797C433.171 143.024 406.235 169.959 373.008 169.959C339.781 169.959 312.846 143.024 312.846 109.797C312.846 76.5699 339.781 49.6341 373.008 49.6341C406.235 49.6341 433.171 76.5699 433.171 109.797Z" fill="var(--fill-0, #CAEBF8)" fill-opacity="0.8"/>
<path d="M341 146.255C341 174.498 318.105 197.394 289.862 197.394C261.619 197.394 238.724 174.498 238.724 146.255C238.724 118.013 261.619 95.1173 289.862 95.1173C318.105 95.1173 341 118.013 341 146.255Z" fill="var(--fill-0, #CAEBF8)" fill-opacity="0.8"/>
</g>
</g>
</svg>
