<svg preserveAspectRatio="none" width="100%" height="100%" overflow="visible" style="display: block;" viewBox="0 0 486 355.711" fill="none" xmlns="http://www.w3.org/2000/svg">
<g id="Group 1000002660">
<g id="Cloud 14">
<path d="M318.485 215.081C318.485 292.749 255.523 355.711 177.855 355.711C100.188 355.711 37.2255 292.749 37.2255 215.081C37.2255 137.413 100.188 74.4511 177.855 74.4511C255.523 74.4511 318.485 137.413 318.485 215.081Z" fill="var(--fill-0, #E5F3FB)" fill-opacity="0.8"/>
<path d="M231.626 126.153C231.626 190.115 179.774 241.966 115.813 241.966C51.8511 241.966 0 190.115 0 126.153C0 62.1916 51.8511 10.3404 115.813 10.3404C179.774 10.3404 231.626 62.1916 231.626 126.153Z" fill="var(--fill-0, #E5F3FB)" fill-opacity="0.8"/>
<path d="M386.732 119.949C386.732 186.195 333.029 239.898 266.783 239.898C200.537 239.898 146.834 186.195 146.834 119.949C146.834 53.703 200.537 0 266.783 0C333.029 0 386.732 53.703 386.732 119.949Z" fill="var(--fill-0, #E5F3FB)" fill-opacity="0.8"/>
<path d="M486 173.719C486 226.259 443.408 268.851 390.868 268.851C338.328 268.851 295.736 226.259 295.736 173.719C295.736 121.179 338.328 78.5872 390.868 78.5872C443.408 78.5872 486 121.179 486 173.719Z" fill="var(--fill-0, #E5F3FB)" fill-opacity="0.8"/>
</g>
</g>
</svg>
