<svg preserveAspectRatio="none" width="100%" height="100%" overflow="visible" style="display: block;" viewBox="0 0 654.06 398.664" fill="none" xmlns="http://www.w3.org/2000/svg">
<g id="Group 1000002662">
<g id="Cloud 6">
<path d="M548.323 225.137C548.323 312.954 460.549 384.144 352.274 384.144C243.999 384.144 156.225 312.954 156.225 225.137C156.225 137.319 243.999 66.1295 352.274 66.1295C460.549 66.1295 548.323 137.319 548.323 225.137Z" fill="var(--fill-0, #B5D8F0)" fill-opacity="0.8"/>
<path d="M203.893 187.193C203.893 242.052 159.421 286.525 104.562 286.525C49.7027 286.525 5.23052 242.052 5.23052 187.193C5.23052 132.334 49.7027 87.8619 104.562 87.8619C159.421 87.8619 203.893 132.334 203.893 187.193Z" fill="var(--fill-0, #B5D8F0)" fill-opacity="0.8"/>
<path d="M394.711 135.927C394.711 210.998 333.855 271.854 258.784 271.854C183.714 271.854 122.857 210.998 122.857 135.927C122.857 60.8567 183.714 0 258.784 0C333.855 0 394.711 60.8567 394.711 135.927Z" fill="var(--fill-0, #B5D8F0)" fill-opacity="0.8"/>
<path d="M528.025 156.839C528.025 226.135 471.849 282.31 402.553 282.31C333.258 282.31 277.082 226.135 277.082 156.839C277.082 87.5432 333.258 31.3678 402.553 31.3678C471.849 31.3678 528.025 87.5432 528.025 156.839Z" fill="var(--fill-0, #B5D8F0)" fill-opacity="0.8"/>
<path d="M629.97 209.119C629.97 269.753 580.817 318.906 520.183 318.906C459.549 318.906 410.395 269.753 410.395 209.119C410.395 148.485 459.549 99.3314 520.183 99.3314C580.817 99.3314 629.97 148.485 629.97 209.119Z" fill="var(--fill-0, #B5D8F0)" fill-opacity="0.8"/>
<path d="M654.06 309.789C654.06 358.873 614.269 398.664 565.185 398.664C516.1 398.664 476.309 358.873 476.309 309.789C476.309 260.704 516.1 220.913 565.185 220.913C614.269 220.913 654.06 260.704 654.06 309.789Z" fill="var(--fill-0, #B5D8F0)" fill-opacity="0.8"/>
</g>
</g>
</svg>
