<svg fill="none" height="290px" width="290px" viewBox="0 0 290 290" xmlns:xlink="http://www.w3.org/1999/xlink" xmlns="http://www.w3.org/2000/svg"><defs><linearGradient id="i0" gradientUnits="userSpaceOnUse" spreadMethod="pad" x2="17.362" y2="47.263" x1="52.085" y1="12.539"><stop offset="0%" stop-color="#ffafaf" /><stop offset="100%" stop-color="#cb6b6b" /></linearGradient><linearGradient id="i1" gradientUnits="userSpaceOnUse" spreadMethod="pad" x2="17.362" y2="47.263" x1="52.085" y1="12.539"><stop offset="0%" stop-color="#ffafaf" /><stop offset="100%" stop-color="#cb6b6b" /></linearGradient></defs><g transform="scale(0.90625)"><g transform="matrix(1,0,0,1,16,0)" id="i2"><g id="i3"><g transform="translate(140.39,160)"><animateTransform repeatCount="indefinite" type="translate" attributeName="transform" dur="0.9s" begin="0s" calcMode="linear" values="140.39 160; 140.39 160; 140.39 160; 140.39 160; 140.89 159.5; 140.89 159.5; 140.39 160; 140.39 160; 140.39 160" keyTimes="0; 0.018519; 0.333333; 0.351852; 0.666667; 0.685185; 0.962963; 0.981481; 1" fill="freeze" /><g transform="rotate(0)"><animateTransform repeatCount="indefinite" type="rotate" attributeName="transform" dur="0.9s" begin="0s" calcMode="linear" values="0; 0; -0.74; -0.74; 0.82; 0.82; 0; 0; 0" keyTimes="0; 0.018519; 0.333333; 0.351852; 0.666667; 0.685185; 0.962963; 0.981481; 1" fill="freeze" /><g transform="translate(-62,-130)"><animateTransform repeatCount="indefinite" type="translate" attributeName="transform" dur="0.9s" begin="0s" calcMode="linear" values="-62 -130; -62 -130; -62 -130; -62 -130; -62.5 -130.5; -62.5 -130.5; -62 -130; -62 -130; -62 -130" keyTimes="0; 0.018519; 0.333333; 0.351852; 0.666667; 0.685185; 0.962963; 0.981481; 1" fill="freeze" /><path d="M19.81,16.76C47.59,-6.76,85.26,-5.16,108.2,19.26C111.89,23.19,113.94,27.72,115.11,30.75C116.41,34.13,117.4,37.79,118.19,41.36C119.78,48.52,120.94,57.14,121.79,66.33C123.5,84.82,124.16,107.67,123.97,130.24C123.78,152.84,122.75,175.69,120.96,194.22C120.07,203.45,118.96,211.97,117.59,219C116.91,222.51,116.09,225.95,115.11,229.1C114.22,231.92,112.78,235.92,110.3,239.58C97.77,258.06,74.78,260.7,60.43,259.86C52.28,259.38,44.07,257.71,36.8,254.99C30.06,252.47,21.74,248.17,15.94,240.87C12.74,236.84,11.22,232.23,10.56,230.13C9.66,227.28,8.9,224.1,8.25,220.89C6.94,214.41,5.75,206.3,4.72,197.33C2.64,179.31,1.03,156.5,0.35,133.6C-0.33,110.78,-0.09,87.25,1.68,67.97C2.56,58.39,3.88,49.21,5.88,41.44C7.56,34.94,10.79,24.72,18.49,17.9C18.49,17.9,19.81,16.76,19.81,16.76C19.81,16.76,19.81,16.76,19.81,16.76Z" fill="#c585ef"><animate repeatCount="indefinite" attributeName="d" dur="0.9s" begin="0s" calcMode="linear" values="M19.81,16.76C47.59,-6.76,85.26,-5.16,108.2,19.26C111.89,23.19,113.94,27.72,115.11,30.75C116.41,34.13,117.4,37.79,118.19,41.36C119.78,48.52,120.94,57.14,121.79,66.33C123.5,84.82,124.16,107.67,123.97,130.24C123.78,152.84,122.75,175.69,120.96,194.22C120.07,203.45,118.96,211.97,117.59,219C116.91,222.51,116.09,225.95,115.11,229.1C114.22,231.92,112.78,235.92,110.3,239.58C97.77,258.06,74.78,260.7,60.43,259.86C52.28,259.38,44.07,257.71,36.8,254.99C30.06,252.47,21.74,248.17,15.94,240.87C12.74,236.84,11.22,232.23,10.56,230.13C9.66,227.28,8.9,224.1,8.25,220.89C6.94,214.41,5.75,206.3,4.72,197.33C2.64,179.31,1.03,156.5,0.35,133.6C-0.33,110.78,-0.09,87.25,1.68,67.97C2.56,58.39,3.88,49.21,5.88,41.44C7.56,34.94,10.79,24.72,18.49,17.9C18.49,17.9,19.81,16.76,19.81,16.76C19.81,16.76,19.81,16.76,19.81,16.76Z; M19.81,16.76C47.59,-6.76,85.26,-5.16,108.2,19.26C111.89,23.19,113.94,27.72,115.11,30.75C116.41,34.13,117.4,37.79,118.19,41.36C119.78,48.52,120.94,57.14,121.79,66.33C123.5,84.82,124.16,107.67,123.97,130.24C123.78,152.84,122.75,175.69,120.96,194.22C120.07,203.45,118.96,211.97,117.59,219C116.91,222.51,116.09,225.95,115.11,229.1C114.22,231.92,112.78,235.92,110.3,239.58C97.77,258.06,74.78,260.7,60.43,259.86C52.28,259.38,44.07,257.71,36.8,254.99C30.06,252.47,21.74,248.17,15.94,240.87C12.74,236.84,11.22,232.23,10.56,230.13C9.66,227.28,8.9,224.1,8.25,220.89C6.94,214.41,5.75,206.3,4.72,197.33C2.64,179.31,1.03,156.5,0.35,133.6C-0.33,110.78,-0.09,87.25,1.68,67.97C2.56,58.39,3.88,49.21,5.88,41.44C7.56,34.94,10.79,24.72,18.49,17.9C18.49,17.9,19.81,16.76,19.81,16.76C19.81,16.76,19.81,16.76,19.81,16.76Z; M19.81,16.76C47.59,-6.76,85.26,-5.16,108.2,19.26C111.89,23.19,113.94,27.72,115.11,30.75C116.41,34.13,117.4,37.79,118.19,41.36C119.78,48.52,120.94,57.14,121.79,66.33C123.5,84.82,124.16,107.67,123.97,130.24C123.78,152.84,122.75,175.69,120.96,194.22C120.07,203.45,118.96,211.97,117.59,219C116.91,222.51,116.09,225.95,115.11,229.1C114.22,231.92,112.78,235.92,110.3,239.58C97.77,258.06,74.78,260.7,60.43,259.86C52.28,259.38,44.07,257.71,36.8,254.99C30.06,252.47,21.74,248.17,15.94,240.87C12.74,236.84,11.22,232.23,10.56,230.13C9.66,227.28,8.9,224.1,8.25,220.89C6.94,214.41,5.75,206.3,4.72,197.33C2.64,179.31,1.03,156.5,0.35,133.6C-0.33,110.78,-0.09,87.25,1.68,67.97C2.56,58.39,3.88,49.21,5.88,41.44C7.56,34.94,10.79,24.72,18.49,17.9C18.49,17.9,19.81,16.76,19.81,16.76C19.81,16.76,19.81,16.76,19.81,16.76Z; M19.81,16.76C47.59,-6.76,85.26,-5.16,108.2,19.26C111.89,23.19,113.94,27.72,115.11,30.75C116.41,34.13,117.4,37.79,118.19,41.36C119.78,48.52,120.94,57.14,121.79,66.33C123.5,84.82,124.16,107.67,123.97,130.24C123.78,152.84,122.75,175.69,120.96,194.22C120.07,203.45,118.96,211.97,117.59,219C116.91,222.51,116.09,225.95,115.11,229.1C114.22,231.92,112.78,235.92,110.3,239.58C97.77,258.06,74.78,260.7,60.43,259.86C52.28,259.38,44.07,257.71,36.8,254.99C30.06,252.47,21.74,248.17,15.94,240.87C12.74,236.84,11.22,232.23,10.56,230.13C9.66,227.28,8.9,224.1,8.25,220.89C6.94,214.41,5.75,206.3,4.72,197.33C2.64,179.31,1.03,156.5,0.35,133.6C-0.33,110.78,-0.09,87.25,1.68,67.97C2.56,58.39,3.88,49.21,5.88,41.44C7.56,34.94,10.79,24.72,18.49,17.9C18.49,17.9,19.81,16.76,19.81,16.76C19.81,16.76,19.81,16.76,19.81,16.76Z; M19.97,16.83C47.97,-6.78,85.94,-5.18,109.07,19.34C112.79,23.28,114.86,27.82,116.04,30.87C117.35,34.26,118.35,37.93,119.15,41.52C120.75,48.71,121.91,57.35,122.77,66.58C124.49,85.14,125.16,108.08,124.97,130.74C124.78,153.43,123.74,176.36,121.94,194.96C121.04,204.23,119.92,212.78,118.54,219.84C117.85,223.36,117.03,226.83,116.04,229.99C115.15,232.83,113.69,236.82,111.19,240.5C98.56,259.05,75.39,261.71,60.92,260.86C52.7,260.38,44.43,258.7,37.1,255.97C30.31,253.44,21.91,249.13,16.07,241.8C12.85,237.76,11.31,233.13,10.64,231.02C9.73,228.16,8.98,224.97,8.32,221.74C7,215.24,5.8,207.09,4.76,198.09C2.67,180,1.04,157.1,0.35,134.11C-0.33,111.2,-0.1,87.58,1.69,68.23C2.58,58.61,3.91,49.4,5.93,41.6C7.62,35.08,10.87,24.82,18.64,17.97C18.64,17.97,19.97,16.83,19.97,16.83C19.97,16.83,19.97,16.83,19.97,16.83Z; M19.97,16.83C47.97,-6.78,85.94,-5.18,109.07,19.34C112.79,23.28,114.86,27.82,116.04,30.87C117.35,34.26,118.35,37.93,119.15,41.52C120.75,48.71,121.91,57.35,122.77,66.58C124.49,85.14,125.16,108.08,124.97,130.74C124.78,153.43,123.74,176.36,121.94,194.96C121.04,204.23,119.92,212.78,118.54,219.84C117.85,223.36,117.03,226.83,116.04,229.99C115.15,232.83,113.69,236.82,111.19,240.5C98.56,259.05,75.39,261.71,60.92,260.86C52.7,260.38,44.43,258.7,37.1,255.97C30.31,253.44,21.91,249.13,16.07,241.8C12.85,237.76,11.31,233.13,10.64,231.02C9.73,228.16,8.98,224.97,8.32,221.74C7,215.24,5.8,207.09,4.76,198.09C2.67,180,1.04,157.1,0.35,134.11C-0.33,111.2,-0.1,87.58,1.69,68.23C2.58,58.61,3.91,49.4,5.93,41.6C7.62,35.08,10.87,24.82,18.64,17.97C18.64,17.97,19.97,16.83,19.97,16.83C19.97,16.83,19.97,16.83,19.97,16.83Z; M19.81,16.76C47.59,-6.76,85.26,-5.16,108.2,19.26C111.89,23.19,113.94,27.72,115.11,30.75C116.41,34.13,117.4,37.79,118.19,41.36C119.78,48.52,120.94,57.14,121.79,66.33C123.5,84.82,124.16,107.67,123.97,130.24C123.78,152.84,122.75,175.69,120.96,194.22C120.07,203.45,118.96,211.97,117.59,219C116.91,222.51,116.09,225.95,115.11,229.1C114.22,231.92,112.78,235.92,110.3,239.58C97.77,258.06,74.78,260.7,60.43,259.86C52.28,259.38,44.07,257.71,36.8,254.99C30.06,252.47,21.74,248.17,15.94,240.87C12.74,236.84,11.22,232.23,10.56,230.13C9.66,227.28,8.9,224.1,8.25,220.89C6.94,214.41,5.75,206.3,4.72,197.33C2.64,179.31,1.03,156.5,0.35,133.6C-0.33,110.78,-0.09,87.25,1.68,67.97C2.56,58.39,3.88,49.21,5.88,41.44C7.56,34.94,10.79,24.72,18.49,17.9C18.49,17.9,19.81,16.76,19.81,16.76C19.81,16.76,19.81,16.76,19.81,16.76Z; M19.81,16.76C47.59,-6.76,85.26,-5.16,108.2,19.26C111.89,23.19,113.94,27.72,115.11,30.75C116.41,34.13,117.4,37.79,118.19,41.36C119.78,48.52,120.94,57.14,121.79,66.33C123.5,84.82,124.16,107.67,123.97,130.24C123.78,152.84,122.75,175.69,120.96,194.22C120.07,203.45,118.96,211.97,117.59,219C116.91,222.51,116.09,225.95,115.11,229.1C114.22,231.92,112.78,235.92,110.3,239.58C97.77,258.06,74.78,260.7,60.43,259.86C52.28,259.38,44.07,257.71,36.8,254.99C30.06,252.47,21.74,248.17,15.94,240.87C12.74,236.84,11.22,232.23,10.56,230.13C9.66,227.28,8.9,224.1,8.25,220.89C6.94,214.41,5.75,206.3,4.72,197.33C2.64,179.31,1.03,156.5,0.35,133.6C-0.33,110.78,-0.09,87.25,1.68,67.97C2.56,58.39,3.88,49.21,5.88,41.44C7.56,34.94,10.79,24.72,18.49,17.9C18.49,17.9,19.81,16.76,19.81,16.76C19.81,16.76,19.81,16.76,19.81,16.76Z; M19.81,16.76C47.59,-6.76,85.26,-5.16,108.2,19.26C111.89,23.19,113.94,27.72,115.11,30.75C116.41,34.13,117.4,37.79,118.19,41.36C119.78,48.52,120.94,57.14,121.79,66.33C123.5,84.82,124.16,107.67,123.97,130.24C123.78,152.84,122.75,175.69,120.96,194.22C120.07,203.45,118.96,211.97,117.59,219C116.91,222.51,116.09,225.95,115.11,229.1C114.22,231.92,112.78,235.92,110.3,239.58C97.77,258.06,74.78,260.7,60.43,259.86C52.28,259.38,44.07,257.71,36.8,254.99C30.06,252.47,21.74,248.17,15.94,240.87C12.74,236.84,11.22,232.23,10.56,230.13C9.66,227.28,8.9,224.1,8.25,220.89C6.94,214.41,5.75,206.3,4.72,197.33C2.64,179.31,1.03,156.5,0.35,133.6C-0.33,110.78,-0.09,87.25,1.68,67.97C2.56,58.39,3.88,49.21,5.88,41.44C7.56,34.94,10.79,24.72,18.49,17.9C18.49,17.9,19.81,16.76,19.81,16.76C19.81,16.76,19.81,16.76,19.81,16.76Z" keyTimes="0; 0.018519; 0.333333; 0.351852; 0.666667; 0.685185; 0.962963; 0.981481; 1" fill="freeze" /></path></g></g></g></g></g><g transform="matrix(1,0,0,1,16,0)" id="i2"><g id="i4"><g transform="translate(144.35,195.54)"><animateTransform repeatCount="indefinite" type="translate" attributeName="transform" dur="0.9s" begin="0s" calcMode="linear" values="144.35 195.54; 144.35 195.54; 144.87 194.11; 144.87 194.11; 144.02 193.78; 144.02 193.78; 144.35 195.54; 144.35 195.54; 144.35 195.54" keyTimes="0; 0.018519; 0.333333; 0.351852; 0.666667; 0.685185; 0.962963; 0.981481; 1" fill="freeze" /><g transform="rotate(-10.54) scale(1,-1)"><g transform="translate(-23.55,-13.7)"><animateTransform repeatCount="indefinite" type="translate" attributeName="transform" dur="0.9s" begin="0s" calcMode="linear" values="-23.55 -13.7; -23.55 -13.7; -24.7 -13.15; -24.7 -13.15; -23.55 -12.66; -23.55 -12.66; -23.55 -13.7; -23.55 -13.7; -23.55 -13.7" keyTimes="0; 0.018519; 0.333333; 0.351852; 0.666667; 0.685185; 0.962963; 0.981481; 1" fill="freeze" /><path d="M47.09,19.11C47.09,28.88,32.03,21.79,21.63,21.79C11.23,21.79,0,33.23,0,23.46C0,13.69,10.76,0,21.16,0C31.56,0,47.09,9.34,47.09,19.11C47.09,19.11,47.09,19.11,47.09,19.11Z" fill="#222222"><animate repeatCount="indefinite" attributeName="d" dur="0.9s" begin="0s" calcMode="linear" values="M47.09,19.11C47.09,28.88,32.03,21.79,21.63,21.79C11.23,21.79,0,33.23,0,23.46C0,13.69,10.76,0,21.16,0C31.56,0,47.09,9.34,47.09,19.11C47.09,19.11,47.09,19.11,47.09,19.11Z; M47.09,19.11C47.09,28.88,32.03,21.79,21.63,21.79C11.23,21.79,0,33.23,0,23.46C0,13.69,10.76,0,21.16,0C31.56,0,47.09,9.34,47.09,19.11C47.09,19.11,47.09,19.11,47.09,19.11Z; M49.4,17.31C49.4,27.08,32.39,20.37,21.99,20.37C11.59,20.37,0,32.2,0,22.43C0,12.66,10.39,0.26,20.79,0.26C31.11,-1.66,49.4,7.54,49.4,17.31C49.4,17.31,49.4,17.31,49.4,17.31Z; M49.4,17.31C49.4,27.08,32.39,20.37,21.99,20.37C11.59,20.37,0,32.2,0,22.43C0,12.66,10.39,0.26,20.79,0.26C31.11,-1.66,49.4,7.54,49.4,17.31C49.4,17.31,49.4,17.31,49.4,17.31Z; M47.09,16.27C47.09,26.04,32.47,21.87,22.07,21.87C11.67,21.87,0,30.4,0,20.63C0,10.86,11.67,0,22.07,0C32.47,0,47.09,6.5,47.09,16.27C47.09,16.27,47.09,16.27,47.09,16.27Z; M47.09,16.27C47.09,26.04,32.47,21.87,22.07,21.87C11.67,21.87,0,30.4,0,20.63C0,10.86,11.67,0,22.07,0C32.47,0,47.09,6.5,47.09,16.27C47.09,16.27,47.09,16.27,47.09,16.27Z; M47.09,19.11C47.09,28.88,32.03,21.79,21.63,21.79C11.23,21.79,0,33.23,0,23.46C0,13.69,10.76,0,21.16,0C31.56,0,47.09,9.34,47.09,19.11C47.09,19.11,47.09,19.11,47.09,19.11Z; M47.09,19.11C47.09,28.88,32.03,21.79,21.63,21.79C11.23,21.79,0,33.23,0,23.46C0,13.69,10.76,0,21.16,0C31.56,0,47.09,9.34,47.09,19.11C47.09,19.11,47.09,19.11,47.09,19.11Z; M47.09,19.11C47.09,28.88,32.03,21.79,21.63,21.79C11.23,21.79,0,33.23,0,23.46C0,13.69,10.76,0,21.16,0C31.56,0,47.09,9.34,47.09,19.11C47.09,19.11,47.09,19.11,47.09,19.11Z" keyTimes="0; 0.018519; 0.333333; 0.351852; 0.666667; 0.685185; 0.962963; 0.981481; 1" fill="freeze" /></path></g></g></g></g></g><g transform="matrix(1,0,0,1,16,0)" id="i2"><g id="i5"><g transform="translate(139.89,188.5)"><animateTransform repeatCount="indefinite" type="translate" attributeName="transform" dur="0.9s" begin="0s" calcMode="linear" values="139.89 188.5; 139.89 188.5; 139.89 188.5; 139.89 188.5; 139.89 186.5; 139.89 186.5; 139.89 188.5; 139.89 188.5; 139.89 188.5" keyTimes="0; 0.018519; 0.333333; 0.351852; 0.666667; 0.685185; 0.962963; 0.981481; 1" fill="freeze" /><g transform="translate(-12.5,-3.5)"><path d="M13.63,6.86C18.99,6.21,23.3,3.45,25,0C21.29,1.28,17.35,2.75,13.8,3.35C9.25,4.12,4.12,2.88,0,2.05C2.36,5.52,7.75,7.57,13.63,6.86C13.63,6.86,13.63,6.86,13.63,6.86Z" fill="#ffffff" /></g></g></g></g><g transform="matrix(1,0,0,1,16,0)" id="i2"><g id="i6"><g transform="translate(115.04,108.31)"><animateTransform repeatCount="indefinite" type="translate" attributeName="transform" dur="0.9s" begin="0s" calcMode="linear" values="115.04 108.31; 115.04 108.31; 114.89 108.5; 114.89 108.5; 115.04 108.31; 115.04 108.31; 115.04 108.31; 115.04 108.31; 115.04 108.31" keyTimes="0; 0.018519; 0.333333; 0.351852; 0.666667; 0.685185; 0.962963; 0.981481; 1" fill="freeze" /><g transform="translate(-15.43,-15.43)"><animateTransform repeatCount="indefinite" type="translate" attributeName="transform" dur="0.9s" begin="0s" calcMode="linear" values="-15.43 -15.43; -15.43 -15.43; -14.5 -14.5; -14.5 -14.5; -15.43 -15.43; -15.43 -15.43; -15.43 -15.43; -15.43 -15.43; -15.43 -15.43" keyTimes="0; 0.018519; 0.333333; 0.351852; 0.666667; 0.685185; 0.962963; 0.981481; 1" fill="freeze" /><g id="i7"><g transform="translate(15.43,15.43)"><animateTransform repeatCount="indefinite" type="translate" attributeName="transform" dur="0.9s" begin="0s" calcMode="linear" values="15.43 15.43; 15.43 15.43; 14.5 14.5; 14.5 14.5; 15.43 15.43; 15.43 15.43; 15.43 15.43; 15.43 15.43; 15.43 15.43" keyTimes="0; 0.018519; 0.333333; 0.351852; 0.666667; 0.685185; 0.962963; 0.981481; 1" fill="freeze" /><g transform="translate(-15.43,-15.43)"><animateTransform repeatCount="indefinite" type="translate" attributeName="transform" dur="0.9s" begin="0s" calcMode="linear" values="-15.43 -15.43; -15.43 -15.43; -14.5 -14.5; -14.5 -14.5; -15.43 -15.43; -15.43 -15.43; -15.43 -15.43; -15.43 -15.43; -15.43 -15.43" keyTimes="0; 0.018519; 0.333333; 0.351852; 0.666667; 0.685185; 0.962963; 0.981481; 1" fill="freeze" /><path d="M15.43,30.87C23.95,30.87,30.87,23.95,30.87,15.43C30.87,6.91,23.95,0,15.43,0C6.91,0,0,6.91,0,15.43C0,23.95,6.91,30.87,15.43,30.87C15.43,30.87,15.43,30.87,15.43,30.87Z" fill="#ffffff"><animate repeatCount="indefinite" attributeName="d" dur="0.9s" begin="0s" calcMode="linear" values="M15.43,30.87C23.95,30.87,30.87,23.95,30.87,15.43C30.87,6.91,23.95,0,15.43,0C6.91,0,0,6.91,0,15.43C0,23.95,6.91,30.87,15.43,30.87C15.43,30.87,15.43,30.87,15.43,30.87Z; M15.43,30.87C23.95,30.87,30.87,23.95,30.87,15.43C30.87,6.91,23.95,0,15.43,0C6.91,0,0,6.91,0,15.43C0,23.95,6.91,30.87,15.43,30.87C15.43,30.87,15.43,30.87,15.43,30.87Z; M14.5,29C22.51,29,29,22.51,29,14.5C29,6.49,22.51,0,14.5,0C6.49,0,0,6.49,0,14.5C0,22.51,6.49,29,14.5,29C14.5,29,14.5,29,14.5,29Z; M14.5,29C22.51,29,29,22.51,29,14.5C29,6.49,22.51,0,14.5,0C6.49,0,0,6.49,0,14.5C0,22.51,6.49,29,14.5,29C14.5,29,14.5,29,14.5,29Z; M15.43,30.87C23.95,30.87,30.87,23.95,30.87,15.43C30.87,6.91,23.95,0,15.43,0C6.91,0,0,6.91,0,15.43C0,23.95,6.91,30.87,15.43,30.87C15.43,30.87,15.43,30.87,15.43,30.87Z; M15.43,30.87C23.95,30.87,30.87,23.95,30.87,15.43C30.87,6.91,23.95,0,15.43,0C6.91,0,0,6.91,0,15.43C0,23.95,6.91,30.87,15.43,30.87C15.43,30.87,15.43,30.87,15.43,30.87Z; M15.43,30.87C23.95,30.87,30.87,23.95,30.87,15.43C30.87,6.91,23.95,0,15.43,0C6.91,0,0,6.91,0,15.43C0,23.95,6.91,30.87,15.43,30.87C15.43,30.87,15.43,30.87,15.43,30.87Z; M15.43,30.87C23.95,30.87,30.87,23.95,30.87,15.43C30.87,6.91,23.95,0,15.43,0C6.91,0,0,6.91,0,15.43C0,23.95,6.91,30.87,15.43,30.87C15.43,30.87,15.43,30.87,15.43,30.87Z; M15.43,30.87C23.95,30.87,30.87,23.95,30.87,15.43C30.87,6.91,23.95,0,15.43,0C6.91,0,0,6.91,0,15.43C0,23.95,6.91,30.87,15.43,30.87C15.43,30.87,15.43,30.87,15.43,30.87Z" keyTimes="0; 0.018519; 0.333333; 0.351852; 0.666667; 0.685185; 0.962963; 0.981481; 1" fill="freeze" /></path></g></g></g></g></g></g></g><g transform="matrix(1,0,0,1,16,0)" id="i2"><g id="i6"><g transform="translate(115.04,108.31)"><animateTransform repeatCount="indefinite" type="translate" attributeName="transform" dur="0.9s" begin="0s" calcMode="linear" values="115.04 108.31; 115.04 108.31; 114.89 108.5; 114.89 108.5; 115.04 108.31; 115.04 108.31; 115.04 108.31; 115.04 108.31; 115.04 108.31" keyTimes="0; 0.018519; 0.333333; 0.351852; 0.666667; 0.685185; 0.962963; 0.981481; 1" fill="freeze" /><g transform="translate(-15.43,-15.43)"><animateTransform repeatCount="indefinite" type="translate" attributeName="transform" dur="0.9s" begin="0s" calcMode="linear" values="-15.43 -15.43; -15.43 -15.43; -14.5 -14.5; -14.5 -14.5; -15.43 -15.43; -15.43 -15.43; -15.43 -15.43; -15.43 -15.43; -15.43 -15.43" keyTimes="0; 0.018519; 0.333333; 0.351852; 0.666667; 0.685185; 0.962963; 0.981481; 1" fill="freeze" /><g id="i7"><g transform="translate(10.61,12.54)"><animateTransform repeatCount="indefinite" type="translate" attributeName="transform" dur="0.9s" begin="0s" calcMode="linear" values="10.61 12.54; 10.61 12.54; 10 11.5; 10 11.5; 11.53 10.88; 11.53 10.88; 10.61 12.54; 10.61 12.54; 10.61 12.54" keyTimes="0; 0.018519; 0.333333; 0.351852; 0.666667; 0.685185; 0.962963; 0.981481; 1" fill="freeze" /><g transform="translate(-6.75,-6.75)"><animateTransform repeatCount="indefinite" type="translate" attributeName="transform" dur="0.9s" begin="0s" calcMode="linear" values="-6.75 -6.75; -6.75 -6.75; -8 -7.5; -8 -7.5; -6.75 -6.75; -6.75 -6.75; -6.75 -6.75; -6.75 -6.75; -6.75 -6.75" keyTimes="0; 0.018519; 0.333333; 0.351852; 0.666667; 0.685185; 0.962963; 0.981481; 1" fill="freeze" /><path d="M6.75,13.5C10.48,13.5,13.5,10.48,13.5,6.75C13.5,3.02,10.48,0,6.75,0C3.02,0,0,3.02,0,6.75C0,10.48,3.02,13.5,6.75,13.5C6.75,13.5,6.75,13.5,6.75,13.5Z" fill="#222222"><animate repeatCount="indefinite" attributeName="d" dur="0.9s" begin="0s" calcMode="linear" values="M6.75,13.5C10.48,13.5,13.5,10.48,13.5,6.75C13.5,3.02,10.48,0,6.75,0C3.02,0,0,3.02,0,6.75C0,10.48,3.02,13.5,6.75,13.5C6.75,13.5,6.75,13.5,6.75,13.5Z; M6.75,13.5C10.48,13.5,13.5,10.48,13.5,6.75C13.5,3.02,10.48,0,6.75,0C3.02,0,0,3.02,0,6.75C0,10.48,3.02,13.5,6.75,13.5C6.75,13.5,6.75,13.5,6.75,13.5Z; M8,15C12.42,15,16,11.64,16,7.5C16,3.36,12.42,0,8,0C3.58,0,0,3.36,0,7.5C0,11.64,3.58,15,8,15C8,15,8,15,8,15Z; M8,15C12.42,15,16,11.64,16,7.5C16,3.36,12.42,0,8,0C3.58,0,0,3.36,0,7.5C0,11.64,3.58,15,8,15C8,15,8,15,8,15Z; M6.75,13.5C10.48,13.5,13.5,10.48,13.5,6.75C13.5,3.02,10.48,0,6.75,0C3.02,0,0,3.02,0,6.75C0,10.48,3.02,13.5,6.75,13.5C6.75,13.5,6.75,13.5,6.75,13.5Z; M6.75,13.5C10.48,13.5,13.5,10.48,13.5,6.75C13.5,3.02,10.48,0,6.75,0C3.02,0,0,3.02,0,6.75C0,10.48,3.02,13.5,6.75,13.5C6.75,13.5,6.75,13.5,6.75,13.5Z; M6.75,13.5C10.48,13.5,13.5,10.48,13.5,6.75C13.5,3.02,10.48,0,6.75,0C3.02,0,0,3.02,0,6.75C0,10.48,3.02,13.5,6.75,13.5C6.75,13.5,6.75,13.5,6.75,13.5Z; M6.75,13.5C10.48,13.5,13.5,10.48,13.5,6.75C13.5,3.02,10.48,0,6.75,0C3.02,0,0,3.02,0,6.75C0,10.48,3.02,13.5,6.75,13.5C6.75,13.5,6.75,13.5,6.75,13.5Z; M6.75,13.5C10.48,13.5,13.5,10.48,13.5,6.75C13.5,3.02,10.48,0,6.75,0C3.02,0,0,3.02,0,6.75C0,10.48,3.02,13.5,6.75,13.5C6.75,13.5,6.75,13.5,6.75,13.5Z" keyTimes="0; 0.018519; 0.333333; 0.351852; 0.666667; 0.685185; 0.962963; 0.981481; 1" fill="freeze" /></path></g></g></g></g></g></g></g><g transform="matrix(1,0,0,1,16,0)" id="i2"><g id="i6"><g transform="translate(115.04,108.31)"><animateTransform repeatCount="indefinite" type="translate" attributeName="transform" dur="0.9s" begin="0s" calcMode="linear" values="115.04 108.31; 115.04 108.31; 114.89 108.5; 114.89 108.5; 115.04 108.31; 115.04 108.31; 115.04 108.31; 115.04 108.31; 115.04 108.31" keyTimes="0; 0.018519; 0.333333; 0.351852; 0.666667; 0.685185; 0.962963; 0.981481; 1" fill="freeze" /><g transform="translate(-15.43,-15.43)"><animateTransform repeatCount="indefinite" type="translate" attributeName="transform" dur="0.9s" begin="0s" calcMode="linear" values="-15.43 -15.43; -15.43 -15.43; -14.5 -14.5; -14.5 -14.5; -15.43 -15.43; -15.43 -15.43; -15.43 -15.43; -15.43 -15.43; -15.43 -15.43" keyTimes="0; 0.018519; 0.333333; 0.351852; 0.666667; 0.685185; 0.962963; 0.981481; 1" fill="freeze" /></g></g></g></g><g transform="matrix(1,0,0,1,16,0)" id="i2"><g id="i8"><g transform="translate(165.2,108.31)"><animateTransform repeatCount="indefinite" type="translate" attributeName="transform" dur="0.9s" begin="0s" calcMode="linear" values="165.2 108.31; 165.2 108.31; 165.39 108.5; 165.39 108.5; 165.2 108.31; 165.2 108.31; 165.2 108.31; 165.2 108.31; 165.2 108.31" keyTimes="0; 0.018519; 0.333333; 0.351852; 0.666667; 0.685185; 0.962963; 0.981481; 1" fill="freeze" /><g transform="translate(-21.22,-21.22)"><animateTransform repeatCount="indefinite" type="translate" attributeName="transform" dur="0.9s" begin="0s" calcMode="linear" values="-21.22 -21.22; -21.22 -21.22; -20 -20.5; -20 -20.5; -21.22 -21.22; -21.22 -21.22; -21.22 -21.22; -21.22 -21.22; -21.22 -21.22" keyTimes="0; 0.018519; 0.333333; 0.351852; 0.666667; 0.685185; 0.962963; 0.981481; 1" fill="freeze" /><g id="i7"><g transform="translate(21.22,21.22)"><animateTransform repeatCount="indefinite" type="translate" attributeName="transform" dur="0.9s" begin="0s" calcMode="linear" values="21.22 21.22; 21.22 21.22; 20 20.5; 20 20.5; 21.22 21.22; 21.22 21.22; 21.22 21.22; 21.22 21.22; 21.22 21.22" keyTimes="0; 0.018519; 0.333333; 0.351852; 0.666667; 0.685185; 0.962963; 0.981481; 1" fill="freeze" /><g transform="translate(-21.22,-21.22)"><animateTransform repeatCount="indefinite" type="translate" attributeName="transform" dur="0.9s" begin="0s" calcMode="linear" values="-21.22 -21.22; -21.22 -21.22; -20 -20.5; -20 -20.5; -21.22 -21.22; -21.22 -21.22; -21.22 -21.22; -21.22 -21.22; -21.22 -21.22" keyTimes="0; 0.018519; 0.333333; 0.351852; 0.666667; 0.685185; 0.962963; 0.981481; 1" fill="freeze" /><path d="M21.22,42.44C32.94,42.44,42.44,32.94,42.44,21.22C42.44,9.5,32.94,0,21.22,0C9.5,0,0,9.5,0,21.22C0,32.94,9.5,42.44,21.22,42.44C21.22,42.44,21.22,42.44,21.22,42.44Z" fill="#ffffff"><animate repeatCount="indefinite" attributeName="d" dur="0.9s" begin="0s" calcMode="linear" values="M21.22,42.44C32.94,42.44,42.44,32.94,42.44,21.22C42.44,9.5,32.94,0,21.22,0C9.5,0,0,9.5,0,21.22C0,32.94,9.5,42.44,21.22,42.44C21.22,42.44,21.22,42.44,21.22,42.44Z; M21.22,42.44C32.94,42.44,42.44,32.94,42.44,21.22C42.44,9.5,32.94,0,21.22,0C9.5,0,0,9.5,0,21.22C0,32.94,9.5,42.44,21.22,42.44C21.22,42.44,21.22,42.44,21.22,42.44Z; M20,41C31.05,41,40,31.82,40,20.5C40,9.18,31.05,0,20,0C8.95,0,0,9.18,0,20.5C0,31.82,8.95,41,20,41C20,41,20,41,20,41Z; M20,41C31.05,41,40,31.82,40,20.5C40,9.18,31.05,0,20,0C8.95,0,0,9.18,0,20.5C0,31.82,8.95,41,20,41C20,41,20,41,20,41Z; M21.22,42.44C32.94,42.44,42.44,32.94,42.44,21.22C42.44,9.5,32.94,0,21.22,0C9.5,0,0,9.5,0,21.22C0,32.94,9.5,42.44,21.22,42.44C21.22,42.44,21.22,42.44,21.22,42.44Z; M21.22,42.44C32.94,42.44,42.44,32.94,42.44,21.22C42.44,9.5,32.94,0,21.22,0C9.5,0,0,9.5,0,21.22C0,32.94,9.5,42.44,21.22,42.44C21.22,42.44,21.22,42.44,21.22,42.44Z; M21.22,42.44C32.94,42.44,42.44,32.94,42.44,21.22C42.44,9.5,32.94,0,21.22,0C9.5,0,0,9.5,0,21.22C0,32.94,9.5,42.44,21.22,42.44C21.22,42.44,21.22,42.44,21.22,42.44Z; M21.22,42.44C32.94,42.44,42.44,32.94,42.44,21.22C42.44,9.5,32.94,0,21.22,0C9.5,0,0,9.5,0,21.22C0,32.94,9.5,42.44,21.22,42.44C21.22,42.44,21.22,42.44,21.22,42.44Z; M21.22,42.44C32.94,42.44,42.44,32.94,42.44,21.22C42.44,9.5,32.94,0,21.22,0C9.5,0,0,9.5,0,21.22C0,32.94,9.5,42.44,21.22,42.44C21.22,42.44,21.22,42.44,21.22,42.44Z" keyTimes="0; 0.018519; 0.333333; 0.351852; 0.666667; 0.685185; 0.962963; 0.981481; 1" fill="freeze" /></path></g></g></g></g></g></g></g><g transform="matrix(1,0,0,1,16,0)" id="i2"><g id="i8"><g transform="translate(165.2,108.31)"><animateTransform repeatCount="indefinite" type="translate" attributeName="transform" dur="0.9s" begin="0s" calcMode="linear" values="165.2 108.31; 165.2 108.31; 165.39 108.5; 165.39 108.5; 165.2 108.31; 165.2 108.31; 165.2 108.31; 165.2 108.31; 165.2 108.31" keyTimes="0; 0.018519; 0.333333; 0.351852; 0.666667; 0.685185; 0.962963; 0.981481; 1" fill="freeze" /><g transform="translate(-21.22,-21.22)"><animateTransform repeatCount="indefinite" type="translate" attributeName="transform" dur="0.9s" begin="0s" calcMode="linear" values="-21.22 -21.22; -21.22 -21.22; -20 -20.5; -20 -20.5; -21.22 -21.22; -21.22 -21.22; -21.22 -21.22; -21.22 -21.22; -21.22 -21.22" keyTimes="0; 0.018519; 0.333333; 0.351852; 0.666667; 0.685185; 0.962963; 0.981481; 1" fill="freeze" /><g id="i7"><g transform="translate(14.59,17.24)"><animateTransform repeatCount="indefinite" type="translate" attributeName="transform" dur="0.9s" begin="0s" calcMode="linear" values="14.59 17.24; 14.59 17.24; 13 16.5; 13 16.5; 15.91 15.91; 15.91 15.91; 14.59 17.24; 14.59 17.24; 14.59 17.24" keyTimes="0; 0.018519; 0.333333; 0.351852; 0.666667; 0.685185; 0.962963; 0.981481; 1" fill="freeze" /><g transform="translate(-9.28,-9.28)"><animateTransform repeatCount="indefinite" type="translate" attributeName="transform" dur="0.9s" begin="0s" calcMode="linear" values="-9.28 -9.28; -9.28 -9.28; -10 -9.5; -10 -9.5; -8.5 -9; -8.5 -9; -9.28 -9.28; -9.28 -9.28; -9.28 -9.28" keyTimes="0; 0.018519; 0.333333; 0.351852; 0.666667; 0.685185; 0.962963; 0.981481; 1" fill="freeze" /><path d="M9.28,18.57C14.41,18.57,18.57,14.41,18.57,9.28C18.57,4.15,14.41,0,9.28,0C4.15,0,0,4.15,0,9.28C0,14.41,4.15,18.57,9.28,18.57C9.28,18.57,9.28,18.57,9.28,18.57Z" fill="#222222"><animate repeatCount="indefinite" attributeName="d" dur="0.9s" begin="0s" calcMode="linear" values="M9.28,18.57C14.41,18.57,18.57,14.41,18.57,9.28C18.57,4.15,14.41,0,9.28,0C4.15,0,0,4.15,0,9.28C0,14.41,4.15,18.57,9.28,18.57C9.28,18.57,9.28,18.57,9.28,18.57Z; M9.28,18.57C14.41,18.57,18.57,14.41,18.57,9.28C18.57,4.15,14.41,0,9.28,0C4.15,0,0,4.15,0,9.28C0,14.41,4.15,18.57,9.28,18.57C9.28,18.57,9.28,18.57,9.28,18.57Z; M10,19C15.52,19,20,14.75,20,9.5C20,4.25,15.52,0,10,0C4.48,0,0,4.25,0,9.5C0,14.75,4.48,19,10,19C10,19,10,19,10,19Z; M10,19C15.52,19,20,14.75,20,9.5C20,4.25,15.52,0,10,0C4.48,0,0,4.25,0,9.5C0,14.75,4.48,19,10,19C10,19,10,19,10,19Z; M8.5,18C13.19,18,17,13.97,17,9C17,4.03,13.19,0,8.5,0C3.81,0,0,4.03,0,9C0,13.97,3.81,18,8.5,18C8.5,18,8.5,18,8.5,18Z; M8.5,18C13.19,18,17,13.97,17,9C17,4.03,13.19,0,8.5,0C3.81,0,0,4.03,0,9C0,13.97,3.81,18,8.5,18C8.5,18,8.5,18,8.5,18Z; M9.28,18.57C14.41,18.57,18.57,14.41,18.57,9.28C18.57,4.15,14.41,0,9.28,0C4.15,0,0,4.15,0,9.28C0,14.41,4.15,18.57,9.28,18.57C9.28,18.57,9.28,18.57,9.28,18.57Z; M9.28,18.57C14.41,18.57,18.57,14.41,18.57,9.28C18.57,4.15,14.41,0,9.28,0C4.15,0,0,4.15,0,9.28C0,14.41,4.15,18.57,9.28,18.57C9.28,18.57,9.28,18.57,9.28,18.57Z; M9.28,18.57C14.41,18.57,18.57,14.41,18.57,9.28C18.57,4.15,14.41,0,9.28,0C4.15,0,0,4.15,0,9.28C0,14.41,4.15,18.57,9.28,18.57C9.28,18.57,9.28,18.57,9.28,18.57Z" keyTimes="0; 0.018519; 0.333333; 0.351852; 0.666667; 0.685185; 0.962963; 0.981481; 1" fill="freeze" /></path></g></g></g></g></g></g></g><g transform="matrix(1,0,0,1,16,0)" id="i2"><g id="i8"><g transform="translate(165.2,108.31)"><animateTransform repeatCount="indefinite" type="translate" attributeName="transform" dur="0.9s" begin="0s" calcMode="linear" values="165.2 108.31; 165.2 108.31; 165.39 108.5; 165.39 108.5; 165.2 108.31; 165.2 108.31; 165.2 108.31; 165.2 108.31; 165.2 108.31" keyTimes="0; 0.018519; 0.333333; 0.351852; 0.666667; 0.685185; 0.962963; 0.981481; 1" fill="freeze" /><g transform="translate(-21.22,-21.22)"><animateTransform repeatCount="indefinite" type="translate" attributeName="transform" dur="0.9s" begin="0s" calcMode="linear" values="-21.22 -21.22; -21.22 -21.22; -20 -20.5; -20 -20.5; -21.22 -21.22; -21.22 -21.22; -21.22 -21.22; -21.22 -21.22; -21.22 -21.22" keyTimes="0; 0.018519; 0.333333; 0.351852; 0.666667; 0.685185; 0.962963; 0.981481; 1" fill="freeze" /></g></g></g></g><g transform="matrix(1,0,0,1,16,0)" id="i2"><g id="i9"><g transform="translate(135.89,40.5)"><g transform="rotate(0)"><animateTransform repeatCount="indefinite" type="rotate" attributeName="transform" dur="0.9s" begin="0s" calcMode="linear" values="0; 0; -1.21; -1.21; 1.73; 1.73; 0; 0; 0" keyTimes="0; 0.018519; 0.333333; 0.351852; 0.666667; 0.685185; 0.962963; 0.981481; 1" fill="freeze" /><g transform="translate(-29.5,-34.5)"><path d="M46.61,0C50.72,0.11,53.81,1.97,55.84,4.79C57.78,7.49,58.65,10.93,58.9,14.3C59.46,21.93,57.44,28.85,54.63,35.05C51.85,41.17,48.14,46.87,45.32,51.73C43.82,54.31,44.33,58.2,46.19,60.96C47.09,62.3,48.08,63,48.81,63.22C49.34,63.38,50,63.38,50.94,62.53C50.95,62.52,51,62.47,51.07,62.35C51.17,62.19,51.28,61.95,51.44,61.56C53.25,57.09,53.64,52.09,52.67,47.3C52.36,45.76,53.39,44.26,54.96,43.95C56.53,43.64,58.06,44.65,58.37,46.19C59.54,51.98,59.09,58.11,56.84,63.66C56.44,64.65,55.89,65.81,54.89,66.72C52.57,68.82,49.78,69.46,47.12,68.67C44.66,67.94,42.69,66.12,41.33,64.09C38.66,60.11,37.38,53.89,40.27,48.91C43.29,43.71,46.7,38.5,49.32,32.73C51.91,27.03,53.58,21.08,53.11,14.71C52.9,11.92,52.2,9.62,51.09,8.07C50.07,6.65,48.65,5.76,46.46,5.7C43.43,5.62,40.42,7.77,37.76,11.9C37.48,12.33,37.22,12.77,36.96,13.22C37.49,13.68,38.03,14.15,38.56,14.64C39.66,15.64,40.81,17.17,41.76,18.55C42.74,19.98,43.66,21.46,44.25,22.54C46.17,26.03,46.34,29.42,44.74,32.16C43.22,34.77,40.43,36.17,37.74,36.51C35.04,36.86,31.99,36.22,29.73,34.17C27.37,32.04,26.3,28.78,26.9,24.82C26.93,24.65,26.95,24.48,26.98,24.31C27.47,21.4,28.41,18.06,29.76,14.81C27.91,13.45,26.15,12.38,24.51,11.62C21.52,10.24,19.1,9.95,17.11,10.47C15.14,10.99,13.09,12.42,11.1,15.47C9.09,18.55,7.26,23.12,5.74,29.51C5.38,31.04,3.81,32,2.25,31.64C0.69,31.28,-0.28,29.74,0.08,28.21C1.68,21.49,3.7,16.24,6.2,12.4C8.72,8.54,11.85,5.96,15.61,4.97C19.35,3.99,23.22,4.71,26.99,6.46C28.76,7.28,30.56,8.35,32.37,9.62C32.52,9.36,32.68,9.11,32.84,8.86C35.84,4.2,40.43,-0.16,46.61,0C46.61,0,46.61,0,46.61,0Z M34.47,18.69C33.65,20.95,33.06,23.22,32.72,25.24C32.7,25.38,32.67,25.52,32.65,25.66C32.27,28.14,32.99,29.37,33.67,29.98C34.44,30.68,35.68,31.04,36.99,30.87C38.32,30.7,39.27,30.05,39.69,29.33C40.04,28.73,40.36,27.49,39.13,25.25C38.63,24.34,37.83,23,36.95,21.73C36.04,20.41,35.19,19.35,34.6,18.81C34.56,18.77,34.51,18.73,34.47,18.69C34.47,18.69,34.47,18.69,34.47,18.69Z" fill="#000000" /></g></g></g></g></g><g transform="matrix(1,0,0,1,16,0)" id="i2"><g id="i10"><g transform="translate(136.89,151.5)"><animateTransform repeatCount="indefinite" type="translate" attributeName="transform" dur="0.9s" begin="0s" calcMode="linear" values="136.89 151.5; 136.89 151.5; 136.89 151.5; 136.89 151.5; 136.95 151.75; 136.95 151.75; 136.89 151.5; 136.89 151.5; 136.89 151.5" keyTimes="0; 0.018519; 0.333333; 0.351852; 0.666667; 0.685185; 0.962963; 0.981481; 1" fill="freeze" /><g transform="rotate(180) scale(1,-1)"><g transform="translate(-9.5,-15.5)"><animateTransform repeatCount="indefinite" type="translate" attributeName="transform" dur="0.9s" begin="0s" calcMode="linear" values="-9.5 -15.5; -9.5 -15.5; -9.5 -15.5; -9.5 -15.5; -9.56 -15.75; -9.56 -15.75; -9.5 -15.5; -9.5 -15.5; -9.5 -15.5" keyTimes="0; 0.018519; 0.333333; 0.351852; 0.666667; 0.685185; 0.962963; 0.981481; 1" fill="freeze" /><path d="M19,15.5C19,24.06,11.94,31,3.23,31C-5.48,31,6.19,24.06,6.19,15.5C6.19,6.94,-5.48,0,3.23,0C11.94,0,19,6.94,19,15.5C19,15.5,19,15.5,19,15.5Z" fill="#4f4f4f"><animate repeatCount="indefinite" attributeName="d" dur="0.9s" begin="0s" calcMode="linear" values="M19,15.5C19,24.06,11.94,31,3.23,31C-5.48,31,6.19,24.06,6.19,15.5C6.19,6.94,-5.48,0,3.23,0C11.94,0,19,6.94,19,15.5C19,15.5,19,15.5,19,15.5Z; M19,15.5C19,24.06,11.94,31,3.23,31C-5.48,31,6.19,24.06,6.19,15.5C6.19,6.94,-5.48,0,3.23,0C11.94,0,19,6.94,19,15.5C19,15.5,19,15.5,19,15.5Z; M19,15.5C19,24.06,13.21,31,4.5,31C-4.21,31,6.19,24.06,6.19,15.5C6.19,6.94,-5.48,0,3.23,0C11.94,0,19,6.94,19,15.5C19,15.5,19,15.5,19,15.5Z; M19,15.5C19,24.06,13.21,31,4.5,31C-4.21,31,6.19,24.06,6.19,15.5C6.19,6.94,-5.48,0,3.23,0C11.94,0,19,6.94,19,15.5C19,15.5,19,15.5,19,15.5Z; M19.13,13.5C19.13,22.06,14.34,31.5,5.63,31.5C-3.08,31.5,5.63,24.06,5.63,15.5C5.63,6.94,-5.35,0,3.36,0C12.07,0,19.13,4.94,19.13,13.5C19.13,13.5,19.13,13.5,19.13,13.5Z; M19.13,13.5C19.13,22.06,14.34,31.5,5.63,31.5C-3.08,31.5,5.63,24.06,5.63,15.5C5.63,6.94,-5.35,0,3.36,0C12.07,0,19.13,4.94,19.13,13.5C19.13,13.5,19.13,13.5,19.13,13.5Z; M19,15.5C19,24.06,11.94,31,3.23,31C-5.48,31,6.19,24.06,6.19,15.5C6.19,6.94,-5.48,0,3.23,0C11.94,0,19,6.94,19,15.5C19,15.5,19,15.5,19,15.5Z; M19,15.5C19,24.06,11.94,31,3.23,31C-5.48,31,6.19,24.06,6.19,15.5C6.19,6.94,-5.48,0,3.23,0C11.94,0,19,6.94,19,15.5C19,15.5,19,15.5,19,15.5Z; M19,15.5C19,24.06,11.94,31,3.23,31C-5.48,31,6.19,24.06,6.19,15.5C6.19,6.94,-5.48,0,3.23,0C11.94,0,19,6.94,19,15.5C19,15.5,19,15.5,19,15.5Z" keyTimes="0; 0.018519; 0.333333; 0.351852; 0.666667; 0.685185; 0.962963; 0.981481; 1" fill="freeze" /></path></g></g></g></g></g><g transform="matrix(1,0,0,1,16,0)" id="i2"><g id="i11"><g transform="translate(176.29,119.4)"><animateTransform repeatCount="indefinite" type="translate" attributeName="transform" dur="0.9s" begin="0s" calcMode="linear" values="176.29 119.4; 176.29 119.4; 175.29 120.4; 175.29 120.4; 176.29 117.4; 176.29 117.4; 176.29 119.4; 176.29 119.4; 176.29 119.4" keyTimes="0; 0.018519; 0.333333; 0.351852; 0.666667; 0.685185; 0.962963; 0.981481; 1" fill="freeze" /><g transform="translate(-38.1,-38.1)"><animateTransform repeatCount="indefinite" type="translate" attributeName="transform" dur="0.9s" begin="0s" calcMode="linear" values="-38.1 -38.1; -38.1 -38.1; -40.94 -40.94; -40.94 -40.94; -38.73 -38.73; -38.73 -38.73; -38.1 -38.1; -38.1 -38.1; -38.1 -38.1" keyTimes="0; 0.018519; 0.333333; 0.351852; 0.666667; 0.685185; 0.962963; 0.981481; 1" fill="freeze" /><g id="i12"><g transform="translate(27.01,27.01)"><animateTransform repeatCount="indefinite" type="translate" attributeName="transform" dur="0.9s" begin="0s" calcMode="linear" values="27.01 27.01; 27.01 27.01; 30.85 28.85; 30.85 28.85; 27.64 27.64; 27.64 27.64; 27.01 27.01; 27.01 27.01; 27.01 27.01" keyTimes="0; 0.018519; 0.333333; 0.351852; 0.666667; 0.685185; 0.962963; 0.981481; 1" fill="freeze" /><g transform="translate(-25.08,-25.08)"></g></g></g></g></g></g></g><g transform="matrix(1,0,0,1,16,0)" id="i2"><g id="i11"><g transform="translate(176.29,119.4)"><animateTransform repeatCount="indefinite" type="translate" attributeName="transform" dur="0.9s" begin="0s" calcMode="linear" values="176.29 119.4; 176.29 119.4; 175.29 120.4; 175.29 120.4; 176.29 117.4; 176.29 117.4; 176.29 119.4; 176.29 119.4; 176.29 119.4" keyTimes="0; 0.018519; 0.333333; 0.351852; 0.666667; 0.685185; 0.962963; 0.981481; 1" fill="freeze" /><g transform="translate(-38.1,-38.1)"><animateTransform repeatCount="indefinite" type="translate" attributeName="transform" dur="0.9s" begin="0s" calcMode="linear" values="-38.1 -38.1; -38.1 -38.1; -40.94 -40.94; -40.94 -40.94; -38.73 -38.73; -38.73 -38.73; -38.1 -38.1; -38.1 -38.1; -38.1 -38.1" keyTimes="0; 0.018519; 0.333333; 0.351852; 0.666667; 0.685185; 0.962963; 0.981481; 1" fill="freeze" /><g id="i3"><g transform="translate(38.1,38.1)"><animateTransform repeatCount="indefinite" type="translate" attributeName="transform" dur="0.9s" begin="0s" calcMode="linear" values="38.1 38.1; 38.1 38.1; 40.94 40.94; 40.94 40.94; 38.73 38.73; 38.73 38.73; 38.1 38.1; 38.1 38.1; 38.1 38.1" keyTimes="0; 0.018519; 0.333333; 0.351852; 0.666667; 0.685185; 0.962963; 0.981481; 1" fill="freeze" /><g transform="rotate(0)"><animateTransform repeatCount="indefinite" type="rotate" attributeName="transform" dur="0.9s" begin="0s" calcMode="linear" values="0; 0; 4.45; 4.45; 0.96; 0.96; 0; 0; 0" keyTimes="0; 0.018519; 0.333333; 0.351852; 0.666667; 0.685185; 0.962963; 0.981481; 1" fill="freeze" /><g transform="translate(-38.1,-38.1)"><path d="M27.01,0C41.93,0,54.01,12.09,54.01,27.01C54.01,32.73,52.24,38.03,49.21,42.39C49.21,42.39,74.79,67.97,74.79,67.97C76.67,69.85,76.67,72.91,74.79,74.79C72.91,76.67,69.85,76.67,67.97,74.79C67.97,74.79,42.39,49.21,42.39,49.21C38.03,52.24,32.73,54.01,27.01,54.01C12.09,54.01,0,41.93,0,27.01C0,12.09,12.09,0,27.01,0C27.01,0,27.01,0,27.01,0Z M27.01,3.86C14.23,3.86,3.86,14.23,3.86,27.01C3.86,39.79,14.23,50.16,27.01,50.16C39.79,50.16,50.16,39.79,50.16,27.01C50.16,14.23,39.79,3.86,27.01,3.86C27.01,3.86,27.01,3.86,27.01,3.86Z" fill="url(#i1)" fill-rule="evenodd" clip-rule="evenodd" /></g></g></g></g></g></g></g></g><g transform="matrix(1,0,0,1,16,0)" id="i2"><g id="i11"><g transform="translate(176.29,119.4)"><animateTransform repeatCount="indefinite" type="translate" attributeName="transform" dur="0.9s" begin="0s" calcMode="linear" values="176.29 119.4; 176.29 119.4; 175.29 120.4; 175.29 120.4; 176.29 117.4; 176.29 117.4; 176.29 119.4; 176.29 119.4; 176.29 119.4" keyTimes="0; 0.018519; 0.333333; 0.351852; 0.666667; 0.685185; 0.962963; 0.981481; 1" fill="freeze" /><g transform="translate(-38.1,-38.1)"><animateTransform repeatCount="indefinite" type="translate" attributeName="transform" dur="0.9s" begin="0s" calcMode="linear" values="-38.1 -38.1; -38.1 -38.1; -40.94 -40.94; -40.94 -40.94; -38.73 -38.73; -38.73 -38.73; -38.1 -38.1; -38.1 -38.1; -38.1 -38.1" keyTimes="0; 0.018519; 0.333333; 0.351852; 0.666667; 0.685185; 0.962963; 0.981481; 1" fill="freeze" /></g></g></g></g><g transform="matrix(1,0,0,1,16,0)" id="i2" /></g></svg>