<svg width="51" height="51" viewBox="0 0 51 51" fill="none" xmlns="http://www.w3.org/2000/svg">
<path d="M24.8291 9.05791C25.049 8.56704 25.3923 8.14143 25.8254 7.82248L31.9861 3.286C33.9435 1.84469 36.724 3.09876 36.9393 5.51996L37.617 13.1406C37.6647 13.6764 37.5729 14.2154 37.3505 14.7052L23.2808 45.6998C23.1207 46.0658 22.889 46.396 22.5995 46.6712C22.3099 46.9464 21.9683 47.161 21.5947 47.3024C21.2211 47.4437 20.823 47.509 20.4239 47.4944C20.0247 47.4798 19.6324 47.3855 19.2701 47.2172L12.4171 44.1032C12.0556 43.9419 11.7296 43.7107 11.4579 43.4228C11.1862 43.1349 10.9742 42.796 10.8341 42.4258C10.694 42.0555 10.6286 41.6612 10.6417 41.2656C10.6548 40.8699 10.7461 40.4808 10.9103 40.1206L24.8291 9.05791Z" fill="#F4B898"/>
<path d="M31.9863 3.28509C33.9436 1.84382 36.724 3.0974 36.9395 5.51849L37.4697 11.4872C36.7125 11.3847 35.8641 11.1038 35.4053 10.3935C35.1684 10.0267 35.2106 9.76191 34.8613 9.49993C34.3927 9.14871 33.8997 9.73066 33.3613 9.49993C32.8538 9.28234 32.8689 8.71747 32.3613 8.49993C31.823 8.26931 31.3997 8.73067 30.8613 8.49993C30.3538 8.28236 30.3091 7.82314 29.8613 7.49993C29.1428 6.98142 28.0111 6.88083 27.0625 6.90911L31.9863 3.28509Z" fill="#601B00"/>
<path d="M23.769 44.623L23.2807 45.7002C23.1206 46.0658 22.8893 46.3959 22.6 46.6709C22.3105 46.9461 21.9687 47.1614 21.5951 47.3027C21.2216 47.4441 20.8234 47.5087 20.4242 47.4941C20.0251 47.4795 19.6322 47.3851 19.2699 47.2168L12.4174 44.1035C12.056 43.9423 11.7301 43.7106 11.4584 43.4229C11.1867 43.135 10.9745 42.796 10.8344 42.4258C10.6943 42.0556 10.6289 41.6612 10.642 41.2656C10.6551 40.87 10.7463 40.4803 10.9106 40.1201L11.3871 39.0557L23.769 44.623Z" fill="#000140"/>
</svg>
