<svg width="50" height="49" viewBox="0 0 50 49" fill="none" xmlns="http://www.w3.org/2000/svg">
<path d="M34.1354 0.432433C36.7033 -0.273922 39.4331 -0.111469 41.8991 0.894347C41.8991 0.894347 33.6451 9.24202 36.5534 12.9539C39.4624 16.6656 49.2858 10.3192 49.2858 10.3192C49.6732 12.9539 49.1788 15.643 47.8796 17.9676C46.58 20.2923 44.5477 22.1224 42.1003 23.1727C39.9166 24.1097 37.512 24.3763 35.1862 23.9549L24.109 35.033C24.1251 35.2292 24.1387 35.4264 24.1452 35.6238C24.2323 38.2855 23.4371 40.9014 21.8835 43.0643C20.3296 45.2273 18.1038 46.8158 15.5534 47.5828C13.0032 48.3498 10.2709 48.2524 7.7819 47.3055C7.80835 47.2774 15.225 39.3997 13.1344 35.5623L12.0173 34.4451C8.38314 32.4737 0.173501 38.0584 0.173501 38.0584C-0.276243 35.4334 0.154066 32.7326 1.39811 30.3777C2.64209 28.0231 4.62983 26.1459 7.05143 25.0379C9.36447 23.9797 11.9497 23.682 14.4381 24.1785L25.3249 13.2908C25.2878 12.9246 25.2667 12.5558 25.2633 12.1854C25.2393 9.52221 26.0962 6.92518 27.7008 4.79962C29.3055 2.67424 31.5677 1.1388 34.1354 0.432433Z" fill="url(#paint0_linear_26_429)"/>
<defs>
<linearGradient id="paint0_linear_26_429" x1="24.9996" y1="5.5" x2="24.7071" y2="48.0945" gradientUnits="userSpaceOnUse">
<stop stop-color="#5383FF"/>
<stop offset="1" stop-color="#324F99"/>
</linearGradient>
</defs>
</svg>
