<svg width="143" height="51" viewBox="0 0 143 51" fill="none" xmlns="http://www.w3.org/2000/svg">
<path d="M143 34.0519C143 44.0361 110.988 51 71.5 51C32.0116 51 0 44.0361 0 34.0519C0 24.0678 32.0116 22 71.5 22C110.988 22 143 24.0678 143 34.0519Z" fill="#BF9818"/>
<path d="M135 29C135 42.2548 106.794 46 72 46C37.2061 46 9 42.2548 9 29C9 15.7452 37.2061 5 72 5C106.794 5 135 15.7452 135 29Z" fill="#EBB607"/>
<path d="M63.6398 3.60199C63.8443 1.55718 65.5649 0 67.62 0H75.38C77.4351 0 79.1557 1.55718 79.3602 3.60199L82.5602 35.602C82.7957 37.9567 80.9465 40 78.58 40H64.42C62.0535 40 60.2043 37.9567 60.4398 35.602L63.6398 3.60199Z" fill="#BF9818"/>
<path d="M85 7C85 4.79086 86.7909 3 89 3H93C95.2091 3 97 4.79086 97 7V36C97 38.2091 95.2091 40 93 40H89C86.7909 40 85 38.2091 85 36V7Z" fill="#BF9818"/>
<path d="M46 7C46 4.79086 47.7909 3 50 3H54C56.2091 3 58 4.79086 58 7V36C58 38.2091 56.2091 40 54 40H50C47.7909 40 46 38.2091 46 36V7Z" fill="#BF9818"/>
</svg>
