<svg width="79" height="79" viewBox="0 0 79 79" fill="none" xmlns="http://www.w3.org/2000/svg">
<mask id="mask0_471_3360" style="mask-type:alpha" maskUnits="userSpaceOnUse" x="0" y="0" width="79" height="79">
<rect y="14.6133" width="66" height="66" transform="rotate(-12.7919 0 14.6133)" fill="#D9D9D9"/>
</mask>
<g mask="url(#mask0_471_3360)">
<path d="M26.1952 67.8849C24.7202 68.2198 23.3383 67.9813 22.0495 67.1695C20.7607 66.3576 19.9488 65.2142 19.6139 63.7392L11.0896 26.1948C10.7547 24.7198 10.9932 23.3379 11.8051 22.0491C12.6169 20.7602 13.7603 19.9484 15.2353 19.6135L26.4986 17.0562C26.7144 15.3152 27.3922 13.7983 28.5322 12.5055C29.6721 11.2127 31.0913 10.3735 32.7898 9.98784C34.4882 9.60222 36.1307 9.7463 37.7171 10.4201C39.3036 11.0939 40.5701 12.1693 41.5164 13.6465L52.7798 11.0892C54.2547 10.7543 55.6366 10.9928 56.9254 11.8046C58.2143 12.6165 59.0261 13.7599 59.361 15.2349L67.8854 52.7793C68.2202 54.2543 67.9817 55.6362 67.1699 56.925C66.358 58.2139 65.2146 59.0257 63.7396 59.3606L26.1952 67.8849ZM31.8049 55.3313L45.2136 52.2869C45.9734 52.1144 46.552 51.7128 46.9493 51.0821C47.3466 50.4514 47.459 49.7561 47.2865 48.9963C47.114 48.2364 46.7124 47.6579 46.0817 47.2606C45.451 46.8633 44.7557 46.7509 43.9959 46.9234L30.5871 49.9678C29.8273 50.1403 29.2487 50.5419 28.8514 51.1726C28.4541 51.8034 28.3417 52.4986 28.5143 53.2584C28.6868 54.0183 29.0884 54.5968 29.7191 54.9941C30.3498 55.3914 31.0451 55.5038 31.8049 55.3313ZM29.3694 44.6043L50.8233 39.7333C51.5832 39.5608 52.1617 39.1591 52.559 38.5284C52.9563 37.8977 53.0687 37.2025 52.8962 36.4426C52.7237 35.6828 52.3221 35.1043 51.6914 34.707C51.0607 34.3097 50.3654 34.1973 49.6056 34.3698L28.1516 39.2408C27.3918 39.4133 26.8132 39.815 26.4159 40.4457C26.0186 41.0764 25.9062 41.7716 26.0787 42.5315C26.2513 43.2913 26.6529 43.8699 27.2836 44.2672C27.9143 44.6645 28.6095 44.7768 29.3694 44.6043ZM26.9338 33.8773L48.3878 29.0063C49.1476 28.8338 49.7262 28.4322 50.1235 27.8015C50.5208 27.1708 50.6332 26.4755 50.4607 25.7157C50.2882 24.9558 49.8865 24.3773 49.2558 23.98C48.6251 23.5827 47.9299 23.4703 47.17 23.6428L25.7161 28.5138C24.9562 28.6864 24.3777 29.088 23.9804 29.7187C23.5831 30.3494 23.4707 31.0446 23.6432 31.8045C23.8157 32.5643 24.2173 33.1429 24.848 33.5402C25.4787 33.9375 26.174 34.0499 26.9338 33.8773ZM36.0807 17.8064C36.3743 17.3402 36.4552 16.8166 36.3233 16.2355C36.1914 15.6545 35.8923 15.2171 35.4261 14.9235C34.96 14.6298 34.4364 14.549 33.8553 14.6809C33.2743 14.8128 32.8369 15.1119 32.5433 15.578C32.2496 16.0442 32.1687 16.5678 32.3007 17.1489C32.4326 17.7299 32.7316 18.1673 33.1978 18.4609C33.664 18.7546 34.1876 18.8354 34.7686 18.7035C35.3497 18.5716 35.787 18.2725 36.0807 17.8064Z" fill="#2B94F0"/>
<rect x="20.01" y="25.9648" width="33" height="35" rx="3" transform="rotate(-12.7919 20.01 25.9648)" fill="#FFECB5"/>
<path d="M29.3613 31.0195L46.9146 27.0341" stroke="#2B94F0" stroke-width="3" stroke-linecap="round"/>
<path d="M31.5754 40.7715L49.1287 36.7861" stroke="#2B94F0" stroke-width="3" stroke-linecap="round"/>
<path d="M33.7896 50.5234L51.3428 46.538" stroke="#2B94F0" stroke-width="3" stroke-linecap="round"/>
</g>
</svg>
