<svg width="62" height="58" viewBox="0 0 62 58" fill="none" xmlns="http://www.w3.org/2000/svg">
<path d="M61.4904 23.1858C60.8356 35.3184 50.4694 44.623 38.3368 43.9682C33.1181 43.6866 28.4241 41.6065 24.8194 38.3635L4.17041 56.8987C3.1429 57.821 1.56169 57.7357 0.639417 56.7082C-0.282804 55.6806 -0.197505 54.0994 0.829981 53.1772L21.5035 34.6217C18.7736 30.73 17.2783 25.9296 17.5544 20.8146C18.2092 8.68204 28.5754 -0.622557 40.708 0.0321817C52.8406 0.686966 62.1452 11.0532 61.4904 23.1858ZM58.4948 23.0241C59.0603 12.546 51.0245 3.59332 40.5463 3.02782C30.0682 2.46237 21.1155 10.4982 20.55 20.9763C19.9845 31.4544 28.0204 40.4071 38.4985 40.9726C48.9766 41.5381 57.9293 33.5023 58.4948 23.0241Z" fill="url(#paint0_linear_26_1048)"/>
<defs>
<linearGradient id="paint0_linear_26_1048" x1="58.404" y1="-4.48206" x2="19.0648" y2="57.4646" gradientUnits="userSpaceOnUse">
<stop stop-color="#FFEF75"/>
<stop offset="1" stop-color="#FFC800"/>
</linearGradient>
</defs>
</svg>
