<svg width="57" height="57" viewBox="0 0 57 57" fill="none" xmlns="http://www.w3.org/2000/svg">
<path d="M56.415 22C56.415 34.1503 46.5653 44 34.415 44C29.0862 44 24.2005 42.1045 20.3936 38.9521C20.3732 38.9813 20.3524 39.0108 20.332 39.04C16.9863 43.844 13.6407 48.6481 10.2949 53.4521C10.109 53.719 9.92221 53.987 9.73633 54.2539C8.89203 55.4721 7.65687 56.215 6.19531 56.2119C4.74004 56.2149 3.17738 55.4721 1.95898 54.2539C0.740486 53.0354 -0.00303604 51.4721 -2.1863e-06 50.0166C-0.00308946 48.5548 0.740442 47.3199 1.95898 46.4756C2.22584 46.2897 2.4929 46.1028 2.75976 45.917C7.56393 42.5711 12.3687 39.2257 17.1728 35.8799C17.2103 35.8538 17.2477 35.8278 17.2852 35.8018C14.2401 32.0272 12.415 27.2273 12.415 22C12.415 9.84976 22.2648 4.20175e-05 34.415 -9.61651e-07C46.5653 -4.30546e-07 56.415 9.84974 56.415 22ZM53.415 22C53.415 11.5066 44.9084 3 34.415 3C23.9217 3.00004 15.415 11.5066 15.415 22C15.415 32.4934 23.9217 41 34.415 41C44.9084 41 53.415 32.4934 53.415 22Z" fill="#81BA85"/>
</svg>
