<svg width="65" height="83" viewBox="0 0 65 83" fill="none" xmlns="http://www.w3.org/2000/svg">
<path d="M14.191 79.8261C12.3156 79.1414 11.3504 77.0662 12.0351 75.1909L24.4315 41.2354L31.2226 43.7147L18.8261 77.6702C18.1415 79.5455 16.0663 80.5107 14.191 79.8261Z" fill="#4D2101"/>
<path d="M20.2817 52.6011L24.4316 41.2341L31.2227 43.7134L27.0728 55.0804L20.2817 52.6011Z" fill="#777777"/>
<path d="M36.5495 13.8526C36.9351 13.2491 37.8826 13.4196 38.0062 14.125L41.2976 32.8985C42.7177 40.9988 34.8364 47.5989 27.1112 44.7786C18.8796 41.7734 18.0832 31.4556 25.1065 26.2149C29.2224 23.1436 32.975 19.4471 36.5495 13.8526Z" fill="#C7A582"/>
<path d="M22.9541 28.2555C23.5643 27.5192 24.2817 26.8321 25.1074 26.216C29.2231 23.1449 32.9751 19.4482 36.5494 13.8541C36.935 13.2507 37.8826 13.421 38.0064 14.1262L41.2979 32.9003C41.3302 33.0848 41.3556 33.2687 41.3784 33.4515C39.1164 31.7662 36.0192 30.0068 35.3546 32.3959C35.7214 34.4935 27.8259 34.4041 30.8275 30.7432C33.8295 27.0821 26.7667 26.0539 26.8655 29.2968C26.9416 31.7973 24.2092 29.457 22.9541 28.2555Z" fill="#3F9996"/>
<path d="M40.0306 25.6724C39.4645 25.568 39.1253 25.3218 39.6153 24.7748C39.7103 24.6687 39.7734 24.5567 39.8145 24.4439L40.0306 25.6724ZM36.5495 13.8525C36.9351 13.2494 37.8823 13.4201 38.0061 14.1252L39.6471 23.4875C39.0515 22.6197 37.4696 22.198 37.4458 23.9831C37.4114 26.5754 34.0727 23.8269 34.9665 23.0779C35.7417 21.3821 31.8363 21.3441 30.6511 21.3705C32.6854 19.2743 34.6443 16.8343 36.5495 13.8525Z" fill="#C672C1"/>
</svg>
