<svg width="144" height="160" viewBox="0 0 144 160" fill="none" xmlns="http://www.w3.org/2000/svg">
<path d="M88.8281 116.97H53.5546C53.5546 116.97 51.0784 127.559 48.7011 133.513C46.3239 139.468 18.5231 137.968 17.0507 133.513C15.5784 129.059 46.5781 41.5584 54.7168 33.2983C62.8554 25.0382 83.2226 27.5394 88.4863 33.2983C93.7499 39.0572 129.726 127.21 126.152 133.513C122.578 139.816 99.0784 138.059 93.7499 133.513C88.4215 128.968 88.8281 116.97 88.8281 116.97ZM83.3339 96.3003L78.0909 74.1435C76.3898 66.9547 66.1571 66.9612 64.4651 74.1521L59.2539 96.3003H83.3339Z" fill="#EFA2AE" stroke="#EFA2AE" stroke-width="12" stroke-linecap="round" stroke-linejoin="round"/>
</svg>
