<svg width="144" height="160" viewBox="0 0 144 160" fill="none" xmlns="http://www.w3.org/2000/svg">
<path d="M97.0332 95C102.092 91 117.086 93.8203 118.533 99C119.98 104.18 117.786 111.148 113.867 116.252C109.948 121.356 105.072 125.207 99.2383 127.805C93.4505 130.402 86.0677 131.701 77.0898 131.701C66.1979 131.701 57.2884 130.129 50.3613 126.984C43.4798 123.794 37.5326 118.212 32.5195 110.236C27.5065 102.261 25 92.0527 25 79.6113C25 63.0228 29.3978 50.2852 38.1934 41.3984C47.0345 32.4661 59.5215 28 75.6543 28C88.278 28 98.1901 30.5521 105.391 35.6562C112.637 40.7604 117.033 47.7598 117.033 53.0879C117.033 58.416 95.1367 68.3092 94.1797 65.2559C93.2227 62.2025 92.2201 59.9694 91.1719 58.5566C89.4401 56.1868 87.321 54.3639 84.8145 53.0879C82.3079 51.8118 79.5052 51.1738 76.4062 51.1738C69.388 51.1738 64.0104 53.9993 60.2734 59.6504C57.4479 63.8431 56.0352 70.4284 56.0352 79.4062C56.0352 90.526 57.7214 98.1595 61.0938 102.307C64.4661 106.408 69.2057 108.459 75.3125 108.459C81.237 108.459 85.7031 106.796 88.7109 103.469C91.7643 100.142 91.9746 99 97.0332 95Z" fill="#81BA85" stroke="#81BA85" stroke-width="12" stroke-linecap="round" stroke-linejoin="round"/>
</svg>
