<svg width="144" height="160" viewBox="0 0 144 160" fill="none" xmlns="http://www.w3.org/2000/svg">
<path d="M36.9346 36.8876C53.4551 22.2404 110.684 26.8869 114.443 31.74C118.203 36.593 114.26 42.7497 110.5 44.5C106.74 46.2503 62.4904 46.5 62.4904 46.5V70.5C62.4904 70.5 92.4337 69.568 94.6837 70.5C96.9337 71.432 96.9337 83.3868 94.6837 83.9548C92.4337 84.5229 62.4904 83.9548 62.4904 83.9548V109.259C62.4904 109.259 111.217 106.132 115.947 109.259C120.678 112.387 118.934 128.387 115.947 131.955C112.961 135.523 49.4349 133.689 36.9345 123.888C24.4341 114.087 20.4141 51.5348 36.9346 36.8876Z" fill="#E9D055" stroke="#E9D055" stroke-width="12" stroke-linecap="round" stroke-linejoin="round"/>
</svg>
