<svg width="144" height="160" viewBox="0 0 144 160" fill="none" xmlns="http://www.w3.org/2000/svg">
<path d="M27.7337 129.415C21.7335 123.415 18.6027 35.027 27.7337 29.2002C35.2343 24.4138 78.2337 26.4151 78.2337 26.4151C78.2337 26.4151 93.0931 27.4072 101.288 31.6611C106.586 34.4111 110.426 36.3551 113.525 40.8213C116.624 45.2418 118.173 50.6422 118.173 57.0224C118.173 62.5823 116.988 67.3902 114.619 71.4462C112.249 75.4566 108.99 78.7151 104.843 81.2216C102.2 82.8167 98.5769 84.1383 93.974 85.1865C97.6654 86.4169 100.354 87.6474 102.04 88.8779C103.18 89.6982 104.82 91.4527 106.962 94.1415C109.15 96.8304 110.608 98.9039 111.337 100.362C111.337 100.362 121.734 120.413 121.734 126.413C121.734 132.413 103.479 137.291 92.308 129.415C82.5 122.5 78.5 99.5 78.5 99.5C77.7351 94.71 74.6406 92.1849 73 91C70.7669 89.4505 67.3971 88.7411 64.5716 88.7411H56.8372C56.8372 88.7411 71.4549 119.766 58.8372 129.415C49.1884 136.793 33.7339 135.415 27.7337 129.415ZM58.8372 69.8056H71.8938C73.3066 69.8056 76.041 69.3499 80.097 68.4384C82.1478 68.0283 83.8112 66.9801 85.0872 65.2939C86.4088 63.6077 87.0697 61.6708 87.0697 59.4833C87.0697 56.2477 86.0443 53.764 83.9935 52.0322C81.9427 50.3004 78.0918 49.4345 72.4407 49.4345H58.8372V69.8056Z" fill="#A9C1F9" stroke="#A9C1F9" stroke-width="12" stroke-linecap="round" stroke-linejoin="round"/>
</svg>
