<svg width="144" height="160" viewBox="0 0 144 160" fill="none" xmlns="http://www.w3.org/2000/svg">
<path d="M27.0182 98.3311C26.1517 87.69 56.5018 96.3898 56.5018 96.3898C57.1402 101.423 58.44 105.257 60.401 107.894C63.5933 112.16 68.1538 114.293 74.0825 114.293C78.5061 114.293 81.9037 113.214 84.2752 111.057C86.6922 108.852 87.9008 106.312 87.9008 103.436C87.9008 100.704 86.7606 98.2592 84.4804 96.1022C82.2001 93.9453 76.91 91.9081 68.6099 89.9908C55.0196 86.7792 45.3286 82.5132 39.5368 77.1926C33.6993 71.872 30.7806 65.0895 30.7806 56.845C30.7806 51.4285 32.2628 46.3237 35.2271 41.5303C38.237 36.6891 42.7291 32.9024 48.7033 30.1702C54.7232 27.3901 62.9549 26 73.3984 26C86.2134 26 95.9728 28.5165 102.677 33.5495C109.426 38.5345 113.44 46.4914 114.716 57.4202C115.993 68.3489 85.5065 57.2177 85.5065 57.2177C84.7312 52.4723 83.0894 49.0211 80.5812 46.8641C78.1185 44.7071 74.6981 43.6286 70.3201 43.6286C66.7173 43.6286 64.0038 44.4435 62.1796 46.0732C60.3554 47.655 59.4433 49.5963 59.4433 51.8971C59.4433 53.5748 60.1958 58.0847 61.7007 59.4268C63.1601 60.8168 66.6261 63.111 72.0987 64.3094C85.6433 67.3771 95.3344 68.4927 101.172 71.6563C107.055 74.772 111.319 78.6546 113.964 83.3041C116.655 87.9536 118 93.1544 118 98.9063C118 105.665 116.221 111.896 112.664 117.6C109.107 123.304 104.136 127.642 97.7514 130.614C91.3667 133.538 83.3175 135 73.6036 135C56.5474 135 44.7357 131.549 38.1686 124.646C31.6015 117.744 27.8847 108.972 27.0182 98.3311Z" fill="#F2A03D" stroke="#F2A03D" stroke-width="12" stroke-linecap="round" stroke-linejoin="round"/>
</svg>
