<svg width="85" height="95" viewBox="0 0 85 95" fill="none" xmlns="http://www.w3.org/2000/svg">
<path d="M41.585 0.539883L41.7433 0.853258L83.6725 84.2991L83.996 84.9429L66.298 86.9551L66.1436 86.6324L55.7419 64.9029L23.5726 68.5604L18.4363 92.0545L18.3594 92.4055L0.659568 94.4179L0.830246 93.718L22.9565 2.98924L23.0404 2.64833L41.585 0.539883ZM34.0158 16.7385C33.8294 17.9192 33.6086 19.2026 33.3465 20.5873C33.0155 22.7557 32.6709 24.804 32.3121 26.7319C32.0355 28.6433 31.7886 30.1131 31.5703 31.135L31.5697 31.139L31.5688 31.1391L26.5619 53.6748L49.7343 51.0402L39.9131 30.1884L39.9079 30.1771L39.9037 30.1667C39.453 29.0801 38.7921 27.6048 37.9204 25.7382C37.0466 23.867 36.169 21.9548 35.286 20.0028L35.2809 19.9925L35.2767 19.9811C34.8 18.7801 34.3799 17.699 34.0158 16.7385Z" fill="#FFD108" stroke="#FBBF24"></path>
</svg>