<svg width="85" height="103" viewBox="0 0 85 103" fill="none" xmlns="http://www.w3.org/2000/svg">
<path d="M28.959 0.73012L30.5659 0.632213C38.5159 0.209539 45.2248 0.808917 50.6782 2.44888C56.5015 4.20008 60.9926 7.17951 64.1155 11.4034L64.4044 11.7945C67.3406 15.871 69.0121 21.1158 69.4515 27.4958C69.7846 32.3327 69.143 36.5677 67.5011 40.182C65.9666 43.7555 63.8315 46.8143 61.0955 49.3523L61.0882 49.3597C58.5148 51.6535 55.7071 53.5876 52.6674 55.164L83.4857 95.9815L84.0426 96.7191L63.0289 98.1662L62.8669 97.9361L36.8321 60.957L23.3075 61.8884L25.9816 100.718L7.37343 101.999L0.534229 2.68763L28.959 0.73012ZM22.2431 46.4318L31.5101 45.7936C38.7176 45.2972 43.7141 43.6638 46.62 40.9902C49.6032 38.2258 50.953 34.3723 50.6071 29.3477C50.3653 25.8366 49.4126 23.1594 47.799 21.2621L47.7926 21.2537C46.1668 19.2622 43.8287 17.9116 40.7342 17.2276L40.7253 17.2262L40.7172 17.2238C37.6933 16.4411 33.774 16.2061 28.9422 16.5388L20.2258 17.1391L22.2431 46.4318Z" fill="#FFD108" stroke="#FBBF24"></path>
</svg>