<svg width="71" height="85" viewBox="0 0 71 85" fill="none" xmlns="http://www.w3.org/2000/svg">
<path d="M48.1404 1.54215C52.1451 2.37266 55.9771 3.66971 59.6344 5.43366L59.6334 5.43346C63.3702 7.13483 66.7752 9.15363 69.8467 11.4909L70.2273 11.7813L69.9563 12.1749L62.7138 22.7305L62.4224 23.155L62.0049 22.854C59.4896 21.0391 56.8341 19.3468 54.0378 17.7773L54.0317 17.773L54.0254 17.7697C51.3496 16.1619 48.4983 15.0445 45.4704 14.4166C41.9336 13.6831 38.6787 13.6853 35.698 14.4077C32.7113 15.1316 29.9988 16.5094 27.5561 18.5461L27.5553 18.545C25.1857 20.5971 23.1326 23.2495 21.3999 26.5107C19.7407 29.7872 18.4559 33.6053 17.5506 37.9704C16.3266 43.8722 16.0836 49.0769 16.8034 53.593C17.5365 58.0243 19.2867 61.6676 22.0408 64.5467C24.8607 67.4331 28.7466 69.4068 33.7365 70.4417C37.08 71.1351 40.3425 71.471 43.524 71.4505C46.8136 71.3716 50.2974 71.1043 53.9758 70.6475L54.6721 70.5605L51.9722 83.579L51.6409 83.6405C48.1031 84.2979 44.6024 84.5764 41.14 84.4775L41.1407 84.4786C37.751 84.3949 33.9149 83.9068 29.6353 83.0193C21.4937 81.3309 15.0604 78.2607 10.3737 73.7799L10.3695 73.776C5.70782 69.2296 2.70715 63.6251 1.36655 56.979L1.36599 56.9769C0.0440732 50.2727 0.241893 42.8173 1.94202 34.6192C3.18424 28.6293 5.13545 23.3133 7.80075 18.6781L7.80387 18.6727C10.5416 14.056 13.8517 10.2437 17.7361 7.24426L17.741 7.24025C21.7069 4.25098 26.2471 2.23928 31.3532 1.20263C36.4681 0.164282 42.0662 0.282472 48.1404 1.54215Z" fill="#FFD108" stroke="#FBBF24"></path>
</svg>