<svg width="64" height="86" viewBox="0 0 64 86" fill="none" xmlns="http://www.w3.org/2000/svg">
<path d="M40.2816 0.982834C44.5973 1.61472 48.5876 2.66604 52.2503 4.13935C55.9029 5.60863 59.4608 7.45291 62.9225 9.67119L63.3252 9.92962L63.0867 10.3452L56.758 21.3503L56.4985 21.8005L56.0564 21.5264C52.9807 19.6175 49.9769 18.0282 47.0449 16.7567C44.1287 15.492 41.078 14.6258 37.8919 14.1593C35.3907 13.7931 33.228 13.8927 31.3906 14.4349L31.3739 14.4404C29.5453 14.9108 28.1286 15.7602 27.0942 16.9743C26.0509 18.1988 25.3914 19.7053 25.1267 21.5129C24.8187 23.6164 25.1023 25.4387 25.9479 27.0056C26.8083 28.5997 28.2664 30.2357 30.3555 31.908L31.2108 32.5323C33.2786 34.0191 35.8445 35.7283 38.9105 37.6607L39.6714 38.1363C43.4338 40.5153 46.599 42.8798 49.1622 45.2307C51.9179 47.7582 53.9325 50.6183 55.1946 53.8104C56.4663 57.0268 56.7709 60.7947 56.1418 65.0919C55.432 69.9393 53.6282 73.9859 50.7153 77.2065C47.8038 80.4254 43.9419 82.6585 39.156 83.921C34.4412 85.1955 29.0118 85.374 22.8791 84.4761C19.9288 84.0441 17.1168 83.4385 14.4447 82.6577L14.4448 82.6567C11.8406 81.9634 9.3749 81.0969 7.04896 80.0546L7.04536 80.0521C4.7935 79.02 2.7124 77.8567 0.803876 76.5602L0.543027 76.3831L2.69356 61.695L3.34821 62.1104C6.48573 64.1042 9.97858 66.0371 13.8277 67.9078C17.6622 69.6908 21.6584 70.8871 25.8156 71.4958C29.0027 71.9624 31.6171 71.9246 33.6788 71.4136C35.8444 70.833 37.4654 69.8918 38.5817 68.6157C39.721 67.2506 40.4384 65.5995 40.7245 63.6453C41.042 61.4769 40.7002 59.5732 39.7207 57.9086C38.7201 56.2081 37.1115 54.5051 34.866 52.8068C32.6067 51.0979 29.7543 49.2211 26.306 47.1763L26.3005 47.1735C23.9645 45.7445 21.6828 44.2061 19.4561 42.5604L19.4489 42.5553L19.4409 42.5492C17.2785 40.8206 15.3835 38.8555 13.7565 36.6551C12.1171 34.4377 10.915 31.9309 10.1494 29.139C9.37707 26.3226 9.25896 23.1432 9.77589 19.6126C10.463 14.92 12.1674 11.0152 14.9069 7.92317L14.9118 7.91694L15.448 7.35241C18.1712 4.58297 21.5645 2.64768 25.6136 1.54228L25.6168 1.54076C30.0047 0.374952 34.896 0.194304 40.2816 0.982834Z" fill="#FFD108" stroke="#FBBF24"></path>
</svg>