<svg width="213" height="176" viewBox="0 0 213 176" fill="none" xmlns="http://www.w3.org/2000/svg">
<path d="M19.5263 109.875C25.4302 115.757 33.4716 119.492 42.2567 119.674C44.3698 119.718 46.0493 118.032 45.9973 115.919C45.9453 113.806 44.1812 112.049 42.0681 112.005C28.7436 111.729 17.6376 100.665 17.3099 87.3421C17.258 85.2291 15.4938 83.4718 13.3807 83.428C11.2676 83.3841 9.58812 85.0701 9.64008 87.183C9.84608 95.9574 13.6224 103.994 19.5263 109.875Z" fill="#231F20" stroke="#231F20" stroke-width="0.766008" stroke-miterlimit="10"/>
<path d="M191.039 86.4293C182.856 88.0029 174.101 86.6023 166.716 81.8401C164.94 80.6946 164.49 78.3578 165.715 76.6352C166.94 74.9127 169.385 74.4424 171.161 75.5879C182.362 82.8107 197.756 79.8505 205.479 68.9888C206.703 67.2663 209.149 66.7961 210.925 67.9415C212.701 69.087 213.151 71.4239 211.926 73.1464C206.848 80.3051 199.223 84.8556 191.039 86.4293Z" fill="#231F20" stroke="#231F20" stroke-width="0.766008" stroke-miterlimit="10"/>
<path d="M83.7053 146.539C82.963 150.663 79.3517 157.666 76.0567 163.437C72.6939 169.327 65.8831 172.185 59.2271 170.881L47.7979 168.643" stroke="black" stroke-width="8.48546" stroke-linecap="round"/>
<path d="M127.632 132.763C128.353 140.787 138.696 160.35 138.696 160.35L144.065 171.723" stroke="black" stroke-width="8.48546" stroke-linecap="round"/>
<path fill-rule="evenodd" clip-rule="evenodd" d="M111.732 154.472C103.11 155.379 94.9035 152.339 89.0018 146.101C86.5423 147.124 83.981 147.779 81.365 148.055C74.1075 148.818 66.6836 146.553 60.9978 141.839C55.6498 137.409 52.2639 131.247 51.3629 124.375C43.0105 122.382 36.2721 116.796 32.7457 108.875C29.2193 100.955 29.5719 92.2116 33.6792 84.6718C28.0928 78.1517 25.9247 69.6731 27.7295 61.1921C29.5306 52.7114 34.9589 45.8451 42.7138 42.158C42.165 35.2489 44.1947 28.5174 48.5036 23.0709C53.084 17.2768 59.8741 13.5169 67.1315 12.7534C69.7439 12.4786 72.3891 12.5861 75.0076 13.0748C79.4824 5.74859 86.8801 1.06406 95.4988 0.157393C104.117 -0.749276 112.328 2.28962 118.229 8.52798C120.689 7.50505 123.25 6.84981 125.866 6.57461C133.124 5.81114 140.548 8.07578 146.233 12.7899C151.578 17.2209 154.967 23.3823 155.868 30.2543C164.221 32.247 170.959 37.8334 174.486 45.7536C178.012 53.6738 177.656 62.4179 173.552 69.9574C179.138 76.4775 181.306 84.956 179.502 93.437C177.701 101.918 172.272 108.784 164.517 112.471C165.066 119.38 163.036 126.108 158.727 131.555C154.147 137.349 147.357 141.109 140.096 141.872C137.483 142.147 134.838 142.04 132.22 141.551C127.745 148.877 120.347 153.562 111.728 154.468L111.732 154.472Z" fill="#BDE062"/>
<ellipse cx="61.1503" cy="100.294" rx="12.0215" ry="6.01075" transform="rotate(-8.00532 61.1503 100.294)" fill="#D464B4"/>
<ellipse cx="151.603" cy="88.763" rx="12.0215" ry="6.01075" transform="rotate(-4.00532 151.603 88.763)" fill="#D464B4"/>
<path d="M85.7044 93.3598C93.6842 92.5203 99.4725 85.3709 98.6331 77.3911C97.7936 69.4113 90.6442 63.6229 82.6644 64.4624C74.6846 65.3018 68.8962 72.4513 69.7357 80.431C70.5752 88.4108 77.7246 94.1992 85.7044 93.3598Z" fill="white"/>
<path d="M91.1968 83.2096C93.3978 82.9781 94.9943 81.0061 94.7628 78.8052C94.5312 76.6042 92.5593 75.0077 90.3584 75.2392C88.1574 75.4708 86.5609 77.4427 86.7924 79.6437C87.024 81.8446 88.9959 83.4411 91.1968 83.2096Z" fill="#231F20"/>
<path d="M124.26 89.7919C116.28 90.6314 109.13 84.843 108.291 76.8632C107.452 68.8834 113.24 61.734 121.22 60.8946C129.199 60.0551 136.349 65.8435 137.188 73.8233C138.028 81.8031 132.239 88.9525 124.26 89.7919Z" fill="white"/>
<path d="M116.776 81.0067C114.575 81.2383 112.603 79.6417 112.371 77.4408C112.14 75.2398 113.736 73.2679 115.937 73.0364C118.138 72.8048 120.11 74.4014 120.342 76.6023C120.573 78.8033 118.977 80.7752 116.776 81.0067Z" fill="#231F20"/>
<path d="M98.0544 107.664C97.3743 102.805 101.728 105.068 106.902 104.343C112.076 103.619 116.112 100.182 116.792 105.041C117.472 109.899 113.829 114.425 108.655 115.149C103.48 115.874 98.7345 112.522 98.0544 107.664Z" fill="#222222"/>
<path d="M114.001 112.631C112.594 113.941 110.749 114.857 108.654 115.15C107.42 115.323 106.211 115.261 105.075 115.005C105.72 113.664 106.927 112.535 108.513 111.963C110.473 111.256 112.528 111.573 114.001 112.631Z" fill="#FF0000"/>
<path d="M73.6979 47.4343C76.8463 46.3781 80.4089 46.5566 83.6392 48.2264C84.4162 48.628 84.7417 49.5981 84.3641 50.3871C83.9865 51.176 83.0457 51.4916 82.2687 51.09C77.3693 48.5575 71.4467 50.5443 69.0657 55.5191C68.6881 56.3081 67.7473 56.6237 66.9703 56.222C66.1933 55.8204 65.8679 54.8503 66.2455 54.0613C67.81 50.7831 70.5495 48.4905 73.6979 47.4343Z" fill="#231F20" stroke="#231F20" stroke-width="0.766008" stroke-miterlimit="10"/>
<path d="M125.633 39.6534C128.953 39.7479 132.235 41.1442 134.691 43.8256C135.282 44.4706 135.253 45.4934 134.627 46.1037C134 46.714 133.008 46.6858 132.417 46.0408C128.692 41.9739 122.447 41.7962 118.497 45.6446C117.87 46.2549 116.878 46.2267 116.288 45.5817C115.697 44.9367 115.726 43.9139 116.352 43.3036C118.952 40.7661 122.314 39.5589 125.633 39.6534Z" fill="#231F20" stroke="#231F20" stroke-width="0.766008" stroke-miterlimit="10"/>
<path d="M6.34015 76.2655C5.81292 76.6735 4.71216 76.6171 3.92556 75.6005C3.13895 74.584 3.36059 73.5043 3.88782 73.0963C4.41505 72.6884 5.51581 72.7448 6.30241 73.7613C7.08901 74.7778 6.86738 75.8575 6.34015 76.2655Z" stroke="#916621" stroke-width="2"/>
<path d="M2.55289 81.981C0.822839 80.9987 0.802064 78.5129 2.51545 77.5018L11.3387 72.2948C12.1218 71.8327 13.0899 71.8154 13.8889 72.2493L31.7897 81.9691C33.5573 82.9289 33.6023 85.45 31.8701 86.4722L22.6629 91.9058C21.8647 92.3768 20.8756 92.3851 20.0697 91.9274L2.55289 81.981Z" fill="#DD9B30"/>
<ellipse cx="5.95283" cy="84.4875" rx="5.17592" ry="7.76388" transform="rotate(-30.5466 5.95283 84.4875)" fill="#DD9B30"/>
<path d="M4.99428 79.0429L13.0737 74.275L17.1612 76.7459L9.08184 81.5138L4.99428 79.0429Z" fill="#7F5818"/>
<path d="M17.111 76.7145L17.1443 76.7516L16.9879 76.8485L15.5876 77.6749L11.6458 75.1187L13.0748 74.2754L17.111 76.7145Z" fill="black" fill-opacity="0.4"/>
<rect x="21.4015" y="89.9412" width="11.5517" height="0.989828" rx="0.494029" transform="rotate(-29.6151 21.4015 89.9412)" fill="#7F5818"/>
</svg>
