<svg width="120" height="120" viewBox="0 0 120 120" fill="none" xmlns="http://www.w3.org/2000/svg">
<path fill-rule="evenodd" clip-rule="evenodd" d="M62.5752 90.5316C58.7185 91.0021 55.0183 89.6978 52.3268 86.9402C51.2325 87.4175 50.0898 87.7305 48.9196 87.8733C45.6734 88.2693 42.3298 87.307 39.7466 85.2322C37.3168 83.2822 35.7531 80.5406 35.2976 77.4619C31.54 76.6286 28.4785 74.1698 26.8386 70.6398C25.1988 67.1097 25.2908 63.1815 27.0744 59.7662C24.5221 56.8799 23.4867 53.0891 24.2314 49.2682C24.9745 45.4474 27.355 42.3248 30.8021 40.6125C30.5041 37.5145 31.3628 34.4774 33.2525 32.0005C35.2611 29.3655 38.2753 27.6276 41.5215 27.2316C42.69 27.089 43.8761 27.1179 45.0531 27.3181C47.0029 23.996 50.2824 21.8385 54.1375 21.3682C57.9925 20.8979 61.6943 22.202 64.3858 24.9596C65.4802 24.4822 66.6229 24.1693 67.793 24.0265C71.0392 23.6305 74.3828 24.5928 76.9661 26.6676C79.3942 28.6178 80.9595 31.3592 81.415 34.4379C85.1726 35.2712 88.2341 37.7299 89.874 41.26C91.5138 44.79 91.4201 48.7185 89.6382 52.1336C92.1906 55.02 93.226 58.8107 92.4812 62.6316C91.7382 66.4524 89.3576 69.575 85.9106 71.2873C86.2085 74.3852 85.3497 77.4207 83.46 79.8977C81.4513 82.5326 78.4371 84.2706 75.1893 84.6668C74.0208 84.8094 72.8347 84.7805 71.6577 84.5803C69.7078 87.9024 66.4284 90.0598 62.5733 90.5301L62.5752 90.5316Z" fill="#7A91F8"/>
<path d="M50.4505 63.2847C54.0198 62.8493 56.5595 59.597 56.1232 56.0204C55.6869 52.4439 52.4397 49.8975 48.8704 50.333C45.3011 50.7684 42.7614 54.0208 43.1977 57.5973C43.634 61.1738 46.8812 63.7202 50.4505 63.2847Z" fill="white"/>
<path d="M67.6995 61.4001C71.2688 60.9647 73.8086 57.7124 73.3723 54.1358C72.9359 50.5593 69.6888 48.013 66.1195 48.4484C62.5502 48.8838 60.0104 52.1362 60.4467 55.7127C60.8831 59.2892 64.1303 61.8356 67.6995 61.4001Z" fill="white"/>
<path d="M52.0763 55.24C52.8295 55.1481 53.3655 54.463 53.2737 53.7099C53.1818 52.9567 52.4967 52.4206 51.7436 52.5125C50.9904 52.6044 50.4543 53.2894 50.5462 54.0426C50.6381 54.7958 51.3231 55.3319 52.0763 55.24Z" fill="#231F20"/>
<path d="M67.6144 52.7972C68.3676 52.7053 68.9035 52.019 68.8114 51.2643C68.7194 50.5096 68.0342 49.9723 67.281 50.0642C66.5278 50.156 65.9919 50.8423 66.084 51.597C66.176 52.3517 66.8612 52.8891 67.6144 52.7972Z" fill="#231F20"/>
<path d="M60.2014 69.5389C59.2642 69.8043 58.2254 69.7129 57.3074 69.1999C57.0866 69.0766 57.0068 68.7962 57.1297 68.5755C57.2526 68.3548 57.5326 68.2755 57.7534 68.3988C59.1458 69.1768 60.9088 68.6775 61.6835 67.2858C61.8064 67.0651 62.0865 66.9858 62.3073 67.1092C62.5281 67.2326 62.6079 67.5129 62.485 67.7336C61.9758 68.6508 61.1386 69.2735 60.2014 69.5389Z" fill="#231F20" stroke="#231F20" stroke-width="0.343363" stroke-miterlimit="10"/>
<path d="M44.728 42.7531C46.1308 42.2558 47.7285 42.3098 49.1885 43.0358C49.5397 43.2104 49.6928 43.6435 49.5296 44.0005C49.3663 44.3575 48.9472 44.5061 48.596 44.3315C46.3815 43.2304 43.7427 44.1659 42.7133 46.4169C42.5501 46.7739 42.1309 46.9225 41.7797 46.7479C41.4285 46.5732 41.2754 46.1401 41.4386 45.7831C42.1149 44.2998 43.3252 43.2504 44.728 42.7531Z" fill="#231F20" stroke="#231F20" stroke-width="0.343363" stroke-miterlimit="10"/>
<path d="M64.5229 40.042C65.9257 39.5447 67.5234 39.5987 68.9834 40.3247C69.3346 40.4993 69.4878 40.9325 69.3245 41.2895C69.1613 41.6465 68.7421 41.795 68.3909 41.6204C66.1765 40.5193 63.5376 41.4548 62.5083 43.7058C62.345 44.0628 61.9258 44.2114 61.5747 44.0368C61.2235 43.8622 61.0703 43.429 61.2336 43.072C61.9099 41.5887 63.1201 40.5393 64.5229 40.042Z" fill="#231F20" stroke="#231F20" stroke-width="0.343363" stroke-miterlimit="10"/>
<path d="M82.1308 70.8677C83.4543 70.7063 84.7416 70.8766 85.9112 71.3101C86.203 74.4003 85.3453 77.4275 83.4602 79.8985C81.4515 82.5333 78.4366 84.2713 75.1889 84.6675C74.0207 84.81 72.8346 84.7811 71.6579 84.581C69.9647 87.4656 67.2684 89.4714 64.0639 90.2576L61.0533 90.6249C57.7563 90.6301 54.6622 89.3326 52.3272 86.9403C51.2329 87.4175 50.0895 87.7305 48.9195 87.8733C45.6734 88.2692 42.3295 87.3071 39.7463 85.2324C37.7441 83.6255 36.3309 81.4806 35.6404 79.0529C36.9145 77.3494 38.8541 76.1474 41.1323 75.8694L55.1729 74.1565L61.501 79.7161L66.3068 72.7982L82.1308 70.8677Z" fill="#F7FAFF"/>
<path fill-rule="evenodd" clip-rule="evenodd" d="M48.7265 49.1649C52.6089 48.6912 56.1647 51.2215 57.0651 54.9316L59.4634 54.639C59.6622 51.0156 62.4327 47.945 66.1605 47.4903C69.7011 47.0583 72.9704 49.1246 74.2015 52.3057L91.0381 46.2983C91.0452 46.784 91.0238 47.2691 90.9721 47.752L74.5744 53.6024C74.6089 53.7799 74.6383 53.9596 74.6605 54.1418C75.1709 58.3258 72.1929 62.1313 68.0089 62.6418C63.825 63.1522 60.0194 60.1742 59.509 55.9902L57.2673 56.2637C57.5218 60.2684 54.6093 63.8242 50.5749 64.3164C46.5186 64.8113 42.8182 62.0273 42.131 58.0445L24.9109 56.3182C24.7213 55.8606 24.56 55.3926 24.4285 54.9161L42.0183 56.6798C42.0437 52.899 44.8737 49.6349 48.7265 49.1649ZM66.3236 48.8272C62.878 49.2475 60.4255 52.3815 60.8459 55.8271C61.2662 59.2728 64.4002 61.7252 67.8458 61.3049C71.2915 60.8845 73.7439 57.7505 73.3236 54.3049C72.9032 50.8593 69.7692 48.4068 66.3236 48.8272ZM48.8896 50.5018C45.4439 50.9221 42.9915 54.0561 43.4118 57.5018C43.8322 60.9474 46.9662 63.3999 50.4118 62.9795C53.8574 62.5592 56.3099 59.4252 55.8895 55.9795C55.4692 52.5339 52.3352 50.0814 48.8896 50.5018Z" fill="black"/>
<path d="M68.4956 72.219C69.0429 72.7795 68.995 73.6879 68.3918 74.1877L61.5985 79.817C61.5877 79.826 61.5873 79.8424 61.5977 79.8518C61.6173 79.8697 61.5961 79.9012 61.5721 79.8897L61.5489 79.8785C61.5394 79.8739 61.5281 79.8753 61.52 79.882L61.5004 79.8984C61.4799 79.9155 61.4516 79.8901 61.4663 79.8679C61.4741 79.8562 61.4697 79.8404 61.4571 79.8343L53.5091 76.0027C52.8032 75.6625 52.5384 74.7919 52.9354 74.1162C53.3674 73.3808 54.3674 73.2305 54.9965 73.8066L59.9754 78.3658C60.7882 79.1102 62.0736 78.9534 62.6837 78.0354L66.42 72.4135C66.8923 71.7029 67.8994 71.6085 68.4956 72.219Z" fill="#D9D9D9"/>
<circle cx="61.8265" cy="82.3904" r="0.897874" transform="rotate(-6.95552 61.8265 82.3904)" fill="#D9D9D9"/>
<circle cx="62.2617" cy="85.9556" r="0.897874" transform="rotate(-6.95552 62.2617 85.9556)" fill="#D9D9D9"/>
</svg>
