<svg width="329" height="329" viewBox="0 0 329 329" fill="none" xmlns="http://www.w3.org/2000/svg">
<path d="M257.511 143.807C249.086 140.88 239.602 141.019 231.058 144.933C229.002 145.874 228.171 148.283 229.206 150.298C230.24 152.312 232.758 153.187 234.813 152.246C247.772 146.31 263.622 151.816 270.147 164.521C271.182 166.535 273.699 167.41 275.755 166.469C277.81 165.527 278.641 163.118 277.606 161.104C273.319 152.732 265.937 146.734 257.511 143.807Z" fill="#231F20" stroke="#231F20" stroke-width="0.819505" stroke-miterlimit="10"/>
<path d="M84.0214 203.397C92.6346 201.106 100.412 195.679 105.304 187.645C106.48 185.713 105.824 183.249 103.842 182.157C101.86 181.064 99.2862 181.749 98.1096 183.681C90.6907 195.865 74.488 200.175 61.9898 193.288C60.0077 192.196 57.4339 192.881 56.2574 194.813C55.0808 196.745 55.7372 199.209 57.7193 200.302C65.945 204.846 75.4082 205.688 84.0214 203.397Z" fill="#231F20" stroke="#231F20" stroke-width="0.819505" stroke-miterlimit="10"/>
<path fill-rule="evenodd" clip-rule="evenodd" d="M191.796 232.339C200.522 229.2 207.007 222.447 209.783 213.68C212.628 213.522 215.4 212.962 218.047 212.01C225.391 209.368 231.484 203.727 234.762 196.531C237.847 189.765 238.236 182.243 235.901 175.192C243.015 169.381 246.9 160.853 246.604 151.568C246.309 142.284 241.894 134.01 234.426 128.646C236.766 119.753 234.903 110.562 229.212 103.218C223.526 95.8723 215.099 91.7731 205.913 91.825C203.222 84.9021 198.131 79.351 191.443 76.1008C184.332 72.6416 176.042 72.1741 168.698 74.8158C166.054 75.7667 163.557 77.1019 161.264 78.7925C153.541 73.8056 144.234 72.7287 135.513 75.8658C126.791 79.003 120.301 85.7576 117.526 94.5251C114.681 94.6828 111.909 95.2428 109.262 96.1951C101.918 98.8367 95.8248 104.478 92.5468 111.674C89.4657 118.438 89.0732 125.962 91.4082 133.013C84.2942 138.824 80.4092 147.352 80.7047 156.636C81.0001 165.921 85.4182 174.194 92.8833 179.559C90.5426 188.452 92.4063 197.643 98.0965 204.987C103.783 212.333 112.21 216.432 121.396 216.38C124.087 223.303 129.177 228.85 135.864 232.1C142.975 235.559 151.266 236.027 158.614 233.384C161.257 232.433 163.754 231.098 166.048 229.407C173.771 234.394 183.077 235.471 191.799 232.334L191.796 232.339Z" fill="#FF8C2E"/>
<path d="M188.38 161.248C180.305 164.152 171.399 159.947 168.488 151.856C165.578 143.765 169.765 134.851 177.84 131.946C185.915 129.041 194.82 133.246 197.731 141.337C200.641 149.429 196.455 158.343 188.38 161.248Z" fill="white"/>
<path d="M149.591 175.753C141.516 178.657 132.61 174.453 129.7 166.361C126.789 158.27 130.976 149.356 139.051 146.451C147.126 143.547 156.031 147.751 158.942 155.843C161.852 163.934 157.666 172.848 149.591 175.753Z" fill="white"/>
<path d="M175.089 152.788C173.385 153.401 171.507 152.517 170.894 150.813C170.281 149.109 171.166 147.231 172.87 146.618C174.574 146.005 176.452 146.889 177.065 148.593C177.678 150.297 176.793 152.175 175.089 152.788Z" fill="#231F20"/>
<path d="M139.941 165.879C138.237 166.492 136.358 165.605 135.744 163.898C135.13 162.19 136.013 160.309 137.717 159.696C139.421 159.083 141.3 159.971 141.914 161.678C142.529 163.386 141.645 165.267 139.941 165.879Z" fill="#231F20"/>
<path d="M183.076 181.733C184.856 180.237 186.067 178.063 186.283 175.563C186.336 174.961 185.889 174.428 185.288 174.375C184.688 174.322 184.156 174.769 184.104 175.371C183.775 179.163 180.427 181.976 176.641 181.642C176.04 181.589 175.508 182.036 175.456 182.638C175.404 183.239 175.851 183.772 176.451 183.825C178.945 184.048 181.297 183.228 183.076 181.733Z" fill="#231F20" stroke="#231F20" stroke-width="0.819505" stroke-miterlimit="10"/>
<path d="M178.533 111.341C175.009 111.787 171.662 113.618 169.329 116.733C168.768 117.482 168.907 118.57 169.638 119.156C170.369 119.741 171.422 119.608 171.983 118.858C175.521 114.134 182.15 113.294 186.761 116.986C187.492 117.572 188.545 117.439 189.106 116.689C189.667 115.94 189.528 114.852 188.797 114.267C185.763 111.832 182.056 110.894 178.533 111.341Z" fill="#231F20" stroke="#231F20" stroke-width="0.819505" stroke-miterlimit="10"/>
<path d="M139.624 146.702C143.341 146.969 147.154 145.86 150.18 143.307C150.908 142.693 150.984 141.613 150.349 140.901C149.714 140.189 148.604 140.109 147.876 140.724C143.285 144.596 136.294 144.094 132.291 139.606C131.656 138.894 130.546 138.814 129.818 139.428C129.09 140.042 129.014 141.123 129.649 141.835C132.282 144.794 135.908 146.436 139.624 146.702Z" fill="#231F20" stroke="#231F20" stroke-width="0.819505" stroke-miterlimit="10"/>
<path d="M217.313 162.863C214.977 163.247 213.396 165.452 213.78 167.788L216.718 185.628C216.312 185.736 215.908 185.862 215.506 186.006L143.924 211.754C136.129 214.558 132.083 223.151 134.887 230.946L135.178 231.755C135.405 231.872 135.634 231.989 135.865 232.101C142.975 235.56 151.266 236.028 158.613 233.385C161.257 232.434 163.754 231.099 166.048 229.408C172.761 233.743 180.671 235.122 188.354 233.348L195.126 230.912C202.166 227.384 207.373 221.292 209.783 213.681C212.628 213.523 215.4 212.963 218.047 212.011C225.391 209.369 231.485 203.727 234.763 196.531C234.851 196.337 234.937 196.141 235.021 195.945L234.697 195.044C233.408 191.459 230.895 188.668 227.798 186.971L224.352 166.047C223.968 163.711 221.763 162.13 219.427 162.515L217.313 162.863Z" fill="#EBE0CC"/>
<rect x="122.943" y="198.59" width="10.7142" height="32.1427" rx="4.27935" transform="rotate(-30.2173 122.943 198.59)" fill="#EBE0CC"/>
<circle cx="5.34919" cy="5.34919" r="5.34919" transform="matrix(-0.942372 0.338974 0.338974 0.942372 210.986 195.602)" fill="#218C8C" fill-opacity="0.85"/>
<circle cx="4.27935" cy="4.27935" r="4.27935" transform="matrix(-0.942372 0.338974 0.338974 0.942372 190.416 214.387)" fill="#C672C1"/>
<circle cx="3.74443" cy="3.74443" r="3.74443" transform="matrix(-0.942372 0.338974 0.338974 0.942372 163.681 216.033)" fill="#218C8C" fill-opacity="0.85"/>
<path d="M64.4356 200.295C66.078 198.924 66.2986 196.482 64.9282 194.84L40.1164 165.102L34.1689 170.064L58.9807 199.802C60.351 201.444 62.7932 201.665 64.4356 200.295Z" fill="#4D2101"/>
<path d="M48.4223 175.056L40.1163 165.101L34.1687 170.063L42.4747 180.018L48.4223 175.056Z" fill="#777777"/>
<path d="M17.9693 141.889C17.3618 141.421 16.4683 141.936 16.5995 142.692L20.0894 162.813C21.5952 171.495 31.9345 175.291 38.7001 169.646C45.9093 163.631 42.9705 152.94 33.9892 150.203C28.7258 148.599 23.6019 146.233 17.9693 141.889Z" fill="#C7A582"/>
<path d="M36.9 151.481C36.0175 150.959 35.0455 150.526 33.9892 150.204C28.7258 148.6 23.6014 146.235 17.9688 141.891C17.3614 141.423 16.4686 141.938 16.5992 142.693L20.0893 162.814C20.1237 163.012 20.165 163.208 20.2085 163.401C21.8778 160.882 24.3627 157.983 25.8994 160.151C26.2897 162.399 34.2181 159.445 29.8644 156.843C25.5101 154.24 32.2574 150.643 33.3338 153.948C34.1638 156.497 36.0702 153.147 36.9 151.481Z" fill="#3F9996"/>
<path d="M18.747 155.069C19.2794 154.759 19.5317 154.387 18.8395 154.014C18.7049 153.941 18.6007 153.851 18.5182 153.751L18.747 155.069ZM17.969 141.889C17.3616 141.421 16.4686 141.937 16.5994 142.692L18.3409 152.728C18.6263 151.637 20.0673 150.637 20.7388 152.428C21.7135 155.029 24.0828 151.049 22.9108 150.617C21.514 149.188 25.4387 147.733 26.6428 147.33C23.8312 145.955 20.9714 144.205 17.969 141.889Z" fill="#C672C1"/>
<path d="M178.886 96.3338C179.38 96.2248 181.599 95.13 183.714 92.3385C186.085 89.2104 182.048 79.6128 178.974 74.2643C176.694 70.297 169.582 71.1233 164.263 71.3723C158.722 71.6318 153.233 75.9892 147.749 81.3364C142.51 86.4446 140.899 92.9238 140.106 97.2541C139.525 100.43 141.165 102.827 142.611 104.252C144.375 105.99 147.977 104.696 151.67 103.668C153.824 103.069 155.777 101.401 157.59 99.1611C159.75 96.4926 160.288 92.4621 160.716 88.6532C161.137 84.9077 160.043 80.8826 158.801 76.1926C157.274 70.4293 155.234 66.6092 153.927 65.204C151.357 62.4407 146.531 62.6086 141.431 62.5558C135.214 62.4914 129.222 65.69 126.038 68.3274C122.081 71.6047 120.818 78.4 119.508 86.6577C118.349 93.9682 119.979 101.372 120.955 106.12C121.522 108.879 122.23 110.255 122.842 111.238C123.965 113.044 127.123 112.691 130.198 112.194C131.84 111.928 133.277 111.12 134.474 110.245C135.657 109.381 135.987 107.694 136.068 105.927C136.276 101.39 132.944 96.229 129.374 92.0206C126.018 88.0644 120.44 88.4839 115.552 88.9043C110.662 89.3248 107.218 91.7334 105.851 92.8779C103.161 95.1297 102.658 98.9388 102.249 102.365C101.777 106.327 103.524 110.357 104.462 112.455C105.756 115.351 111.596 116.507 114.737 117.279C116.315 117.509 118.379 117.574 120.508 117.494C121.372 117.444 121.799 117.374 123.067 117.047" stroke="#231F20" stroke-width="2.14285" stroke-linecap="round"/>
</svg>
