<svg width="272" height="272" viewBox="0 0 272 272" fill="none" xmlns="http://www.w3.org/2000/svg">
<path d="M51.6802 116.152C56.2735 122.374 63.1257 126.921 71.1551 128.307C73.0864 128.64 74.8612 127.324 75.1081 125.376C75.3549 123.428 73.9824 121.569 72.051 121.235C59.8729 119.133 51.2322 107.43 52.7887 95.1452C53.0355 93.197 51.663 91.3379 49.7316 91.0045C47.8003 90.6712 46.0255 91.987 45.7787 93.9352C44.7446 102.024 47.0869 109.931 51.6802 116.152Z" fill="#231F20" stroke="#231F20" stroke-width="0.711517" stroke-miterlimit="10"/>
<path d="M208.519 163.3C200.903 161.994 193.763 157.915 188.913 151.36C187.746 149.783 188.12 147.604 189.747 146.506C191.373 145.408 193.649 145.799 194.816 147.375C202.172 157.317 216.499 159.774 226.754 152.853C228.381 151.755 230.656 152.145 231.823 153.722C232.99 155.299 232.615 157.478 230.989 158.575C224.241 163.141 216.135 164.606 208.519 163.3Z" fill="#231F20" stroke="#231F20" stroke-width="0.711517" stroke-miterlimit="10"/>
<circle cx="228.482" cy="98.9382" r="19.9722" transform="rotate(41.5364 228.482 98.9382)" fill="#CCEBFF" fill-opacity="0.55" stroke="#4073A6" stroke-width="4.64432"/>
<path d="M229.195 119.267L230.517 141.107L229.195 119.267Z" fill="#CCEBFF" fill-opacity="0.55"/>
<path d="M229.195 119.267L230.517 141.107" stroke="#4073A6" stroke-width="4.64467" stroke-linecap="round"/>
<path d="M229.759 130.508L231.08 152.349L229.759 130.508Z" fill="#CCEBFF" fill-opacity="0.55"/>
<path d="M229.759 130.508L231.08 152.349" stroke="#4073A6" stroke-width="7.43147" stroke-linecap="round"/>
<path d="M101.672 182.828C100.749 186.602 97.0055 192.876 93.6254 198.028C90.1758 203.287 83.7087 205.542 77.6232 203.954L67.1737 201.228" stroke="black" stroke-width="7.86833" stroke-linecap="round"/>
<path fill-rule="evenodd" clip-rule="evenodd" d="M117.723 196.708C109.944 194.679 103.817 189.354 100.736 181.999C98.267 182.085 95.83 181.818 93.4698 181.202C86.9222 179.494 81.2207 175.098 77.8287 169.14C74.6371 163.539 73.7144 157.074 75.1805 150.804C68.5842 146.341 64.5642 139.28 64.0948 131.24C63.6255 123.2 66.7917 115.711 72.8224 110.496C70.1074 103 70.9995 94.9184 75.3399 88.1328C79.677 81.3463 86.6337 77.1492 94.5694 76.4772C96.3533 70.2895 100.317 65.0988 105.837 61.7706C111.708 58.2288 118.83 57.1782 125.378 58.8862C127.734 59.5011 129.995 60.4591 132.107 61.74C138.387 56.8312 146.339 55.1752 154.115 57.2036C161.89 59.232 168.021 64.5581 171.102 71.9122C173.571 71.8265 176.008 72.0937 178.368 72.7094C184.915 74.4175 190.617 78.8133 194.009 84.7712C197.197 90.3714 198.123 96.8374 196.657 103.108C203.253 107.571 207.273 114.631 207.743 122.672C208.212 130.712 205.043 138.2 199.015 143.415C201.73 150.911 200.838 158.993 196.498 165.779C192.161 172.565 185.204 176.763 177.268 177.434C175.484 183.622 171.522 188.81 166.001 192.138C160.131 195.68 153.009 196.73 146.458 195.021C144.101 194.406 141.841 193.448 139.728 192.168C133.448 197.076 125.496 198.732 117.721 196.704L117.723 196.708Z" fill="#80B8EB"/>
<path d="M115.126 135.054C122.326 136.932 129.688 132.607 131.569 125.393C133.451 118.179 129.141 110.808 121.941 108.93C114.742 107.052 107.38 111.378 105.498 118.592C103.616 125.806 107.927 133.176 115.126 135.054Z" fill="white"/>
<path d="M149.751 144.553C156.95 146.431 164.312 142.106 166.194 134.892C168.076 127.678 163.765 120.307 156.566 118.429C149.367 116.551 142.005 120.877 140.123 128.091C138.241 135.305 142.552 142.675 149.751 144.553Z" fill="white"/>
<path d="M122.384 125.844C123.903 126.241 125.456 125.33 125.853 123.811C126.249 122.292 125.339 120.739 123.819 120.343C122.3 119.947 120.747 120.857 120.351 122.376C119.955 123.895 120.865 125.448 122.384 125.844Z" fill="#231F20"/>
<path d="M148.449 132.655C149.968 133.052 151.521 132.139 151.918 130.617C152.316 129.094 151.406 127.539 149.887 127.143C148.368 126.747 146.814 127.659 146.417 129.182C146.02 130.704 146.93 132.259 148.449 132.655Z" fill="#231F20"/>
<path d="M129.129 154.508C127.124 154.305 125.195 153.339 123.819 151.654C123.488 151.248 123.548 150.648 123.952 150.317C124.356 149.986 124.955 150.046 125.287 150.451C127.374 153.008 131.146 153.389 133.696 151.3C134.1 150.969 134.699 151.03 135.03 151.435C135.361 151.84 135.302 152.441 134.897 152.772C133.219 154.149 131.135 154.71 129.129 154.508Z" fill="#231F20" stroke="#231F20" stroke-width="0.711517" stroke-miterlimit="10"/>
<path d="M119.736 91.1929C122.814 91.3034 125.847 92.623 128.104 95.1309C128.647 95.7341 128.612 96.6841 128.026 97.2468C127.441 97.8095 126.521 97.7765 125.978 97.1733C122.555 93.3696 116.765 93.1617 113.072 96.7099C112.486 97.2726 111.566 97.2395 111.024 96.6363C110.481 96.0331 110.516 95.0831 111.101 94.5204C113.531 92.1808 116.659 91.0824 119.736 91.1929Z" fill="#231F20" stroke="#231F20" stroke-width="0.711517" stroke-miterlimit="10"/>
<path d="M159.889 101.038C162.966 101.149 166 102.469 168.257 104.976C168.799 105.58 168.765 106.53 168.179 107.092C167.593 107.655 166.673 107.622 166.131 107.019C162.707 103.215 156.918 103.007 153.224 106.555C152.639 107.118 151.719 107.085 151.176 106.482C150.633 105.879 150.668 104.929 151.254 104.366C153.684 102.026 156.811 100.928 159.889 101.038Z" fill="#231F20" stroke="#231F20" stroke-width="0.711517" stroke-miterlimit="10"/>
<path d="M170.315 173.751C172.984 174.448 175.335 175.752 177.256 177.477C175.466 183.646 171.51 188.818 166.001 192.139C160.131 195.681 153.009 196.73 146.458 195.022C144.101 194.407 141.841 193.449 139.728 192.168C134.273 196.433 127.555 198.241 120.787 197.312L114.723 195.73C108.375 193.231 103.409 188.38 100.736 182C98.2674 182.086 95.8301 181.819 93.4701 181.203C86.9224 179.495 81.2201 175.099 77.8281 169.141C75.1974 164.524 74.1107 159.32 74.6304 154.122C78.3778 151.815 83.0249 150.981 87.6194 152.179L115.94 159.567L123.885 175.081L138.396 165.425L170.315 173.751Z" fill="#F7FAFF"/>
<path fill-rule="evenodd" clip-rule="evenodd" d="M122.554 106.573C130.385 108.616 135.302 116.19 134.211 124.014L139.049 125.276C142.188 118.455 149.856 114.655 157.375 116.617C164.516 118.479 169.235 124.943 169.183 132.001L206.151 133.253C205.795 134.193 205.385 135.11 204.918 136L168.914 134.78C168.845 135.147 168.765 135.516 168.669 135.883C166.468 144.322 157.842 149.379 149.403 147.178C140.964 144.976 135.907 136.35 138.108 127.911L133.587 126.731C131.029 134.631 122.719 139.257 114.582 137.134C106.4 135 101.398 126.827 103.106 118.641L71.2853 102.216C71.2687 101.191 71.3142 100.168 71.4239 99.1509L103.928 115.929C106.854 108.673 114.783 104.546 122.554 106.573ZM156.672 119.313C149.722 117.5 142.618 121.664 140.805 128.614C138.992 135.564 143.156 142.668 150.106 144.481C157.056 146.294 164.16 142.13 165.973 135.18C167.786 128.23 163.621 121.126 156.672 119.313ZM121.851 109.27C114.901 107.457 107.797 111.621 105.984 118.571C104.171 125.521 108.335 132.625 115.285 134.438C122.235 136.251 129.339 132.086 131.152 125.136C132.965 118.186 128.801 111.083 121.851 109.27Z" fill="black"/>
<path d="M143.051 165.976C143.678 167.471 142.895 169.182 141.354 169.685L123.997 175.348C123.97 175.357 123.956 175.388 123.969 175.414C123.993 175.464 123.928 175.508 123.891 175.468L123.855 175.429C123.84 175.413 123.817 175.407 123.796 175.414L123.746 175.43C123.693 175.447 123.658 175.377 123.703 175.345C123.727 175.328 123.731 175.294 123.711 175.273L111.333 161.853C110.234 160.661 110.387 158.785 111.664 157.787C113.055 156.7 115.094 157.172 115.866 158.759L121.978 171.321C122.975 173.372 125.568 174.049 127.44 172.747L138.91 164.771C140.359 163.763 142.369 164.348 143.051 165.976Z" fill="#D9D9D9"/>
<circle cx="122.479" cy="180.473" r="1.85787" transform="rotate(14.6205 122.479 180.473)" fill="#D9D9D9"/>
<circle cx="120.602" cy="187.665" r="1.85787" transform="rotate(14.6205 120.602 187.665)" fill="#D9D9D9"/>
</svg>
