<svg width="48" height="48" viewBox="0 0 48 48" fill="none" xmlns="http://www.w3.org/2000/svg">
<g clip-path="url(#clip0_542_3942)">
<path fill-rule="evenodd" clip-rule="evenodd" d="M6.2964 6.2964C10.493 2.09977 16.553 0 24 0C31.447 0 37.5069 2.09977 41.7038 6.2964C45.9003 10.493 48 16.553 48 24C48 31.447 45.9003 37.5069 41.7038 41.7038C37.5069 45.9003 31.447 48 24 48C16.553 48 10.493 45.9003 6.2964 41.7038C2.09977 37.5069 0 31.447 0 24C0 16.553 2.09977 10.493 6.2964 6.2964ZM13.8253 19.9802C13.9929 19.7078 14.6231 19.2857 15.4289 19.2857C16.2347 19.2857 16.8648 19.7078 17.0325 19.9802C17.6527 20.9881 18.9726 21.3024 19.9805 20.6821C20.9884 20.0619 21.3027 18.742 20.6824 17.7341C19.5644 15.9172 17.3659 15 15.4289 15C13.4918 15 11.2934 15.9172 10.1753 17.7341C9.55505 18.742 9.86931 20.0619 10.8772 20.6821C11.8851 21.3024 13.205 20.9881 13.8253 19.9802ZM31.133 19.9802C31.3007 19.7078 31.9308 19.2857 32.7366 19.2857C33.5424 19.2857 34.1726 19.7078 34.3402 19.9802C34.9605 20.9881 36.2805 21.3024 37.2881 20.6821C38.2961 20.0619 38.6105 18.742 37.9903 17.7341C36.8722 15.9172 34.6738 15 32.7366 15C30.7996 15 28.6011 15.9172 27.4831 17.7341C26.8628 18.742 27.1771 20.0619 28.185 20.6821C29.1929 21.3024 30.5128 20.9881 31.133 19.9802ZM34.8521 32.1512C27.5393 31.149 20.4613 31.149 13.1484 32.1512C11.9759 32.3118 10.8951 31.4916 10.7344 30.3191C10.5737 29.1465 11.394 28.0658 12.5665 27.9051C20.2655 26.8501 27.7351 26.8501 35.4339 27.9051C36.6065 28.0658 37.427 29.1465 37.2662 30.3191C37.1054 31.4916 36.0247 32.3118 34.8521 32.1512Z" fill="#D97F1F"/>
</g>
<defs>
<clipPath id="clip0_542_3942">
<rect width="48" height="48" fill="white"/>
</clipPath>
</defs>
</svg>
