<svg width="48" height="48" viewBox="0 0 48 48" fill="none" xmlns="http://www.w3.org/2000/svg">
<path fill-rule="evenodd" clip-rule="evenodd" d="M41.7038 6.2964C37.5069 2.09977 31.447 0 24 0C16.553 0 10.493 2.09977 6.2964 6.2964C2.09977 10.493 0 16.553 0 24C0 31.447 2.09977 37.5069 6.2964 41.7038C10.493 45.9003 16.553 48 24 48C31.447 48 37.5069 45.9003 41.7038 41.7038C45.9003 37.5069 48 31.447 48 24C48 16.553 45.9003 10.493 41.7038 6.2964ZM17.2115 12.0969C16.555 11.1122 15.2245 10.8461 14.2399 11.5025C13.2551 12.159 12.989 13.4895 13.6455 14.4742L14.668 16.0079C13.6679 16.0423 12.6648 16.1446 11.6465 16.3149C10.4793 16.51 9.69123 17.6145 9.88639 18.7817C10.0815 19.949 11.186 20.7371 12.3533 20.5419C14.4382 20.1933 16.4187 20.1933 18.5037 20.5419C19.3463 20.6828 20.1922 20.3097 20.6562 19.5924C21.1203 18.875 21.1139 17.9506 20.64 17.2397L17.2115 12.0969ZM11.8727 29.1427C11.8727 27.7225 13.0239 26.5712 14.4441 26.5712H33.5558C34.9759 26.5712 36.1272 27.7225 36.1272 29.1427V29.5148C36.1272 29.599 36.1149 29.6827 36.0905 29.7632C35.3191 32.3107 33.8684 34.32 31.7883 35.6822C29.7182 37.0378 27.0851 37.7139 24 37.7139C20.9148 37.7139 18.2817 37.0378 16.2116 35.6822C14.1315 34.32 12.6809 32.3107 11.9095 29.7632C11.8851 29.6827 11.8727 29.599 11.8727 29.5148V29.1427ZM33.76 11.5025C32.7753 10.8461 31.4448 11.1122 30.7884 12.0969L27.3598 17.2397C26.8859 17.9506 26.8795 18.875 27.3436 19.5924C27.8077 20.3097 28.6535 20.6828 29.4961 20.5419C31.5811 20.1933 33.5616 20.1933 35.6465 20.5419C36.8139 20.7371 37.9183 19.949 38.1134 18.7817C38.3085 17.6145 37.5206 16.51 36.3531 16.3149C35.3352 16.1446 34.332 16.0423 33.3319 16.0079L34.3543 14.4742C35.0109 13.4895 34.7448 12.159 33.76 11.5025Z" fill="#589B5D"/>
</svg>
