<svg width="1679" height="982" viewBox="0 0 1679 982" fill="none" xmlns="http://www.w3.org/2000/svg">
<path d="M44.0752 6.45617C44.051 2.8664 41.1213 -0.0240617 37.5315 0.00014782C33.9417 0.0243573 31.0513 2.95407 31.0755 6.54383L37.5753 6.5L44.0752 6.45617ZM37.576 6.6L31.0761 6.64383L31.0784 6.98145L31.1157 7.31701L37.576 6.6ZM36.9289 113.022L30.4587 112.4L36.9289 113.022ZM37.9686 132.375L31.6002 133.676L37.9686 132.375ZM38.1018 151.719L31.7157 150.507L38.1018 151.719ZM40.8237 306.701L34.3824 305.829L40.8237 306.701ZM41.1181 326.066L34.706 327.132L41.1181 326.066ZM42.304 364.806L48.7591 364.044L42.304 364.806ZM42.4458 384.18L48.9115 384.847L42.4458 384.18ZM44.7842 481.009L38.3086 481.572L44.7842 481.009ZM45.8032 558.499L52.2958 558.188L45.8032 558.499ZM46.7879 635.973L40.49 637.581L46.7879 635.973ZM50.9237 713.352L44.4363 713.757L50.9237 713.352ZM54.9704 790.804L48.4935 791.352L54.9704 790.804ZM72.3191 865.121L77.6756 861.439L72.3191 865.121ZM105.289 880.647L104.609 887.112L105.289 880.647ZM182.361 888.944L182.129 895.44L182.361 888.944ZM240.068 895.767L238 901.929L240.068 895.767ZM259.268 898.42L259.589 904.912L259.268 898.42ZM278.673 899.38L279.646 892.954L278.673 899.38ZM297.563 904.279L299.819 898.184L297.563 904.279ZM355.168 911.933L354.938 905.437L355.168 911.933ZM374.464 913.667L373.072 920.016L374.464 913.667ZM412.852 919L412.413 912.514L412.852 919ZM470.513 926.127L468.864 932.414L470.513 926.127ZM528.404 931.356L528.743 924.865L528.404 931.356ZM566.903 935.494L566.882 941.994L566.903 935.494ZM605.512 938.601L604.704 945.051L605.512 938.601ZM644.126 941.591L643.464 948.057L644.126 941.591ZM663.34 944.395L664.552 938.009L663.34 944.395ZM702.007 946.852L701.461 953.329L702.007 946.852ZM721.284 949.053L722.211 942.62L721.284 949.053ZM779.365 951.389L780.235 944.947L779.365 951.389ZM798.64 953.985L799.505 947.543L798.64 953.985ZM818.044 953.654L816.976 947.242L818.044 953.654ZM856.799 954.323L855.515 960.695L856.799 954.323ZM876.097 956.807L876.462 950.317L876.097 956.807ZM914.895 955.822L913.532 962.177L914.895 955.822ZM953.583 958.418L952.628 951.989L953.583 958.418ZM992.345 958.205L991.909 951.72L992.345 958.205ZM1031.08 959.14L1032.11 952.721L1031.08 959.14ZM1050.45 959.362L1049.57 952.921L1050.45 959.362ZM1089.17 960.48L1088.03 966.879L1089.17 960.48ZM1108.53 961.132L1107.82 954.671L1108.53 961.132ZM1147.31 961.326L1146.69 954.856L1147.31 961.326ZM1186.04 962.686L1186.05 969.186L1186.04 962.686ZM1244.18 961.266L1243.79 954.778L1244.18 961.266ZM1263.58 960.953L1263.76 954.455L1263.58 960.953ZM1282.94 960.451L1282.43 953.971L1282.94 960.451ZM1379.64 954.724L1379.96 948.232L1379.64 954.724ZM1398.94 953.718L1397.94 947.294L1398.94 953.718ZM1435.77 945.921L1433.52 939.822L1435.77 945.921ZM1452.25 928.647L1457.79 932.046L1461.92 925.31L1454.52 922.555L1452.25 928.647ZM1452.21 928.715L1446.67 925.317L1455.56 934.284L1452.21 928.715ZM1455.65 934.233C1458.72 932.382 1459.71 928.387 1457.86 925.312C1456.01 922.236 1452.02 921.243 1448.94 923.095L1452.29 928.664L1455.65 934.233ZM37.5753 6.5L31.0755 6.54383L31.0761 6.64383L37.576 6.6L44.0758 6.55616L44.0752 6.45617L37.5753 6.5ZM37.576 6.6L31.1157 7.31701C32.5334 20.0911 33.308 29.5094 33.4774 35.6895L39.975 35.5114L46.4725 35.3333C46.2877 28.5933 45.463 18.7373 44.0363 5.88299L37.576 6.6ZM39.975 35.5114L33.4774 35.6895C33.6497 41.9744 33.5677 48.2524 33.2314 54.5242L39.7221 54.8721L46.2128 55.2201C46.5679 48.5977 46.6544 41.9686 46.4725 35.3333L39.975 35.5114ZM39.7221 54.8721L33.2314 54.5242C32.898 60.7438 32.2367 66.9753 31.2467 73.2193L37.6664 74.2373L44.0862 75.2552C45.1457 68.5733 45.8549 61.8946 46.2128 55.2201L39.7221 54.8721ZM37.6664 74.2373L31.2467 73.2193C30.1389 80.2056 29.8958 87.2044 30.5211 94.2038L36.9953 93.6254L43.4695 93.047C42.9401 87.1214 43.1444 81.1949 44.0862 75.2552L37.6664 74.2373ZM36.9953 93.6254L30.5211 94.2038C31.0627 100.266 31.0421 106.33 30.4587 112.4L36.9289 113.022L43.399 113.643C44.059 106.777 44.0826 99.9094 43.4695 93.047L36.9953 93.6254ZM36.9289 113.022L30.4587 112.4C29.7746 119.517 30.1575 126.617 31.6002 133.676L37.9686 132.375L44.337 131.073C43.15 125.265 42.8398 119.462 43.399 113.643L36.9289 113.022ZM37.9686 132.375L31.6002 133.676C32.7455 139.28 32.7844 144.874 31.7157 150.507L38.1018 151.719L44.4878 152.93C45.8713 145.639 45.8214 138.337 44.337 131.073L37.9686 132.375ZM38.1018 151.719L31.7157 150.507C30.3738 157.579 30.0629 164.676 30.79 171.778L37.2562 171.117L43.7224 170.455C43.1248 164.617 43.3776 158.782 44.4878 152.93L38.1018 151.719ZM37.2562 171.117L30.79 171.778C31.4597 178.321 32.2384 184.845 33.1262 191.351L39.5665 190.472L46.0068 189.593C45.1388 183.232 44.3773 176.852 43.7224 170.455L37.2562 171.117ZM39.5665 190.472L33.1262 191.351C33.9026 197.041 33.7031 202.759 32.5119 208.536L38.878 209.849L45.2441 211.161C46.7267 203.971 46.9862 196.771 46.0068 189.593L39.5665 190.472ZM38.878 209.849L32.5119 208.536C31.02 215.772 30.8336 223.02 31.9669 230.242L38.3883 229.234L44.8098 228.227C43.9221 222.57 44.0622 216.894 45.2441 211.161L38.878 209.849ZM38.3883 229.234L31.9669 230.242C32.9439 236.468 33.604 242.698 33.9478 248.931L40.4379 248.573L46.9281 248.215C46.56 241.543 45.8537 234.88 44.8098 228.227L38.3883 229.234ZM40.4379 248.573L33.9478 248.931C34.2921 255.173 34.332 261.422 34.0675 267.679L40.5617 267.953L47.0559 268.228C47.3382 261.55 47.2956 254.879 46.9281 248.215L40.4379 248.573ZM40.5617 267.953L34.0675 267.679C33.7808 274.46 33.9843 281.231 34.6777 287.992L41.1437 287.329L47.6098 286.665C46.9803 280.527 46.7957 274.382 47.0559 268.228L40.5617 267.953ZM41.1437 287.329L34.6777 287.992C35.2864 293.927 35.1888 299.869 34.3824 305.829L40.8237 306.701L47.265 307.572C48.2082 300.601 48.324 293.629 47.6098 286.665L41.1437 287.329ZM40.8237 306.701L34.3824 305.829C33.4204 312.939 33.5287 320.047 34.706 327.132L41.1181 326.066L47.5301 325.001C46.5654 319.195 46.4774 313.393 47.265 307.572L40.8237 306.701ZM41.1181 326.066L34.706 327.132C35.6905 333.056 35.942 338.979 35.4638 344.911L41.9428 345.434L48.4217 345.956C48.986 338.955 48.6877 331.966 47.5301 325.001L41.1181 326.066ZM41.9428 345.434L35.4638 344.911C34.908 351.806 35.0365 358.695 35.8489 365.569L42.304 364.806L48.7591 364.044C48.0474 358.021 47.9351 351.994 48.4217 345.956L41.9428 345.434ZM42.304 364.806L35.8489 365.569C36.5548 371.542 36.5987 377.521 35.9802 383.513L42.4458 384.18L48.9115 384.847C49.628 377.905 49.5774 370.968 48.7591 364.044L42.304 364.806ZM42.4458 384.18L35.9802 383.513C35.3028 390.075 34.7725 396.638 34.3895 403.199L40.8785 403.578L47.3674 403.957C47.7392 397.589 48.2538 391.219 48.9115 384.847L42.4458 384.18ZM40.8785 403.578L34.3895 403.199C33.9948 409.961 34.0639 416.716 34.5968 423.464L41.0766 422.952L47.5564 422.44C47.0704 416.286 47.0074 410.125 47.3674 403.957L40.8785 403.578ZM41.0766 422.952L34.5968 423.464C35.1177 430.059 35.8606 436.649 36.8255 443.232L43.2567 442.289L49.688 441.347C48.7649 435.048 48.0544 428.746 47.5564 422.44L41.0766 422.952ZM43.2567 442.289L36.8255 443.232C37.7123 449.283 38.0408 455.336 37.8129 461.397L44.3083 461.641L50.8037 461.885C51.0617 455.025 50.6892 448.178 49.688 441.347L43.2567 442.289ZM44.3083 461.641L37.8129 461.397C37.5598 468.126 37.7251 474.852 38.3086 481.572L44.7842 481.009L51.2599 480.447C50.7229 474.263 50.5709 468.076 50.8037 461.885L44.3083 461.641ZM44.7842 481.009L38.3086 481.572C38.8305 487.582 38.7392 493.605 38.0327 499.647L44.4887 500.402L50.9447 501.157C51.7528 494.246 51.8584 487.341 51.2599 480.447L44.7842 481.009ZM44.4887 500.402L38.0327 499.647C37.2274 506.534 37.0857 513.413 37.61 520.276L44.0911 519.781L50.5722 519.286C50.1122 513.263 50.2356 507.222 50.9447 501.157L44.4887 500.402ZM44.0911 519.781L37.61 520.276C38.0939 526.612 38.4194 532.954 38.5866 539.3L45.0843 539.129L51.5821 538.958C51.4092 532.395 51.0726 525.838 50.5722 519.286L44.0911 519.781ZM45.0843 539.129L38.5866 539.3C38.7578 545.801 38.9991 552.304 39.3107 558.81L45.8032 558.499L52.2958 558.188C51.9887 551.775 51.7508 545.365 51.5821 538.958L45.0843 539.129ZM45.8032 558.499L39.3107 558.81C39.6151 565.165 39.7669 571.514 39.7664 577.858L46.2664 577.858L52.7664 577.859C52.767 571.307 52.6101 564.75 52.2958 558.188L45.8032 558.499ZM46.2664 577.858L39.7664 577.858C39.7659 584.325 39.794 590.804 39.8508 597.295L46.3506 597.238L52.8503 597.181C52.7938 590.728 52.7659 584.287 52.7664 577.859L46.2664 577.858ZM46.3506 597.238L39.8508 597.295C39.9053 603.513 39.5955 609.73 38.921 615.948L45.3831 616.649L51.8452 617.35C52.574 610.631 52.9092 603.908 52.8503 597.181L46.3506 597.238ZM45.3831 616.649L38.921 615.948C38.134 623.203 38.6628 630.426 40.49 637.581L46.7879 635.973L53.0858 634.364C51.6367 628.69 51.229 623.031 51.8452 617.35L45.3831 616.649ZM46.7879 635.973L40.49 637.581C41.8982 643.095 42.0987 648.619 41.0944 654.216L47.4923 655.364L53.8901 656.512C55.223 649.083 54.9539 641.679 53.0858 634.364L46.7879 635.973ZM47.4923 655.364L41.0944 654.216C39.7612 661.648 40.036 669.043 41.9208 676.337L48.2141 674.711L54.5074 673.085C53.0927 667.61 52.8863 662.107 53.8901 656.512L47.4923 655.364ZM48.2141 674.711L41.9208 676.337C43.4259 682.162 44.1173 688.001 44.0062 693.871L50.505 693.994L57.0038 694.117C57.1378 687.046 56.3019 680.03 54.5074 673.085L48.2141 674.711ZM50.505 693.994L44.0062 693.871C43.8803 700.517 44.0237 707.146 44.4363 713.757L50.9237 713.352L57.4111 712.947C57.0204 706.689 56.8846 700.413 57.0038 694.117L50.505 693.994ZM50.9237 713.352L44.4363 713.757C44.8334 720.119 45.1236 726.497 45.3066 732.891L51.804 732.705L58.3013 732.519C58.1141 725.979 57.8173 719.455 57.4111 712.947L50.9237 713.352ZM51.804 732.705L45.3066 732.891C45.4989 739.606 46.0723 746.287 47.0267 752.933L53.4607 752.01L59.8947 751.086C59.0105 744.928 58.4794 738.74 58.3013 732.519L51.804 732.705ZM53.4607 752.01L47.0267 752.933C47.8909 758.952 48.2157 765.018 48 771.138L54.496 771.367L60.9919 771.596C61.2346 764.71 60.8692 757.872 59.8947 751.086L53.4607 752.01ZM54.496 771.367L48 771.138C47.7618 777.899 47.9261 784.637 48.4935 791.352L54.9704 790.804L61.4474 790.257C60.9238 784.061 60.7719 777.841 60.9919 771.596L54.496 771.367ZM54.9704 790.804L48.4935 791.352C49.0705 798.181 50.2319 804.925 51.9759 811.581L58.2636 809.933L64.5514 808.286C62.9954 802.348 61.9613 796.339 61.4474 790.257L54.9704 790.804ZM58.2636 809.933L51.9759 811.581C53.6265 817.88 55.2781 824.169 56.9307 830.447L63.2166 828.793L69.5024 827.138C67.8511 820.865 66.2007 814.58 64.5514 808.286L58.2636 809.933ZM63.2166 828.793L56.9307 830.447C58.482 836.341 59.4846 842.319 59.9395 848.388L66.4213 847.902L72.9031 847.417C72.389 840.557 71.2551 833.796 69.5024 827.138L63.2166 828.793ZM66.4213 847.902L59.9395 848.388C60.5041 855.921 62.8215 862.779 66.9627 868.803L72.3191 865.121L77.6756 861.439C74.922 857.433 73.3075 852.812 72.9031 847.417L66.4213 847.902ZM72.3191 865.121L66.9627 868.803C71.202 874.97 77.0348 879.433 84.2202 882.202L86.557 876.136L88.8938 870.071C83.9901 868.182 80.331 865.301 77.6756 861.439L72.3191 865.121ZM86.557 876.136L84.2202 882.202C90.7969 884.735 97.5979 886.373 104.609 887.112L105.289 880.647L105.97 874.183C100.093 873.564 94.4061 872.195 88.8938 870.071L86.557 876.136ZM105.289 880.647L104.609 887.112C111.021 887.787 117.414 888.507 123.787 889.272L124.562 882.819L125.337 876.365C118.901 875.592 112.445 874.865 105.97 874.183L105.289 880.647ZM124.562 882.819L123.787 889.272C130.283 890.052 136.797 890.695 143.328 891.2L143.829 884.719L144.331 878.239C137.982 877.747 131.651 877.123 125.337 876.365L124.562 882.819ZM143.829 884.719L143.328 891.2C149.585 891.684 155.817 892.433 162.027 893.447L163.075 887.032L164.123 880.617C157.552 879.544 150.954 878.751 144.331 878.239L143.829 884.719ZM163.075 887.032L162.027 893.447C168.687 894.535 175.388 895.2 182.129 895.44L182.361 888.944L182.592 882.448C176.399 882.227 170.243 881.617 164.123 880.617L163.075 887.032ZM182.361 888.944L182.129 895.44C188.412 895.664 194.667 896.155 200.895 896.912L201.68 890.46L202.464 884.007C195.868 883.205 189.244 882.685 182.592 882.448L182.361 888.944ZM201.68 890.46L200.895 896.912C207.458 897.71 214.049 898.279 220.67 898.619L221.004 892.128L221.337 885.636C215.017 885.312 208.726 884.769 202.464 884.007L201.68 890.46ZM221.004 892.128L220.67 898.619C226.541 898.92 232.312 900.02 238 901.929L240.068 895.767L242.137 889.605C235.345 887.325 228.407 885.999 221.337 885.636L221.004 892.128ZM240.068 895.767L238 901.929C245.007 904.281 252.217 905.278 259.589 904.912L259.268 898.42L258.946 891.928C253.197 892.213 247.608 891.441 242.137 889.605L240.068 895.767ZM259.268 898.42L259.589 904.912C265.725 904.608 271.759 904.908 277.7 905.807L278.673 899.38L279.646 892.954C272.833 891.922 265.931 891.582 258.946 891.928L259.268 898.42ZM278.673 899.38L277.7 905.807C283.627 906.704 289.494 908.224 295.307 910.375L297.563 904.279L299.819 898.184C293.198 895.733 286.472 893.987 279.646 892.954L278.673 899.38ZM297.563 904.279L295.307 910.375C302.008 912.855 308.839 914.484 315.789 915.248L316.5 908.787L317.21 902.326C311.345 901.681 305.552 900.305 299.819 898.184L297.563 904.279ZM316.5 908.787L315.789 915.248C322.162 915.949 328.54 916.703 334.923 917.511L335.739 911.062L336.555 904.614C330.101 903.797 323.653 903.035 317.21 902.326L316.5 908.787ZM335.739 911.062L334.923 917.511C341.692 918.367 348.519 918.673 355.398 918.429L355.168 911.933L354.938 905.437C348.75 905.656 342.623 905.381 336.555 904.614L335.739 911.062ZM355.168 911.933L355.398 918.429C361.393 918.217 367.28 918.747 373.072 920.016L374.464 913.667L375.855 907.318C368.989 905.813 362.012 905.187 354.938 905.437L355.168 911.933ZM374.464 913.667L373.072 920.016C379.43 921.41 385.799 922.762 392.179 924.073L393.488 917.706L394.796 911.339C388.471 910.039 382.157 908.699 375.855 907.318L374.464 913.667ZM393.488 917.706L392.179 924.073C399.114 925.498 406.156 925.967 413.289 925.485L412.852 919L412.413 912.514C406.434 912.918 400.567 912.525 394.796 911.339L393.488 917.706ZM412.852 919L413.289 925.485C419.021 925.098 424.599 925.786 430.068 927.555L432.068 921.37L434.069 915.185C427.028 912.908 419.795 912.016 412.413 912.514L412.852 919ZM432.068 921.37L430.068 927.555C437.045 929.811 444.201 930.802 451.499 930.519L451.247 924.024L450.994 917.528C445.231 917.753 439.601 916.975 434.069 915.185L432.068 921.37ZM451.247 924.024L451.499 930.519C457.391 930.29 463.172 930.921 468.864 932.414L470.513 926.127L472.163 919.84C465.229 918.021 458.165 917.25 450.994 917.528L451.247 924.024ZM470.513 926.127L468.864 932.414C475.657 934.197 482.552 935.181 489.538 935.362L489.707 928.864L489.876 922.367C483.896 922.211 477.995 921.37 472.163 919.84L470.513 926.127ZM489.707 928.864L489.538 935.362C495.884 935.527 502.203 935.892 508.497 936.458L509.079 929.984L509.661 923.51C503.091 922.919 496.496 922.538 489.876 922.367L489.707 928.864ZM509.079 929.984L508.497 936.458C515.01 937.043 521.533 937.506 528.065 937.847L528.404 931.356L528.743 924.865C522.373 924.532 516.012 924.081 509.661 923.51L509.079 929.984ZM528.404 931.356L528.065 937.847C534.225 938.169 540.345 938.903 546.426 940.049L547.631 933.662L548.835 927.274C542.183 926.02 535.485 925.217 528.743 924.865L528.404 931.356ZM547.631 933.662L546.426 940.049C553.183 941.323 560.003 941.972 566.882 941.994L566.903 935.494L566.924 928.994C560.839 928.974 554.811 928.401 548.835 927.274L547.631 933.662ZM566.903 935.494L566.882 941.994C573.161 942.015 579.411 942.327 585.633 942.931L586.261 936.462L586.889 929.992C580.263 929.349 573.607 929.016 566.924 928.994L566.903 935.494ZM586.261 936.462L585.633 942.931C591.997 943.549 598.354 944.256 604.704 945.051L605.512 938.601L606.319 932.151C599.85 931.342 593.373 930.622 586.889 929.992L586.261 936.462ZM605.512 938.601L604.704 945.051C611.293 945.875 617.906 946.425 624.541 946.699L624.809 940.204L625.077 933.71C618.802 933.451 612.55 932.931 606.319 932.151L605.512 938.601ZM624.809 940.204L624.541 946.699C630.864 946.96 637.172 947.412 643.464 948.057L644.126 941.591L644.788 935.125C638.234 934.453 631.663 933.982 625.077 933.71L624.809 940.204ZM644.126 941.591L643.464 948.057C649.702 948.696 655.923 949.604 662.128 950.781L663.34 944.395L664.552 938.009C657.985 936.763 651.397 935.801 644.788 935.125L644.126 941.591ZM663.34 944.395L662.128 950.781C668.932 952.072 675.789 952.687 682.695 952.625L682.636 946.125L682.578 939.625C676.527 939.68 670.521 939.142 664.552 938.009L663.34 944.395ZM682.636 946.125L682.695 952.625C688.972 952.568 695.227 952.803 701.461 953.329L702.007 946.852L702.554 940.375C695.916 939.815 689.257 939.565 682.578 939.625L682.636 946.125ZM702.007 946.852L701.461 953.329C707.769 953.861 714.067 954.58 720.356 955.487L721.284 949.053L722.211 942.62C715.67 941.677 709.117 940.928 702.554 940.375L702.007 946.852ZM721.284 949.053L720.356 955.487C727.036 956.45 733.742 956.996 740.474 957.126L740.599 950.627L740.725 944.129C734.532 944.009 728.361 943.506 722.211 942.62L721.284 949.053ZM740.599 950.627L740.474 957.126C747.059 957.253 753.653 957.193 760.255 956.946L760.011 950.451L759.768 943.955C753.412 944.193 747.064 944.251 740.725 944.129L740.599 950.627ZM760.011 950.451L760.255 956.946C766.362 956.718 772.44 957.012 778.494 957.83L779.365 951.389L780.235 944.947C773.443 944.03 766.619 943.699 759.768 943.955L760.011 950.451ZM779.365 951.389L778.494 957.83C784.919 958.698 791.346 959.564 797.774 960.428L798.64 953.985L799.505 947.543C793.08 946.68 786.656 945.815 780.235 944.947L779.365 951.389ZM798.64 953.985L797.774 960.428C804.855 961.379 811.975 961.255 819.113 960.065L818.044 953.654L816.976 947.242C811.095 948.222 805.278 948.319 799.505 947.543L798.64 953.985ZM818.044 953.654L819.113 960.065C825.238 959.045 831.324 958.593 837.374 958.704L837.493 952.205L837.613 945.706C830.75 945.58 823.87 946.094 816.976 947.242L818.044 953.654ZM837.493 952.205L837.374 958.704C843.434 958.816 849.479 959.478 855.515 960.695L856.799 954.323L858.084 947.951C851.291 946.582 844.466 945.832 837.613 945.706L837.493 952.205ZM856.799 954.323L855.515 960.695C862.229 962.048 868.968 962.916 875.731 963.297L876.097 956.807L876.462 950.317C870.325 949.971 864.199 949.183 858.084 947.951L856.799 954.323ZM876.097 956.807L875.731 963.297C882.71 963.69 889.703 963.237 896.698 961.946L895.518 955.554L894.339 949.162C888.339 950.269 882.384 950.651 876.462 950.317L876.097 956.807ZM895.518 955.554L896.698 961.946C902.359 960.901 907.953 960.98 913.532 962.177L914.895 955.822L916.259 949.467C908.996 947.908 901.673 947.808 894.339 949.162L895.518 955.554ZM914.895 955.822L913.532 962.177C920.181 963.604 926.848 964.66 933.532 965.342L934.192 958.876L934.852 952.409C928.648 951.776 922.451 950.795 916.259 949.467L914.895 955.822ZM934.192 958.876L933.532 965.342C940.521 966.056 947.527 965.889 954.538 964.847L953.583 958.418L952.628 951.989C946.673 952.873 940.752 953.012 934.852 952.409L934.192 958.876ZM953.583 958.418L954.538 964.847C960.502 963.961 966.434 963.809 972.345 964.385L972.976 957.916L973.607 951.446C966.626 950.766 959.629 950.948 952.628 951.989L953.583 958.418ZM972.976 957.916L972.345 964.385C979.146 965.048 985.959 965.15 992.782 964.691L992.345 958.205L991.909 951.72C985.797 952.131 979.697 952.04 973.607 951.446L972.976 957.916ZM992.345 958.205L992.782 964.691C999.099 964.266 1005.41 964.06 1011.72 964.074L1011.73 957.574L1011.75 951.074C1005.14 951.059 998.525 951.275 991.909 951.72L992.345 958.205ZM1011.73 957.574L1011.72 964.074C1017.83 964.087 1023.94 964.581 1030.06 965.558L1031.08 959.14L1032.11 952.721C1025.33 951.638 1018.55 951.089 1011.75 951.074L1011.73 957.574ZM1031.08 959.14L1030.06 965.558C1037.13 966.688 1044.23 966.77 1051.32 965.802L1050.45 959.362L1049.57 952.921C1043.73 953.717 1037.92 953.65 1032.11 952.721L1031.08 959.14ZM1050.45 959.362L1051.32 965.802C1057.43 964.971 1063.51 964.669 1069.59 964.894L1069.83 958.398L1070.07 951.903C1063.24 951.65 1056.4 951.99 1049.57 952.921L1050.45 959.362ZM1069.83 958.398L1069.59 964.894C1075.73 965.122 1081.88 965.783 1088.03 966.879L1089.17 960.48L1090.31 954.081C1083.57 952.88 1076.82 952.154 1070.07 951.903L1069.83 958.398ZM1089.17 960.48L1088.03 966.879C1095.08 968.136 1102.15 968.375 1109.24 967.593L1108.53 961.132L1107.82 954.671C1101.97 955.316 1096.14 955.121 1090.31 954.081L1089.17 960.48ZM1108.53 961.132L1109.24 967.593C1115.23 966.932 1121.21 966.94 1127.19 967.616L1127.92 961.157L1128.65 954.698C1121.71 953.914 1114.76 953.905 1107.82 954.671L1108.53 961.132ZM1127.92 961.157L1127.19 967.616C1134.1 968.397 1141.01 968.457 1147.93 967.797L1147.31 961.326L1146.69 954.856C1140.68 955.43 1134.67 955.378 1128.65 954.698L1127.92 961.157ZM1147.31 961.326L1147.93 967.797C1153.93 967.223 1159.92 967.294 1165.91 968.01L1166.68 961.556L1167.45 955.102C1160.54 954.276 1153.62 954.194 1146.69 954.856L1147.31 961.326ZM1166.68 961.556L1165.91 968.01C1172.62 968.812 1179.34 969.204 1186.05 969.186L1186.04 962.686L1186.02 956.186C1179.83 956.203 1173.64 955.842 1167.45 955.102L1166.68 961.556ZM1186.04 962.686L1186.05 969.186C1192.78 969.168 1199.5 968.735 1206.23 967.891L1205.42 961.441L1204.61 954.992C1198.4 955.771 1192.21 956.169 1186.02 956.186L1186.04 962.686ZM1205.42 961.441L1206.23 967.891C1212.26 967.134 1218.26 967.009 1224.24 967.511L1224.79 961.034L1225.33 954.557C1218.44 953.978 1211.53 954.124 1204.61 954.992L1205.42 961.441ZM1224.79 961.034L1224.24 967.511C1231 968.078 1237.77 968.159 1244.56 967.755L1244.18 961.266L1243.79 954.778C1237.62 955.145 1231.46 955.071 1225.33 954.557L1224.79 961.034ZM1244.18 961.266L1244.56 967.755C1250.86 967.38 1257.14 967.279 1263.4 967.451L1263.58 960.953L1263.76 954.455C1257.12 954.274 1250.47 954.381 1243.79 954.778L1244.18 961.266ZM1263.58 960.953L1263.4 967.451C1270.08 967.633 1276.77 967.46 1283.45 966.93L1282.94 960.451L1282.43 953.971C1276.2 954.464 1269.98 954.626 1263.76 954.455L1263.58 960.953ZM1282.94 960.451L1283.45 966.93C1290.11 966.403 1296.73 965.581 1303.32 964.463L1302.24 958.055L1301.15 951.646C1294.94 952.7 1288.69 953.474 1282.43 953.971L1282.94 960.451ZM1302.24 958.055L1303.32 964.463C1309.52 963.413 1315.73 962.67 1321.97 962.234L1321.51 955.75L1321.06 949.266C1314.4 949.732 1307.76 950.525 1301.15 951.646L1302.24 958.055ZM1321.51 955.75L1321.97 962.234C1328.36 961.787 1334.75 961.42 1341.13 961.132L1340.84 954.639L1340.55 948.146C1334.06 948.438 1327.56 948.811 1321.06 949.266L1321.51 955.75ZM1340.84 954.639L1341.13 961.132C1347.47 960.847 1353.82 960.712 1360.2 960.725L1360.21 954.225L1360.22 947.725C1353.65 947.711 1347.09 947.851 1340.55 948.146L1340.84 954.639ZM1360.21 954.225L1360.2 960.725C1366.57 960.738 1372.95 960.902 1379.32 961.216L1379.64 954.724L1379.96 948.232C1373.38 947.908 1366.8 947.739 1360.22 947.725L1360.21 954.225ZM1379.64 954.724L1379.32 961.216C1386.24 961.557 1393.11 961.199 1399.94 960.141L1398.94 953.718L1397.94 947.294C1391.99 948.217 1386 948.53 1379.96 948.232L1379.64 954.724ZM1398.94 953.718L1399.94 960.141C1406.36 959.146 1412.76 958.099 1419.13 957.002L1418.02 950.596L1416.92 944.19C1410.62 945.275 1404.3 946.31 1397.94 947.294L1398.94 953.718ZM1418.02 950.596L1419.13 957.002C1425.81 955.85 1432.11 954.195 1438.02 952.02L1435.77 945.921L1433.52 939.822C1428.43 941.698 1422.9 943.16 1416.92 944.19L1418.02 950.596ZM1435.77 945.921L1438.02 952.02C1444.83 949.507 1450.2 945.163 1453.74 938.997L1448.11 935.757L1442.47 932.517C1440.55 935.852 1437.69 938.284 1433.52 939.822L1435.77 945.921ZM1448.11 935.757L1453.74 938.997C1455.11 936.624 1456.13 934.857 1456.81 933.689C1457.15 933.101 1457.4 932.683 1457.55 932.42C1457.59 932.356 1457.62 932.306 1457.64 932.269C1457.67 932.229 1457.68 932.213 1457.68 932.213C1457.68 932.214 1457.67 932.226 1457.66 932.246C1457.65 932.263 1457.62 932.309 1457.57 932.37C1457.55 932.399 1457.43 932.576 1457.26 932.791C1457.19 932.866 1456.94 933.174 1456.56 933.511C1456.39 933.659 1455.94 934.056 1455.25 934.412C1454.9 934.596 1454.29 934.874 1453.48 935.03C1452.65 935.19 1451.39 935.261 1449.98 934.74L1452.25 928.647L1454.52 922.555C1451.82 921.552 1449.65 922.674 1449.25 922.883C1448.56 923.239 1448.1 923.637 1447.93 923.786C1447.55 924.126 1447.3 924.436 1447.23 924.516C1447.05 924.739 1446.91 924.929 1446.88 924.976C1446.79 925.116 1446.71 925.241 1446.67 925.296C1446.59 925.433 1446.49 925.594 1446.39 925.751C1446.2 926.078 1445.92 926.547 1445.58 927.145C1444.88 928.346 1443.84 930.139 1442.47 932.517L1448.11 935.757ZM1452.25 928.647L1446.71 925.249L1446.67 925.317L1452.21 928.715L1457.75 932.114L1457.79 932.046L1452.25 928.647ZM1452.21 928.715L1455.56 934.284L1455.65 934.233L1452.29 928.664L1448.94 923.095L1448.86 923.146L1452.21 928.715Z" fill="black"/>
<path d="M103.675 29.6525C100.085 29.6887 97.2046 32.628 97.2408 36.2176C97.2769 39.8073 100.216 42.688 103.806 42.6518L103.74 36.1522L103.675 29.6525ZM103.84 36.1512L104.448 29.6797L104.112 29.6481L103.775 29.6515L103.84 36.1512ZM229.188 34.9306L229.302 41.4296V41.4296L229.188 34.9306ZM306.581 34.6577L305.913 41.1233L306.581 34.6577ZM325.965 36.3914L325.475 42.8729L325.965 36.3914ZM674.738 34.9637L674.417 41.4558L674.738 34.9637ZM713.471 37.0807L711.869 43.3803L713.471 37.0807ZM771.601 35.6702L771.951 29.1796V29.1796L771.601 35.6702ZM810.34 39.0621L809.982 45.5523L810.34 39.0621ZM849.092 37.8328L848.698 44.3209L849.092 37.8328ZM907.219 36.7114L907.536 30.2191L907.219 36.7114ZM945.968 36.8768L946.922 43.3064L945.968 36.8768ZM1120.33 38.2593L1119.5 31.8124L1120.33 38.2593ZM1197.84 37.1378L1198.53 43.6007L1197.84 37.1378ZM1217.2 37.4197L1218.07 30.9789L1217.2 37.4197ZM1294.73 39.4135L1295.3 32.9381L1294.73 39.4135ZM1333.41 40.1003L1332.39 46.5187L1333.41 40.1003ZM1410.88 38.529L1409.87 44.9502L1410.88 38.529ZM1430.22 38.8035L1429.4 32.3559L1430.22 38.8035ZM1449.61 39.642L1448.25 45.9971L1449.61 39.642ZM1488.34 41.3048L1488.65 34.8126L1488.34 41.3048ZM1585.21 41.1988L1584.45 34.7432L1585.21 41.1988ZM1604.59 40.204L1604.49 46.7033L1604.59 40.204ZM1623.94 40.6455L1624.14 34.1485L1623.94 40.6455ZM1665.74 129.606L1659.4 131.071L1665.74 129.606ZM1668.13 148.884L1661.63 149L1668.13 148.884ZM1668.77 168.245L1662.27 168.556L1668.77 168.245ZM1669.28 207.012L1662.82 207.749L1669.28 207.012ZM1672.01 265.087L1678.5 265.39L1672.01 265.087ZM1668.07 420.096L1661.58 420.464L1668.07 420.096ZM1665.59 439.327L1659.4 437.344L1665.59 439.327ZM1662.11 477.929L1668.52 479.02L1662.11 477.929ZM1653.1 535.348L1646.74 534.012L1653.1 535.348ZM1649.71 554.41L1656.14 555.353L1649.71 554.41ZM1646.49 593.103L1640.34 591.013L1646.49 593.103ZM1641.74 611.951L1648.15 613.02L1641.74 611.951ZM1639.35 631.208L1645.82 631.745L1639.35 631.208ZM1628.09 688.241L1621.6 688.068L1628.09 688.241ZM1615.96 745.047L1609.5 744.396L1615.96 745.047ZM1611.66 763.955L1617.78 766.161L1611.66 763.955ZM1608.89 783.139L1615.38 782.776L1608.89 783.139ZM1593.18 878.714L1586.87 877.145L1593.18 878.714ZM1588.13 896.931L1594.34 898.842L1588.13 896.931ZM1578.67 912.75L1583.35 917.254L1578.67 912.75ZM1563.37 924.475L1566.5 930.171L1563.37 924.475ZM1511.3 950.397L1513.57 956.488L1511.3 950.397ZM1485.62 960.095L1479.22 961.242L1479.29 961.595L1479.39 961.94L1485.62 960.095ZM1485.46 959.206L1491.86 958.06L1490.45 950.203L1483.04 953.172L1485.46 959.206ZM1482.95 953.21C1479.62 954.545 1478 958.329 1479.33 961.661C1480.67 964.993 1484.45 966.612 1487.79 965.277L1485.37 959.243L1482.95 953.21ZM103.74 36.1522L103.806 42.6518L103.906 42.6508L103.84 36.1512L103.775 29.6515L103.675 29.6525L103.74 36.1522ZM103.84 36.1512L103.233 42.6227C115.998 43.8217 126.391 43.7012 133.92 41.8275L132.35 35.5199L130.78 29.2123C125.438 30.5419 116.825 30.8422 104.448 29.6797L103.84 36.1512ZM132.35 35.5199L133.92 41.8275C139.677 40.3944 145.409 39.9314 151.145 40.4202L151.697 33.9436L152.249 27.4671C145.058 26.8543 137.892 27.442 130.78 29.2123L132.35 35.5199ZM151.697 33.9436L151.145 40.4202C157.863 40.9928 164.578 41.1654 171.288 40.9375L171.067 34.4412L170.846 27.945C164.655 28.1553 158.456 27.9962 152.249 27.4671L151.697 33.9436ZM171.067 34.4412L171.288 40.9375C177.403 40.7298 183.516 40.994 189.631 41.7312L190.409 35.2779L191.187 28.8246C184.413 28.008 177.632 27.7145 170.846 27.945L171.067 34.4412ZM190.409 35.2779L189.631 41.7312C196.482 42.5571 203.352 42.7322 210.238 42.2564L209.79 35.7719L209.341 29.2874C203.274 29.7067 197.224 29.5525 191.187 28.8246L190.409 35.2779ZM209.79 35.7719L210.238 42.2564C216.604 41.8165 222.958 41.541 229.302 41.4296L229.188 34.9306L229.074 28.4316C222.506 28.5469 215.929 28.8322 209.341 29.2874L209.79 35.7719ZM229.188 34.9306L229.302 41.4296C235.824 41.3151 242.337 41.1013 248.839 40.7881L248.527 34.2957L248.214 27.8032C241.844 28.11 235.464 28.3195 229.074 28.4316L229.188 34.9306ZM248.527 34.2957L248.839 40.7881C255.097 40.4868 261.36 40.4445 267.631 40.6615L267.856 34.1653L268.081 27.6692C261.452 27.4399 254.83 27.4846 248.214 27.8032L248.527 34.2957ZM267.856 34.1653L267.631 40.6615C274.25 40.8904 280.872 40.8607 287.496 40.5725L287.213 34.0786L286.93 27.5848C280.644 27.8583 274.361 27.8865 268.081 27.6692L267.856 34.1653ZM287.213 34.0786L287.496 40.5725C293.632 40.3054 299.771 40.4888 305.913 41.1233L306.581 34.6577L307.249 28.1921C300.478 27.4927 293.704 27.29 286.93 27.5848L287.213 34.0786ZM306.581 34.6577L305.913 41.1233C312.429 41.7964 318.95 42.3796 325.475 42.8729L325.965 36.3914L326.455 29.9099C320.049 29.4255 313.647 28.853 307.249 28.1921L306.581 34.6577ZM325.965 36.3914L325.475 42.8729C331.954 43.3627 338.443 43.8315 344.939 44.2792L345.386 37.7946L345.833 31.31C339.365 30.8643 332.906 30.3976 326.455 29.9099L325.965 36.3914ZM345.386 37.7946L344.939 44.2792C351.744 44.7481 358.534 44.7083 365.306 44.1592L364.781 37.6804L364.256 31.2017C358.133 31.6981 351.993 31.7344 345.833 31.31L345.386 37.7946ZM364.781 37.6804L365.306 44.1592C371.409 43.6644 377.499 43.6593 383.582 44.1432L384.098 37.6637L384.613 31.1841C377.836 30.6449 371.049 30.6509 364.256 31.2017L364.781 37.6804ZM384.098 37.6637L383.582 44.1432C390.406 44.6861 397.245 44.6082 404.094 43.9112L403.436 37.4446L402.778 30.978C396.703 31.5962 390.65 31.6644 384.613 31.1841L384.098 37.6637ZM403.436 37.4446L404.094 43.9112C410.18 43.2918 416.279 43.2037 422.394 43.6473L422.865 37.1644L423.335 30.6814C416.469 30.1833 409.615 30.2821 402.778 30.978L403.436 37.4446ZM422.865 37.1644L422.394 43.6473C429.277 44.1467 436.137 44.0193 442.97 43.2642L442.256 36.8035L441.542 30.3428C435.5 31.0106 429.432 31.1238 423.335 30.6814L422.865 37.1644ZM442.256 36.8035L442.97 43.2642C449.135 42.5827 455.303 42.2931 461.476 42.3947L461.583 35.8956L461.69 29.3965C454.967 29.2858 448.25 29.6014 441.542 30.3428L442.256 36.8035ZM461.583 35.8956L461.476 42.3947C468.081 42.5035 474.706 42.3717 481.351 41.9997L480.987 35.5099L480.624 29.0201C474.29 29.3747 467.979 29.5 461.69 29.3965L461.583 35.8956ZM480.987 35.5099L481.351 41.9997C487.497 41.6556 493.614 41.7987 499.705 42.4282L500.373 35.9626L501.041 29.497C494.262 28.7964 487.455 28.6376 480.624 29.0201L480.987 35.5099ZM500.373 35.9626L499.705 42.4282C506.197 43.0992 512.699 43.6837 519.211 44.1816L519.706 37.7006L520.202 31.2195C513.805 30.7303 507.418 30.1562 501.041 29.497L500.373 35.9626ZM519.706 37.7006L519.211 44.1816C525.994 44.7004 532.794 44.702 539.608 44.1873L539.118 37.7057L538.628 31.2242C532.468 31.6896 526.326 31.6878 520.202 31.2195L519.706 37.7006ZM539.118 37.7057L539.608 44.1873C545.947 43.7083 552.255 43.4497 558.532 43.4111L558.492 36.9112L558.452 30.4113C551.871 30.4518 545.263 30.7229 538.628 31.2242L539.118 37.7057ZM558.492 36.9112L558.532 43.4111C564.834 43.3723 571.158 43.5186 577.504 43.8501L577.844 37.359L578.183 30.8678C571.586 30.5232 565.009 30.371 558.452 30.4113L558.492 36.9112ZM577.844 37.359L577.504 43.8501C584.185 44.1991 590.857 44.2254 597.519 43.9288L597.23 37.4353L596.941 30.9417C590.699 31.2196 584.446 31.195 578.183 30.8678L577.844 37.359ZM597.23 37.4353L597.519 43.9288C604.028 43.6391 610.538 43.264 617.051 42.8037L616.593 36.3199L616.135 29.8361C609.734 30.2884 603.336 30.657 596.941 30.9417L597.23 37.4353ZM616.593 36.3199L617.051 42.8037C623.335 42.3597 629.626 42.1677 635.923 42.2277L635.985 35.728L636.047 29.2283C629.402 29.1649 622.765 29.3675 616.135 29.8361L616.593 36.3199ZM635.985 35.728L635.923 42.2277C642.565 42.2911 649.193 42.094 655.807 41.6366L655.359 35.152L654.91 28.6675C648.636 29.1015 642.349 29.2884 636.047 29.2283L635.985 35.728ZM655.359 35.152L655.807 41.6366C661.995 41.2086 668.197 41.1483 674.417 41.4558L674.738 34.9637L675.059 28.4716C668.328 28.1389 661.612 28.2041 654.91 28.6675L655.359 35.152ZM674.738 34.9637L674.417 41.4558C681.09 41.7857 687.749 41.8086 694.392 41.5242L694.114 35.0302L693.836 28.5361C687.594 28.8034 681.335 28.782 675.059 28.4716L674.738 34.9637ZM694.114 35.0302L694.392 41.5242C700.182 41.2764 706.001 41.8882 711.869 43.3803L713.471 37.0807L715.073 30.7812C708.019 28.9876 700.933 28.2323 693.836 28.5361L694.114 35.0302ZM713.471 37.0807L711.869 43.3803C718.904 45.1691 725.973 45.9553 733.058 45.7201L732.843 39.2237L732.627 32.7272C726.805 32.9205 720.96 32.2781 715.073 30.7812L713.471 37.0807ZM732.843 39.2237L733.058 45.7201C739.861 45.4943 746.661 44.7219 753.454 43.4066L752.219 37.0251L750.983 30.6436C744.849 31.8312 738.732 32.5246 732.627 32.7272L732.843 39.2237ZM752.219 37.0251L753.454 43.4066C759.406 42.2544 765.334 41.8418 771.251 42.1608L771.601 35.6702L771.951 29.1796C764.953 28.8023 757.96 29.293 750.983 30.6436L752.219 37.0251ZM771.601 35.6702L771.251 42.1608C777.565 42.5012 783.878 43.052 790.191 43.8132L790.969 37.36L791.747 30.9068C785.151 30.1113 778.553 29.5356 771.951 29.1796L771.601 35.6702ZM790.969 37.36L790.191 43.8132C796.784 44.6084 803.381 45.1881 809.982 45.5523L810.34 39.0621L810.698 32.572C804.379 32.2234 798.062 31.6684 791.747 30.9068L790.969 37.36ZM810.34 39.0621L809.982 45.5523C816.824 45.9298 823.665 45.703 830.5 44.8731L829.717 38.4205L828.933 31.9679C822.851 32.7063 816.774 32.9073 810.698 32.572L810.34 39.0621ZM829.717 38.4205L830.5 44.8731C836.57 44.1362 842.634 43.9525 848.698 44.3209L849.092 37.8328L849.486 31.3448C842.633 30.9284 835.78 31.1366 828.933 31.9679L829.717 38.4205ZM849.092 37.8328L848.698 44.3209C855.202 44.716 861.705 45.0422 868.208 45.2996L868.465 38.8047L868.722 32.3097C862.311 32.056 855.899 31.7344 849.486 31.3448L849.092 37.8328ZM868.465 38.8047L868.208 45.2996C875.082 45.5716 881.954 45.184 888.818 44.1396L887.84 37.7136L886.862 31.2875C880.806 32.209 874.761 32.5488 868.722 32.3097L868.465 38.8047ZM887.84 37.7136L888.818 44.1396C894.854 43.2211 900.881 42.9102 906.903 43.2037L907.219 36.7114L907.536 30.2191C900.639 29.883 893.746 30.2401 886.862 31.2875L887.84 37.7136ZM907.219 36.7114L906.903 43.2037C913.341 43.5175 919.777 43.8626 926.211 44.2388L926.59 37.7499L926.97 31.261C920.494 30.8823 914.016 30.535 907.536 30.2191L907.219 36.7114ZM926.59 37.7499L926.211 44.2388C933.116 44.6427 940.022 44.3308 946.922 43.3064L945.968 36.8768L945.013 30.4473C938.987 31.342 932.974 31.6122 926.97 31.261L926.59 37.7499ZM945.968 36.8768L946.922 43.3064C952.596 42.464 958.259 42.6613 963.95 43.9093L965.342 37.5602L966.734 31.2111C959.519 29.6288 952.266 29.3705 945.013 30.4473L945.968 36.8768ZM965.342 37.5602L963.95 43.9093C970.818 45.4154 977.705 46.2253 984.605 46.3323L984.706 39.8331L984.807 33.3339C978.795 33.2407 972.773 32.5353 966.734 31.2111L965.342 37.5602ZM984.706 39.8331L984.605 46.3323C991.55 46.44 998.489 45.7703 1005.41 44.331L1004.09 37.967L1002.77 31.6031C996.758 32.8522 990.774 33.4264 984.807 33.3339L984.706 39.8331ZM1004.09 37.967L1005.41 44.331C1011.41 43.0848 1017.37 42.5329 1023.32 42.6664L1023.46 36.168L1023.61 29.6697C1016.66 29.5135 1009.71 30.1609 1002.77 31.6031L1004.09 37.967ZM1023.46 36.168L1023.32 42.6664C1029.67 42.8091 1036.04 43.0889 1042.42 43.5057L1042.84 37.0195L1043.26 30.5333C1036.7 30.1045 1030.15 29.8166 1023.61 29.6697L1023.46 36.168ZM1042.84 37.0195L1042.42 43.5057C1048.85 43.9265 1055.28 44.3911 1061.68 44.8993L1062.2 38.4197L1062.71 31.94C1056.24 31.427 1049.76 30.9581 1043.26 30.5333L1042.84 37.0195ZM1062.2 38.4197L1061.68 44.8993C1068.26 45.4214 1074.87 45.7237 1081.49 45.8062L1081.57 39.3067L1081.65 32.8072C1075.32 32.7283 1069 32.4392 1062.71 31.94L1062.2 38.4197ZM1081.57 39.3067L1081.49 45.8062C1087.98 45.8871 1094.47 45.9409 1100.93 45.9674L1100.96 39.4675L1100.98 32.9676C1094.55 32.9411 1088.11 32.8877 1081.65 32.8072L1081.57 39.3067ZM1100.96 39.4675L1100.93 45.9674C1107.67 45.9951 1114.41 45.5742 1121.16 44.7061L1120.33 38.2593L1119.5 31.8124C1113.31 32.6083 1107.14 32.9928 1100.98 32.9676L1100.96 39.4675ZM1120.33 38.2593L1121.16 44.7061C1127.37 43.9072 1133.57 43.4854 1139.77 43.4398L1139.72 36.94L1139.68 30.4402C1132.95 30.4896 1126.22 30.9474 1119.5 31.8124L1120.33 38.2593ZM1139.72 36.94L1139.77 43.4398C1146.09 43.3933 1152.4 43.5529 1158.7 43.9185L1159.08 37.4294L1159.45 30.9404C1152.87 30.5583 1146.28 30.3916 1139.68 30.4402L1139.72 36.94ZM1159.08 37.4294L1158.7 43.9185C1165.24 44.2985 1171.81 44.5196 1178.39 44.5819L1178.46 38.0822L1178.52 31.5825C1172.14 31.5222 1165.79 31.3081 1159.45 30.9404L1159.08 37.4294ZM1178.46 38.0822L1178.39 44.5819C1185.13 44.6456 1191.84 44.3186 1198.53 43.6007L1197.84 37.1378L1197.15 30.6749C1190.95 31.3389 1184.75 31.6414 1178.52 31.5825L1178.46 38.0822ZM1197.84 37.1378L1198.53 43.6007C1204.45 42.9662 1210.37 43.0518 1216.32 43.8605L1217.2 37.4197L1218.07 30.9789C1211.09 30.0299 1204.11 29.9276 1197.15 30.6749L1197.84 37.1378ZM1217.2 37.4197L1216.32 43.8605C1222.98 44.7647 1229.63 45.3756 1236.29 45.6928L1236.6 39.2001L1236.91 32.7075C1230.63 32.4085 1224.36 31.8325 1218.07 30.9789L1217.2 37.4197ZM1236.6 39.2001L1236.29 45.6928C1243.21 46.0227 1250.12 45.6209 1256.99 44.4893L1255.93 38.0757L1254.88 31.662C1248.9 32.6459 1242.91 32.9937 1236.91 32.7075L1236.6 39.2001ZM1255.93 38.0757L1256.99 44.4893C1262.84 43.5269 1268.71 43.361 1274.62 43.9924L1275.31 37.5292L1276 31.066C1268.93 30.3106 1261.88 30.509 1254.88 31.662L1255.93 38.0757ZM1275.31 37.5292L1274.62 43.9924C1281.15 44.6903 1287.66 45.3225 1294.17 45.889L1294.73 39.4135L1295.3 32.9381C1288.88 32.3789 1282.44 31.7549 1276 31.066L1275.31 37.5292ZM1294.73 39.4135L1294.17 45.889C1301.01 46.4847 1307.83 46.481 1314.64 45.8769L1314.06 39.4023L1313.49 32.9278C1307.44 33.4643 1301.38 33.4681 1295.3 32.9381L1294.73 39.4135ZM1314.06 39.4023L1314.64 45.8769C1320.52 45.3547 1326.43 45.5663 1332.39 46.5187L1333.41 40.1003L1334.44 33.6819C1327.45 32.5629 1320.46 32.3093 1313.49 32.9278L1314.06 39.4023ZM1333.41 40.1003L1332.39 46.5187C1339.4 47.6407 1346.43 47.8675 1353.47 47.1958L1352.85 40.7252L1352.23 34.2547C1346.3 34.821 1340.38 34.6312 1334.44 33.6819L1333.41 40.1003ZM1352.85 40.7252L1353.47 47.1958C1360.05 46.5672 1366.62 45.7848 1373.18 44.8486L1372.26 38.4139L1371.34 31.9791C1364.98 32.8868 1358.61 33.6453 1352.23 34.2547L1352.85 40.7252ZM1372.26 38.4139L1373.18 44.8486C1379.34 43.9693 1385.48 43.5279 1391.6 43.5226L1391.59 37.0226L1391.59 30.5226C1384.85 30.5285 1378.09 31.0146 1371.34 31.9791L1372.26 38.4139ZM1391.59 37.0226L1391.6 43.5226C1397.69 43.5172 1403.78 43.9924 1409.87 44.9502L1410.88 38.529L1411.89 32.1078C1405.13 31.0457 1398.36 30.5166 1391.59 30.5226L1391.59 37.0226ZM1410.88 38.529L1409.87 44.9502C1416.9 46.0557 1423.97 46.1556 1431.05 45.251L1430.22 38.8035L1429.4 32.3559C1423.54 33.1052 1417.71 33.0221 1411.89 32.1078L1410.88 38.529ZM1430.22 38.8035L1431.05 45.251C1436.78 44.5184 1442.5 44.7637 1448.25 45.9971L1449.61 39.642L1450.98 33.2869C1443.81 31.7484 1436.61 31.4346 1429.4 32.3559L1430.22 38.8035ZM1449.61 39.642L1448.25 45.9971C1455.23 47.4977 1462.24 48.0918 1469.26 47.7682L1468.96 41.2751L1468.66 34.782C1462.79 35.0529 1456.9 34.5582 1450.98 33.2869L1449.61 39.642ZM1468.96 41.2751L1469.26 47.7682C1475.5 47.4805 1481.76 47.4901 1488.02 47.797L1488.34 41.3048L1488.65 34.8126C1481.98 34.4856 1475.32 34.4753 1468.66 34.782L1468.96 41.2751ZM1488.34 41.3048L1488.02 47.797C1494.81 48.1301 1501.61 47.9518 1508.42 47.2632L1507.76 40.7962L1507.11 34.3292C1500.95 34.9529 1494.79 35.1137 1488.65 34.8126L1488.34 41.3048ZM1507.76 40.7962L1508.42 47.2632C1514.58 46.6404 1520.71 46.4927 1526.82 46.8184L1527.16 40.3276L1527.51 33.8368C1520.72 33.4752 1513.92 33.6398 1507.11 34.3292L1507.76 40.7962ZM1527.16 40.3276L1526.82 46.8184C1533.66 47.1835 1540.52 46.9163 1547.37 46.0192L1546.52 39.5742L1545.68 33.1292C1539.61 33.924 1533.55 34.1591 1527.51 33.8368L1527.16 40.3276ZM1546.52 39.5742L1547.37 46.0192C1553.1 45.2688 1558.81 45.4886 1564.52 46.6853L1565.85 40.3232L1567.19 33.9612C1560.05 32.4671 1552.87 32.1876 1545.68 33.1292L1546.52 39.5742ZM1565.85 40.3232L1564.52 46.6853C1571.63 48.1736 1578.79 48.4985 1585.97 47.6543L1585.21 41.1988L1584.45 34.7432C1578.68 35.4224 1572.93 35.1636 1567.19 33.9612L1565.85 40.3232ZM1585.21 41.1988L1585.97 47.6543C1592.17 46.9257 1598.34 46.6092 1604.49 46.7033L1604.59 40.204L1604.69 33.7048C1597.96 33.6019 1591.21 33.9485 1584.45 34.7432L1585.21 41.1988ZM1604.59 40.204L1604.49 46.7033C1610.91 46.8013 1617.32 46.9477 1623.74 47.1425L1623.94 40.6455L1624.14 34.1485C1617.65 33.9517 1611.17 33.8038 1604.69 33.7048L1604.59 40.204ZM1623.94 40.6455L1623.74 47.1425C1629.89 47.329 1636.01 47.9526 1642.11 49.0146L1643.23 42.6109L1644.34 36.2072C1637.64 35.0403 1630.9 34.3537 1624.14 34.1485L1623.94 40.6455ZM1643.23 42.6109L1642.11 49.0146C1646.55 49.7867 1649.77 52.0345 1652.16 56.2038L1657.8 52.9785L1663.44 49.7533C1659.2 42.3279 1652.71 37.664 1644.34 36.2072L1643.23 42.6109ZM1657.8 52.9785L1652.16 56.2038C1655.01 61.1869 1656.62 66.4046 1657.04 71.9153L1663.52 71.4169L1670 70.9186C1669.43 63.4394 1667.22 56.3647 1663.44 49.7533L1657.8 52.9785ZM1663.52 71.4169L1657.04 71.9153C1657.53 78.2466 1657.77 84.5665 1657.77 90.8754L1664.27 90.8719L1670.77 90.8684C1670.77 84.2272 1670.51 77.5772 1670 70.9186L1663.52 71.4169ZM1664.27 90.8719L1657.77 90.8754C1657.78 97.2644 1657.65 103.654 1657.4 110.045L1663.9 110.3L1670.39 110.554C1670.65 103.991 1670.78 97.4295 1670.77 90.8684L1664.27 90.8719ZM1663.9 110.3L1657.4 110.045C1657.13 117.107 1657.8 124.12 1659.4 131.071L1665.74 129.606L1672.07 128.142C1670.72 122.303 1670.16 116.446 1670.39 110.554L1663.9 110.3ZM1665.74 129.606L1659.4 131.071C1660.78 137.03 1661.52 143.004 1661.63 149L1668.13 148.884L1674.63 148.768C1674.5 141.849 1673.65 134.971 1672.07 128.142L1665.74 129.606ZM1668.13 148.884L1661.63 149C1661.75 155.523 1661.96 162.041 1662.27 168.556L1668.77 168.245L1675.26 167.934C1674.95 161.549 1674.74 155.16 1674.63 148.768L1668.13 148.884ZM1668.77 168.245L1662.27 168.556C1662.57 174.785 1662.55 181.027 1662.21 187.284L1668.7 187.634L1675.19 187.984C1675.56 181.289 1675.58 174.605 1675.26 167.934L1668.77 168.245ZM1668.7 187.634L1662.21 187.284C1661.84 194.122 1662.05 200.945 1662.82 207.749L1669.28 207.012L1675.74 206.275C1675.05 200.193 1674.86 194.098 1675.19 187.984L1668.7 187.634ZM1669.28 207.012L1662.82 207.749C1663.54 214.01 1663.99 220.274 1664.17 226.543L1670.66 226.355L1677.16 226.167C1676.97 219.53 1676.5 212.899 1675.74 206.275L1669.28 207.012ZM1670.66 226.355L1664.17 226.543C1664.36 233.102 1664.71 239.661 1665.22 246.22L1671.7 245.713L1678.18 245.205C1677.69 238.859 1677.35 232.513 1677.16 226.167L1670.66 226.355ZM1671.7 245.713L1665.22 246.22C1665.71 252.402 1665.8 258.59 1665.51 264.784L1672.01 265.087L1678.5 265.39C1678.81 258.656 1678.71 251.927 1678.18 245.205L1671.7 245.713ZM1672.01 265.087L1665.51 264.784C1665.22 271.148 1664.77 277.51 1664.18 283.87L1670.65 284.472L1677.12 285.075C1677.73 278.516 1678.19 271.954 1678.5 265.39L1672.01 265.087ZM1670.65 284.472L1664.18 283.87C1663.54 290.776 1663.61 297.686 1664.4 304.592L1670.86 303.855L1677.31 303.118C1676.63 297.099 1676.56 291.087 1677.12 285.075L1670.65 284.472ZM1670.86 303.855L1664.4 304.592C1665.12 310.89 1665.59 317.19 1665.83 323.491L1672.32 323.249L1678.82 323.007C1678.57 316.374 1678.07 309.744 1677.31 303.118L1670.86 303.855ZM1672.32 323.249L1665.83 323.491C1666.05 329.452 1665.58 335.403 1664.42 341.352L1670.8 342.6L1677.18 343.847C1678.53 336.93 1679.08 329.98 1678.82 323.007L1672.32 323.249ZM1670.8 342.6L1664.42 341.352C1663.09 348.169 1662.38 355.008 1662.31 361.865L1668.81 361.933L1675.31 362.001C1675.37 355.947 1675.99 349.898 1677.18 343.847L1670.8 342.6ZM1668.81 361.933L1662.31 361.865C1662.24 368.549 1662.52 375.249 1663.16 381.964L1669.63 381.353L1676.1 380.743C1675.51 374.474 1675.24 368.227 1675.31 362.001L1668.81 361.933ZM1669.63 381.353L1663.16 381.964C1663.72 387.917 1663.54 393.828 1662.61 399.707L1669.03 400.716L1675.45 401.725C1676.55 394.77 1676.76 387.772 1676.1 380.743L1669.63 381.353ZM1669.03 400.716L1662.61 399.707C1661.53 406.581 1661.19 413.503 1661.58 420.464L1668.07 420.096L1674.56 419.728C1674.22 413.685 1674.52 407.686 1675.45 401.725L1669.03 400.716ZM1668.07 420.096L1661.58 420.464C1661.91 426.156 1661.19 431.771 1659.4 437.344L1665.59 439.327L1671.78 441.31C1674.04 434.247 1674.98 427.041 1674.56 419.728L1668.07 420.096ZM1665.59 439.327L1659.4 437.344C1657.14 444.417 1656.22 451.64 1656.66 458.975L1663.15 458.582L1669.64 458.189C1669.29 452.487 1670 446.874 1671.78 441.31L1665.59 439.327ZM1663.15 458.582L1656.66 458.975C1657.03 465.002 1656.71 470.953 1655.7 476.838L1662.11 477.929L1668.52 479.02C1669.69 472.146 1670.06 465.199 1669.64 458.189L1663.15 458.582ZM1662.11 477.929L1655.7 476.838C1654.56 483.541 1653.93 490.302 1653.81 497.118L1660.31 497.234L1666.81 497.351C1666.92 491.186 1667.49 485.077 1668.52 479.02L1662.11 477.929ZM1660.31 497.234L1653.81 497.118C1653.7 503.079 1652.88 508.949 1651.33 514.738L1657.61 516.413L1663.9 518.088C1665.71 511.285 1666.68 504.369 1666.81 497.351L1660.31 497.234ZM1657.61 516.413L1651.33 514.738C1649.63 521.145 1648.09 527.569 1646.74 534.012L1653.1 535.348L1659.46 536.684C1660.77 530.47 1662.25 524.272 1663.9 518.088L1657.61 516.413ZM1653.1 535.348L1646.74 534.012C1645.39 540.47 1644.23 546.955 1643.28 553.468L1649.71 554.41L1656.14 555.353C1657.05 549.105 1658.16 542.882 1659.46 536.684L1653.1 535.348ZM1649.71 554.41L1643.28 553.468C1642.27 560.318 1642.01 567.276 1642.49 574.334L1648.98 573.895L1655.46 573.455C1655.04 567.295 1655.27 561.263 1656.14 555.353L1649.71 554.41ZM1648.98 573.895L1642.49 574.334C1642.88 580.097 1642.16 585.64 1640.34 591.013L1646.49 593.103L1652.65 595.194C1655.03 588.173 1655.97 580.91 1655.46 573.455L1648.98 573.895ZM1646.49 593.103L1640.34 591.013C1638.12 597.538 1636.45 604.162 1635.33 610.882L1641.74 611.951L1648.15 613.02C1649.16 607.003 1650.65 601.062 1652.65 595.194L1646.49 593.103ZM1641.74 611.951L1635.33 610.882C1634.24 617.428 1633.42 624.024 1632.87 630.672L1639.35 631.208L1645.82 631.745C1646.34 625.452 1647.12 619.211 1648.15 613.02L1641.74 611.951ZM1639.35 631.208L1632.87 630.672C1632.36 636.79 1631.36 642.81 1629.88 648.736L1636.18 650.319L1642.49 651.901C1644.15 645.286 1645.26 638.566 1645.82 631.745L1639.35 631.208ZM1636.18 650.319L1629.88 648.736C1628.32 654.925 1626.65 661.09 1624.85 667.231L1631.09 669.057L1637.33 670.882C1639.17 664.581 1640.89 658.254 1642.49 651.901L1636.18 650.319ZM1631.09 669.057L1624.85 667.231C1622.87 673.997 1621.79 680.947 1621.6 688.068L1628.09 688.241L1634.59 688.415C1634.75 682.398 1635.67 676.559 1637.33 670.882L1631.09 669.057ZM1628.09 688.241L1621.6 688.068C1621.44 693.854 1620.28 699.403 1618.09 704.753L1624.11 707.208L1630.13 709.664C1632.91 702.861 1634.4 695.766 1634.59 688.415L1628.09 688.241ZM1624.11 707.208L1618.09 704.753C1615.45 711.239 1613.5 717.884 1612.27 724.683L1618.67 725.844L1625.06 727.004C1626.13 721.107 1627.82 715.329 1630.13 709.664L1624.11 707.208ZM1618.67 725.844L1612.27 724.683C1611.09 731.201 1610.16 737.772 1609.5 744.396L1615.96 745.047L1622.43 745.698C1623.06 739.414 1623.94 733.182 1625.06 727.004L1618.67 725.844ZM1615.96 745.047L1609.5 744.396C1608.9 750.316 1607.59 756.096 1605.55 761.75L1611.66 763.955L1617.78 766.161C1620.17 759.512 1621.73 752.688 1622.43 745.698L1615.96 745.047ZM1611.66 763.955L1605.55 761.75C1603.03 768.737 1601.98 776.006 1602.4 783.502L1608.89 783.139L1615.38 782.776C1615.06 776.995 1615.86 771.475 1617.78 766.161L1611.66 763.955ZM1608.89 783.139L1602.4 783.502C1602.74 789.53 1602.22 795.362 1600.88 801.019L1607.2 802.528L1613.52 804.036C1615.17 797.119 1615.79 790.025 1615.38 782.776L1608.89 783.139ZM1607.2 802.528L1600.88 801.019C1599.33 807.504 1598.09 814.045 1597.16 820.642L1603.59 821.551L1610.03 822.46C1610.9 816.266 1612.07 810.125 1613.52 804.036L1607.2 802.528ZM1603.59 821.551L1597.16 820.642C1596.26 826.995 1595.3 833.333 1594.28 839.656L1600.7 840.692L1607.12 841.727C1608.15 835.32 1609.12 828.897 1610.03 822.46L1603.59 821.551ZM1600.7 840.692L1594.28 839.656C1593.26 845.96 1592.16 852.256 1590.96 858.543L1597.34 859.761L1603.73 860.979C1604.95 854.571 1606.08 848.154 1607.12 841.727L1600.7 840.692ZM1597.34 859.761L1590.96 858.543C1589.77 864.773 1588.41 870.973 1586.87 877.145L1593.18 878.714L1599.49 880.283C1601.08 873.88 1602.49 867.445 1603.73 860.979L1597.34 859.761ZM1593.18 878.714L1586.87 877.145C1585.33 883.325 1583.68 889.283 1581.92 895.02L1588.13 896.931L1594.34 898.842C1596.18 892.866 1597.89 886.679 1599.49 880.283L1593.18 878.714ZM1588.13 896.931L1581.92 895.02C1580.43 899.845 1577.83 904.243 1573.98 908.246L1578.67 912.75L1583.35 917.254C1588.52 911.878 1592.22 905.73 1594.34 898.842L1588.13 896.931ZM1578.67 912.75L1573.98 908.246C1569.93 912.463 1565.35 915.968 1560.24 918.778L1563.37 924.475L1566.5 930.171C1572.77 926.727 1578.39 922.417 1583.35 917.254L1578.67 912.75ZM1563.37 924.475L1560.24 918.778C1554.38 921.999 1548.67 925.481 1543.11 929.223L1546.74 934.614L1550.37 940.006C1555.61 936.482 1560.98 933.204 1566.5 930.171L1563.37 924.475ZM1546.74 934.614L1543.11 929.223C1538.13 932.578 1532.83 935.324 1527.2 937.464L1529.52 943.539L1531.83 949.615C1538.38 947.121 1544.57 943.917 1550.37 940.006L1546.74 934.614ZM1529.52 943.539L1527.2 937.464C1521.13 939.776 1515.07 942.056 1509.03 944.306L1511.3 950.397L1513.57 956.488C1519.64 954.228 1525.72 951.937 1531.83 949.615L1529.52 943.539ZM1511.3 950.397L1509.03 944.306C1502.87 946.6 1497.01 948.967 1491.44 951.41L1494.05 957.363L1496.66 963.316C1501.98 960.98 1507.62 958.704 1513.57 956.488L1511.3 950.397ZM1494.05 957.363L1491.44 951.41C1488.75 952.587 1486.93 953.304 1485.85 953.655C1485.24 953.852 1485.21 953.82 1485.5 953.787C1485.58 953.777 1486.33 953.68 1487.32 953.918C1487.86 954.047 1488.74 954.338 1489.65 955.033C1490.63 955.79 1491.45 956.89 1491.85 958.251L1485.62 960.095L1479.39 961.94C1480.33 965.141 1483.02 966.256 1484.29 966.56C1485.49 966.848 1486.53 966.754 1486.98 966.701C1488.02 966.582 1489.06 966.28 1489.86 966.021C1491.58 965.462 1493.89 964.529 1496.66 963.316L1494.05 957.363ZM1485.62 960.095L1492.02 958.949L1491.86 958.06L1485.46 959.206L1479.06 960.352L1479.22 961.242L1485.62 960.095ZM1485.46 959.206L1483.04 953.172L1482.95 953.21L1485.37 959.243L1487.79 965.277L1487.88 965.239L1485.46 959.206Z" fill="black"/>
</svg>
