<svg width="144" height="160" viewBox="0 0 144 160" fill="none" xmlns="http://www.w3.org/2000/svg">
<path d="M46.881 25.5772C54.2469 18.1013 65.3296 16.6887 73.1876 17.0518C77.4668 17.2495 81.758 18 85.5773 19.2588C89.0115 20.3908 93.1774 22.296 96.3068 25.5567L96.6056 25.876L96.8341 26.1328C97.96 27.4303 98.8448 28.9337 99.3614 29.836C100.061 31.057 100.821 32.5116 101.609 34.0957C103.195 37.2797 105.093 41.3894 107.154 46.0498C111.287 55.3924 116.227 67.2989 120.878 79.1953C125.52 91.0677 129.94 103.1 132.993 112.656C134.509 117.399 135.766 121.774 136.529 125.314C136.905 127.056 137.229 128.91 137.35 130.655C137.41 131.528 137.439 132.632 137.315 133.824C137.206 134.873 136.899 136.86 135.721 138.938C132.387 144.818 126.087 146.764 122.83 147.523C118.806 148.462 114.342 148.703 110.264 148.575C106.125 148.445 101.844 147.916 98.047 147.025C94.7514 146.253 90.0636 144.826 86.6114 141.881C81.8792 137.844 79.87 132.083 78.9435 127.969H62.0597C61.188 131.06 60.0834 134.67 58.9171 137.591C57.2263 141.826 53.886 144.066 51.8331 145.144C49.614 146.309 47.2529 146.986 45.2374 147.412C41.1529 148.276 36.4871 148.519 32.2589 148.412C28.0048 148.305 23.5292 147.827 19.7521 146.934C17.9093 146.498 15.7719 145.857 13.7921 144.861C12.4183 144.17 8.25249 141.944 6.60656 136.964C5.8764 134.754 5.99468 132.781 6.0216 132.273C6.06765 131.405 6.18304 130.586 6.29211 129.933C6.51422 128.602 6.86159 127.088 7.25402 125.549C8.05085 122.423 9.24222 118.383 10.6798 113.826C13.5684 104.67 17.6173 92.8955 21.9493 81.0527C26.279 69.2166 30.9438 57.1702 35.0743 47.4951C37.1339 42.6709 39.1151 38.3069 40.8966 34.8047C42.426 31.7981 44.4906 28.0034 46.881 25.5772Z" fill="#EFA2AE"/>
<path d="M83 75C88.5 75 90 68 90 61.5C90 55 88.5 48 83 48C78.5817 48 75 54.0442 75 61.5C75 68.9558 78.5817 75 83 75Z" fill="none"/>
<path d="M86.5 71C88.6087 71 89 66.271 89 61.1935C89 56.1161 88.6087 52 86.5 52C84.3913 52 83 56.1161 83 61.1935C83 66.271 84.3913 71 86.5 71Z" fill="#222222"/>
<path d="M59 75C64.5 75 65.5 68.9558 65.5 61.5C65.5 54.0442 64.5 48 59 48C54.5817 48 51 54.0442 51 61.5C51 68.9558 54.5817 75 59 75Z" fill="none"/>
<path d="M61.5 70C63.6087 70 64 65.5199 64 60.7097C64 55.8995 63.6087 52 61.5 52C59.3913 52 58 55.8995 58 60.7097C58 65.5199 59.3913 70 61.5 70Z" fill="#222222"/>
<path d="M58.7273 84.9211C59.6814 79.9491 63.1803 83.6089 68.4756 84.625C73.7709 85.6412 78.8574 83.6287 77.9033 88.6008C76.9492 93.5729 71.8831 96.7798 66.5878 95.7637C61.2925 94.7476 57.7732 89.8932 58.7273 84.9211Z" fill="#222222"/>
<path d="M72.6496 95.0834C70.8385 95.8935 68.7314 96.1742 66.5873 95.7628C65.3244 95.5204 64.164 95.0569 63.1396 94.4283C64.2167 93.3342 65.7711 92.633 67.5117 92.6026C69.6613 92.5651 71.5634 93.5594 72.6496 95.0834Z" fill="none"/>
<path d="M39.5083 121.826C41.3836 121.141 42.3488 119.066 41.6642 117.19L29.2677 83.2349L22.4766 85.7142L34.8731 119.67C35.5577 121.545 37.633 122.51 39.5083 121.826Z" fill="url(#paint0_linear_390_3794)"/>
<path d="M34.8733 119.671C35.5583 121.546 37.6334 122.511 39.5084 121.826C41.383 121.142 42.3479 119.067 41.6643 117.192L34.8733 119.671Z" fill="black"/>
<path d="M17.149 55.8509C16.7635 55.2475 15.816 55.418 15.6923 56.1233L12.401 74.8968C10.9808 82.9972 18.8621 89.5972 26.5873 86.7769C34.819 83.7717 35.6153 73.4539 28.592 68.2132C24.4761 65.1419 20.7236 61.4454 17.149 55.8509Z" fill="#211100"/>
<path d="M30.745 70.2544C30.1349 69.518 29.4175 68.8309 28.5918 68.2148C24.4761 65.1437 20.7241 61.447 17.1497 55.853C16.7642 55.2496 15.8166 55.4198 15.6928 56.125L12.4013 74.8991C12.3689 75.0836 12.3436 75.2675 12.3208 75.4504C14.5827 73.765 17.68 72.0056 18.3446 74.3948C17.9778 76.4923 25.8733 76.4029 22.8717 72.742C19.8697 69.0809 26.9325 68.0527 26.8337 71.2956C26.7576 73.7961 29.4899 71.4559 30.745 70.2544Z" fill="url(#paint1_linear_390_3794)"/>
<defs>
<linearGradient id="paint0_linear_390_3794" x1="28" y1="101" x2="36.5" y2="96.5" gradientUnits="userSpaceOnUse">
<stop stop-color="#4D2101"/>
<stop offset="1" stop-color="#B34C02"/>
</linearGradient>
<linearGradient id="paint1_linear_390_3794" x1="15.3254" y1="55.8505" x2="21.4999" y2="80.5011" gradientUnits="userSpaceOnUse">
<stop stop-color="#FFA48A"/>
<stop offset="1" stop-color="#996253"/>
</linearGradient>
</defs>
</svg>
