<svg width="144" height="160" viewBox="0 0 144 160" fill="none" xmlns="http://www.w3.org/2000/svg">
<path d="M75.6543 17C89.6011 17 102.024 19.7989 111.725 26.6641C116.387 29.9484 120.302 33.9507 123.125 38.251C125.857 42.4119 128.033 47.5834 128.033 53.0879C128.033 57.351 125.969 60.4778 124.783 62.0068C123.429 63.7529 121.819 65.1923 120.404 66.3066C117.536 68.5663 114.046 70.5959 110.829 72.1816C107.618 73.7645 104.087 75.1975 100.979 76.0234C99.5471 76.4041 97.4599 76.8631 95.2568 76.8271C94.1844 76.8096 92.2532 76.6717 90.1533 75.7451C87.7776 74.6968 84.9087 72.4542 83.6836 68.5459C83.2979 67.3154 82.9541 66.419 82.6748 65.7969C82.4563 65.3103 82.3247 65.0982 82.3105 65.0742L82.3379 65.1113L82.291 65.0469C81.5325 64.0089 80.724 63.3487 79.8242 62.8906C79.0159 62.4791 77.9501 62.1738 76.4062 62.1738C72.9211 62.1738 71.0622 63.2772 69.4482 65.7178C69.4306 65.7444 69.4134 65.7713 69.3955 65.7979C68.4215 67.2432 67.0352 71.1322 67.0352 79.4062C67.0352 90.1986 68.8337 94.366 69.6162 95.3496C70.5709 96.4982 71.9716 97.459 75.3125 97.459C79.1787 97.459 80.2435 96.4328 80.5518 96.0918L80.6064 96.0303C82.5243 93.9406 84.2538 91.0809 90.21 86.3711C93.8272 83.5108 98.1178 82.5798 101.213 82.2656C104.555 81.9265 108.014 82.1574 111.158 82.7451C114.266 83.3259 117.615 84.3575 120.583 85.9932C123.053 87.3544 127.289 90.2547 128.973 95.5225L129.127 96.04L129.25 96.4971C131.719 106.106 127.622 116.4 122.592 122.951C117.566 129.496 111.233 134.505 103.713 137.854L103.712 137.853C96.0539 141.283 87.0083 142.701 77.0898 142.701C65.2567 142.701 54.6476 141.011 45.8145 137.001C45.788 136.989 45.7617 136.976 45.7354 136.964C36.5068 132.686 29.0761 125.429 23.2061 116.09C16.7901 105.882 14 93.4743 14 79.6113C14 61.1033 18.9431 45.2106 30.375 33.6602C41.8249 22.0922 57.4581 17 75.6543 17Z" fill="#81BA85"/>
<path d="M30.093 74.1187C30.241 65.0138 41.7034 66.6382 47.0929 66.9217C52.4824 67.2053 66.9136 67.0329 66.7657 76.1379C66.6177 85.2428 52.4825 79.8003 47.093 79.5167C41.7035 79.2332 29.945 83.2237 30.093 74.1187Z" fill="#222222"/>
<path d="M43.4551 79.6962C45.4972 77.0526 49.279 75.885 53.4385 77.0028C56.1825 77.7404 58.6078 79.3436 60.3789 81.3827C55.8683 81.4479 50.11 79.6733 47.0928 79.5145C46.0685 79.4607 44.814 79.5605 43.4551 79.6962Z" fill="white"/>
<path d="M38 52C46.2843 52 53 45.2843 53 37C53 28.7157 46.2843 22 38 22C29.7157 22 23 28.7157 23 37C23 45.2843 29.7157 52 38 52Z" fill="white"/>
<path d="M43 44C46.866 44 50 40.866 50 37C50 33.134 46.866 30 43 30C39.134 30 36 33.134 36 37C36 40.866 39.134 44 43 44Z" fill="#222222"/>
<path d="M72 50C80.2843 50 87 43.2843 87 35C87 26.7157 80.2843 20 72 20C63.7157 20 57 26.7157 57 35C57 43.2843 63.7157 50 72 50Z" fill="white"/>
<path d="M77 42C80.866 42 84 38.866 84 35C84 31.134 80.866 28 77 28C73.134 28 70 31.134 70 35C70 38.866 73.134 42 77 42Z" fill="#222222"/>
<path d="M89.0591 117.627L117.403 120.521C117.403 120.521 116.787 121.395 116.693 122.323C116.598 123.25 117.025 124.231 117.025 124.231L90.5352 121.526C90.0432 121.476 89.5914 121.232 89.279 120.849C88.9667 120.466 88.8195 119.974 88.8697 119.482L89.0591 117.627Z" fill="url(#paint0_linear_390_3857)"/>
<path d="M90.3146 90.6372C90.4402 89.4073 91.0492 88.2777 92.0076 87.4969C92.966 86.716 94.1954 86.3479 95.4253 86.4735L116.756 88.6515C117.365 88.7137 117.956 88.8952 118.495 89.1857C119.034 89.4762 119.51 89.8699 119.897 90.3445C120.283 90.8191 120.573 91.3651 120.748 91.9515C120.924 92.5379 120.982 93.1532 120.92 93.7621L118.221 120.194C118.183 120.563 118.001 120.902 117.713 121.136C117.426 121.37 117.057 121.481 116.688 121.443L90.256 118.744C90.2058 119.236 90.353 119.728 90.6654 120.111C90.9777 120.495 91.4296 120.738 91.9215 120.789L116.499 123.298C116.867 123.336 117.206 123.518 117.441 123.806C117.675 124.093 117.785 124.462 117.748 124.831C117.71 125.2 117.527 125.539 117.24 125.773C116.952 126.008 116.583 126.118 116.214 126.08L91.6374 123.571C90.4076 123.445 89.278 122.836 88.4971 121.878C87.7163 120.919 87.3481 119.69 87.4737 118.46L90.3146 90.6372Z" fill="url(#paint1_linear_390_3857)"/>
<path d="M103.202 101.428L104.768 98.9665C104.848 98.8413 104.961 98.7409 105.095 98.6766C105.228 98.6123 105.377 98.5868 105.525 98.6029C105.673 98.6189 105.813 98.6759 105.93 98.7675C106.046 98.859 106.135 98.9814 106.186 99.1209L107.186 101.862L110.011 102.59C110.65 102.754 110.822 103.58 110.303 103.988L108.007 105.785L108.186 108.696C108.195 108.845 108.163 108.993 108.093 109.124C108.022 109.255 107.917 109.363 107.788 109.437C107.659 109.511 107.512 109.547 107.363 109.542C107.214 109.537 107.07 109.49 106.947 109.407L104.527 107.778L101.814 108.848C101.676 108.903 101.525 108.918 101.378 108.891C101.232 108.865 101.096 108.798 100.986 108.698C100.876 108.598 100.796 108.47 100.755 108.327C100.714 108.184 100.715 108.032 100.756 107.889L101.556 105.085L99.7006 102.834C99.6059 102.719 99.5453 102.581 99.5254 102.433C99.5055 102.286 99.5273 102.136 99.5882 102.001C99.6492 101.865 99.7468 101.75 99.8701 101.667C99.9935 101.584 100.138 101.537 100.286 101.532L103.202 101.428Z" fill="url(#paint2_linear_390_3857)"/>
<defs>
<linearGradient id="paint0_linear_390_3857" x1="102.101" y1="121.582" x2="102.555" y2="117.131" gradientUnits="userSpaceOnUse">
<stop stop-color="#96875C"/>
<stop offset="0.716" stop-color="#888131"/>
</linearGradient>
<linearGradient id="paint1_linear_390_3857" x1="100.639" y1="94.0191" x2="102.097" y2="134.587" gradientUnits="userSpaceOnUse">
<stop stop-color="#FFCE47"/>
<stop offset="1" stop-color="#CB8150"/>
</linearGradient>
<linearGradient id="paint2_linear_390_3857" x1="104.378" y1="105.997" x2="105.764" y2="93.258" gradientUnits="userSpaceOnUse">
<stop stop-color="#96875C"/>
<stop offset="0.716" stop-color="#888131"/>
</linearGradient>
</defs>
</svg>
