<svg width="144" height="160" viewBox="0 0 144 160" fill="none" xmlns="http://www.w3.org/2000/svg">
<path d="M80.4336 16.0013C89.3309 15.9682 97.8971 16.576 104.644 17.5511C107.987 18.0344 111.134 18.6428 113.752 19.3958C115.046 19.7682 116.472 20.2495 117.828 20.889C118.803 21.3491 120.972 22.4386 122.782 24.5648L123.14 25.0032L123.578 25.5921C127.954 31.6967 127.515 38.55 125.444 43.5169C123.487 48.2102 119.705 52.349 115.143 54.473C113.542 55.218 111.951 55.5153 111.339 55.6282C110.447 55.793 109.49 55.9198 108.572 56.0218C106.72 56.2276 104.46 56.3934 102.045 56.5325C97.1848 56.8126 91.1581 57.0121 85.3535 57.1536C81.1674 57.2557 77.048 57.328 73.4902 57.3802V61.2239C74.8164 61.1978 76.1922 61.1725 77.5781 61.1517C81.4941 61.0929 85.5741 61.0618 88.8584 61.1077C90.4853 61.1305 92.0404 61.1737 93.3311 61.2532C93.9662 61.2924 94.6759 61.3489 95.3633 61.4378C95.6715 61.4777 97.0694 61.639 98.5879 62.2161L98.8936 62.3372L99.3838 62.553C104.35 64.8593 105.984 69.545 106.434 70.9612C107.14 73.185 107.371 75.4586 107.371 77.3646C107.371 79.2469 107.146 81.5753 106.381 83.8607C105.925 85.2237 103.848 90.9864 97.376 92.6204C96.2269 92.9105 95.123 92.9908 94.8164 93.015C94.2608 93.0588 93.6562 93.0885 93.0674 93.1107C91.8765 93.1554 90.3993 93.181 88.7979 93.1946C85.5763 93.2221 81.5458 93.203 77.6426 93.1673C76.2345 93.1544 74.8363 93.1367 73.4902 93.1204V97.638C77.5326 97.4422 82.2736 97.2401 87.1084 97.0921C93.565 96.8945 100.351 96.789 105.907 96.9446C108.662 97.0218 111.333 97.1683 113.6 97.4398C114.726 97.5746 115.957 97.7644 117.148 98.0521C118.031 98.2651 119.835 98.7406 121.65 99.8528L122.014 100.083L122.456 100.388C126.932 103.588 128.475 108.489 129.088 111.178C129.833 114.447 129.967 117.909 129.83 120.938C129.691 124.025 129.247 127.184 128.548 129.996C127.969 132.326 126.829 136.092 124.383 139.015C122.855 140.84 121.121 141.771 120.29 142.173C119.315 142.646 118.399 142.945 117.72 143.139C116.357 143.527 114.924 143.77 113.657 143.939C111.062 144.284 107.854 144.482 104.396 144.575C97.4079 144.762 88.4366 144.547 79.2461 143.909C70.0715 143.271 60.3937 142.192 52.0537 140.586C47.889 139.784 43.8646 138.815 40.3135 137.629C36.9452 136.505 33.1829 134.924 30.1475 132.544C26.6599 129.81 24.3322 126.019 22.7353 122.663C21.056 119.135 19.7224 115.093 18.6689 110.899C16.5591 102.499 15.324 92.4832 15.0557 82.5013C14.7876 72.5289 15.4717 62.1109 17.457 52.9525C19.3409 44.2626 22.8092 34.7112 29.6367 28.6575C35.996 23.0194 45.0347 20.0928 53.3301 18.4349C61.9865 16.7048 71.5586 16.0343 80.4336 16.0013Z" fill="#E9D055"/>
<path d="M44 86.5C50.6274 86.5 56 86.6274 56 80C56 73.3726 50.6274 68 44 68C37.3726 68 32 73.3726 32 80C32 86.6274 37.3726 86.5 44 86.5Z" fill="white"/>
<path d="M44 86C47.866 86 51 82.866 51 79C51 75.134 47.866 72 44 72C40.134 72 37 75.134 37 79C37 82.866 40.134 86 44 86Z" fill="#222222"/>
<path d="M78 86.5C84.6274 86.5 90 86.6274 90 80C90 73.3726 84.6274 68 78 68C71.3726 68 66 73.3726 66 80C66 86.6274 71.3726 86.5 78 86.5Z" fill="white"/>
<path d="M78 86C81.866 86 85 82.866 85 79C85 75.134 81.866 72 78 72C74.134 72 71 75.134 71 79C71 82.866 74.134 86 78 86Z" fill="#222222"/>
<path d="M62.7084 16.9893C63.9115 19.859 64.4993 23.0748 64.4994 26.2179C64.4993 30.4217 63.4476 34.6492 61.2338 37.8536C60.7628 38.5347 59.8282 38.7061 59.1469 38.2354C58.4657 37.7647 58.2948 36.83 58.765 36.1485C60.5509 33.5637 61.4993 29.9742 61.4994 26.2179C61.4993 23.1171 60.8502 20.0078 59.5951 17.3819C60.6266 17.2383 61.6652 17.1084 62.7084 16.9893Z" fill="black"/>
<path d="M73.3422 16.1671C74.7925 19.2364 75.4993 22.7709 75.4994 26.2179C75.4993 30.4217 74.4476 34.6492 72.2338 37.8536C71.7628 38.5347 70.8282 38.7061 70.1469 38.2354C69.4657 37.7647 69.2948 36.83 69.765 36.1485C71.5509 33.5637 72.4993 29.9742 72.4994 26.2179C72.4993 22.6967 71.6648 19.1633 70.0531 16.3409C71.1515 16.2713 72.2488 16.2145 73.3422 16.1671Z" fill="black"/>
<path d="M80.433 16.0011C81.3823 15.9975 82.3279 16.003 83.2679 16.0138C84.7678 19.1185 85.4993 22.7133 85.4994 26.2179C85.4993 30.4217 84.4476 34.6492 82.2338 37.8536C81.7628 38.5347 80.8282 38.706 80.1469 38.2354C79.4657 37.7647 79.2948 36.83 79.765 36.1485C81.5509 33.5637 82.4993 29.9742 82.4994 26.2179C82.4993 22.5548 81.5936 18.8802 79.8519 16.005C80.0459 16.0036 80.2396 16.0018 80.433 16.0011Z" fill="black"/>
<path d="M89.974 16.2081C91.1511 16.2636 92.3113 16.3287 93.4506 16.4044C94.8267 19.418 95.4993 22.8592 95.4994 26.2179C95.4993 30.4217 94.4476 34.6492 92.2338 37.8536C91.7628 38.5347 90.8282 38.706 90.1469 38.2354C89.4657 37.7647 89.2948 36.83 89.765 36.1485C91.5509 33.5637 92.4993 29.9742 92.4994 26.2179C92.4993 22.6408 91.6363 19.0522 89.974 16.2081Z" fill="black"/>
<path d="M100.415 17.0157C101.616 17.1482 102.776 17.2919 103.89 17.4454C104.969 20.1977 105.499 23.2399 105.499 26.2179C105.499 30.4217 104.448 34.6492 102.234 37.8536C101.763 38.5347 100.828 38.706 100.147 38.2354C99.4657 37.7647 99.2948 36.83 99.765 36.1485C101.551 33.5637 102.499 29.9742 102.499 26.2179C102.499 22.9718 101.789 19.716 100.415 17.0157Z" fill="black"/>
<path d="M50.5 59C51.3284 59 52 59.6716 52 60.5C52 61.3284 51.3284 62 50.5 62H37.5C36.6716 62 36 61.3284 36 60.5C36 59.6716 36.6716 59 37.5 59H50.5Z" fill="#222222"/>
<path d="M68.2364 67.0257C75.7527 65.6845 80.0669 65.6475 87.7647 67.0257C88.5799 67.1718 89.1224 67.9517 88.9766 68.7669C88.8306 69.5823 88.0509 70.1249 87.2354 69.9789C79.8943 68.6645 75.938 68.6986 68.7638 69.9789C67.9482 70.1243 67.169 69.5815 67.0235 68.766C66.8782 67.9506 67.4211 67.1713 68.2364 67.0257Z" fill="#222222"/>
<path d="M54.0655 110.627C54.4054 109.658 55.8099 109.769 55.9931 110.78L58.0952 122.373C58.1456 122.651 58.311 122.894 58.5505 123.043L67.1044 128.371C67.7928 128.799 67.7115 129.826 66.9642 130.141L57.6785 134.055C57.4184 134.165 57.2168 134.379 57.1234 134.646L53.2228 145.764C52.8829 146.732 51.4784 146.621 51.2952 145.611L49.1931 134.018C49.1427 133.74 48.9773 133.497 48.7377 133.347L40.1839 128.02C39.4955 127.591 39.5768 126.565 40.324 126.25L49.6098 122.335C49.8699 122.226 50.0715 122.011 50.1649 121.745L54.0655 110.627Z" fill="url(#paint0_linear_390_3835)"/>
<path d="M38.5878 111.467C38.7963 110.896 39.6247 110.962 39.7405 111.559L40.3267 114.579C40.3592 114.747 40.4618 114.893 40.6086 114.98L43.1456 116.492C43.5729 116.746 43.5227 117.38 43.0606 117.564L40.3173 118.658C40.1586 118.721 40.0343 118.849 39.9758 119.01L38.9216 121.9C38.7132 122.471 37.8848 122.406 37.7689 121.809L37.1828 118.789C37.1502 118.621 37.0477 118.475 36.9009 118.387L34.3639 116.876C33.9366 116.621 33.9868 115.987 34.4488 115.803L37.1922 114.709C37.3509 114.646 37.4751 114.518 37.5337 114.358L38.5878 111.467Z" fill="#00BFFF"/>
<path d="M38.5878 111.467C38.7963 110.896 39.6247 110.962 39.7405 111.559L40.3267 114.579C40.3592 114.747 40.4618 114.893 40.6086 114.98L43.1456 116.492C43.5729 116.746 43.5227 117.38 43.0606 117.564L40.3173 118.658C40.1586 118.721 40.0343 118.849 39.9758 119.01L38.9216 121.9C38.7132 122.471 37.8848 122.406 37.7689 121.809L37.1828 118.789C37.1502 118.621 37.0477 118.475 36.9009 118.387L34.3639 116.876C33.9366 116.621 33.9868 115.987 34.4488 115.803L37.1922 114.709C37.3509 114.646 37.4751 114.518 37.5337 114.358L38.5878 111.467Z" fill="url(#paint1_linear_390_3835)"/>
<path d="M33.6393 125.413C33.9066 124.628 35.0447 124.718 35.1851 125.536L35.8291 129.285C35.867 129.506 35.9957 129.701 36.1839 129.822L39.2819 131.82C39.8174 132.165 39.7539 132.968 39.1707 133.225L35.7969 134.71C35.5919 134.8 35.4341 134.972 35.3619 135.184L34.1358 138.786C33.8685 139.571 32.7304 139.481 32.59 138.663L31.946 134.914C31.9081 134.693 31.7794 134.498 31.5911 134.377L28.4932 132.379C27.9576 132.034 28.0212 131.231 28.6044 130.974L31.9782 129.489C32.1832 129.399 32.341 129.227 32.4132 129.015L33.6393 125.413Z" fill="#00BFFF"/>
<path d="M33.6393 125.413C33.9066 124.628 35.0447 124.718 35.1851 125.536L35.8291 129.285C35.867 129.506 35.9957 129.701 36.1839 129.822L39.2819 131.82C39.8174 132.165 39.7539 132.968 39.1707 133.225L35.7969 134.71C35.5919 134.8 35.4341 134.972 35.3619 135.184L34.1358 138.786C33.8685 139.571 32.7304 139.481 32.59 138.663L31.946 134.914C31.9081 134.693 31.7794 134.498 31.5911 134.377L28.4932 132.379C27.9576 132.034 28.0212 131.231 28.6044 130.974L31.9782 129.489C32.1832 129.399 32.341 129.227 32.4132 129.015L33.6393 125.413Z" fill="url(#paint2_linear_390_3835)"/>
<defs>
<linearGradient id="paint0_linear_390_3835" x1="47.8106" y1="123.176" x2="59.3217" y2="132.264" gradientUnits="userSpaceOnUse">
<stop stop-color="#00BFFF"/>
<stop offset="1" stop-color="#0E7497"/>
</linearGradient>
<linearGradient id="paint1_linear_390_3835" x1="36.6485" y1="114.955" x2="43.9062" y2="122.233" gradientUnits="userSpaceOnUse">
<stop stop-color="#00BFFF"/>
<stop offset="1" stop-color="#0E7497"/>
</linearGradient>
<linearGradient id="paint2_linear_390_3835" x1="31.3269" y1="129.814" x2="39.5694" y2="138.082" gradientUnits="userSpaceOnUse">
<stop stop-color="#00BFFF"/>
<stop offset="1" stop-color="#0E7497"/>
</linearGradient>
</defs>
</svg>
