<svg width="144" height="160" viewBox="0 0 144 160" fill="none" xmlns="http://www.w3.org/2000/svg">
<path d="M50.2362 22.668C64.5891 10.5073 84.0539 11.3335 95.9081 23.961C97.815 25.9925 98.8749 28.334 99.4794 29.9024C100.153 31.6496 100.666 33.5376 101.075 35.3848C101.895 39.0882 102.492 43.5445 102.932 48.296C103.815 57.8541 104.155 69.6702 104.059 81.3399C103.964 93.0247 103.43 104.838 102.506 114.42C102.046 119.192 101.472 123.596 100.764 127.232C100.41 129.045 99.9922 130.831 99.4833 132.458C99.0263 133.919 98.2775 135.981 96.994 137.875C90.5206 147.428 78.6445 148.798 71.2284 148.362C67.0163 148.115 62.7744 147.248 59.0175 145.843C55.5364 144.541 51.2327 142.317 48.2372 138.543C46.5847 136.461 45.7986 134.075 45.4559 132.989C44.9916 131.518 44.6007 129.873 44.2645 128.212C43.5867 124.862 42.9751 120.666 42.4413 116.028C41.3687 106.711 40.5331 94.9164 40.1815 83.0763C39.8312 71.2761 39.951 59.1133 40.868 49.1446C41.3239 44.1898 42.0055 39.4429 43.0409 35.4259C43.9066 32.0673 45.5755 26.7852 49.5565 23.2569L50.2362 22.668Z" fill="#C585EF"/>
<path d="M85.682 94.2337C84.7556 89.2564 77.7534 94.2946 72.4526 95.2812C67.1517 96.2679 60.3415 91.5018 61.2679 96.4791C62.1943 101.456 68.9775 107.417 74.2783 106.43C79.5792 105.444 86.6084 99.211 85.682 94.2337Z" fill="#222222"/>
<path d="M72.3631 97.2896C75.1616 96.9196 77.41 95.3395 78.2958 93.3672C76.3615 94.1007 74.3027 94.9367 72.4522 95.2811C70.0791 95.7227 67.4034 95.0128 65.2549 94.539C66.4878 96.5238 69.2948 97.6951 72.3631 97.2896Z" fill="white"/>
<path d="M59 62C63.4183 62 67 58.4183 67 54C67 49.5817 63.4183 46 59 46C54.5817 46 51 49.5817 51 54C51 58.4183 54.5817 62 59 62Z" fill="white"/>
<path d="M56.5 56C58.433 56 60 54.433 60 52.5C60 50.567 58.433 49 56.5 49C54.567 49 53 50.567 53 52.5C53 54.433 54.567 56 56.5 56Z" fill="#222222"/>
<path d="M85 65C91.0751 65 96 60.0751 96 54C96 47.9249 91.0751 43 85 43C78.9249 43 74 47.9249 74 54C74 60.0751 78.9249 65 85 65Z" fill="white"/>
<path d="M81.5625 56.75C84.2204 56.75 86.375 54.5954 86.375 51.9375C86.375 49.2796 84.2204 47.125 81.5625 47.125C78.9046 47.125 76.75 49.2796 76.75 51.9375C76.75 54.5954 78.9046 56.75 81.5625 56.75Z" fill="#222222"/>
<path d="M78.5547 0.502391C80.6778 0.560203 82.2714 1.53736 83.3164 3.0229C84.3156 4.4433 84.7685 6.2544 84.8965 8.02973C85.1858 12.0461 84.1443 15.6915 82.6924 18.9536C81.2586 22.1749 79.3445 25.1778 77.8877 27.7358C77.1127 29.0968 77.3774 31.1404 78.3349 32.5952C78.8006 33.3024 79.3072 33.6721 79.6855 33.7866C79.9597 33.8694 80.3051 33.8722 80.7891 33.4252C80.794 33.4201 80.8155 33.395 80.8525 33.3315C80.902 33.2465 80.9647 33.1178 81.0459 32.9135C81.9803 30.562 82.1793 27.9227 81.6797 25.4028C81.5187 24.5904 82.0471 23.8014 82.8594 23.6401C83.672 23.479 84.4619 24.0072 84.623 24.8198C85.2273 27.868 84.9948 31.0971 83.833 34.0209C83.6262 34.5412 83.342 35.1511 82.8242 35.6293C81.6249 36.7371 80.1922 37.0742 78.8174 36.6586C77.5466 36.2744 76.5316 35.3126 75.8291 34.2456C74.4506 32.1516 73.7882 28.8733 75.2812 26.2514C76.8395 23.5151 78.5989 20.7743 79.9521 17.7338C81.2872 14.7343 82.1459 11.5991 81.9043 8.24555C81.7984 6.77528 81.4348 5.56233 80.8623 4.74848C80.3356 3.99997 79.6022 3.53217 78.4726 3.50141C76.9082 3.459 75.357 4.58971 73.9834 6.76509C73.8412 6.99026 73.7045 7.22291 73.5723 7.4604C73.8468 7.70244 74.1228 7.95127 74.3984 8.20845C74.9654 8.73741 75.562 9.53932 76.0517 10.2651C76.5586 11.0162 77.0262 11.7997 77.333 12.3676C78.3248 14.2042 78.4109 15.9915 77.5869 17.4331C76.7999 18.8097 75.3625 19.5447 73.9766 19.726C72.5849 19.908 71.0098 19.5666 69.8418 18.4897C68.6238 17.3666 68.071 15.6535 68.3808 13.5688C68.3941 13.4793 68.4083 13.3898 68.4228 13.3012C68.675 11.7682 69.1562 10.0076 69.8545 8.29634C68.8975 7.57994 67.9958 7.01738 67.1484 6.61763C65.603 5.88857 64.3535 5.74048 63.3271 6.01509C62.3125 6.28666 61.2557 7.04061 60.2285 8.64692C59.1916 10.2684 58.2458 12.6715 57.4609 16.0366C57.2727 16.8433 56.4659 17.3449 55.6592 17.1567C54.8524 16.9685 54.3509 16.1617 54.5391 15.3549C55.3641 11.8174 56.4096 9.05046 57.7012 7.03071C59.0022 4.9962 60.6113 3.63707 62.5527 3.11763C64.4825 2.60145 66.4807 2.9848 68.4287 3.90376C69.342 4.3346 70.2673 4.89472 71.2031 5.56294C71.283 5.42848 71.3633 5.29487 71.4463 5.16352C72.9961 2.7091 75.3645 0.415525 78.5547 0.502391ZM72.2851 10.3403C71.8638 11.5284 71.5591 12.7215 71.3838 13.7875C71.3715 13.8625 71.3595 13.9364 71.3486 14.0092C71.1545 15.3145 71.5258 15.9627 71.875 16.2846C72.2741 16.6526 72.9096 16.8402 73.5879 16.7514C74.2719 16.6619 74.7644 16.3258 74.9824 15.9448C75.1631 15.6286 75.3301 14.9714 74.6933 13.7924C74.4344 13.3129 74.0181 12.6148 73.5654 11.9438C73.0955 11.2473 72.656 10.685 72.3525 10.4018C72.3303 10.381 72.3074 10.3609 72.2851 10.3403Z" fill="black"/>
<path d="M65.5 76.6016C65.5 81.0198 69.0817 84.6016 73.5 84.6016C77.9183 84.6016 72 81.0199 72 76.6016C72 72.1834 77.9183 68.6016 73.5 68.6016C69.0817 68.6016 65.5 72.1833 65.5 76.6016Z" fill="#4F4F4F"/>
<circle cx="85" cy="54" r="13" fill="#5ED7FF" fill-opacity="0.4"/>
<path fill-rule="evenodd" clip-rule="evenodd" d="M85 40C92.732 40 99 46.268 99 54C99 56.9629 98.0783 59.71 96.5078 61.9727L109.768 75.2324C110.744 76.2087 110.744 77.7913 109.768 78.7676C108.791 79.7439 107.209 79.7438 106.232 78.7676L92.9727 65.5078C90.71 67.0783 87.9629 68 85 68C77.268 68 71 61.732 71 54C71 46.268 77.268 40 85 40ZM85 42C78.3726 42 73 47.3726 73 54C73 60.6274 78.3726 66 85 66C91.6274 66 97 60.6274 97 54C97 47.3726 91.6274 42 85 42Z" fill="url(#paint0_linear_390_3816)"/>
<defs>
<linearGradient id="paint0_linear_390_3816" x1="98" y1="46.5" x2="80" y2="64.5" gradientUnits="userSpaceOnUse">
<stop stop-color="#FFAFAF"/>
<stop offset="1" stop-color="#CB6B6B"/>
</linearGradient>
</defs>
</svg>
