<svg width="144" height="160" viewBox="0 0 144 160" fill="none" xmlns="http://www.w3.org/2000/svg">
<path d="M124.116 76.9955C127.636 70.9697 129.172 64.1725 129.172 57.0228C129.172 48.8043 127.149 41.0952 122.531 34.5072C117.649 27.4966 111.295 24.4626 106.356 21.8988C100.623 18.9228 93.3968 17.3993 88.4731 16.5892C85.8434 16.1565 83.5098 15.8728 81.8295 15.6966C80.9859 15.6082 80.2971 15.5463 79.807 15.5052C79.5619 15.4847 79.3658 15.469 79.224 15.4583C79.1531 15.453 79.0954 15.4487 79.0522 15.4456L78.9985 15.4417L78.7026 15.4251C78.6784 15.424 78.6441 15.4222 78.6 15.4203C78.5112 15.4163 78.3823 15.4107 78.2162 15.4037C77.8842 15.3895 77.4019 15.3704 76.7895 15.347C75.5649 15.3003 73.8158 15.2396 71.6967 15.182C67.4671 15.0669 61.7191 14.9626 55.7035 15.013C49.7317 15.0631 43.2905 15.2667 37.7426 15.7962C34.9783 16.0601 32.2266 16.4233 29.7651 16.9476C27.7349 17.38 24.875 18.1203 22.3217 19.6175L21.8158 19.9281C18.7466 21.8867 17.1152 24.694 16.2943 26.3607C15.3654 28.247 14.7094 30.28 14.2192 32.1654C13.2325 35.9597 12.5612 40.5653 12.0893 45.4066C11.1366 55.1796 10.8607 67.4174 11.06 79.4251C11.2598 91.4618 11.9425 103.598 12.9809 113.225C13.4969 118.009 14.1247 122.397 14.8793 125.926C15.2532 127.674 15.7089 129.456 16.2875 131.073C16.7216 132.285 17.7458 134.984 19.9555 137.194C25.6495 142.887 34.1669 145.207 41.5912 145.427C49.3187 145.656 58.2457 143.716 65.519 138.154C69.8238 134.862 72.3135 130.571 73.7201 126.319C74.0071 126.788 74.3008 127.255 74.6039 127.717C77.1957 131.669 80.7842 135.936 85.6576 138.854C94.284 144.018 104.627 144.808 112.475 143.686C116.452 143.117 120.604 141.95 124.104 139.942C127.016 138.271 132.734 134.031 132.734 126.413C132.734 122.766 131.401 118.716 130.466 116.105C129.351 112.987 127.918 109.619 126.563 106.616C125.195 103.582 123.835 100.766 122.824 98.7181C122.316 97.6906 121.892 96.8473 121.592 96.2562C121.442 95.9605 121.322 95.727 121.239 95.5648C121.197 95.4842 121.165 95.4209 121.142 95.3763C121.13 95.354 121.121 95.3355 121.115 95.3226C121.111 95.3163 121.108 95.311 121.106 95.307C121.105 95.3052 121.104 95.3021 121.104 95.3021L121.103 95.3001H121.101C119.959 93.059 118.231 90.6369 116.334 88.2445L115.495 87.1996C115.481 87.1826 115.467 87.1658 115.454 87.1488C118.885 84.3115 121.786 80.9385 124.088 77.0423C124.097 77.0268 124.107 77.011 124.116 76.9955Z" fill="#A9C1F9"/>
<path d="M76.9839 29.2349C77.9112 28.6352 79.1496 28.9005 79.7495 29.8276C81.9923 33.2945 83.952 35.3414 86.2056 36.7476C88.488 38.1717 91.231 39.0405 95.2486 39.8901C96.329 40.1188 97.0199 41.1807 96.7915 42.2612C96.5629 43.3416 95.5018 44.0324 94.4214 43.8042C90.2823 42.9289 86.9798 41.9452 84.0884 40.1411C81.1685 38.3191 78.8241 35.7613 76.3911 32.0005C75.7915 31.0732 76.0568 29.8349 76.9839 29.2349Z" fill="#222222"/>
<path d="M51.7344 59.9141C58.3618 59.9141 63.7344 64.5415 63.7344 57.9141C63.7344 51.2866 58.3618 45.9141 51.7344 45.9141C45.107 45.9141 39.7344 51.2866 39.7344 57.9141C39.7344 64.5415 45.107 59.9141 51.7344 59.9141Z" fill="none"/>
<path d="M55.7344 60.9141C58.4958 60.9141 60.7344 58.6755 60.7344 55.9141C60.7344 53.1526 58.4958 50.9141 55.7344 50.9141C52.973 50.9141 50.7344 53.1526 50.7344 55.9141C50.7344 58.6755 52.973 60.9141 55.7344 60.9141Z" fill="#222222"/>
<path d="M80.7344 59.9121C87.3618 59.9121 92.7344 64.5395 92.7344 57.9121C92.7344 51.2847 87.3618 45.9121 80.7344 45.9121C74.107 45.9121 68.7344 51.2847 68.7344 57.9121C68.7344 64.5395 74.107 59.9121 80.7344 59.9121Z" fill="none"/>
<path d="M84.7344 60.9121C87.4958 60.9121 89.7344 58.6735 89.7344 55.9121C89.7344 53.1507 87.4958 50.9121 84.7344 50.9121C81.973 50.9121 79.7344 53.1507 79.7344 55.9121C79.7344 58.6735 81.973 60.9121 84.7344 60.9121Z" fill="#222222"/>
<path d="M48.8195 29.8276C49.4195 28.9006 50.6579 28.6352 51.5851 29.2348C52.5121 29.8349 52.7776 31.0732 52.1779 32.0005C49.7449 35.7613 47.4006 38.3191 44.4806 40.1411C41.5892 41.9452 38.2868 42.9289 34.1476 43.8042C33.0672 44.0324 32.0062 43.3416 31.7775 42.2612C31.5491 41.1807 32.2399 40.1187 33.3205 39.8901C37.3381 39.0405 40.081 38.1717 42.3635 36.7475C44.617 35.3413 46.5768 33.2944 48.8195 29.8276Z" fill="#222222"/>
<path d="M74.3136 75.9141C74.3136 80.3323 70.7319 83.9141 66.3136 83.9141C61.8953 83.9141 62.8135 80.3323 62.8135 75.9141C62.8135 71.4958 61.8953 67.9141 66.3136 67.9141C70.7319 67.9141 74.3136 71.4958 74.3136 75.9141Z" fill="#4F4F4F"/>
<path d="M40.7344 96.6064C40.7344 91.6861 45.3622 88.1113 50.1946 89.0376C62.4976 91.3957 72.0038 91.3499 84.3127 89.0003C89.1324 88.0803 93.7344 91.6541 93.7344 96.5608C93.7344 100.233 91.0918 103.39 87.4614 103.941C72.618 106.194 62.1082 106.311 46.9571 103.964C43.3486 103.405 40.7344 100.258 40.7344 96.6064Z" fill="#222222"/>
<path d="M71.7344 99.9121C75.0481 99.9121 77.7344 101.927 77.7344 104.412C77.7344 104.669 77.7034 104.919 77.6484 105.164C69.8614 105.888 62.8403 105.854 54.7861 104.997C54.753 104.806 54.7344 104.61 54.7344 104.412C54.7344 101.927 57.4207 99.9121 60.7344 99.9121C63.1947 99.9121 65.3085 101.023 66.2344 102.612C67.1603 101.023 69.2741 99.9121 71.7344 99.9121Z" fill="#F88383"/>
<path d="M124.136 90.4324C126.704 89.7261 129.433 89.8885 131.9 90.8943C131.9 90.8943 123.645 99.2422 126.554 102.954C129.463 106.666 139.286 100.319 139.286 100.319C139.674 102.954 139.178 105.643 137.879 107.968C136.58 110.292 134.548 112.122 132.101 113.173C129.917 114.11 127.512 114.377 125.187 113.956L114.109 125.033C114.126 125.229 114.138 125.426 114.145 125.623C114.232 128.285 113.437 130.901 111.883 133.064C110.329 135.227 108.104 136.816 105.554 137.583C103.003 138.35 100.271 138.253 97.7814 137.305C97.7814 137.305 105.23 129.405 103.134 125.561L102.017 124.444C98.3986 122.483 90.2475 128.008 90.1739 128.057C89.7243 125.433 90.1546 122.733 91.3986 120.378C92.6426 118.023 94.6302 116.146 97.0519 115.038C99.3647 113.98 101.949 113.682 104.438 114.179L115.326 103.291C115.289 102.924 115.267 102.555 115.264 102.184C115.24 99.5214 116.097 96.925 117.701 94.7996C119.306 92.6742 121.568 91.1388 124.136 90.4324Z" fill="url(#paint0_linear_390_3772)"/>
<defs>
<linearGradient id="paint0_linear_390_3772" x1="115" y1="95.5" x2="114.708" y2="138.095" gradientUnits="userSpaceOnUse">
<stop stop-color="#5383FF"/>
<stop offset="1" stop-color="#324F99"/>
</linearGradient>
</defs>
</svg>
