<svg width="144" height="160" viewBox="0 0 144 160" fill="none" xmlns="http://www.w3.org/2000/svg">
<path fill-rule="evenodd" clip-rule="evenodd" d="M72.3982 18C85.938 18 97.2598 20.8844 105.442 27.5713C113.843 34.3456 118.302 44.7695 119.682 57.6641C119.979 60.4325 119.391 63.3399 117.335 65.6797C115.428 67.8495 112.911 68.774 110.874 69.1836C108.878 69.5847 106.687 69.6187 104.511 69.4521C110.535 73.1915 115.221 77.9295 118.264 83.751C121.456 89.7713 123 96.4286 123 103.595C123 111.986 120.964 119.819 116.874 126.979C112.736 134.223 106.9 139.785 99.4695 143.561C99.4579 143.566 99.4459 143.572 99.4343 143.578C91.9717 147.309 82.9294 149 72.6033 149C54.9841 149 40.9442 145.161 32.6453 135.639C25.0914 126.971 20.9812 116.101 20.0349 103.413C19.8232 100.575 20.58 97.8029 22.5242 95.585C24.3248 93.5309 26.6705 92.4946 28.6794 91.9463C32.586 90.8801 37.2741 91.1155 41.1687 91.5957C42.7885 91.7954 44.401 92.0572 45.9412 92.3447C41.3065 89.9616 37.3923 87.2395 34.2878 84.126C27.2194 77.0834 23.78 68.1002 23.78 57.6748C23.78 50.7066 25.5406 44.1168 29.0066 37.998L29.0134 37.9863C32.6688 31.5674 38.094 26.6443 45.0232 23.1846C52.2131 19.5656 61.4933 18 72.3982 18ZM60.8923 98.2148C61.1854 98.8146 61.3819 99.4686 61.4617 100.155C62.0473 105.195 63.1737 108.288 64.3591 110.028C66.3667 112.95 69.021 114.393 73.0818 114.394C76.4441 114.394 78.1193 113.521 79.0408 112.609C80.4351 111.221 80.9001 109.938 80.9001 108.54C80.9001 107.276 80.4834 106.064 79.1697 104.707C78.8659 104.394 77.8515 103.629 75.4773 102.631C73.2101 101.678 70.1269 100.685 66.1423 99.6797C66.1319 99.677 66.1215 99.6736 66.1111 99.6709C64.3208 99.209 62.5804 98.7236 60.8923 98.2148Z" fill="#F2A03D"/>
<path d="M54.1875 38C60.8149 38 66.1875 35.6274 66.1875 29C66.1875 22.3726 60.8149 17 54.1875 17C47.5601 17 42.1875 22.3726 42.1875 29C42.1875 35.6274 47.5601 38 54.1875 38Z" fill="none"/>
<path d="M58.1875 34C60.9489 34 63.1875 31.7614 63.1875 29C63.1875 26.2386 60.9489 24 58.1875 24C55.4261 24 53.1875 26.2386 53.1875 29C53.1875 31.7614 55.4261 34 58.1875 34Z" fill="#222222"/>
<path d="M84.1875 38C90.8149 38 96.1875 35.6274 96.1875 29C96.1875 22.3726 90.8149 17 84.1875 17C77.5601 17 72.1875 22.3726 72.1875 29C72.1875 35.6274 77.5601 38 84.1875 38Z" fill="none"/>
<path d="M88.1875 34C90.9489 34 93.1875 31.7614 93.1875 29C93.1875 26.2386 90.9489 24 88.1875 24C85.4261 24 83.1875 26.2386 83.1875 29C83.1875 31.7614 85.4261 34 88.1875 34Z" fill="#222222"/>
<path d="M80.1329 61.3297C78.8201 67.579 74.9277 65.1493 69.651 64.0408C64.3743 62.9322 59.7114 63.5646 61.0242 57.3153C62.3371 51.066 67.679 46.8987 72.9557 48.0072C78.2324 49.1157 81.4458 55.0804 80.1329 61.3297Z" fill="black"/>
<path d="M65.1802 50.1648C67.3945 48.2985 70.1837 47.4243 72.9556 48.0066C74.3022 48.2896 75.5134 48.8898 76.5503 49.7293C75.8302 52.3874 72.9955 54.1194 69.9321 53.6619C67.7214 53.3316 65.9582 51.9452 65.1802 50.1648Z" fill="none"/>
<path d="M70.5483 62.8008C72.7178 62.8008 74.6176 63.8469 75.6714 65.4131C73.9948 65.2578 71.9547 64.5231 69.6509 64.0391C68.8687 63.8747 68.0996 63.7487 67.3618 63.6328C68.2852 63.1063 69.3775 62.8008 70.5483 62.8008Z" fill="none"/>
<path d="M114.337 21.8451C115.029 20.4954 116.913 20.3766 117.769 21.6286L130.438 40.1623C131.271 41.3798 130.543 43.0486 129.085 43.2687L112.399 45.7867C112.101 45.8316 111.818 45.9429 111.569 46.1127L108.214 48.4064C107.302 49.0298 106.057 48.7959 105.434 47.884L102.026 42.8993C101.403 41.9874 101.637 40.7429 102.549 40.1195L105.862 37.8545C106.138 37.6663 106.361 37.4115 106.513 37.1147L114.337 21.8451Z" fill="url(#paint0_linear_390_3755)"/>
<path d="M130.438 13.4759C130.617 12.6674 131.419 12.1574 132.227 12.3367C140.087 14.0795 144.464 20.9404 143.647 28.9514C143.563 29.7754 142.827 30.3759 142.003 30.2921C141.179 30.208 140.579 29.4711 140.663 28.647C141.343 21.9743 137.785 16.6417 131.577 15.2653C130.768 15.0857 130.258 14.2845 130.438 13.4759Z" fill="url(#paint1_linear_390_3755)"/>
<path d="M127.488 19.8929C127.667 19.0842 128.469 18.5745 129.277 18.7537C134.793 19.9765 137.848 24.8052 137.28 30.3692C137.196 31.1933 136.46 31.7939 135.636 31.7099C134.812 31.6258 134.212 30.8888 134.296 30.0648C134.727 25.8391 132.492 22.5383 128.628 21.6817C127.819 21.5024 127.309 20.7016 127.488 19.8929Z" fill="url(#paint2_linear_390_3755)"/>
<path d="M124.538 26.3107C124.718 25.502 125.519 24.9923 126.328 25.1715C129.499 25.8745 131.231 28.6704 130.913 31.787C130.829 32.611 130.093 33.211 129.269 33.1271C128.445 33.043 127.844 32.3066 127.928 31.4826C128.11 29.7044 127.197 28.4363 125.678 28.0996C124.87 27.9201 124.359 27.1193 124.538 26.3107Z" fill="url(#paint3_linear_390_3755)"/>
<defs>
<linearGradient id="paint0_linear_390_3755" x1="149" y1="15.001" x2="104" y2="43.501" gradientUnits="userSpaceOnUse">
<stop stop-color="#838383"/>
<stop offset="1" stop-color="#1D1D1D"/>
</linearGradient>
<linearGradient id="paint1_linear_390_3755" x1="149" y1="15.001" x2="104" y2="43.501" gradientUnits="userSpaceOnUse">
<stop stop-color="#838383"/>
<stop offset="1" stop-color="#1D1D1D"/>
</linearGradient>
<linearGradient id="paint2_linear_390_3755" x1="149" y1="15.001" x2="104" y2="43.501" gradientUnits="userSpaceOnUse">
<stop stop-color="#838383"/>
<stop offset="1" stop-color="#1D1D1D"/>
</linearGradient>
<linearGradient id="paint3_linear_390_3755" x1="149" y1="15.001" x2="104" y2="43.501" gradientUnits="userSpaceOnUse">
<stop stop-color="#838383"/>
<stop offset="1" stop-color="#1D1D1D"/>
</linearGradient>
</defs>
</svg>
