<svg width="312" height="292" viewBox="0 0 312 292" fill="none" xmlns="http://www.w3.org/2000/svg">
<path d="M156.881 0C189.629 0.000162809 217.489 16.9077 227.817 40.5068C229.311 40.1168 230.831 39.7796 232.373 39.5C268.414 32.9669 303.447 59.6575 310.621 99.1143C314.139 118.462 310.304 137.287 301.233 152.22C308.041 161.764 312 173.17 312 185.423C312 218.984 282.306 246.191 245.676 246.191C239.233 246.191 233.006 245.348 227.116 243.778C220.213 271.32 191.041 292 156.101 292C121.317 292 92.2501 271.506 85.1779 244.15C79.7244 245.479 73.9953 246.19 68.0851 246.19C31.4555 246.19 1.76091 218.982 1.76091 185.421C1.76101 173.185 5.70817 161.794 12.4992 152.258C3.37918 138.791 -1.33614 121.771 0.331227 103.761C3.96168 64.5466 36.4726 35.4865 72.9465 38.8525C77.3107 39.2553 81.534 40.105 85.5812 41.3545C95.6072 17.3133 123.742 0 156.881 0Z" fill="#B8DCFF"/>
<path d="M123.884 106.963C123.734 108.613 124.949 110.072 126.599 110.222C128.249 110.372 129.709 109.156 129.859 107.506L126.872 107.234L123.884 106.963ZM143.488 108.744C143.337 110.394 144.553 111.853 146.203 112.003C147.853 112.153 149.313 110.937 149.463 109.287L146.476 109.015L143.488 108.744ZM126.872 107.234L129.859 107.506C130.174 104.051 133.389 101.325 137.261 101.677L137.533 98.6896L137.806 95.702C130.85 95.0701 124.519 99.9957 123.884 106.963L126.872 107.234ZM137.533 98.6896L137.261 101.677C141.133 102.029 143.803 105.289 143.488 108.744L146.476 109.015L149.463 109.287C150.098 102.32 144.761 96.3338 137.806 95.702L137.533 98.6896Z" fill="#0C3468"/>
<path d="M177.374 109.193C177.224 110.843 178.44 112.303 180.09 112.452C181.74 112.602 183.199 111.386 183.35 109.736L180.362 109.465L177.374 109.193ZM196.978 110.974C196.828 112.624 198.043 114.084 199.694 114.233C201.344 114.383 202.803 113.167 202.953 111.517L199.966 111.246L196.978 110.974ZM180.362 109.465L183.35 109.736C183.664 106.282 186.88 103.556 190.751 103.908L191.024 100.92L191.296 97.9324C184.341 97.3006 178.009 102.226 177.374 109.193L180.362 109.465ZM191.024 100.92L190.751 103.908C194.623 104.259 197.293 107.52 196.978 110.974L199.966 111.246L202.953 111.517C203.588 104.55 198.251 98.5643 191.296 97.9324L191.024 100.92Z" fill="#0C3468"/>
</svg>
