<svg width="200" height="200" viewBox="0 0 200 200" fill="none" xmlns="http://www.w3.org/2000/svg">
<rect width="200" height="200" fill="#FAF5ED"/>
<path d="M160.013 40.4955C160.222 40.1526 160.789 40.2731 160.841 40.6715C161.597 46.503 164.486 50.9504 169.505 54.0136C169.848 54.2229 169.728 54.7899 169.329 54.8416C163.498 55.5984 159.05 58.4865 155.987 63.5061C155.778 63.849 155.211 63.7285 155.159 63.3301C154.402 57.4986 151.514 53.0512 146.495 49.988C146.152 49.7787 146.272 49.2117 146.671 49.16C152.502 48.4032 156.949 45.5151 160.013 40.4955Z" fill="#FBBC04"/>
<path d="M98 49.5C103.247 49.5 107.5 45.2467 107.5 40C107.5 34.7533 103.247 30.5 98 30.5C92.7533 30.5 88.5 34.7533 88.5 40C88.5 45.2467 92.7533 49.5 98 49.5Z" stroke="#34A853" stroke-width="8"/>
<path d="M98 170C130.033 170 156 144.033 156 112C156 79.9675 130.033 54 98 54C65.9675 54 40 79.9675 40 112C40 144.033 65.9675 170 98 170Z" fill="#FBF6EA" stroke="#34A853" stroke-width="13"/>
<path d="M146 112H136H146Z" fill="black"/>
<path d="M146 112H136" stroke="#34A853" stroke-width="4" stroke-linecap="round"/>
<path d="M98 150V160V150Z" fill="black"/>
<path d="M98 150V160" stroke="#34A853" stroke-width="4" stroke-linecap="round"/>
<path d="M60 112H50H60Z" fill="black"/>
<path d="M60 112H50" stroke="#34A853" stroke-width="4" stroke-linecap="round"/>
<path d="M125.6 84.4016L131.9 78.1016L125.6 84.4016Z" fill="black"/>
<path d="M125.6 84.4016L131.9 78.1016" stroke="#BFD9BF" stroke-width="2.5" stroke-linecap="round"/>
<path d="M125.6 139.602L131.9 145.902L125.6 139.602Z" fill="black"/>
<path d="M125.6 139.602L131.9 145.902" stroke="#BFD9BF" stroke-width="2.5" stroke-linecap="round"/>
<path d="M70.4001 139.602L64.1001 145.902L70.4001 139.602Z" fill="black"/>
<path d="M70.4001 139.602L64.1001 145.902" stroke="#BFD9BF" stroke-width="2.5" stroke-linecap="round"/>
<path d="M70.4001 84.4016L64.1001 78.1016L70.4001 84.4016Z" fill="black"/>
<path d="M70.4001 84.4016L64.1001 78.1016" stroke="#BFD9BF" stroke-width="2.5" stroke-linecap="round"/>
<path d="M86 78C87.6569 78 89 76.6569 89 75C89 73.3431 87.6569 72 86 72C84.3431 72 83 73.3431 83 75C83 76.6569 84.3431 78 86 78Z" fill="#274A8D"/>
<path d="M110 78C111.657 78 113 76.6569 113 75C113 73.3431 111.657 72 110 72C108.343 72 107 73.3431 107 75C107 76.6569 108.343 78 110 78Z" fill="#274A8D"/>
<path d="M87 83C94.3333 89 101.667 89 109 83" stroke="#274A8D" stroke-width="3.5" stroke-linecap="round"/>
<path d="M78.5674 139.032C77.704 139.614 76.6374 138.654 77.1255 137.734L91.083 111.444C91.3881 110.869 92.1519 110.734 92.6354 111.17L103.365 120.831C103.849 121.266 103.794 122.04 103.255 122.403L78.5674 139.032Z" fill="#C9DCC9"/>
<path d="M122.605 90.1319C123.126 89.2023 122.025 88.2116 121.155 88.8266L90.624 110.408C90.1003 110.778 90.0555 111.538 90.5321 111.967L102.792 123.006C103.268 123.435 104.02 123.311 104.333 122.752L122.605 90.1319Z" fill="#1E7E3E"/>
<path d="M94.989 119.344C96.8359 121.007 99.6812 120.858 101.344 119.011C103.007 117.164 102.858 114.319 101.011 112.656C99.1642 110.993 96.3189 111.142 94.6559 112.989C92.9929 114.836 93.142 117.681 94.989 119.344Z" fill="#145C2C"/>
</svg>
