<svg width="200" height="200" viewBox="0 0 200 200" fill="none" xmlns="http://www.w3.org/2000/svg">
<rect width="200" height="200" fill="#FAF4EC"/>
<path d="M32 64C48 57.3333 64 52.6667 80 50C80 87.3333 80 124.667 80 162C64 158 48 153.333 32 148C31.3333 120 31.3333 92 32 64Z" fill="#A5CDF4"/>
<path d="M80 50C95.3333 54 110.667 59.3333 126 66C126.667 92.6667 126.667 119.333 126 146C110.667 152 95.3333 157.333 80 162C79.3333 124.667 79.3333 87.3333 80 50Z" fill="#C7DFF8"/>
<path d="M126 66C141.333 60.6667 156.667 56 172 52C172.667 87.3333 172.667 122.667 172 158C156.667 153.333 141.333 149.333 126 146C125.333 119.333 125.333 92.6667 126 66Z" fill="#B4D5F6"/>
<path opacity="0.45" d="M126 66C130 65 134 64 138 63C138.667 91.6667 138.667 119.833 138 147.5C134 147.033 130 146.533 126 146C125.333 119.333 125.333 92.6667 126 66Z" fill="#A3C9F0"/>
<path d="M48.4872 88.1636C50.0185 87.9484 51.0855 86.5325 50.8702 85.0012C50.655 83.4698 49.2392 82.4029 47.7078 82.6181C46.1765 82.8333 45.1095 84.2492 45.3247 85.7806C45.54 87.3119 46.9558 88.3788 48.4872 88.1636Z" fill="#274A8D"/>
<path d="M68.2924 85.3785C69.8237 85.1633 70.8906 83.7474 70.6754 82.216C70.4602 80.6847 69.0443 79.6178 67.513 79.833C65.9816 80.0482 64.9147 81.4641 65.1299 82.9954C65.3451 84.5268 66.761 85.5937 68.2924 85.3785Z" fill="#274A8D"/>
<path d="M50.062 92.1836C56.6531 95.9698 62.5947 95.1348 67.8868 89.6785" stroke="#274A8D" stroke-width="3.2" stroke-linecap="round"/>
<path d="M48 146C45 128 51 106 70 99C90 93 103 105 99 122C95 140 114 151 133 141C148 133 151 116 149 102" stroke="#2A6FD6" stroke-width="5" stroke-linecap="round" stroke-dasharray="11 10"/>
<path d="M148.5 98C148.833 82 149.5 66.6667 150.5 52" stroke="#274A8D" stroke-width="3.5" stroke-linecap="round"/>
<path d="M150.96 51C162.316 53.0692 171.806 58.9809 176.224 65.4215C166.983 67.5682 156.747 69.6215 149.995 72.0016L150.96 51Z" fill="#FBBC04"/>
<path d="M148.8 104C151.561 104 153.8 101.761 153.8 99C153.8 96.2386 151.561 94 148.8 94C146.038 94 143.8 96.2386 143.8 99C143.8 101.761 146.038 104 148.8 104Z" fill="#274A8D"/>
</svg>
