<svg width="200" height="200" viewBox="0 0 200 200" fill="none" xmlns="http://www.w3.org/2000/svg">
<rect width="200" height="200" fill="#FAF4EC"/>
<path d="M14 181.999C8.99998 170.999 20 161.999 31 165.999C33 153.999 50 150.999 57 159.999C68 155.999 78 164.999 73 175.999C80 179.999 78 188.999 70 188.999C54 190.999 34 190.999 22 188.999C15 187.999 12 184.999 14 181.999Z" fill="#FBF4E3"/>
<path d="M71.4585 89.83C57.8568 87.0024 43.361 94.1348 34.7363 105.208C43.9531 105.433 50.4934 108.631 55.6214 111.902L71.4585 89.83Z" fill="#F29900"/>
<path d="M107.129 121.949C111.363 135.18 105.785 150.342 95.6741 160.077C94.4869 150.934 90.6231 144.764 86.8334 140.006L107.129 121.949Z" fill="#F29900"/>
<path d="M49.5961 132.044C36.5125 139.102 33.3889 147.055 33.0899 154.859C38.5909 151.738 41.4155 151.59 40.2253 155.901C39.035 160.212 39.1831 163.037 43.3459 161.402C47.5087 159.768 48.3258 161.849 46.4665 166.903C54.8661 165.047 62.4486 161.109 67.4316 148.103L49.5961 132.044Z" fill="#F29900"/>
<path d="M52.7167 137.545C43.796 142.969 39.9292 150.252 40.2253 155.901C39.7042 159.469 41.1905 160.807 45.3533 159.173C51.6715 158.134 57.8417 154.27 61.6345 145.574L52.7167 137.545Z" fill="#FDE47A"/>
<path d="M54.0581 122.605L76.3524 142.679C70.0085 147.732 66.1181 150.06 64.6812 149.664L48.332 134.943C47.7872 133.555 49.6959 129.443 54.0581 122.605Z" fill="#7FB5EC"/>
<path d="M146.839 41.9794C148.171 67.4004 132.704 96.5341 112.63 118.828C96.5713 136.664 84.2309 144.391 75.7572 144.835L51.9766 123.423C51.5325 114.95 57.9277 101.869 73.9869 84.0336C94.0608 61.7393 121.418 43.3117 146.839 41.9794Z" fill="#FCC934"/>
<path d="M146.839 41.9787C147.875 61.7505 142.966 76.1694 135.085 87.9116L102.387 58.4699C113.241 49.4041 127.067 43.0149 146.839 41.9787Z" fill="#F5A623"/>
<path d="M99.3309 94.7431C104.666 99.5473 112.886 99.1165 117.69 93.7809C122.495 88.4454 122.064 80.2255 116.728 75.4214C111.393 70.6172 103.173 71.048 98.3687 76.3835C93.5645 81.7191 93.9953 89.939 99.3309 94.7431Z" fill="#7FB5EC" stroke="#3F7FD1" stroke-width="5"/>
<path d="M82.9473 100.983C84.0144 101.944 85.6584 101.858 86.6192 100.791C87.5801 99.7235 87.4939 98.0795 86.4268 97.1186C85.3597 96.1578 83.7157 96.244 82.7549 97.3111C81.7941 98.3782 81.8802 100.022 82.9473 100.983Z" fill="#274A8D"/>
<path d="M94.8377 111.69C95.9048 112.651 97.5488 112.565 98.5096 111.498C99.4705 110.43 99.3843 108.787 98.3172 107.826C97.2501 106.865 95.6061 106.951 94.6453 108.018C93.6844 109.085 93.7706 110.729 94.8377 111.69Z" fill="#274A8D"/>
<path d="M81.4155 104.18C82.207 110.275 85.675 113.397 91.8196 113.548" stroke="#274A8D" stroke-width="3.2" stroke-linecap="round"/>
<path d="M45.7509 43.5845C45.9452 43.2214 46.5426 43.3267 46.601 43.7344C47.5075 50.0624 50.7789 54.7344 56.4151 57.7505C56.7783 57.9448 56.673 58.5422 56.2652 58.6006C49.9373 59.5071 45.2653 62.7785 42.2492 68.4147C42.0548 68.7779 41.4575 68.6726 41.3991 68.2648C40.4926 61.9369 37.2212 57.2649 31.5849 54.2488C31.2218 54.0544 31.3271 53.4571 31.7348 53.3987C38.0628 52.4922 42.7348 49.2208 45.7509 43.5845Z" fill="#FBBC04"/>
<path d="M159.389 52.8593C159.435 52.4455 160.05 52.3148 160.261 52.674C162.933 57.2292 166.893 59.8009 172.141 60.3893C172.555 60.4357 172.686 61.0507 172.327 61.2614C167.772 63.9335 165.2 67.8937 164.611 73.142C164.565 73.5558 163.95 73.6865 163.739 73.3273C161.067 68.7721 157.107 66.2003 151.859 65.612C151.445 65.5656 151.314 64.9506 151.673 64.7399C156.229 62.0678 158.8 58.1076 159.389 52.8593Z" fill="#FBBC04"/>
<path d="M153.645 111.492C153.901 111.184 154.468 111.368 154.494 111.768C154.703 114.968 156.041 117.593 158.507 119.643C158.815 119.899 158.63 120.466 158.231 120.492C155.031 120.702 152.406 122.04 150.355 124.505C150.099 124.813 149.532 124.629 149.506 124.229C149.297 121.029 147.959 118.404 145.493 116.354C145.186 116.098 145.37 115.531 145.769 115.505C148.969 115.295 151.594 113.958 153.645 111.492Z" fill="#FBBC04"/>
</svg>
