<svg width="456" height="456" viewBox="0 0 456 456" fill="none" xmlns="http://www.w3.org/2000/svg">
<path d="M243.903 77.6503C255.334 63.9031 277.567 69.2318 281.525 86.6674L297.118 155.357C298.69 162.281 303.568 167.988 310.162 170.618L375.587 196.714C392.194 203.338 393.997 226.13 378.637 235.282L318.128 271.338C312.029 274.972 308.109 281.375 307.645 288.46L303.043 358.746C301.875 376.588 280.757 385.345 267.306 373.565L214.316 327.16C208.975 322.482 201.674 320.732 194.793 322.48L126.524 339.824C109.196 344.226 94.3408 326.847 101.387 310.415L129.147 245.679C131.945 239.153 131.353 231.669 127.564 225.665L89.9734 166.097C80.4316 150.977 92.3698 131.479 110.175 133.102L180.321 139.499C187.392 140.144 194.327 137.268 198.866 131.809L243.903 77.6503Z" fill="#1B3476"/>
<circle cx="3.53371" cy="3.53371" r="3.53371" transform="matrix(-0.950922 -0.30943 -0.30943 0.950922 262.903 197.139)" fill="#B8DCFF"/>
<circle cx="3.53371" cy="3.53371" r="3.53371" transform="matrix(-0.950922 -0.30943 -0.30943 0.950922 208.295 179.369)" fill="#B8DCFF"/>
<circle cx="268.203" cy="202.822" r="22.0191" transform="rotate(18.0249 268.203 202.822)" stroke="#B8DCFF" stroke-width="5.06474"/>
<circle cx="211.326" cy="184.316" r="22.0191" transform="rotate(18.0249 211.326 184.316)" stroke="#B8DCFF" stroke-width="5.06474"/>
<path d="M233.015 191.098L245.682 195.219" stroke="#B8DCFF" stroke-width="5.06474" stroke-linecap="round"/>
<path d="M225.847 237.931C231.177 238.336 235.826 234.342 236.23 229.012M216.927 227.548C216.523 232.878 220.516 237.527 225.847 237.931" stroke="#B8DCFF" stroke-width="4" stroke-linecap="round"/>
</svg>
