<svg width="491" height="491" viewBox="0 0 491 491" fill="none" xmlns="http://www.w3.org/2000/svg">
<path d="M127.067 130.523C126.115 128.582 128.583 126.115 130.524 127.066C174.163 148.453 227.187 126.49 242.921 80.5093C243.621 78.4643 247.111 78.4643 247.811 80.5093C263.545 126.49 316.569 148.453 360.208 127.066C362.149 126.115 364.617 128.582 363.666 130.523C342.278 174.162 364.241 227.187 410.222 242.92C412.267 243.62 412.267 247.11 410.222 247.81C364.241 263.544 342.278 316.568 363.666 360.207C364.617 362.148 362.149 364.616 360.208 363.665C316.569 342.277 263.545 364.24 247.811 410.221C247.111 412.266 243.621 412.266 242.921 410.221C227.187 364.24 174.163 342.277 130.524 363.665C128.583 364.616 126.115 362.148 127.067 360.207C148.454 316.568 126.491 263.544 80.5101 247.81C78.4651 247.11 78.4651 243.62 80.5101 242.92C126.491 227.187 148.454 174.162 127.067 130.523Z" fill="#FFEF9A"/>
<rect x="242.474" y="149.789" width="12.5287" height="19.688" rx="6.26437" transform="rotate(-18.2295 242.474 149.789)" fill="#1B3476"/>
<rect x="218.674" y="157.629" width="12.5287" height="19.688" rx="6.26437" transform="rotate(-18.2295 218.674 157.629)" fill="#1B3476"/>
<path d="M265.838 207.621C283.788 196.615 289.417 173.143 278.411 155.193M213.411 195.048C224.416 212.997 247.889 218.626 265.838 207.621" stroke="#1B3476" stroke-width="9" stroke-linecap="round"/>
</svg>
