<svg width="445" height="445" viewBox="0 0 445 445" fill="none" xmlns="http://www.w3.org/2000/svg">
<path d="M219.643 64.0005C307.336 64.0005 422.889 153.977 422.889 241.67C422.889 329.362 307.336 381.43 219.643 381.43C131.95 381.43 22.7915 294.651 22.7915 206.958C22.7915 119.265 131.95 64.0005 219.643 64.0005Z" fill="#FFE266"/>
<path d="M186.577 171.124C187.979 170.241 189.832 170.661 190.715 172.063C191.598 173.465 191.178 175.317 189.776 176.2L152.733 199.536C151.331 200.419 149.478 199.999 148.595 198.597C147.712 197.195 148.133 195.343 149.534 194.46L186.577 171.124Z" fill="#19181B"/>
<circle cx="21.6075" cy="21.6075" r="21.6075" transform="matrix(-0.924596 0.380948 0.380948 0.924596 138.457 136.027)" fill="white"/>
<ellipse cx="11.8157" cy="11.5746" rx="11.8157" ry="11.5746" transform="matrix(-0.924596 0.380948 0.380948 0.924596 132.953 149.254)" fill="black"/>
<circle cx="21.6075" cy="21.6075" r="21.6075" transform="matrix(-0.924596 0.380948 0.380948 0.924596 177.103 119.895)" fill="white"/>
<ellipse cx="11.8157" cy="11.5746" rx="11.8157" ry="11.5746" transform="matrix(-0.924596 0.380948 0.380948 0.924596 171.597 133.117)" fill="black"/>
</svg>
