<svg width="445" height="445" viewBox="0 0 445 445" fill="none" xmlns="http://www.w3.org/2000/svg">
<path d="M206.143 20.18C216.577 14.6067 229.103 14.6067 239.537 20.18L401.939 106.93C413.476 113.093 420.68 125.109 420.68 138.188V307.054C420.68 320.133 413.476 332.149 401.939 338.312L239.537 425.062C229.103 430.635 216.577 430.635 206.143 425.062L43.7408 338.312C32.2043 332.149 25 320.133 25 307.054V138.188C25 125.109 32.2042 113.093 43.7408 106.93L206.143 20.18Z" fill="#0C3468"/>
<path d="M222.059 128.935C213.74 130.714 205.553 125.412 203.774 117.093C203.428 115.473 201.833 114.44 200.213 114.787C198.593 115.133 197.56 116.728 197.907 118.348C200.379 129.908 211.754 137.274 223.314 134.802C234.874 132.33 242.241 120.954 239.769 109.395C239.422 107.774 237.828 106.742 236.208 107.088C234.587 107.435 233.555 109.029 233.901 110.649C235.681 118.969 230.379 127.155 222.059 128.935Z" fill="#B8DCFF"/>
<path d="M157.711 141.857C149.391 143.636 141.204 138.334 139.425 130.015C139.079 128.395 137.484 127.362 135.864 127.709C134.244 128.055 133.211 129.649 133.558 131.27C136.03 142.829 147.406 150.196 158.965 147.724C170.525 145.252 177.892 133.876 175.42 122.316C175.073 120.696 173.479 119.664 171.859 120.01C170.238 120.357 169.206 121.951 169.552 123.571C171.332 131.891 166.03 140.077 157.711 141.857Z" fill="#B8DCFF"/>
<path d="M201.661 166.405C200.77 160.222 195.035 155.932 188.852 156.823C182.669 157.715 178.379 163.45 179.271 169.633C180.162 175.816 185.898 180.105 192.081 179.214L192.937 185.152L192.494 185.211C183.349 186.294 174.946 180.009 173.402 170.931L173.332 170.49C171.968 161.027 178.533 152.249 187.996 150.885L188.438 150.827C197.731 149.726 206.256 156.233 207.6 165.548L207.659 165.991C208.759 175.283 202.252 183.809 192.937 185.152L192.081 179.214C198.263 178.322 202.552 172.588 201.661 166.405Z" fill="#B8DCFF"/>
</svg>
