<svg width="200" height="200" viewBox="0 0 200 200" fill="none" xmlns="http://www.w3.org/2000/svg">
<line x1="86" y1="188" x2="86" y2="165" stroke="#231F20" stroke-width="8" stroke-linecap="round"/>
<line x1="112" y1="188" x2="112" y2="165" stroke="#231F20" stroke-width="8" stroke-linecap="round"/>
<path d="M90.9508 18.6634C96.2932 13.7626 104.497 13.7626 109.839 18.6634L117.08 25.3059L126.579 22.7893C133.586 20.9327 140.85 24.7449 143.303 31.567L146.628 40.8138L156.208 42.9997C163.276 44.6124 167.936 51.3637 166.937 58.5442L165.584 68.2769L173.051 74.6646C178.56 79.3772 179.549 87.5208 175.328 93.4148L169.607 101.404L173.25 110.53C175.938 117.263 173.029 124.933 166.552 128.19L157.773 132.605L156.758 142.379C156.009 149.59 149.869 155.03 142.62 154.904L132.795 154.734L127.354 162.916C123.34 168.953 115.375 170.916 109.015 167.437L100.395 162.72L91.7745 167.437C85.4146 170.916 77.4496 168.953 73.4354 162.916L67.9943 154.734L58.1695 154.904C50.9209 155.03 44.7806 149.59 44.0316 142.379L43.0164 132.605L34.2378 128.19C27.7611 124.933 24.8521 117.263 27.54 110.53L31.1832 101.404L25.4619 93.4148C21.2408 87.5208 22.2296 79.3772 27.7386 74.6646L35.2055 68.2769L33.8522 58.5442C32.8537 51.3637 37.5138 44.6124 44.5818 42.9997L54.1619 40.8138L57.4866 31.567C59.9396 24.7449 67.2032 20.9327 74.2111 22.7893L83.7097 25.3059L90.9508 18.6634Z" fill="#5CB5A3"/>
<path d="M80.5024 91.0637C88.5119 91.0637 95.0049 84.5576 95.0049 76.5319C95.0049 68.5061 88.5119 62 80.5024 62C72.493 62 66 68.5061 66 76.5319C66 84.5576 72.493 91.0637 80.5024 91.0637Z" fill="white"/>
<path d="M119.151 91.5491C127.16 91.5491 133.653 85.0429 133.653 77.0172C133.653 68.9915 127.16 62.4854 119.151 62.4854C111.141 62.4854 104.648 68.9915 104.648 77.0172C104.648 85.0429 111.141 91.5491 119.151 91.5491Z" fill="white"/>
<path d="M85.5612 79.4974C87.2513 79.4974 88.6214 78.1273 88.6214 76.4372C88.6214 74.7471 87.2513 73.377 85.5612 73.377C83.8711 73.377 82.501 74.7471 82.501 76.4372C82.501 78.1273 83.8711 79.4974 85.5612 79.4974Z" fill="#231F20"/>
<path d="M114.561 79.5098C116.251 79.5098 117.621 78.1369 117.621 76.4434C117.621 74.7499 116.251 73.377 114.561 73.377C112.871 73.377 111.501 74.7499 111.501 76.4434C111.501 78.1369 112.871 79.5098 114.561 79.5098Z" fill="#231F20"/>
<path d="M124 166.433C119.738 169.567 113.904 170.111 109.016 167.437L100.396 162.721L91.7754 167.437C85.701 170.76 78.1622 169.118 74 163.704V135H124V166.433Z" fill="white"/>
<path d="M85 145L85.6025 169.14C80.8823 169.317 76.2132 167.094 73.4355 162.917L67.9951 154.734L58.1699 154.904C50.9216 155.03 44.7815 149.59 44.0322 142.38L43.0166 132.605L42 132.094V132L77.5 131L85 145Z" fill="black"/>
<path d="M158 132V132.491L157.773 132.605L156.759 142.38C156.01 149.59 149.869 155.03 142.621 154.904L132.796 154.734L127.354 162.917C124.422 167.327 119.381 169.559 114.397 169.087L115 145L122.5 131L158 132Z" fill="black"/>
<path d="M86.3448 146.885C86.823 147.797 85.7757 148.75 84.9128 148.187L69.084 137.863C68.5356 137.505 68.4732 136.726 68.9577 136.285L76.0138 129.871C76.4983 129.43 77.2683 129.567 77.5722 130.147L86.3448 146.885Z" fill="#272727"/>
<path d="M97.7679 144C98.5377 145.333 100.462 145.333 101.232 144L105.995 135.75C106.765 134.417 105.803 132.75 104.263 132.75H94.7369C93.1973 132.75 92.235 134.417 93.0048 135.75L97.7679 144Z" fill="#272727"/>
<path d="M113.266 146.885C112.788 147.797 113.835 148.75 114.698 148.187L130.527 137.863C131.075 137.505 131.138 136.726 130.653 136.285L123.597 129.871C123.113 129.43 122.343 129.567 122.039 130.147L113.266 146.885Z" fill="#272727"/>
<path d="M105.695 165.62L100.396 162.721L93.0176 166.757L99.5 141L105.695 165.62Z" fill="#272727"/>
<path d="M96.6675 107.501C100.947 107.427 103.291 106.982 107.288 104.637" stroke="#231F20" stroke-width="3" stroke-linecap="round"/>
<path d="M81.6294 52.8506C79.868 51.8427 78.8665 51.6818 77.0167 52.9423" stroke="#231F20" stroke-width="4" stroke-linecap="round"/>
<path d="M117.629 52.8506C115.868 51.8427 114.867 51.6818 113.017 52.9423" stroke="#231F20" stroke-width="4" stroke-linecap="round"/>
<rect x="144" y="40" width="13" height="17" rx="6.5" fill="#D9D9D9"/>
<circle cx="150" cy="32" r="15" fill="#FFC400"/>
<circle cx="150" cy="40" r="5" fill="#E47900"/>
<line x1="137.326" y1="17.8811" x2="134.754" y2="14.8175" stroke="#FFC400" stroke-width="4" stroke-linecap="round"/>
<line x1="131.397" y1="28.2972" x2="127.499" y2="27.3982" stroke="#FFC400" stroke-width="4" stroke-linecap="round"/>
<line x1="2" y1="-2" x2="6" y2="-2" transform="matrix(0.974418 -0.224744 -0.224744 -0.974418 166 26.7979)" stroke="#FFC400" stroke-width="4" stroke-linecap="round"/>
<line x1="2" y1="-2" x2="6" y2="-2" transform="matrix(0.642968 -0.765893 -0.765893 -0.642968 160 18.127)" stroke="#FFC400" stroke-width="4" stroke-linecap="round"/>
<line x1="150" y1="13" x2="150" y2="9" stroke="#FFC400" stroke-width="4" stroke-linecap="round"/>
<path d="M156.746 52.2939C156.554 52.9633 156.259 53.5883 155.877 54.1504C154.295 54.5561 152.379 54.75 150.5 54.75C148.621 54.75 146.704 54.5563 145.122 54.1504C144.74 53.5884 144.445 52.9632 144.253 52.2939C144.263 52.2977 144.274 52.3014 144.284 52.3057C145.78 52.9194 148.107 53.25 150.5 53.25C152.893 53.25 155.22 52.9194 156.716 52.3057C156.726 52.3015 156.736 52.2976 156.746 52.2939Z" fill="#B5B5B5"/>
<path d="M157 49.8037C155.261 50.4471 152.851 50.75 150.5 50.75C148.149 50.75 145.739 50.4471 144 49.8037V48.25C144.095 48.2499 144.191 48.2676 144.284 48.3057C145.78 48.9194 148.107 49.25 150.5 49.25C152.893 49.25 155.22 48.9194 156.716 48.3057C156.809 48.2676 156.905 48.2499 157 48.25V49.8037Z" fill="#B5B5B5"/>
</svg>
