<svg width="582" height="472" viewBox="0 0 582 472" fill="none" xmlns="http://www.w3.org/2000/svg">
<path d="M201.77 471.02C193.624 471.02 186.997 464.395 186.997 456.25C186.997 447.642 190.332 439.582 196.452 433.547C202.488 427.513 210.55 424.179 219.076 424.179H226.505V382.782C226.505 371.346 235.791 362.02 247.23 362.02C252.759 362.02 257.993 364.172 261.919 368.097C265.844 372.021 267.997 377.212 267.997 382.782V455.913C267.997 464.226 261.201 471.02 252.844 471.02H201.77Z" fill="#D9D9D9"/>
<path d="M316.15 471.02C307.793 471.02 300.997 464.226 300.997 455.913V382.782C300.997 377.254 303.15 372.021 307.075 368.097C311.001 364.172 316.235 362.02 321.764 362.02C333.203 362.02 342.489 371.346 342.489 382.782V424.179H349.918C358.486 424.179 366.506 427.513 372.584 433.547C378.663 439.582 381.997 447.642 381.997 456.25C381.997 464.395 375.37 471.02 367.224 471.02H316.15Z" fill="#D9D9D9"/>
<path d="M50.9862 266.137C68.5686 251.958 91.3047 244.169 115.038 246.169C120.747 246.65 124.796 251.671 124.056 257.352C123.317 263.033 118.063 267.27 112.355 266.789C76.3584 263.756 43.283 290.429 38.6217 326.251C37.8824 331.932 32.6285 336.169 26.9199 335.688C21.2112 335.207 17.1621 330.186 17.9014 324.505C20.9449 300.91 33.4037 280.317 50.9862 266.137Z" fill="#231F20" stroke="#231F20" stroke-width="2.08" stroke-miterlimit="10"/>
<path d="M515.835 259.439C493.33 261.36 470.126 255.102 451.57 240.17C447.106 236.579 446.558 230.152 450.348 225.856C454.138 221.56 460.863 220.986 465.326 224.577C493.47 247.224 535.806 243.609 559.704 216.52C563.494 212.224 570.219 211.65 574.683 215.241C579.146 218.833 579.695 225.26 575.905 229.556C560.186 247.413 538.341 257.517 515.835 259.439Z" fill="#231F20" stroke="#231F20" stroke-width="2.08" stroke-miterlimit="10"/>
<path fill-rule="evenodd" clip-rule="evenodd" d="M283.642 420.58C260.142 420.58 238.882 410.06 224.742 391.57C217.822 393.63 210.732 394.67 203.602 394.67C183.822 394.67 164.452 386.46 150.462 372.14C137.302 358.68 129.922 341.11 129.442 322.33C107.492 314.59 90.9116 297.62 83.6516 275.27C76.3916 252.92 79.8216 229.45 93.0316 210.29C79.8216 191.13 76.3816 167.66 83.6516 145.31C90.9116 122.96 107.492 105.99 129.442 98.25C129.922 79.47 137.302 61.8999 150.462 48.4399C164.452 34.1199 183.822 25.91 203.602 25.91C210.722 25.91 217.822 26.95 224.742 29.01C238.882 10.53 260.152 0 283.642 0C307.132 0 328.402 10.52 342.542 29.01C349.462 26.95 356.552 25.91 363.682 25.91C383.462 25.91 402.832 34.1199 416.822 48.4399C429.972 61.8999 437.362 79.47 437.842 98.25C459.792 105.99 476.372 122.96 483.632 145.31C490.892 167.66 487.452 191.13 474.252 210.29C487.462 229.45 490.902 252.92 483.632 275.27C476.372 297.62 459.792 314.59 437.842 322.33C437.362 341.11 429.982 358.67 416.822 372.13C402.832 386.45 383.462 394.66 363.672 394.66C356.552 394.66 349.452 393.62 342.532 391.56C328.392 410.04 307.122 420.57 283.632 420.57L283.642 420.58Z" fill="#FF4343"/>
<path d="M232.377 249.779C254.125 249.779 271.756 232.148 271.756 210.4C271.756 188.651 254.125 171.02 232.377 171.02C210.628 171.02 192.997 188.651 192.997 210.4C192.997 232.148 210.628 249.779 232.377 249.779Z" fill="white"/>
<path d="M335.751 249.779C357.5 249.779 375.131 232.148 375.131 210.4C375.131 188.651 357.5 171.02 335.751 171.02C314.003 171.02 296.372 188.651 296.372 210.4C296.372 232.148 314.003 249.779 335.751 249.779Z" fill="white"/>
<path d="M256.987 218.02C261.577 218.02 265.297 214.3 265.297 209.71C265.297 205.121 261.577 201.401 256.987 201.401C252.398 201.401 248.678 205.121 248.678 209.71C248.678 214.3 252.398 218.02 256.987 218.02Z" fill="#231F20"/>
<path d="M350.295 218.02C354.884 218.02 358.605 214.3 358.605 209.71C358.605 205.121 354.884 201.401 350.295 201.401C345.706 201.401 341.985 205.121 341.985 209.71C341.985 214.3 345.706 218.02 350.295 218.02Z" fill="#231F20"/>
<path d="M261.027 292.677C255.5 290.641 250.748 286.504 248.086 280.738C247.446 279.352 248.054 277.7 249.441 277.06C250.828 276.42 252.479 277.028 253.119 278.415C257.156 287.159 267.553 290.989 276.297 286.952C277.684 286.312 279.335 286.92 279.976 288.307C280.616 289.694 280.007 291.345 278.621 291.985C272.865 294.65 266.554 294.713 261.027 292.677Z" fill="#231F20" stroke="#231F20" stroke-width="2.08" stroke-miterlimit="10"/>
<path d="M211.48 121.259C220.266 119.305 229.819 120.797 238.053 126.214C240.034 127.517 240.636 130.224 239.394 132.244C238.153 134.263 235.527 134.847 233.547 133.544C221.058 125.328 204.529 129.005 196.7 141.74C195.459 143.759 192.833 144.343 190.852 143.04C188.872 141.737 188.27 139.03 189.511 137.01C194.658 128.617 202.693 123.214 211.48 121.259Z" fill="#231F20" stroke="#231F20" stroke-width="2.08" stroke-miterlimit="10"/>
<path d="M334.601 172.108C325.967 175.924 315.923 176.551 306.515 173.065C304.252 172.227 303.145 169.721 304.048 167.483C304.951 165.245 307.531 164.105 309.794 164.943C324.063 170.229 340.305 163.051 346.002 148.941C346.905 146.703 349.485 145.563 351.748 146.401C354.011 147.239 355.119 149.746 354.215 151.983C350.474 161.28 343.235 168.292 334.601 172.108Z" fill="#231F20" stroke="#231F20" stroke-width="2.08" stroke-miterlimit="10"/>
</svg>
