<svg width="200" height="180" viewBox="0 0 200 180" fill="none" xmlns="http://www.w3.org/2000/svg">
<path d="M22.7566 119.182C29.2317 124.404 37.6048 127.273 46.3451 126.536C48.4475 126.359 49.9386 124.51 49.6664 122.418C49.3942 120.325 47.4593 118.765 45.3569 118.942C32.1005 120.059 19.9197 110.236 18.2031 97.0441C17.9308 94.952 15.996 93.3916 13.8936 93.5688C11.7913 93.746 10.3001 95.595 10.5723 97.6872C11.6932 106.376 16.2814 113.96 22.7566 119.182Z" fill="#231F20" stroke="#231F20" stroke-width="0.766008" stroke-miterlimit="10"/>
<path d="M175.35 100.463C167.062 101.17 158.517 98.8654 151.683 93.3666C150.039 92.044 149.837 89.6771 151.233 88.095C152.629 86.5129 155.105 86.3015 156.749 87.6241C167.114 95.9641 182.705 94.6331 191.506 84.6569C192.902 83.0747 195.378 82.8633 197.022 84.1859C198.666 85.5086 198.868 87.8754 197.472 89.4575C191.684 96.0339 183.638 99.755 175.35 100.463Z" fill="#231F20" stroke="#231F20" stroke-width="0.766008" stroke-miterlimit="10"/>
<path d="M68.3764 142.905C69.0295 140.659 71.3796 139.369 73.6255 140.022C75.8714 140.675 77.1632 143.025 76.5102 145.271C75.7609 147.848 74.1364 150.897 72.4008 153.759C70.612 156.709 68.4934 159.797 66.5229 162.536C61.4347 169.61 52.4409 172.229 44.3559 169.744L33.2446 166.329C31.0088 165.642 29.7527 163.272 30.4399 161.036C31.1273 158.801 33.4973 157.545 35.7329 158.232L46.8452 161.647C51.7031 163.14 56.8293 161.509 59.6479 157.591C61.551 154.945 63.5282 152.054 65.1577 149.366C66.8404 146.591 67.9581 144.344 68.3764 142.905Z" fill="black"/>
<path d="M117.555 130.766C119.893 130.801 121.76 132.726 121.724 135.064C121.703 136.497 122.077 138.841 122.816 141.836C123.533 144.738 124.512 147.939 125.514 150.948C126.512 153.948 127.517 156.709 128.273 158.723C128.651 159.728 128.965 160.545 129.184 161.106C129.294 161.387 129.38 161.604 129.437 161.75C129.466 161.823 129.488 161.878 129.503 161.914C129.51 161.932 129.515 161.946 129.518 161.954C129.52 161.958 129.522 161.961 129.522 161.963L129.59 162.144L133.732 173.995C134.504 176.203 133.34 178.619 131.132 179.391C128.924 180.162 126.508 178.998 125.736 176.79L121.619 165.01C121.604 164.972 121.584 164.925 121.561 164.868C121.499 164.71 121.408 164.478 121.293 164.183C121.063 163.592 120.736 162.743 120.345 161.701C119.563 159.62 118.518 156.754 117.476 153.624C116.437 150.503 115.383 147.07 114.593 143.867C113.825 140.757 113.216 137.523 113.256 134.936C113.291 132.597 115.216 130.73 117.555 130.766Z" fill="black"/>
<path fill-rule="evenodd" clip-rule="evenodd" d="M99.44 154.888C90.7856 154.888 82.9561 151.014 77.7487 144.205C75.2002 144.963 72.5892 145.346 69.9634 145.346C62.6789 145.346 55.5455 142.323 50.3933 137.049C45.5469 132.092 42.829 125.622 42.6522 118.706C34.5686 115.855 28.4627 109.606 25.789 101.375C23.1153 93.1437 24.3785 84.5003 29.2434 77.4442C24.3785 70.3881 23.1117 61.7447 25.789 53.5138C28.4627 45.2829 34.5686 39.0333 42.6522 36.1829C42.829 29.2667 45.5469 22.7961 50.3933 17.8391C55.5455 12.5655 62.6789 9.54197 69.9634 9.54197C72.5855 9.54197 75.2002 9.92497 77.7487 10.6836C82.9561 3.87792 90.7892 0 99.44 0C108.091 0 115.924 3.87424 121.131 10.6836C123.68 9.92497 126.291 9.54197 128.917 9.54197C136.201 9.54197 143.334 12.5655 148.487 17.8391C153.329 22.7961 156.051 29.2667 156.228 36.1829C164.311 39.0333 170.417 45.2829 173.091 53.5138C175.765 61.7447 174.498 70.3881 169.637 77.4442C174.501 84.5003 175.768 93.1437 173.091 101.375C170.417 109.606 164.311 115.855 156.228 118.706C156.051 125.622 153.333 132.089 148.487 137.046C143.334 142.319 136.201 145.343 128.913 145.343C126.291 145.343 123.676 144.96 121.128 144.201C115.92 151.007 108.087 154.885 99.4363 154.885L99.44 154.888Z" fill="#BDE062"/>
<ellipse cx="54.8837" cy="95.8212" rx="12" ry="6" transform="rotate(-2 54.8837 95.8212)" fill="#D464B4"/>
<ellipse cx="145.884" cy="93.8209" rx="12" ry="6" transform="rotate(2 145.884 93.8209)" fill="#D464B4"/>
<path d="M79.9824 91.5019C87.9919 91.5019 94.4849 85.009 94.4849 76.9995C94.4849 68.99 87.9919 62.4971 79.9824 62.4971C71.9729 62.4971 65.48 68.99 65.48 76.9995C65.48 85.009 71.9729 91.5019 79.9824 91.5019Z" fill="white"/>
<path d="M86.4946 81.999C88.7038 81.999 90.4946 80.2082 90.4946 77.999C90.4946 75.7899 88.7038 73.999 86.4946 73.999C84.2855 73.999 82.4946 75.7899 82.4946 77.999C82.4946 80.2082 84.2855 81.999 86.4946 81.999Z" fill="#231F20"/>
<path d="M118.631 91.9868C110.621 91.9868 104.128 85.4938 104.128 77.4844C104.128 69.4749 110.621 62.9819 118.631 62.9819C126.64 62.9819 133.133 69.4749 133.133 77.4844C133.133 85.4938 126.64 91.9868 118.631 91.9868Z" fill="white"/>
<path d="M112.119 82.4839C109.91 82.4839 108.119 80.693 108.119 78.4839C108.119 76.2748 109.91 74.4839 112.119 74.4839C114.328 74.4839 116.119 76.2748 116.119 78.4839C116.119 80.693 114.328 82.4839 112.119 82.4839Z" fill="#231F20"/>
<path d="M90.7362 106.992C90.5685 102.098 94.6542 104.799 99.8665 104.62C105.079 104.441 109.444 101.451 109.612 106.345C109.78 111.24 105.69 115.352 100.478 115.531C95.2655 115.709 90.904 111.887 90.7362 106.992Z" fill="#222222"/>
<path d="M106.049 113.589C104.515 114.742 102.588 115.459 100.478 115.532C99.2346 115.574 98.0406 115.386 96.9396 115.013C97.7205 113.75 99.036 112.755 100.671 112.353C102.69 111.856 104.698 112.385 106.049 113.589Z" fill="#FF0000"/>
<path d="M72.8499 44.6564C76.0858 43.9367 79.6038 44.486 82.6363 46.4809C83.3657 46.9608 83.5874 47.9578 83.1302 48.7016C82.6729 49.4454 81.706 49.6605 80.9766 49.1806C76.3773 46.1548 70.2902 47.5087 67.407 52.1987C66.9498 52.9425 65.9829 53.1576 65.2535 52.6777C64.524 52.1978 64.3023 51.2008 64.7595 50.457C66.655 47.366 69.6141 45.3761 72.8499 44.6564Z" fill="#231F20" stroke="#231F20" stroke-width="0.766008" stroke-miterlimit="10"/>
<path d="M124.891 42.2769C128.176 42.7174 131.289 44.4463 133.448 47.3647C133.967 48.0667 133.831 49.0791 133.145 49.6195C132.46 50.16 131.478 50.0283 130.959 49.3264C127.685 44.9 121.505 44.0714 117.181 47.4792C116.495 48.0197 115.513 47.888 114.994 47.1861C114.475 46.4841 114.611 45.4717 115.296 44.9313C118.142 42.6837 121.605 41.8364 124.891 42.2769Z" fill="#231F20" stroke="#231F20" stroke-width="0.766008" stroke-miterlimit="10"/>
<path d="M10.0085 86.3822C9.48221 86.7894 8.38342 86.7331 7.59822 85.7184C6.81303 84.7037 7.03427 83.6259 7.56055 83.2187C8.08684 82.8114 9.18563 82.8677 9.97083 83.8824C10.756 84.8972 10.5348 85.9749 10.0085 86.3822Z" stroke="#916621" stroke-width="2"/>
<path d="M6.22801 92.0876C4.50106 91.107 4.48032 88.6257 6.19064 87.6164L14.9981 82.4187C15.7798 81.9574 16.7462 81.9402 17.5438 82.3733L35.4125 92.0757C37.177 93.0338 37.2219 95.5503 35.4928 96.5708L26.302 101.995C25.5053 102.465 24.518 102.473 23.7135 102.016L6.22801 92.0876Z" fill="#DD9B30"/>
<ellipse cx="9.62187" cy="94.5895" rx="5.16667" ry="7.75" transform="rotate(-30.5466 9.62187 94.5895)" fill="#DD9B30"/>
<path d="M8.66504 89.1548L16.73 84.3953L20.8102 86.8618L12.7453 91.6213L8.66504 89.1548Z" fill="#7F5818"/>
<path d="M20.7601 86.8302L20.7933 86.8673L20.6372 86.964L19.2394 87.7889L15.3047 85.2373L16.7311 84.3955L20.7601 86.8302Z" fill="black" fill-opacity="0.4"/>
<rect x="25.043" y="100.033" width="11.531" height="0.988058" rx="0.494029" transform="rotate(-29.6151 25.043 100.033)" fill="#7F5818"/>
</svg>
