<svg width="214" height="182" viewBox="0 0 214 182" fill="none" xmlns="http://www.w3.org/2000/svg">
<rect x="208.972" y="75.6602" width="5" height="4" rx="2" transform="rotate(14.0577 208.972 75.6602)" fill="#876500"/>
<path d="M18.7766 101.6C25.2518 96.3674 33.6248 93.4932 42.3651 94.2313C44.4675 94.4088 45.9587 96.2616 45.6864 98.3581C45.4142 100.454 43.4793 102.018 41.377 101.84C28.1205 100.721 15.9398 110.564 14.2231 123.783C13.9509 125.879 12.016 127.443 9.91363 127.265C7.81129 127.088 6.32011 125.235 6.59235 123.139C7.7132 114.432 12.3014 106.832 18.7766 101.6Z" fill="#231F20" stroke="#231F20" stroke-width="0.766008" stroke-miterlimit="10"/>
<path d="M189.049 97.7164C181.272 100.67 172.421 100.792 164.339 97.3665C162.395 96.5426 161.55 94.3172 162.458 92.41C163.366 90.5027 165.689 89.62 167.634 90.444C179.892 95.6394 194.521 90.0826 200.244 78.0564C201.152 76.1492 203.475 75.2665 205.419 76.0904C207.364 76.9144 208.208 79.1398 207.3 81.047C203.54 88.9711 196.825 94.7624 189.049 97.7164Z" fill="#231F20" stroke="#231F20" stroke-width="0.766008" stroke-miterlimit="10"/>
<path d="M86.3359 143.66C86.3359 143.66 91.9447 174.66 82.6294 174.66C75.6294 174.66 69.6294 174.66 69.6294 174.66" stroke="black" stroke-width="8" stroke-linecap="round"/>
<path d="M119.63 143.66C119.63 143.66 114.022 174.66 123.337 174.66C130.337 174.66 136.337 174.66 136.337 174.66" stroke="black" stroke-width="8" stroke-linecap="round"/>
<path d="M100.624 2.86616C106.387 -1.53287 114.556 -0.793135 119.435 4.56938L126.048 11.8379L135.735 10.188C142.881 8.97086 149.772 13.4226 151.599 20.4381L154.077 29.947L163.421 32.9879C170.315 35.2314 174.347 42.3753 172.705 49.4366L170.479 59.0077L177.34 66.0426C182.402 71.2328 182.652 79.4323 177.917 84.9218L171.498 92.3623L174.304 101.78C176.373 108.728 172.785 116.104 166.041 118.764L156.9 122.37L155.007 132.012C153.611 139.126 147.005 143.99 139.797 143.211L130.028 142.156L123.871 149.814C119.329 155.464 111.219 156.701 105.199 152.662L97.0393 147.188L88.0288 151.108C81.381 154 73.6255 151.326 70.172 144.952L65.491 136.312L55.6907 135.596C48.4604 135.067 42.8356 129.096 42.7399 121.847L42.6102 112.022L34.2655 106.833C28.1089 103.005 25.9035 95.1035 29.1875 88.6403L33.6388 79.88L28.6612 71.4076C24.9888 65.1569 26.708 57.1357 32.6194 52.939L40.632 47.2508L40.1618 37.4357C39.8149 30.1943 45.0648 23.8908 52.2494 22.922L61.9876 21.6089L66.1326 12.6996C69.1907 6.12651 76.7686 2.98476 83.5805 5.46582L92.8135 8.8287L100.624 2.86616Z" fill="#FFA3C8"/>
<path d="M87.6294 44.5107C85.868 43.5028 84.8665 43.342 83.0167 44.6025" stroke="#231F20" stroke-width="4" stroke-linecap="round"/>
<path d="M123.629 44.5107C121.868 43.5028 120.867 43.342 119.017 44.6025" stroke="#231F20" stroke-width="4" stroke-linecap="round"/>
<path d="M82.5024 68.166C90.5119 68.166 97.0049 66.73 97.0049 62.198C97.0049 57.666 90.5119 54.6661 82.5024 54.6661C74.493 54.6661 68 54.1723 68 62.198C68 70.2238 74.493 68.166 82.5024 68.166Z" fill="white"/>
<path d="M87.5612 65.1634C89.2513 65.1634 90.6214 63.7933 90.6214 62.1032C90.6214 60.4131 89.2513 59.043 87.5612 59.043C85.8711 59.043 84.501 60.4131 84.501 62.1032C84.501 63.7933 85.8711 65.1634 87.5612 65.1634Z" fill="#231F20"/>
<path d="M124.502 68.166C116.493 68.166 110 66.73 110 62.198C110 57.666 116.493 54.6661 124.502 54.6661C132.512 54.6661 139.005 54.1723 139.005 62.198C139.005 70.2238 132.512 68.166 124.502 68.166Z" fill="white"/>
<path d="M129.444 65.1634C127.754 65.1634 126.383 63.7933 126.383 62.1032C126.383 60.4131 127.754 59.043 129.444 59.043C131.134 59.043 132.504 60.4131 132.504 62.1032C132.504 63.7933 131.134 65.1634 129.444 65.1634Z" fill="#231F20"/>
<rect x="97" y="85.6602" width="13" height="4" fill="white"/>
<path d="M95 84.6602C99 86.6602 108 87.1602 112 84.6602" stroke="#FF0000" stroke-width="3" stroke-linecap="round"/>
<path d="M95 86.6602C99 91.3864 108 92.568 112 86.6602" stroke="#FF0000" stroke-width="3" stroke-linecap="round"/>
<path d="M133 55.3896C134.384 54.53 134.979 53.893 135.355 52.1562" stroke="#231F20" stroke-linecap="round"/>
<path d="M135 56.3896C136.384 55.53 136.979 54.893 137.355 53.1562" stroke="#231F20" stroke-linecap="round"/>
<path d="M137 57.3936C138.384 56.5339 138.979 55.8969 139.355 54.1601" stroke="#231F20" stroke-linecap="round"/>
<path d="M73.7588 55.8936C72.375 55.0339 71.7798 54.3969 71.4041 52.6601" stroke="#231F20" stroke-linecap="round"/>
<path d="M71.7588 56.8936C70.375 56.0339 69.7798 55.3969 69.4041 53.6601" stroke="#231F20" stroke-linecap="round"/>
<path d="M69.7588 57.8975C68.375 57.0378 67.7798 56.4008 67.4041 54.664" stroke="#231F20" stroke-linecap="round"/>
<path d="M173.999 111.66C172.656 115.249 169.853 118.261 166.041 119.765L156.899 123.37L155.007 133.012C153.611 140.126 147.005 144.989 139.798 144.211L130.028 143.155L123.871 150.814C119.329 156.465 111.219 157.701 105.199 153.662L97.0391 148.188L88.0283 152.107C81.3806 154.999 73.6254 152.326 70.1719 145.952L65.4912 137.312L55.6904 136.596C48.4602 136.067 42.8359 130.096 42.7402 122.847L42.6104 113.021L40.4209 111.66H84.6152C84.214 112.3 84 112.969 84 113.66C84 118.078 92.7304 121.66 103.5 121.66C114.27 121.66 123 118.078 123 113.66C123 112.969 122.786 112.3 122.385 111.66H173.999Z" fill="#71009E"/>
<circle cx="84.5" cy="112.16" r="2.5" fill="#EEEEEE"/>
<circle cx="85.5" cy="115.16" r="2.5" fill="#F9F9F9"/>
<circle cx="88.5" cy="117.16" r="2.5" fill="#D9D9D9"/>
<circle cx="91.5" cy="119.16" r="2.5" fill="#F9F9F9"/>
<circle cx="94.5" cy="120.16" r="2.5" fill="#EEEEEE"/>
<circle cx="97.5" cy="121.16" r="2.5" fill="#F9F9F9"/>
<circle cx="101.5" cy="122.16" r="2.5" fill="#D9D9D9"/>
<circle cx="105.5" cy="122.16" r="2.5" fill="#F9F9F9"/>
<circle cx="108.5" cy="121.16" r="2.5" fill="#EEEEEE"/>
<circle cx="111.5" cy="120.16" r="2.5" fill="#F9F9F9"/>
<circle cx="114.5" cy="119.16" r="2.5" fill="#D9D9D9"/>
<circle cx="117.5" cy="117.16" r="2.5" fill="#F9F9F9"/>
<circle cx="120.5" cy="115.16" r="2.5" fill="#EEEEEE"/>
<circle cx="121.5" cy="112.16" r="2.5" fill="#F9F9F9"/>
<path d="M66.8594 119.337V119.354" stroke="#FFDE06" stroke-width="2" stroke-linecap="round"/>
<path d="M78.7153 133.201H78.7326" stroke="#FFDE06" stroke-width="2" stroke-linecap="round"/>
<path d="M90.1704 127.123H90.1866" stroke="#FFDE06" stroke-width="2" stroke-linecap="round"/>
<path d="M104.857 136.311H104.874" stroke="#FFDE06" stroke-width="2" stroke-linecap="round"/>
<path d="M120.888 129.137V129.153" stroke="#FFDE06" stroke-width="2" stroke-linecap="round"/>
<path d="M123.965 139.611V139.629" stroke="#FFDE06" stroke-width="2" stroke-linecap="round"/>
<path d="M139.559 129.955H139.575" stroke="#FFDE06" stroke-width="2" stroke-linecap="round"/>
<path d="M148.242 119.233H148.26" stroke="#FFDE06" stroke-width="2" stroke-linecap="round"/>
<path d="M148.295 119.268L148.312 119.284" stroke="#FFDE06" stroke-width="2" stroke-linecap="round"/>
<path d="M131.548 119.146L131.566 119.164" stroke="#FFDE06" stroke-width="2" stroke-linecap="round"/>
<path d="M57.5996 128.733H57.646" stroke="#FFDE06" stroke-width="2" stroke-linecap="round"/>
<path d="M175.663 69.4597C176.569 65.759 180.385 63.5678 184.037 64.6516L206.847 71.4205C209.665 72.2568 211.331 75.1581 210.632 78.0137C209.934 80.8693 207.117 82.674 204.231 82.115L180.872 77.5904C177.132 76.8659 174.758 73.1603 175.663 69.4597Z" fill="#F8C200"/>
<circle cx="179" cy="70.6602" r="10" fill="#555555"/>
<path d="M178.102 61.6914C179.246 61.5611 180.379 61.4522 181.535 61.3594C181.512 61.2289 181.486 61.098 181.462 60.9658C181.643 61.0116 181.821 61.0618 181.998 61.1172C182.01 61.1852 182.024 61.2528 182.036 61.3203C182.188 61.3088 182.341 61.2991 182.494 61.2881C182.833 61.4145 183.162 61.5607 183.482 61.7217C183.024 61.751 182.572 61.7817 182.124 61.8154C182.318 62.9055 182.492 63.9389 182.648 64.9336C183.656 64.8626 184.69 64.8009 185.771 64.749C185.683 64.1975 185.589 63.6338 185.49 63.0547C185.697 63.2315 185.898 63.4155 186.09 63.6084C186.153 63.9876 186.216 64.3601 186.274 64.7275C186.523 64.7164 186.774 64.7068 187.027 64.6963C187.145 64.8548 187.257 65.0181 187.365 65.1836C187.023 65.1972 186.686 65.2098 186.354 65.2246C186.54 66.4274 186.701 67.5757 186.841 68.7021C187.472 68.6756 188.122 68.6515 188.793 68.6289C188.827 68.7935 188.857 68.9595 188.883 69.127C188.201 69.1494 187.542 69.1734 186.901 69.2002C187.046 70.4137 187.167 71.6074 187.269 72.8232C187.756 72.8092 188.257 72.7969 188.771 72.7852C188.735 72.9545 188.694 73.1221 188.648 73.2881C188.192 73.2987 187.746 73.3098 187.311 73.3223C187.378 74.1794 187.434 75.0504 187.485 75.9492C187.34 76.1824 187.186 76.4101 187.022 76.6299C186.962 75.4927 186.895 74.4046 186.811 73.3379C185.707 73.3722 184.666 73.4123 183.664 73.4648C183.755 74.6309 183.829 75.8236 183.892 77.0791C184.805 77.0336 185.752 76.9996 186.754 76.9727C186.61 77.1497 186.459 77.3207 186.303 77.4873C185.475 77.5117 184.683 77.5399 183.916 77.5781C183.943 78.1459 183.966 78.7273 183.989 79.3252C183.828 79.418 183.664 79.5059 183.498 79.5898C183.473 78.9083 183.446 78.2487 183.416 77.6064C182.216 77.6723 181.07 77.7572 179.929 77.8691C179.968 78.745 180.002 79.6537 180.034 80.6064C179.869 80.6235 179.702 80.6367 179.534 80.6455C179.503 79.6963 179.469 78.7912 179.43 77.9189C178.247 78.043 177.062 78.1968 175.819 78.3867C175.837 78.9588 175.851 79.5475 175.866 80.1562C175.696 80.1 175.528 80.0396 175.361 79.9746C175.348 79.4572 175.337 78.9543 175.321 78.4639C174.644 78.5713 173.948 78.6912 173.225 78.8213C173.041 78.6909 172.86 78.5563 172.686 78.4141C173.598 78.2461 174.466 78.0936 175.306 77.9609C175.262 76.6705 175.206 75.4638 175.135 74.3008C173.994 74.468 172.809 74.6605 171.544 74.8867C171.591 75.7091 171.624 76.5557 171.653 77.4424C171.472 77.2461 171.299 77.0424 171.134 76.832C171.109 76.1967 171.082 75.5809 171.048 74.9785C170.728 75.0369 170.402 75.097 170.07 75.1592C169.993 75.0054 169.918 74.8496 169.849 74.6914C170.247 74.6161 170.637 74.5442 171.02 74.4746C170.945 73.2675 170.848 72.108 170.724 70.9434C170.17 71.0404 169.602 71.1417 169.018 71.249C169.008 71.0818 169.003 70.9135 169.002 70.7441C169.573 70.6392 170.128 70.5392 170.669 70.4443C170.543 69.3343 170.389 68.213 170.203 67.0352C170.017 67.0684 169.829 67.1034 169.639 67.1377C169.709 66.9514 169.786 66.7687 169.867 66.5879C169.953 66.5725 170.039 66.5562 170.124 66.541C170.104 66.4201 170.082 66.299 170.062 66.1768C170.182 65.9372 170.309 65.7017 170.447 65.4736C170.505 65.8057 170.563 66.132 170.615 66.4541C171.882 66.2318 173.072 66.0363 174.218 65.8643C174.065 64.885 173.892 63.8684 173.696 62.792C173.339 62.8473 172.978 62.9068 172.61 62.9668C172.889 62.7352 173.181 62.5201 173.484 62.3193C173.525 62.313 173.566 62.3061 173.606 62.2998C173.603 62.2822 173.599 62.2647 173.596 62.2471C173.745 62.1509 173.897 62.059 174.052 61.9707C174.068 62.0555 174.085 62.1396 174.101 62.2236C175.308 62.0411 176.465 61.8854 177.604 61.75C177.548 61.4329 177.487 61.1115 177.427 60.7842C177.591 60.7582 177.756 60.7366 177.923 60.7188C177.983 61.0484 178.044 61.3721 178.102 61.6914ZM179.188 73.8008C178.015 73.9174 176.845 74.0583 175.632 74.2295C175.704 75.3919 175.761 76.5971 175.805 77.8848C177.044 77.6963 178.227 77.5424 179.407 77.4189C179.347 76.1593 179.275 74.9652 179.188 73.8008ZM183.165 73.4941C181.968 73.5622 180.821 73.6466 179.685 73.7529C179.772 74.9172 179.845 76.1107 179.906 77.3691C181.047 77.2576 182.193 77.1723 183.392 77.1064C183.329 75.8513 183.256 74.6593 183.165 73.4941ZM174.801 70.2842C173.658 70.4508 172.474 70.6396 171.217 70.8564C171.342 72.021 171.44 73.1798 171.515 74.3848C172.778 74.1594 173.961 73.9665 175.103 73.7998C175.023 72.602 174.924 71.4452 174.801 70.2842ZM178.808 69.7754C177.655 69.8991 176.496 70.0421 175.296 70.2119C175.42 71.3741 175.518 72.5317 175.599 73.7295C176.81 73.559 177.978 73.4181 179.149 73.3018C179.055 72.1133 178.942 70.9509 178.808 69.7754ZM182.767 69.4268C181.588 69.509 180.446 69.6049 179.305 69.7217C179.439 70.8992 179.552 72.0637 179.646 73.2539C180.782 73.1477 181.927 73.0632 183.123 72.9951C183.024 71.796 182.907 70.62 182.767 69.4268ZM186.4 69.2227C185.312 69.2711 184.274 69.3264 183.267 69.3926C183.407 70.5876 183.523 71.7657 183.622 72.9668C184.624 72.914 185.665 72.8724 186.769 72.8379C186.667 71.6249 186.546 70.4339 186.4 69.2227ZM174.293 66.3594C173.149 66.5311 171.96 66.7262 170.695 66.9482C170.882 68.126 171.035 69.2475 171.162 70.3574C172.419 70.1409 173.603 69.9536 174.746 69.7871C174.621 68.6677 174.471 67.5387 174.293 66.3594ZM178.282 65.833C177.14 65.9616 175.987 66.1111 174.788 66.2861C174.966 67.4652 175.115 68.5945 175.241 69.7139C176.44 69.5445 177.597 69.4019 178.749 69.2783C178.615 68.1577 178.462 67.0203 178.282 65.833ZM182.227 65.4658C181.059 65.5527 179.922 65.6555 178.78 65.7783C178.96 66.9656 179.112 68.1035 179.246 69.2246C180.388 69.1078 181.529 69.012 182.706 68.9297C182.568 67.8063 182.411 66.6626 182.227 65.4658ZM185.851 65.2471C184.768 65.2986 183.735 65.3591 182.728 65.4297C182.912 66.6263 183.068 67.7705 183.206 68.8945C184.214 68.8281 185.251 68.7732 186.339 68.7246C186.198 67.5987 186.038 66.4505 185.851 65.2471ZM177.691 62.2432C176.553 62.3781 175.397 62.5336 174.19 62.7158C174.386 63.7932 174.56 64.8112 174.713 65.792C175.912 65.617 177.064 65.4667 178.206 65.3379C178.053 64.3494 177.882 63.3241 177.691 62.2432ZM181.622 61.8535C180.465 61.9459 179.333 62.0557 178.189 62.1855C178.38 63.2672 178.551 64.2935 178.704 65.2832C179.846 65.1601 180.982 65.0579 182.148 64.9707C181.991 63.9767 181.817 62.9438 181.622 61.8535Z" fill="#3A3A3A"/>
</svg>
