<svg width="200" height="200" viewBox="0 0 200 200" fill="none" xmlns="http://www.w3.org/2000/svg">
<path d="M172.049 115.056C164.272 118.01 155.421 118.132 147.339 114.706C145.395 113.882 144.55 111.657 145.458 109.75C146.366 107.843 148.689 106.96 150.634 107.784C162.892 112.979 177.521 107.422 183.244 95.3962C184.152 93.489 186.475 92.6063 188.419 93.4303C190.364 94.2542 191.208 96.4796 190.3 98.3868C186.54 106.311 179.825 112.102 172.049 115.056Z" fill="#231F20" stroke="#231F20" stroke-width="0.766008" stroke-miterlimit="10"/>
<path d="M30.0488 122.056C22.2725 125.01 13.4213 125.132 5.33894 121.706C3.39485 120.882 2.55038 118.657 3.45807 116.75C4.36575 114.843 6.68943 113.96 8.63351 114.784C20.8921 119.979 35.5206 114.422 41.244 102.396C42.1517 100.489 44.4754 99.6063 46.4194 100.43C48.3635 101.254 49.208 103.48 48.3003 105.387C44.5399 113.311 37.8252 119.102 30.0488 122.056Z" fill="#231F20" stroke="#231F20" stroke-width="0.766008" stroke-miterlimit="10"/>
<path d="M85.624 155.064C87.7978 154.67 89.8792 156.114 90.2725 158.288L86.3359 159C90.1991 158.301 90.271 158.288 90.2725 158.288V158.291C90.2728 158.293 90.273 158.295 90.2734 158.298C90.2744 158.303 90.2757 158.311 90.2773 158.32C90.2805 158.338 90.2854 158.364 90.291 158.396C90.3025 158.461 90.3183 158.555 90.3389 158.675C90.38 158.915 90.4388 159.263 90.5088 159.702C90.6489 160.581 90.8365 161.83 91.0322 163.325C91.4219 166.304 91.8492 170.322 91.9736 174.378C92.0955 178.352 91.942 182.707 91 186.198C90.5298 187.941 89.7774 189.804 88.4795 191.295C87.0697 192.914 85.0776 194 82.6289 194H69.6289C67.4201 194 65.629 192.209 65.6289 190C65.6291 187.791 67.4209 186 69.6299 186H73.5039C75.845 186 79.0367 185.999 82.4795 185.999C82.6645 185.766 82.9815 185.207 83.2764 184.114C83.9025 181.794 84.0934 178.399 83.9775 174.623C83.8642 170.929 83.4724 167.196 83.1016 164.362C82.9171 162.952 82.7396 161.779 82.6094 160.962C82.5444 160.554 82.4906 160.236 82.4541 160.023C82.4359 159.916 82.4223 159.836 82.4131 159.783L82.4004 159.714C82.4002 159.713 82.3995 159.711 82.3994 159.711C82.007 157.538 83.4506 155.457 85.624 155.064Z" fill="black"/>
<path d="M115.694 158.288C116.088 156.114 118.169 154.67 120.343 155.063C122.516 155.456 123.96 157.537 123.567 159.711C123.567 159.711 123.567 159.712 123.566 159.713L123.554 159.783C123.545 159.835 123.531 159.916 123.513 160.022C123.476 160.235 123.422 160.554 123.357 160.962C123.227 161.778 123.05 162.953 122.865 164.363C122.494 167.197 122.103 170.929 121.989 174.623C121.873 178.398 122.063 181.793 122.689 184.114C122.984 185.207 123.302 185.765 123.487 185.999C126.93 185.999 130.121 186 132.462 186H136.337C138.546 186 140.337 187.791 140.337 190C140.337 192.209 138.546 194 136.337 194H123.337C120.888 194 118.897 192.913 117.487 191.295C116.189 189.804 115.437 187.94 114.967 186.198C114.025 182.706 113.871 178.351 113.993 174.378C114.118 170.322 114.544 166.303 114.934 163.325C115.129 161.829 115.317 160.58 115.457 159.702C115.527 159.263 115.586 158.915 115.627 158.674C115.648 158.554 115.664 158.46 115.676 158.395C115.681 158.363 115.685 158.338 115.688 158.32C115.69 158.311 115.691 158.303 115.692 158.297C115.693 158.295 115.694 158.292 115.694 158.291V158.288C115.702 158.288 115.865 158.318 119.631 159L115.694 158.288Z" fill="black"/>
<path fill-rule="evenodd" clip-rule="evenodd" d="M100.028 169.203C91.3735 169.203 83.544 165.321 78.3366 158.497C75.7881 159.258 73.1771 159.641 70.5513 159.641C63.2668 159.641 56.1334 156.612 50.9812 151.327C46.1348 146.36 43.4169 139.877 43.2401 132.946C35.1565 130.09 29.0506 123.828 26.3769 115.58C23.7032 107.333 24.9664 98.6718 29.8313 91.6014C24.9664 84.5309 23.6995 75.87 26.3769 67.6224C29.0506 59.3747 35.1565 53.1125 43.2401 50.2563C43.4169 43.3261 46.1348 36.8424 50.9812 31.8753C56.1334 26.591 63.2668 23.5613 70.5513 23.5613C73.1734 23.5613 75.7881 23.9451 78.3366 24.7053C83.544 17.8858 91.3771 14 100.028 14C108.679 14 116.512 17.8821 121.719 24.7053C124.268 23.9451 126.879 23.5613 129.504 23.5613C136.789 23.5613 143.922 26.591 149.075 31.8753C153.917 36.8424 156.639 43.3261 156.816 50.2563C164.899 53.1125 171.005 59.3747 173.679 67.6224C176.353 75.87 175.086 84.5309 170.224 91.6014C175.089 98.6718 176.356 107.333 173.679 115.58C171.005 123.828 164.899 130.09 156.816 132.946C156.639 139.877 153.921 146.357 149.075 151.324C143.922 156.608 136.789 159.638 129.501 159.638C126.879 159.638 124.264 159.254 121.715 158.494C116.508 165.313 108.675 169.199 100.024 169.199L100.028 169.203Z" fill="#FEC0BD"/>
<path d="M104.861 104.706C105.575 104.287 106.494 104.527 106.914 105.241C107.333 105.955 107.094 106.874 106.38 107.293C104.304 108.511 102.586 109.278 100.787 109.737C98.9976 110.193 97.2049 110.326 95.0261 110.364C94.1979 110.378 93.5142 109.718 93.4997 108.89C93.4856 108.062 94.1455 107.378 94.9734 107.364C97.0738 107.327 98.5938 107.2 100.046 106.829C101.488 106.461 102.94 105.833 104.861 104.706Z" fill="#231F20"/>
<path d="M80.5024 85.0637C88.5119 85.0637 95.0049 78.5576 95.0049 70.5319C95.0049 62.5061 88.5119 56 80.5024 56C72.493 56 66 62.5061 66 70.5319C66 78.5576 72.493 85.0637 80.5024 85.0637Z" fill="white"/>
<path d="M119.151 85.5496C127.16 85.5496 133.653 79.0434 133.653 71.0177C133.653 62.992 127.16 56.4858 119.151 56.4858C111.141 56.4858 104.648 62.992 104.648 71.0177C104.648 79.0434 111.141 85.5496 119.151 85.5496Z" fill="white"/>
<path d="M85.5612 73.4974C87.2513 73.4974 88.6214 72.1273 88.6214 70.4372C88.6214 68.7471 87.2513 67.377 85.5612 67.377C83.8711 67.377 82.501 68.7471 82.501 70.4372C82.501 72.1273 83.8711 73.4974 85.5612 73.4974Z" fill="#231F20"/>
<path d="M114.561 73.5098C116.251 73.5098 117.621 72.1369 117.621 70.4434C117.621 68.7499 116.251 67.377 114.561 67.377C112.871 67.377 111.501 68.7499 111.501 70.4434C111.501 72.1369 112.871 73.5098 114.561 73.5098Z" fill="#231F20"/>
<path d="M161.126 131C159.764 131.761 158.324 132.413 156.815 132.946C156.639 139.876 153.921 146.356 149.074 151.323C143.922 156.608 136.789 159.638 129.501 159.638C126.879 159.638 124.264 159.254 121.716 158.494C116.508 165.314 108.675 169.199 100.024 169.199L100.028 169.203C91.3739 169.203 83.5443 165.32 78.3369 158.497C75.7886 159.257 73.1774 159.642 70.5518 159.642C63.2673 159.642 56.1336 156.612 50.9814 151.327C46.135 146.36 43.417 139.876 43.2402 132.946C41.7313 132.413 40.2913 131.761 38.9297 131H90.1035C90.7971 133.827 94.9625 136 100 136C105.038 136 109.203 133.827 109.896 131H161.126Z" fill="#9EEAFF"/>
<path d="M110 130.5C110.552 130.5 111 130.948 111 131.5C111 133.552 109.5 135.194 107.553 136.266C105.569 137.357 102.897 138 100 138C97.1031 138 94.4309 137.357 92.4473 136.266C90.4996 135.194 89 133.552 89 131.5C89 130.948 89.4477 130.5 90 130.5C90.5523 130.5 91 130.948 91 131.5C91 132.486 91.7395 133.593 93.4111 134.513C95.0468 135.412 97.3743 136 100 136C102.626 136 104.953 135.412 106.589 134.513C108.261 133.593 109 132.486 109 131.5C109 130.948 109.448 130.5 110 130.5Z" fill="#72CCE5"/>
<path d="M127.861 149C127.309 149 126.861 148.552 126.861 148V141.272C126.861 140.72 127.309 140.272 127.861 140.272H130.202C130.832 140.272 131.357 140.372 131.774 140.571C132.195 140.767 132.509 141.035 132.716 141.376C132.926 141.717 133.031 142.103 133.031 142.535C133.031 142.89 132.963 143.194 132.827 143.447C132.69 143.697 132.507 143.9 132.277 144.057C132.047 144.213 131.79 144.325 131.506 144.393V144.478C131.815 144.495 132.112 144.591 132.396 144.764C132.683 144.934 132.918 145.176 133.099 145.488C133.281 145.801 133.372 146.179 133.372 146.622C133.372 147.074 133.263 147.48 133.044 147.841C132.825 148.199 132.496 148.481 132.055 148.689C131.615 148.896 131.061 149 130.394 149H127.861ZM128.442 147.679H130.142C130.716 147.679 131.129 147.569 131.382 147.351C131.638 147.129 131.766 146.845 131.766 146.498C131.766 146.24 131.702 146.007 131.574 145.799C131.446 145.589 131.264 145.424 131.028 145.305C130.793 145.183 130.511 145.122 130.185 145.122H128.442V147.679ZM128.442 143.984H130.006C130.278 143.984 130.524 143.934 130.743 143.835C130.962 143.733 131.134 143.589 131.259 143.405C131.386 143.217 131.45 142.995 131.45 142.74C131.45 142.402 131.331 142.123 131.092 141.905C130.857 141.686 130.506 141.576 130.04 141.576H128.442V143.984Z" fill="white"/>
<path d="M170.286 59.1325C171.318 58.738 172.474 59.2541 172.869 60.2858L185.868 94.2858C186.262 95.3175 185.746 96.4733 184.714 96.8679C183.683 97.2623 182.527 96.7461 182.132 95.7145L169.132 61.7145C168.738 60.6829 169.254 59.5271 170.286 59.1325Z" fill="#6F5A38"/>
<path d="M177.766 78.287C179.817 77.4668 182.144 78.4645 182.965 80.5155L188.164 93.5145C188.984 95.5656 187.987 97.8933 185.935 98.7137C183.884 99.534 181.557 98.5363 180.736 96.4852L175.537 83.4862C174.717 81.4351 175.715 79.1074 177.766 78.287Z" fill="#473821"/>
<path fill-rule="evenodd" clip-rule="evenodd" d="M153.852 15.6797C164.263 11.9907 176.292 19.1284 180.719 31.6221C185.146 44.1158 180.294 57.2347 169.883 60.9238C159.471 64.6129 147.442 57.4751 143.016 44.9815C138.589 32.4877 143.44 19.3687 153.852 15.6797ZM176.948 32.958C173.021 21.8738 162.902 16.7167 155.187 19.4502C147.473 22.1837 142.859 32.5612 146.786 43.6455C150.714 54.7297 160.832 59.8868 168.547 57.1533C176.261 54.4197 180.876 44.0422 176.948 32.958Z" fill="#6F5A38"/>
<path fill-rule="evenodd" clip-rule="evenodd" d="M160.798 18.7939C161.185 18.8309 161.574 18.8844 161.963 18.9531L161.964 18.9541L161.965 18.9531C162.503 19.0484 163.042 19.1738 163.578 19.3291L162.37 19.8672L163.956 23.4297L167.77 21.7305L167.443 20.9971C168.05 21.3501 168.646 21.7427 169.227 22.1748L169.09 22.2373L170.774 26.0195L172.518 25.2432C172.743 25.5026 172.964 25.7689 173.18 26.043L171.18 26.9336L172.963 30.9355L175.571 29.7744C175.723 30.0685 175.87 30.3679 176.013 30.6729L173.369 31.8496L175.151 35.8516L177.522 34.7959C177.612 35.1251 177.695 35.4532 177.77 35.7803L175.558 36.7646L177.369 40.832L178.367 40.3877C178.377 40.7546 178.379 41.1186 178.372 41.4795L177.775 41.7451L178.295 42.9121C178.239 43.5545 178.154 44.185 178.043 44.8018L176.863 42.1523L173.049 43.8506L174.999 48.2295L177.474 47.127C177.338 47.5686 177.187 48.0009 177.021 48.4229L175.405 49.1426L176.027 50.54C175.828 50.8987 175.619 51.2475 175.398 51.585L174.492 49.5488L170.522 51.3154L172.212 55.1094C171.943 55.3222 171.667 55.5226 171.386 55.7129L169.609 51.7217L165.606 53.5039L167.386 57.5C167.054 57.5818 166.719 57.6503 166.382 57.7051L164.693 53.9111L160.922 55.5908L161.844 57.6621C161.44 57.5928 161.037 57.5064 160.635 57.4033L160.009 55.9971L158.468 56.6826C158.061 56.5152 157.656 56.3306 157.256 56.1289L159.602 55.084L157.653 50.7051L153.882 52.3848L154.927 54.7314C154.35 54.3258 153.786 53.882 153.239 53.4014L152.968 52.791L152.698 52.9102C152.44 52.6669 152.187 52.4145 151.938 52.1543L152.561 51.8779L150.751 47.8105L149.131 48.5312C148.954 48.249 148.782 47.9612 148.615 47.667L150.345 46.8975L148.562 42.8945L146.798 43.6797C146.794 43.6683 146.79 43.6569 146.786 43.6455C146.677 43.3387 146.576 43.0321 146.48 42.7266L148.155 41.9814L146.373 37.9785L145.528 38.3545C145.485 38.0032 145.451 37.6538 145.425 37.3066L145.967 37.0654L145.358 35.6992C145.354 34.9428 145.389 34.1994 145.46 33.4717L146.88 36.6592L150.651 34.9795L148.967 31.1963L145.547 32.7188C145.6 32.3198 145.666 31.9262 145.741 31.5381L148.56 30.2832L147.159 27.1367C147.506 26.3931 147.899 25.6865 148.333 25.0225L151.253 23.7227L150.611 22.2822C150.866 22.0415 151.129 21.8125 151.398 21.5938L152.166 23.3164L156.168 21.5332L155.233 19.4346C155.551 19.3235 155.872 19.2252 156.197 19.1406L157.081 21.127L161.051 19.3604L160.798 18.7939ZM158.565 50.2988L160.515 54.6777L164.287 52.998L162.337 48.6191L158.565 50.2988ZM163.251 48.2119L165.2 52.5908L169.202 50.8086L167.253 46.4297L163.251 48.2119ZM151.664 47.4043L153.474 51.4717L157.246 49.792L155.435 45.7246L151.664 47.4043ZM168.166 46.0234L170.116 50.4014L174.085 48.6357L172.136 44.2568L168.166 46.0234ZM156.348 45.3174L158.159 49.3848L161.93 47.7051L160.119 43.6377L156.348 45.3174ZM161.033 43.2314L162.844 47.2988L166.847 45.5166L165.035 41.4492L161.033 43.2314ZM149.475 42.4883L151.258 46.4912L155.029 44.8115L153.247 40.8086L149.475 42.4883ZM165.949 41.043L167.76 45.1094L171.728 43.3438L169.918 39.2764L165.949 41.043ZM154.159 40.4023L155.941 44.4053L159.713 42.7256L157.93 38.7227L154.159 40.4023ZM170.831 38.8701L172.641 42.9375L176.456 41.2383L174.645 37.1719L170.831 38.8701ZM158.845 38.3154L160.627 42.3184L164.629 40.5361L162.847 36.5332L158.845 38.3154ZM147.287 37.5723L149.069 41.5752L152.84 39.8955L151.057 35.8926L147.287 37.5723ZM163.76 36.127L165.542 40.1299L169.512 38.3633L167.729 34.3604L163.76 36.127ZM151.971 35.4863L153.753 39.4893L157.524 37.8096L155.742 33.8066L151.971 35.4863ZM168.642 33.9541L170.425 37.957L174.238 36.2588L172.456 32.2559L168.642 33.9541ZM156.655 33.3994L158.437 37.4023L162.44 35.6201L160.658 31.6172L156.655 33.3994ZM161.571 31.2109L163.353 35.2139L167.323 33.4473L165.541 29.4443L161.571 31.2109ZM149.88 30.79L151.564 34.5723L155.335 32.8926L153.651 29.1104L149.88 30.79ZM166.454 29.0381L168.236 33.041L172.05 31.3428L170.267 27.3398L166.454 29.0381ZM154.564 28.7041L156.249 32.4863L160.251 30.7041L158.567 26.9219L154.564 28.7041ZM159.48 26.5146L161.165 30.2979L165.134 28.5312L163.449 24.749L159.48 26.5146ZM147.888 26.3154L149.473 29.877L153.245 28.1973L151.659 24.6357L147.888 26.3154ZM164.362 24.3428L166.047 28.125L169.861 26.4268L168.177 22.6436L164.362 24.3428ZM152.572 24.2285L154.158 27.791L158.161 26.0088L156.575 22.4463L152.572 24.2285ZM157.488 22.04L159.074 25.6016L163.043 23.8359L161.457 20.2734L157.488 22.04Z" fill="#E0E0E0"/>
</svg>
