<svg width="200" height="200" viewBox="0 0 200 200" fill="none" xmlns="http://www.w3.org/2000/svg">
<path d="M165.682 121.002C167.89 120.23 170.305 121.395 171.077 123.603L175.194 135.383C175.209 135.421 175.229 135.468 175.252 135.524C175.315 135.683 175.405 135.915 175.521 136.21C175.751 136.8 176.077 137.65 176.469 138.691C177.251 140.773 178.295 143.639 179.337 146.769C180.376 149.89 181.43 153.323 182.221 156.525C182.989 159.636 183.597 162.87 183.558 165.457C183.522 167.796 181.597 169.663 179.259 169.627C176.92 169.591 175.053 167.667 175.089 165.328C175.111 163.895 174.737 161.551 173.997 158.557C173.28 155.654 172.302 152.453 171.3 149.444C170.301 146.445 169.296 143.683 168.54 141.67C168.162 140.665 167.848 139.848 167.629 139.286C167.519 139.005 167.434 138.788 167.376 138.643C167.347 138.57 167.325 138.515 167.311 138.479C167.303 138.461 167.298 138.447 167.295 138.439C167.293 138.434 167.292 138.431 167.291 138.43L167.224 138.249L163.081 126.397C162.309 124.19 163.474 121.774 165.682 121.002Z" fill="black"/>
<path d="M84.7031 158.064C86.8769 157.67 88.9583 159.114 89.3516 161.288L85.415 162C89.2782 161.301 89.3501 161.288 89.3516 161.288V161.291C89.3519 161.293 89.3521 161.295 89.3525 161.298C89.3535 161.303 89.3548 161.311 89.3564 161.32C89.3596 161.338 89.3645 161.364 89.3701 161.396C89.3816 161.461 89.3974 161.555 89.418 161.675C89.4591 161.915 89.5179 162.263 89.5879 162.702C89.728 163.581 89.9156 164.83 90.1113 166.325C90.501 169.304 90.9283 173.322 91.0527 177.378C91.1746 181.352 91.0211 185.707 90.0791 189.198C89.6089 190.941 88.8565 192.804 87.5586 194.295C86.1488 195.914 84.1567 197 81.708 197H68.708C66.4992 197 64.7081 195.209 64.708 193C64.7082 190.791 66.5 189 68.709 189H72.583C74.9241 189 78.1158 188.999 81.5586 188.999C81.7436 188.766 82.0606 188.207 82.3555 187.114C82.9816 184.794 83.1725 181.399 83.0566 177.623C82.9433 173.929 82.5515 170.196 82.1807 167.362C81.9962 165.952 81.8187 164.779 81.6885 163.962C81.6235 163.554 81.5697 163.236 81.5332 163.023C81.515 162.916 81.5014 162.836 81.4922 162.783L81.4795 162.714C81.4793 162.713 81.4786 162.711 81.4785 162.711C81.0861 160.538 82.5297 158.457 84.7031 158.064Z" fill="black"/>
<path d="M114.773 161.288C115.167 159.114 117.248 157.67 119.422 158.064C121.595 158.457 123.039 160.538 122.646 162.711L122.646 162.714L122.633 162.783C122.624 162.836 122.61 162.916 122.592 163.023C122.555 163.236 122.502 163.554 122.437 163.962C122.306 164.779 122.129 165.953 121.944 167.363C121.574 170.197 121.182 173.93 121.068 177.623C120.953 181.399 121.142 184.794 121.769 187.114C122.064 188.208 122.381 188.766 122.566 188.999C126.009 188.999 129.2 189 131.541 189H135.416C137.625 189 139.416 190.791 139.416 193C139.416 195.209 137.625 197 135.416 197H122.416C119.968 197 117.976 195.914 116.566 194.295C115.269 192.805 114.516 190.941 114.046 189.198C113.104 185.707 112.95 181.352 113.072 177.378C113.197 173.322 113.623 169.304 114.013 166.325C114.208 164.83 114.396 163.581 114.536 162.702C114.606 162.263 114.665 161.915 114.706 161.675C114.727 161.555 114.743 161.461 114.755 161.396C114.761 161.364 114.764 161.338 114.768 161.32C114.769 161.311 114.771 161.303 114.771 161.298C114.772 161.295 114.773 161.291 114.773 161.291V161.288C114.781 161.289 114.945 161.319 118.71 162L114.773 161.288Z" fill="black"/>
<path fill-rule="evenodd" clip-rule="evenodd" d="M104.107 178.203C95.4526 178.203 87.6231 174.321 82.4157 167.497C79.8672 168.258 77.2562 168.641 74.6304 168.641C67.3459 168.641 60.2125 165.612 55.0603 160.327C50.2139 155.36 47.496 148.877 47.3192 141.946C39.2356 139.09 33.1297 132.828 30.456 124.58C27.7823 116.333 29.0455 107.672 33.9104 100.601C29.0455 93.5309 27.7786 84.87 30.456 76.6224C33.1297 68.3747 39.2356 62.1125 47.3192 59.2563C47.496 52.3261 50.2139 45.8424 55.0603 40.8753C60.2125 35.591 67.3459 32.5613 74.6304 32.5613C77.2525 32.5613 79.8672 32.9451 82.4157 33.7053C87.6231 26.8858 95.4562 23 104.107 23C112.758 23 120.591 26.8821 125.798 33.7053C128.347 32.9451 130.958 32.5613 133.584 32.5613C140.868 32.5613 148.001 35.591 153.154 40.8753C157.996 45.8424 160.718 52.3261 160.895 59.2563C168.978 62.1125 175.084 68.3747 177.758 76.6224C180.432 84.87 179.165 93.5309 174.304 100.601C179.168 107.672 180.435 116.333 177.758 124.58C175.084 132.828 168.978 139.09 160.895 141.946C160.718 148.877 158 155.357 153.154 160.324C148.001 165.608 140.868 168.638 133.58 168.638C130.958 168.638 128.343 168.254 125.795 167.494C120.587 174.313 112.754 178.199 104.103 178.199L104.107 178.203Z" fill="#F3F674"/>
<path d="M102.079 25C103.184 25 104.079 25.8954 104.079 27V50C104.079 51.1046 103.184 52 102.079 52C100.975 52 100.079 51.1046 100.079 50V27C100.079 25.8954 100.975 25 102.079 25Z" fill="#B06421"/>
<path d="M99.5791 3C103.092 3 106.04 5.4159 106.854 8.67676C108.144 7.62903 109.788 7 111.579 7C115.721 7 119.079 10.3579 119.079 14.5C119.079 17.28 117.565 19.7046 115.318 21C117.565 22.2954 119.079 24.72 119.079 27.5C119.079 31.6421 115.721 35 111.579 35C109.368 35 107.38 34.0428 106.008 32.5205C105.51 36.1797 102.375 39 98.5791 39C94.437 39 91.0791 35.6421 91.0791 31.5C91.0791 30.1786 91.4216 28.9376 92.0215 27.8594C91.5546 27.9504 91.0726 28 90.5791 28C86.437 28 83.0791 24.6421 83.0791 20.5C83.0791 16.3579 86.437 13 90.5791 13C91.2846 13 91.9669 13.0991 92.6143 13.2812C92.2704 12.421 92.0791 11.483 92.0791 10.5C92.0791 6.35786 95.437 3 99.5791 3ZM104.303 16.3223C103.013 17.3699 101.37 18 99.5791 18C98.8731 18 98.1906 17.9001 97.543 17.7178C97.8871 18.5784 98.0791 19.5165 98.0791 20.5C98.0791 21.8212 97.7355 23.0615 97.1357 24.1396C97.6029 24.0486 98.0853 24 98.5791 24C100.79 24 102.777 24.9568 104.149 26.4785C104.469 24.133 105.872 22.134 107.839 21C106.1 19.9974 104.801 18.319 104.303 16.3223Z" fill="#EF78F3"/>
<circle cx="102.079" cy="22" r="7" fill="#F6CF74"/>
<path d="M94.3358 118.993C94.1681 114.099 98.2538 116.799 103.466 116.621C108.678 116.442 113.044 113.452 113.211 118.346C113.379 123.24 109.29 127.352 104.077 127.531C98.8651 127.71 94.5036 123.887 94.3358 118.993Z" fill="#222222"/>
<path d="M109.649 125.589C108.115 126.742 106.188 127.459 104.077 127.532C102.834 127.574 101.64 127.386 100.539 127.013C101.32 125.75 102.636 124.755 104.271 124.353C106.29 123.856 108.297 124.385 109.649 125.589Z" fill="#FF0000"/>
<path d="M169.532 64.2119C170.558 65.0859 171.515 66.0352 172.397 67.0547L148.079 85.6992V93C148.079 98.5228 143.602 103 138.079 103H118.079C112.556 103 108.079 98.5228 108.079 93V87.2949C106.141 86.5555 104.596 86.2523 103.1 86.2725C101.859 86.2892 100.586 86.5292 99.0791 87.0059V93C99.0791 98.5228 94.6019 103 89.0791 103H69.0791C63.5563 103 59.0791 98.5228 59.0791 93V87.9102L34.8008 68.3008C35.6154 67.2368 36.5067 66.2396 37.4668 65.3135L59.084 82.7734C59.2045 77.3553 63.632 73 69.0791 73H89.0791C94.6019 73 99.0791 77.4772 99.0791 83V83.8779C100.442 83.5047 101.74 83.2903 103.06 83.2725C104.708 83.2503 106.322 83.5344 108.079 84.1123V83C108.079 77.4772 112.556 73 118.079 73H138.079C142.86 73 146.855 76.3556 147.843 80.8398L169.532 64.2119Z" fill="black"/>
<path d="M29.0816 115.913C29.0799 116.537 29.1005 117.162 29.1422 117.788C28.7408 117.613 28.3611 117.369 28.022 117.054L29.0816 115.913ZM25.5904 81.7306C29.7228 80.795 34.4884 81.0482 38.7349 81.6534C43.0521 82.2687 47.1905 83.3041 50.2213 84.172C51.7445 84.6082 53.0068 85.0067 53.8931 85.2989C54.3367 85.4452 54.6877 85.5659 54.9312 85.6505C55.0528 85.6927 55.1479 85.7264 55.2144 85.7501C55.2476 85.7619 55.2737 85.7716 55.2926 85.7784C55.3019 85.7818 55.3102 85.7841 55.316 85.7862C55.3186 85.7871 55.3228 85.7882 55.3228 85.7882L55.3258 85.7892C55.3254 85.7901 55.2977 85.8713 53.9625 89.5499L55.3277 85.7901C57.404 86.5439 58.4756 88.8378 57.7222 90.9142C56.9687 92.9903 54.6754 94.0625 52.5992 93.3097L52.5982 93.3106C52.5982 93.3106 52.5933 93.3085 52.5885 93.3067C52.5779 93.303 52.5594 93.2969 52.5347 93.2882C52.4855 93.2707 52.409 93.2419 52.3062 93.2061C52.0998 93.1344 51.7887 93.0296 51.3883 92.8975C50.5863 92.6331 49.4266 92.2652 48.0201 91.8624C45.191 91.0522 41.4332 90.1188 37.606 89.5733C33.7078 89.0177 30.079 88.9171 27.357 89.5333C24.721 90.1301 23.6348 91.1874 23.2174 92.5431C22.8367 93.7798 22.9334 95.4419 23.6998 97.5733C24.4577 99.681 25.7468 101.897 27.233 103.986C28.2694 105.444 29.3571 106.776 30.3336 107.894C29.5114 110.488 29.0894 113.184 29.0816 115.911C28.0417 117.029 28.0206 117.052 28.0201 117.053L28.0191 117.051C28.0191 117.051 28.0159 117.048 28.0142 117.046C28.0108 117.043 28.0065 117.039 28.0015 117.034C27.9911 117.025 27.9766 117.011 27.9595 116.995C27.9253 116.963 27.8774 116.917 27.8179 116.86C27.6987 116.746 27.53 116.583 27.3209 116.376C26.9025 115.961 26.3177 115.366 25.6295 114.625C24.2594 113.149 22.4457 111.057 20.7144 108.623C18.9981 106.21 17.2678 103.329 16.1715 100.28C15.0837 97.255 14.4916 93.6987 15.5719 90.1895C17.1431 85.0856 21.3725 82.6855 25.5904 81.7306Z" fill="#231F20"/>
<ellipse cx="89.4332" cy="81.2833" rx="3" ry="4.5" transform="rotate(-21.3653 89.4332 81.2833)" fill="#EFEFEF"/>
<ellipse cx="139.433" cy="81.2833" rx="3" ry="4.5" transform="rotate(-21.3653 139.433 81.2833)" fill="#EFEFEF"/>
</svg>
