<svg width="200" height="200" viewBox="0 0 200 200" fill="none" xmlns="http://www.w3.org/2000/svg">
<path d="M28.7481 94.6334C30.4071 93.1747 32.9348 93.3369 34.3937 94.9957C35.8524 96.6546 35.6901 99.1824 34.0314 100.641L13.004 119.13C11.345 120.589 8.81729 120.427 7.3585 118.768C5.89998 117.109 6.06289 114.582 7.72178 113.124L28.7481 94.6334Z" fill="#231F20"/>
<path d="M164.641 90.9962C166.1 89.3374 168.628 89.1752 170.287 90.6339L191.313 109.123C192.972 110.582 193.134 113.11 191.675 114.769C190.217 116.427 187.69 116.59 186.031 115.131L165.004 96.6417C163.345 95.1829 163.183 92.6552 164.641 90.9962Z" fill="#231F20"/>
<path fill-rule="evenodd" clip-rule="evenodd" d="M101.028 159.5C92.3735 159.5 84.544 158.321 79.3366 151.497C76.7881 152.258 74.1771 152.641 71.5513 152.641C64.2668 152.641 57.1334 149.612 51.9812 144.327C47.1348 139.36 44.4169 132.877 44.2401 125.946C36.1565 123.09 30.0506 116.828 27.3769 108.58C24.7032 100.333 25.9664 91.6718 30.8313 84.6014C25.9664 77.5309 24.6995 68.87 27.3769 60.6224C30.0506 52.3747 36.1565 46.1125 44.2401 43.2563C44.4169 36.3261 47.1348 29.8424 51.9812 24.8753C57.1334 19.591 64.2668 16.5613 71.5513 16.5613C74.1734 16.5613 76.7881 16.9451 79.3366 17.7053C84.544 10.8858 92.3771 7 101.028 7C109.679 7 117.512 10.8821 122.719 17.7053C125.268 16.9451 127.879 16.5613 130.504 16.5613C137.789 16.5613 144.922 19.591 150.075 24.8753C154.917 29.8424 157.639 36.3261 157.816 43.2563C165.899 46.1125 172.005 52.3747 174.679 60.6224C177.353 68.87 176.086 77.5309 171.224 84.6014C176.089 91.6718 177.356 100.333 174.679 108.58C172.005 116.828 165.899 123.09 157.816 125.946C157.639 132.877 154.921 139.357 150.075 144.324C144.922 149.608 137.789 152.638 130.501 152.638C127.879 152.638 125.264 152.254 122.715 151.494C117.508 158.313 109.679 159.5 101.028 159.5Z" fill="#D4CAFF"/>
<path d="M88 156C90.2091 156 92 157.791 92 160V188C92 190.209 90.2091 192 88 192C85.7909 192 84 190.209 84 188V160C84 157.791 85.7909 156 88 156Z" fill="#231F20"/>
<path d="M114 156C116.209 156 118 157.791 118 160V188C118 190.209 116.209 192 114 192C111.791 192 110 190.209 110 188V160C110 157.791 111.791 156 114 156Z" fill="#231F20"/>
<path d="M82.0024 76.0049C90.0119 76.0049 96.5049 69.5119 96.5049 61.5024C96.5049 53.493 90.0119 47 82.0024 47C73.993 47 67.5 53.493 67.5 61.5024C67.5 69.5119 73.993 76.0049 82.0024 76.0049Z" fill="white"/>
<path d="M88.5146 66.502C90.7238 66.502 92.5146 64.7111 92.5146 62.502C92.5146 60.2928 90.7238 58.502 88.5146 58.502C86.3055 58.502 84.5146 60.2928 84.5146 62.502C84.5146 64.7111 86.3055 66.502 88.5146 66.502Z" fill="#231F20"/>
<path d="M121.007 76.0049C112.998 76.0049 106.505 69.5119 106.505 61.5024C106.505 53.493 112.998 47 121.007 47C129.017 47 135.51 53.493 135.51 61.5024C135.51 69.5119 129.017 76.0049 121.007 76.0049Z" fill="white"/>
<path d="M114.495 66.502C112.286 66.502 110.495 64.7111 110.495 62.502C110.495 60.2928 112.286 58.502 114.495 58.502C116.704 58.502 118.495 60.2928 118.495 62.502C118.495 64.7111 116.704 66.502 114.495 66.502Z" fill="#231F20"/>
<path d="M56.4437 32.5008C54.7941 32.7987 53.5319 31.0569 54.3286 29.5821L60.3344 18.4642C61.0348 17.1677 62.849 17.048 63.7136 18.2412L70.143 27.1136C71.0076 28.3068 70.329 29.9935 68.8789 30.2554L56.4437 32.5008Z" fill="#A854BD"/>
<path d="M48.4919 33.3195C50.1415 33.0217 51.4036 34.7634 50.6069 36.2383L44.6011 47.3562C43.9008 48.6526 42.0866 48.7723 41.222 47.5792L34.7925 38.7067C33.9279 37.5135 34.6066 35.8268 36.0566 35.5649L48.4919 33.3195Z" fill="#A854BD"/>
<circle cx="52.8404" cy="33.0319" r="5" transform="rotate(4.85174 52.8404 33.0319)" fill="#5F009A"/>
<path fill-rule="evenodd" clip-rule="evenodd" d="M86.3105 49.0039C92.117 49.1514 96.8953 53.4239 97.8311 59H105.17C106.106 53.4237 110.885 49.1509 116.691 49.0039L117.001 49H134.001L134.311 49.0039C139.943 49.1469 144.61 53.1718 145.738 58.5029L169.801 51.6279C170.252 52.1797 170.68 52.7518 171.088 53.3408L145.989 60.5117C145.996 60.6737 146.001 60.8364 146.001 61V63C146.001 69.6271 140.628 74.9995 134.001 75H117.001C110.477 75 105.169 69.7939 105.005 63.3096L105.001 63V61H98.001V63C98.001 69.6271 92.628 74.9995 86.001 75H69.001C62.4771 75 57.1691 69.7939 57.0049 63.3096L57.001 63V61C57.001 60.8364 57.0043 60.6737 57.0107 60.5117L31.4131 53.1982C31.318 53.1711 31.2298 53.1306 31.1504 53.0801C31.5587 52.5052 31.9875 51.9477 32.4375 51.4092L57.2627 58.5029C58.3913 53.1716 63.0583 49.1465 68.6914 49.0039L69.001 49H86.001L86.3105 49.0039ZM69.001 51C63.4781 51 59.001 55.4772 59.001 61V63C59.001 68.5228 63.4781 73 69.001 73H86.001C91.5234 72.9995 96.001 68.5226 96.001 63V61C96.001 55.4774 91.5234 51.0005 86.001 51H69.001ZM117.001 51C111.478 51 107.001 55.4772 107.001 61V63C107.001 68.5228 111.478 73 117.001 73H134.001C139.523 72.9995 144.001 68.5226 144.001 63V61C144.001 55.4774 139.523 51.0005 134.001 51H117.001Z" fill="#8E1980"/>
<path d="M108.204 90.7273C108.907 90.2886 109.833 90.5028 110.272 91.2048C110.711 91.9073 110.497 92.8332 109.794 93.2722C107.418 94.7572 103.807 95.2514 100.47 95.1873C97.1039 95.1224 93.6052 94.4799 91.3285 93.3415C90.5879 92.9709 90.2872 92.0696 90.6576 91.3289C91.028 90.5882 91.9295 90.2879 92.6703 90.658C94.3933 91.5194 97.3953 92.1269 100.529 92.1873C103.692 92.248 106.581 91.7421 108.204 90.7273Z" fill="#D67171"/>
<ellipse cx="55.2021" cy="85.4154" rx="12" ry="6" transform="rotate(-2 55.2021 85.4154)" fill="#D464B4"/>
<ellipse cx="146.202" cy="83.4151" rx="12" ry="6" transform="rotate(2 146.202 83.4151)" fill="#D464B4"/>
<path d="M43.4446 126H158.555L180 161H22L43.4446 126Z" fill="#9D5888"/>
<path d="M163.457 134H38.543L43.4443 126H158.556L163.457 134Z" fill="#824A71"/>
<path d="M53.8818 144.975C54.011 144.731 54.3136 144.638 54.5576 144.767C54.8016 144.896 54.8948 145.199 54.7656 145.443L46.5293 161.001H45.3975L53.8818 144.975Z" fill="#824A71"/>
<path d="M86.8818 144.975C87.011 144.731 87.3136 144.638 87.5576 144.767C87.8016 144.896 87.8948 145.199 87.7656 145.443L79.5293 161.001H78.3975L86.8818 144.975Z" fill="#824A71"/>
<path d="M112.441 144.767C112.685 144.638 112.988 144.731 113.117 144.975L121.602 161.001H120.47L112.233 145.443C112.104 145.199 112.198 144.897 112.441 144.767Z" fill="#824A71"/>
<path d="M145.441 144.767C145.685 144.638 145.988 144.731 146.117 144.975L154.602 161.001H153.47L145.233 145.443C145.104 145.199 145.198 144.897 145.441 144.767Z" fill="#824A71"/>
</svg>
