<svg width="200" height="200" viewBox="0 0 200 200" fill="none" xmlns="http://www.w3.org/2000/svg">
<g clip-path="url(#clip0_533_3780)">
<path d="M13.7771 94.1828C20.2523 99.4046 28.6253 102.273 37.3656 101.536C39.468 101.359 40.9592 99.5102 40.6869 97.418C40.4147 95.3259 38.4798 93.7655 36.3775 93.9427C23.121 95.0599 10.9402 85.2368 9.22359 72.0446C8.95134 69.9524 7.01647 68.3921 4.91413 68.5693C2.81178 68.7465 1.3206 70.5955 1.59285 72.6877C2.71368 81.3768 7.30193 88.9609 13.7771 94.1828Z" fill="#231F20" stroke="#231F20" stroke-width="0.766008" stroke-miterlimit="10"/>
<path d="M171.954 116.205C180.214 117.187 188.831 115.166 195.843 109.896C197.529 108.629 197.81 106.27 196.467 104.643C195.124 103.015 192.656 102.722 190.969 103.989C180.334 111.982 164.796 110.136 156.33 99.8736C154.987 98.2461 152.519 97.9528 150.832 99.2204C149.145 100.488 148.865 102.847 150.208 104.474C155.776 111.238 163.693 115.224 171.954 116.205Z" fill="#231F20" stroke="#231F20" stroke-width="0.766008" stroke-miterlimit="10"/>
<path d="M87 164C89.2091 164 91 165.791 91 168V196C91 198.209 89.2091 200 87 200C84.7909 200 83 198.209 83 196V168C83 165.791 84.7909 164 87 164Z" fill="#231F20"/>
<path d="M113 164C115.209 164 117 165.791 117 168V196C117 198.209 115.209 200 113 200C110.791 200 109 198.209 109 196V168C109 165.791 110.791 164 113 164Z" fill="#231F20"/>
<path fill-rule="evenodd" clip-rule="evenodd" d="M101.028 174.203C92.3735 174.203 84.544 170.321 79.3366 163.497C76.7881 164.258 74.1771 164.641 71.5513 164.641C64.2668 164.641 57.1334 161.612 51.9812 156.327C47.1348 151.36 44.4169 144.877 44.2401 137.946C36.1565 135.09 30.0506 128.828 27.3769 120.58C24.7032 112.333 25.9664 103.672 30.8313 96.6014C25.9664 89.5309 24.6995 80.87 27.3769 72.6224C30.0506 64.3747 36.1565 58.1125 44.2401 55.2563C44.4169 48.3261 47.1348 41.8424 51.9812 36.8753C57.1334 31.591 64.2668 28.5613 71.5513 28.5613C74.1734 28.5613 76.7881 28.9451 79.3366 29.7053C84.544 22.8858 92.3771 19 101.028 19C109.679 19 117.512 22.8821 122.719 29.7053C125.268 28.9451 127.879 28.5613 130.504 28.5613C137.789 28.5613 144.922 31.591 150.075 36.8753C154.917 41.8424 157.639 48.3261 157.816 55.2563C165.899 58.1125 172.005 64.3747 174.679 72.6224C177.353 80.87 176.086 89.5309 171.224 96.6014C176.089 103.672 177.356 112.333 174.679 120.58C172.005 128.828 165.899 135.09 157.816 137.946C157.639 144.877 154.921 151.357 150.075 156.324C144.922 161.608 137.789 164.638 130.501 164.638C127.879 164.638 125.264 164.254 122.715 163.494C117.508 170.313 109.675 174.199 101.024 174.199L101.028 174.203Z" fill="#BD8555"/>
<path d="M79.5416 81.9941C87.5511 81.9941 94.0441 85.0639 94.0441 80.5319C94.0441 75.9999 87.5511 73 79.5416 73C71.5321 73 66.5391 73.8867 66.0392 77.8864C65.4524 82.5814 71.5321 81.9941 79.5416 81.9941Z" fill="white"/>
<path d="M84.6003 81.4974C86.2904 81.4974 87.6605 80.1273 87.6605 78.4372C87.6605 76.7471 86.2904 75.377 84.6003 75.377C82.9101 75.377 81.54 76.7471 81.54 78.4372C81.54 80.1273 82.9101 81.4974 84.6003 81.4974Z" fill="#231F20"/>
<path d="M122.022 82.6396C114.012 82.6396 107.519 85.7095 107.519 81.1774C107.519 76.6454 114.012 73.6455 122.022 73.6455C130.031 73.6455 135.024 74.5322 135.524 78.5319C136.111 83.2269 130.031 82.6396 122.022 82.6396Z" fill="white"/>
<path d="M116.963 82.1429C115.273 82.1429 113.903 80.7728 113.903 79.0827C113.903 77.3926 115.273 76.0225 116.963 76.0225C118.653 76.0225 120.023 77.3926 120.023 79.0827C120.023 80.7728 118.653 82.1429 116.963 82.1429Z" fill="#231F20"/>
<rect x="93" y="103" width="8" height="12" rx="2" fill="#E6E6E6"/>
<rect x="101" y="103" width="8" height="12" rx="2" fill="#D9D9D9"/>
<path d="M108.204 100.727C108.907 100.289 109.833 100.503 110.272 101.205C110.711 101.907 110.497 102.833 109.794 103.272C107.418 104.757 103.807 105.251 100.47 105.187C97.1039 105.122 93.6052 104.48 91.3285 103.342C90.5879 102.971 90.2872 102.07 90.6576 101.329C91.028 100.588 91.9295 100.288 92.6703 100.658C94.3933 101.519 97.3953 102.127 100.529 102.187C103.692 102.248 106.581 101.742 108.204 100.727Z" fill="black"/>
<path d="M18.3098 26.4133C18.6584 25.5808 19.851 25.5619 20.1914 26.3977C23.5226 34.5774 24.5547 39.4306 26.2545 47.5506L4.12896 43.3722C11.7547 37.6621 15.2579 33.7009 18.3098 26.4133Z" fill="white"/>
<path d="M3.58468 44.1083C3.65563 42.7981 4.94786 41.9115 6.20295 42.2942C12.948 44.3505 17.6986 45.2172 24.7317 45.7813C26.0354 45.8858 26.9081 47.1795 26.4977 48.4212L18.2711 73.3124C17.9971 74.1415 17.2149 74.6997 16.342 74.674C11.2886 74.5248 8.05862 73.9571 3.43976 72.2516C2.63091 71.953 2.12009 71.1551 2.16671 70.2941L3.58468 44.1083Z" fill="#D8BC8D"/>
<path d="M11.8723 40.1554C11.9199 40.026 12.0631 39.9596 12.1926 40.0069C15.9973 41.4061 18.1143 41.908 21.9504 41.6573C22.0881 41.6483 22.2069 41.7531 22.216 41.8907C22.2248 42.0282 22.1211 42.1472 21.9836 42.1564C18.0554 42.413 15.8662 41.8898 12.0207 40.4757C11.8913 40.428 11.8248 40.2848 11.8723 40.1554Z" fill="#DCDCDC"/>
<path d="M14.8889 36.586C14.9478 36.4614 15.0961 36.4082 15.2209 36.4669C16.4705 37.0569 17.4314 37.4389 18.3986 37.6202C19.3613 37.8006 20.3461 37.785 21.6437 37.5567C21.7795 37.5329 21.9086 37.6232 21.9328 37.7589C21.9567 37.8948 21.8665 38.0249 21.7307 38.0489C20.391 38.2846 19.3428 38.3058 18.3059 38.1114C17.2735 37.9178 16.2663 37.5122 15.008 36.9181C14.8833 36.8591 14.83 36.7108 14.8889 36.586Z" fill="#DCDCDC"/>
<path d="M17.3469 32.8673C17.4347 32.761 17.592 32.7464 17.6984 32.8341C18.275 33.3101 18.6949 33.5779 19.1154 33.6651C19.5239 33.7498 19.9752 33.671 20.631 33.3439C20.7545 33.2823 20.9043 33.3328 20.966 33.4562C21.0274 33.5795 20.9779 33.7294 20.8547 33.7911C20.1486 34.1433 19.5768 34.272 19.0139 34.1554C18.4632 34.0412 17.9624 33.6989 17.381 33.2189C17.2748 33.1309 17.259 32.9737 17.3469 32.8673Z" fill="#DCDCDC"/>
<path d="M15.8849 49.8714L26.3933 48.7363L26.0483 49.7792L17.4817 50.7047L23.5268 53.8588L24.7433 53.7267L24.2096 55.3423L23.3338 54.8857L16.5538 55.6178L22.1359 58.5294L23.1942 58.4142L22.6885 59.9446L21.9429 59.5564L15.6833 60.2327L21.5774 63.3076L21.1999 64.4488L14.7555 65.1459L20.0552 67.9107L19.4499 69.7423L14.2909 70.3006L18.5339 72.5141L18.2709 73.3121C18.2528 73.3669 18.2313 73.42 18.2088 73.4723L12.4993 70.4939L2.54185 71.5691C2.33877 71.2892 2.20839 70.9567 2.17273 70.603L10.9025 69.6607L4.39326 66.2649L2.37246 66.4825L2.42747 65.4703L2.79555 65.4315L2.43922 65.2449L2.49925 64.1481L4.58716 65.2381L11.3671 64.506L5.32109 61.3517L2.63473 61.6415L2.68974 60.6292L3.72339 60.5183L2.72374 59.9966L2.78282 58.8996L5.515 60.325L12.295 59.5928L6.71216 56.6801L2.88043 57.0934L2.93544 56.0812L5.11445 55.8467L3.00844 54.7473L3.06752 53.6504L6.90606 55.6533L13.1655 54.9779L7.1204 51.8239L3.1427 52.2523L3.19771 51.2401L5.52288 50.9895L3.27473 49.8166L3.33477 48.7198L7.31353 50.7959L14.0933 50.0648L3.55925 44.5682L3.58456 44.1079C3.59587 43.8992 3.64062 43.702 3.70885 43.5182L15.8849 49.8714ZM6.18487 66.0715L12.6932 69.4671L19.4732 68.735L12.9639 65.3392L6.18487 66.0715ZM7.1127 61.1584L13.1587 64.3126L19.9378 63.5803L13.8917 60.4261L7.1127 61.1584ZM8.50376 56.4867L14.0866 59.3995L20.3452 58.723L14.7632 55.8114L8.50376 56.4867ZM8.91105 51.6303L14.9561 54.7844L21.7361 54.0523L15.691 50.8982L8.91105 51.6303Z" fill="#BAA075"/>
</g>
<defs>
<clipPath id="clip0_533_3780">
<rect width="200" height="200" fill="white"/>
</clipPath>
</defs>
</svg>
