<svg width="200" height="200" viewBox="0 0 200 200" fill="none" xmlns="http://www.w3.org/2000/svg">
<path d="M138.591 118.332C140.731 118.335 142.476 120.017 142.581 122.131L142.586 122.333V122.351C142.586 122.368 142.586 122.398 142.587 122.438C142.588 122.521 142.59 122.651 142.595 122.822C142.604 123.165 142.622 123.673 142.66 124.304C142.737 125.571 142.892 127.308 143.2 129.193C143.859 133.226 145.068 136.939 146.854 138.803C148.009 140.009 149.879 140.876 152.529 141.3C155.155 141.72 158.176 141.642 161.15 141.296C164.099 140.953 166.845 140.365 168.865 139.857C169.87 139.605 170.684 139.374 171.239 139.21C171.516 139.128 171.729 139.063 171.867 139.02C171.936 138.998 171.986 138.982 172.018 138.972C172.033 138.967 172.044 138.963 172.05 138.961L172.055 138.96C174.151 138.267 176.412 139.403 177.106 141.499C177.801 143.596 176.665 145.86 174.568 146.555L173.366 142.929C174.567 146.554 174.565 146.556 174.565 146.556L174.563 146.557C174.563 146.557 174.559 146.558 174.557 146.559C174.552 146.56 174.546 146.562 174.539 146.564C174.524 146.569 174.504 146.576 174.479 146.584C174.428 146.6 174.357 146.623 174.268 146.651C174.088 146.708 173.832 146.786 173.509 146.882C172.862 147.073 171.941 147.333 170.815 147.616C168.573 148.18 165.47 148.848 162.075 149.243C158.706 149.635 154.886 149.778 151.267 149.199C147.671 148.624 143.888 147.272 141.076 144.337C137.465 140.567 135.987 134.661 135.305 130.483C134.942 128.264 134.763 126.246 134.675 124.787C134.63 124.055 134.608 123.455 134.597 123.032C134.591 122.821 134.589 122.652 134.588 122.533C134.587 122.474 134.587 122.426 134.587 122.392C134.587 122.375 134.586 122.36 134.586 122.35V122.329C134.586 122.329 134.587 122.327 137.973 122.331L134.586 122.326C134.589 120.117 136.382 118.329 138.591 118.332Z" fill="#231F20"/>
<path d="M94.2131 139.697C95.1389 137.691 97.5159 136.815 99.5217 137.741C101.527 138.667 102.402 141.043 101.477 143.049L82.5569 184.044C81.6312 186.05 79.255 186.925 77.2493 186C75.2436 185.074 74.3678 182.698 75.2932 180.692L94.2131 139.697Z" fill="#231F20"/>
<path fill-rule="evenodd" clip-rule="evenodd" d="M80.2903 162.18C71.7431 160.821 64.6199 155.758 60.5479 148.203C57.9117 148.553 55.2728 148.523 52.6796 148.111C45.4854 146.967 38.9158 142.856 34.6569 136.828C30.65 131.162 28.9834 124.332 29.8965 117.46C22.3613 113.371 17.3138 106.228 15.9677 97.6626C14.6216 89.0976 17.2284 80.7422 23.1427 74.5229C19.4477 66.7766 19.5558 58.0242 23.4944 50.2989C27.4294 42.5732 34.4425 37.3468 42.8742 35.7946C44.1364 28.9781 47.8382 23.0013 53.4041 18.8564C59.3218 14.4461 66.8423 12.5736 74.0365 13.7168C76.6261 14.1284 79.1482 14.9178 81.5458 16.0685C87.7589 10.1508 96.1049 7.54249 104.648 8.90017C113.192 10.2578 120.319 15.3212 124.391 22.8771C127.027 22.5263 129.666 22.5571 132.259 22.9692C139.453 24.1124 146.023 28.2241 150.282 34.2516C154.285 39.9171 155.955 46.7476 155.042 53.6196C162.577 57.7091 167.625 64.8521 168.971 73.4171C170.317 81.9821 167.707 90.3369 161.796 96.5568C165.491 104.303 165.383 113.056 161.444 120.781C157.509 128.507 150.496 133.733 142.064 135.285C140.802 142.102 137.101 148.075 131.535 152.22C125.617 156.63 118.097 158.502 110.899 157.359C108.31 156.947 105.787 156.158 103.39 155.007C97.1767 160.925 88.8308 163.533 80.2872 162.175L80.2903 162.18Z" fill="#686868"/>
<path d="M129.391 60.882C129.998 59.9597 131.239 59.7049 132.161 60.3126L143.09 67.5148C144.012 68.1227 144.267 69.3631 143.659 70.2853C143.051 71.2075 141.811 71.4622 140.889 70.8546L129.96 63.6525C129.038 63.0446 128.783 61.8042 129.391 60.882Z" fill="#231F20"/>
<path d="M144.146 116.782C145.172 116.372 146.336 116.871 146.746 117.896C147.156 118.921 146.657 120.086 145.632 120.496C142.904 121.587 140.619 122.232 138.295 122.323C135.955 122.413 133.737 121.936 131.153 121.036C130.11 120.673 129.559 119.533 129.922 118.49C130.285 117.447 131.425 116.895 132.468 117.258C134.798 118.069 136.486 118.39 138.139 118.326C139.808 118.261 141.605 117.797 144.146 116.782Z" fill="#231F20"/>
<path d="M124.512 84.1995C131.303 88.4464 135.181 94.4921 137.584 90.6496C139.987 86.8072 136.072 80.8208 129.282 76.5739C122.491 72.3269 117.787 70.4312 115.243 73.5572C112.256 77.2268 117.722 79.9525 124.512 84.1995Z" fill="white"/>
<path d="M129.065 86.4608C130.498 87.357 132.386 86.9218 133.282 85.4889C134.178 84.0559 133.743 82.1678 132.31 81.2716C130.877 80.3754 128.989 80.8106 128.093 82.2435C127.196 83.6765 127.632 85.5646 129.065 86.4608Z" fill="#231F20"/>
<path d="M73.5624 122.362C75.8098 122.279 77.8331 122.352 79.2919 122.446C80.0239 122.493 80.6225 122.546 81.0438 122.588C81.2539 122.608 81.4206 122.627 81.5389 122.64C81.5982 122.647 81.6462 122.652 81.6805 122.656C81.6976 122.658 81.7119 122.661 81.7225 122.662C81.7274 122.662 81.7317 122.662 81.7352 122.663C81.7368 122.663 81.7388 122.663 81.7401 122.663L81.743 122.664C81.7433 122.668 81.7295 122.784 81.3192 126.023L81.745 122.664C83.9363 122.942 85.4874 124.944 85.2098 127.135C84.9406 129.258 83.0533 130.78 80.9432 130.621L80.743 130.601C80.7407 130.601 80.733 130.6 80.7245 130.599C80.7073 130.597 80.6779 130.593 80.6376 130.589C80.5553 130.579 80.4258 130.565 80.2557 130.549C79.9146 130.515 79.4087 130.47 78.7782 130.429C77.5108 130.348 75.7683 130.285 73.8592 130.356C69.776 130.508 65.9414 131.246 63.87 132.786C62.5296 133.782 61.4369 135.53 60.6864 138.107C59.9428 140.661 59.6437 143.667 59.617 146.662C59.5906 149.63 59.8324 152.427 60.0848 154.495C60.2104 155.524 60.3376 156.36 60.4315 156.931C60.4783 157.216 60.5159 157.435 60.5419 157.578C60.5548 157.649 60.565 157.702 60.5711 157.734C60.5742 157.75 60.5769 157.762 60.578 157.767V157.771C61.0049 159.937 59.5957 162.04 57.4295 162.468C55.2627 162.897 53.1581 161.488 52.7294 159.321L56.4764 158.58C52.7831 159.31 52.7303 159.319 52.7294 159.318L52.7284 159.316C52.728 159.314 52.7279 159.312 52.7274 159.309C52.7264 159.304 52.725 159.297 52.7235 159.29C52.7205 159.274 52.7167 159.253 52.7118 159.227C52.7019 159.175 52.6885 159.103 52.6717 159.01C52.6381 158.826 52.5917 158.562 52.537 158.229C52.4276 157.564 52.2841 156.618 52.1434 155.466C51.8633 153.171 51.5866 150.009 51.617 146.591C51.6473 143.198 51.9809 139.39 53.0057 135.871C54.0238 132.375 55.8356 128.79 59.0975 126.365C63.2871 123.251 69.3322 122.519 73.5624 122.362Z" fill="#231F20"/>
<path d="M105.499 143.558C107.618 142.933 109.842 144.144 110.468 146.262L123.253 189.564C123.879 191.683 122.668 193.907 120.549 194.533C118.43 195.158 116.206 193.948 115.58 191.83L102.795 148.527C102.17 146.408 103.38 144.184 105.499 143.558Z" fill="#231F20"/>
<path d="M151.307 35.8114C154.346 40.7906 155.687 46.5357 155.179 52.3606C110.237 50.3864 84.2003 46.7306 42.9365 35.475C44.0319 29.9187 46.7539 24.935 50.7891 21.0679C86.8015 32.6761 111.725 36.1189 151.307 35.8114Z" fill="#C34C4C"/>
</svg>
