<svg width="240" height="240" viewBox="0 0 240 240" fill="none" xmlns="http://www.w3.org/2000/svg">
<path d="M26.7766 122.238C33.2518 127.47 41.6248 130.345 50.3651 129.607C52.4675 129.429 53.9587 127.576 53.6864 125.48C53.4142 123.383 51.4793 121.82 49.377 121.997C36.1205 123.117 23.9398 113.274 22.2231 100.055C21.9509 97.9585 20.016 96.395 17.9136 96.5725C15.8113 96.7501 14.3201 98.6029 14.5924 100.699C15.7132 109.406 20.3014 117.006 26.7766 122.238Z" fill="#231F20" stroke="#231F20" stroke-width="0.766008" stroke-miterlimit="10"/>
<path d="M202.958 128.731C194.67 129.44 186.124 127.131 179.291 121.621C177.647 120.296 177.445 117.924 178.841 116.339C180.236 114.753 182.713 114.542 184.357 115.867C194.722 124.224 210.313 122.89 219.114 112.894C220.51 111.308 222.986 111.096 224.63 112.422C226.274 113.747 226.476 116.119 225.08 117.704C219.291 124.294 211.246 128.022 202.958 128.731Z" fill="#231F20" stroke="#231F20" stroke-width="0.766008" stroke-miterlimit="10"/>
<circle cx="206.265" cy="56.2645" r="21.5" transform="rotate(26.9159 206.265 56.2645)" fill="#CCEBFF" fill-opacity="0.55" stroke="#4073A6" stroke-width="5"/>
<path d="M212.531 77.2471L219.842 99.6378L212.531 77.2471Z" fill="#CCEBFF" fill-opacity="0.55"/>
<path d="M212.531 77.2471L219.842 99.6378" stroke="#4073A6" stroke-width="5" stroke-linecap="round"/>
<path d="M216.172 88.8042L223.483 111.195L216.172 88.8042Z" fill="#CCEBFF" fill-opacity="0.55"/>
<path d="M216.172 88.8042L223.483 111.195" stroke="#4073A6" stroke-width="8" stroke-linecap="round"/>
<path d="M96.9667 178.106C97.0305 182.288 94.8363 189.841 92.7155 196.127C90.5512 202.542 84.4274 206.648 77.6572 206.648H66.0317" stroke="black" stroke-width="8.47029" stroke-linecap="round"/>
<path d="M135.269 178.106C135.205 182.288 137.399 189.841 139.52 196.127C141.684 202.542 147.808 206.648 154.578 206.648H166.204" stroke="black" stroke-width="8.47029" stroke-linecap="round"/>
<path fill-rule="evenodd" clip-rule="evenodd" d="M117.459 188.202C108.805 188.202 100.975 184.32 95.7677 177.497C93.2193 178.257 90.6082 178.641 87.9824 178.641C80.698 178.641 73.5645 175.611 68.4124 170.327C63.5659 165.36 60.8481 158.876 60.6713 151.946C52.5877 149.09 46.4817 142.827 43.808 134.58C41.1344 126.332 42.3976 117.671 47.2625 110.601C42.3976 103.53 41.1307 94.8695 43.808 86.6219C46.4817 78.3743 52.5877 72.112 60.6713 69.2558C60.8481 62.3256 63.5659 55.8419 68.4124 50.8748C73.5645 45.5905 80.698 42.5608 87.9824 42.5608C90.6045 42.5608 93.2193 42.9446 95.7677 43.7048C100.975 36.8853 108.808 32.9995 117.459 32.9995C126.11 32.9995 133.943 36.8816 139.15 43.7048C141.699 42.9446 144.31 42.5608 146.936 42.5608C154.22 42.5608 161.354 45.5905 166.506 50.8748C171.348 55.8419 174.07 62.3256 174.247 69.2558C182.33 72.112 188.436 78.3743 191.11 86.6219C193.784 94.8695 192.517 103.53 187.656 110.601C192.521 117.671 193.787 126.332 191.11 134.58C188.436 142.827 182.33 149.09 174.247 151.946C174.07 158.876 171.352 165.356 166.506 170.323C161.354 175.608 154.22 178.637 146.932 178.637C144.31 178.637 141.695 178.253 139.147 177.493C133.939 184.313 126.106 188.198 117.455 188.198L117.459 188.202Z" fill="#80B8EB"/>
<path d="M98.0015 124.687C106.011 124.687 112.504 118.181 112.504 110.155C112.504 102.13 106.011 95.6235 98.0015 95.6235C89.992 95.6235 83.499 102.13 83.499 110.155C83.499 118.181 89.992 124.687 98.0015 124.687Z" fill="white"/>
<path d="M136.65 125.173C144.659 125.173 151.152 118.667 151.152 110.641C151.152 102.616 144.659 96.1094 136.65 96.1094C128.64 96.1094 122.147 102.616 122.147 110.641C122.147 118.667 128.64 125.173 136.65 125.173Z" fill="white"/>
<path d="M103.06 113.121C104.75 113.121 106.12 111.751 106.12 110.061C106.12 108.371 104.75 107 103.06 107C101.37 107 100 108.371 100 110.061C100 111.751 101.37 113.121 103.06 113.121Z" fill="#231F20"/>
<path d="M132.06 113.133C133.75 113.133 135.12 111.76 135.12 110.067C135.12 108.373 133.75 107 132.06 107C130.37 107 129 108.373 129 110.067C129 111.76 130.37 113.133 132.06 113.133Z" fill="#231F20"/>
<path d="M117.873 141.145C115.729 141.48 113.457 140.997 111.566 139.615C111.111 139.283 111.01 138.642 111.341 138.187C111.672 137.732 112.313 137.632 112.768 137.964C115.637 140.06 119.669 139.432 121.758 136.564C122.089 136.109 122.73 136.009 123.185 136.341C123.64 136.674 123.741 137.315 123.409 137.77C122.036 139.66 120.017 140.811 117.873 141.145Z" fill="#231F20" stroke="#231F20" stroke-width="0.766008" stroke-miterlimit="10"/>
<path d="M90.8831 77.7461C94.119 77.0249 97.637 77.5753 100.669 79.5743C101.399 80.0552 101.621 81.0542 101.163 81.7995C100.706 82.5448 99.7392 82.7603 99.0098 82.2795C94.4105 79.2476 88.3234 80.6042 85.4402 85.3037C84.983 86.049 84.0161 86.2645 83.2867 85.7837C82.5573 85.3028 82.3355 84.3038 82.7927 83.5585C84.6882 80.4612 87.6473 78.4672 90.8831 77.7461Z" fill="#231F20" stroke="#231F20" stroke-width="0.766008" stroke-miterlimit="10"/>
<path d="M135.384 77.0918C138.619 76.3706 142.138 76.921 145.17 78.92C145.899 79.4009 146.121 80.3999 145.664 81.1452C145.207 81.8905 144.24 82.106 143.51 81.6252C138.911 78.5933 132.824 79.9499 129.941 84.6494C129.483 85.3947 128.517 85.6102 127.787 85.1294C127.058 84.6485 126.836 83.6495 127.293 82.9042C129.189 79.8069 132.148 77.813 135.384 77.0918Z" fill="#231F20" stroke="#231F20" stroke-width="0.766008" stroke-miterlimit="10"/>
<path d="M166.001 150C168.973 150 171.776 150.72 174.246 151.995C174.058 158.907 171.342 165.368 166.507 170.323C161.355 175.608 154.221 178.638 146.933 178.638C144.311 178.638 141.696 178.254 139.147 177.494C134.621 183.422 128.11 187.131 120.803 188H114.081C106.785 187.125 100.289 183.42 95.7686 177.497C93.2201 178.257 90.6092 178.642 87.9834 178.642C80.699 178.642 73.5652 175.612 68.4131 170.327C64.4182 166.233 61.8712 161.108 61 155.552C64.2766 152.131 68.8898 150 74.001 150H105.508L118 164L130.492 150H166.001Z" fill="#F7FAFF"/>
<path fill-rule="evenodd" clip-rule="evenodd" d="M98 93C106.712 93 113.892 99.5538 114.882 108H120.264C121.681 100.042 128.635 94 137 94C144.945 94 151.616 99.4506 153.48 106.816L192.328 98.0752C192.213 99.1509 192.035 100.218 191.79 101.271L153.955 109.784C153.983 110.186 154 110.591 154 111C154 120.389 146.389 128 137 128C127.611 128 120 120.389 120 111H114.97C114.452 119.923 107.053 127 98 127C88.8977 127 81.4666 119.846 81.0215 110.854L43.4121 102.393C43.1163 101.329 42.8858 100.251 42.7236 99.1621L81.1406 107.807C82.2166 99.4539 89.3544 93 98 93ZM137 97C129.268 97 123 103.268 123 111C123 118.732 129.268 125 137 125C144.732 125 151 118.732 151 111C151 103.268 144.732 97 137 97ZM98 96C90.268 96 84 102.268 84 110C84 117.732 90.268 124 98 124C105.732 124 112 117.732 112 110C112 102.268 105.732 96 98 96Z" fill="black"/>
<path d="M135.49 149.309C136.549 150.696 136.199 152.692 134.73 153.634L118.189 164.25C118.162 164.267 118.157 164.304 118.177 164.327C118.216 164.373 118.16 164.437 118.11 164.405L118.062 164.374C118.042 164.361 118.017 164.361 117.997 164.374L117.949 164.405C117.899 164.437 117.843 164.373 117.882 164.327C117.902 164.304 117.897 164.267 117.87 164.25L101.33 153.634C99.8612 152.692 99.5105 150.696 100.57 149.309C101.724 147.799 103.975 147.737 105.211 149.18L114.991 160.605C116.587 162.47 119.472 162.47 121.068 160.605L130.849 149.18C132.085 147.736 134.336 147.799 135.49 149.309Z" fill="#D9D9D9"/>
<circle cx="118" cy="170" r="2" fill="#D9D9D9"/>
<circle cx="118" cy="178" r="2" fill="#D9D9D9"/>
</svg>
