<svg width="454" height="468" viewBox="0 0 454 468" fill="none" xmlns="http://www.w3.org/2000/svg">
<path d="M195.873 183.487C197.074 180.104 195.304 176.388 191.92 175.188C188.537 173.988 184.821 175.758 183.621 179.141L189.747 181.314L195.873 183.487ZM189.714 181.408L188.71 187.83L194.037 188.663L195.84 183.581L189.714 181.408ZM185.711 218.868L185.456 225.363L185.711 218.868ZM193.61 209.313L187.206 208.204L193.61 209.313ZM188.661 190.347L182.501 188.274L188.661 190.347ZM189.669 184.857L186.625 179.115L186.384 179.242L186.155 179.389L189.669 184.857ZM188.678 185.494L182.489 187.481L185.075 195.536L192.192 190.963L188.678 185.494ZM194.837 183.412C193.739 179.994 190.079 178.113 186.661 179.21C183.243 180.307 181.361 183.968 182.459 187.386L188.648 185.399L194.837 183.412ZM189.747 181.314L183.621 179.141L183.588 179.235L189.714 181.408L195.84 183.581L195.873 183.487L189.747 181.314ZM189.714 181.408L190.718 174.986C186.726 174.362 182.327 174.855 178.825 177.933C175.492 180.862 174.211 185.072 173.822 189.059L180.292 189.69L186.761 190.321C186.997 187.903 187.599 187.529 187.407 187.698C187.293 187.798 187.203 187.806 187.299 187.786C187.443 187.755 187.875 187.7 188.71 187.83L189.714 181.408ZM180.292 189.69L173.822 189.059C173.175 195.692 172.879 202.343 172.931 209.013L179.431 208.961L185.931 208.91C185.882 202.695 186.158 196.5 186.761 190.321L180.292 189.69ZM179.431 208.961L172.931 209.013C172.961 212.743 173.557 216.606 175.55 219.749C177.817 223.326 181.402 225.203 185.456 225.363L185.711 218.868L185.966 212.373C185.787 212.366 185.907 212.34 186.152 212.477C186.412 212.621 186.53 212.789 186.53 212.789C186.506 212.752 186.349 212.48 186.201 211.807C186.053 211.137 185.941 210.191 185.931 208.91L179.431 208.961ZM185.711 218.868L185.456 225.363C189.546 225.524 193.186 223.901 195.797 220.743C198.146 217.902 199.362 214.196 200.015 210.421L193.61 209.313L187.206 208.204C186.728 210.962 186.062 212.115 185.778 212.459C185.683 212.574 185.712 212.502 185.88 212.427C186.049 212.352 186.119 212.379 185.966 212.373L185.711 218.868ZM193.61 209.313L200.015 210.421C201.432 202.239 199.789 194.493 195.215 187.508L189.777 191.069L184.339 194.63C187.139 198.904 188.051 203.321 187.206 208.204L193.61 209.313ZM189.777 191.069L195.215 187.508C194.235 186.011 193.297 184.687 192.424 183.64C191.989 183.119 191.482 182.559 190.915 182.051C190.44 181.624 189.484 180.828 188.137 180.341C186.569 179.775 183.733 179.457 181.277 181.549C179.372 183.171 178.962 185.267 178.846 185.991C178.578 187.659 178.829 189.423 179.035 190.611L185.44 189.501L191.844 188.391C191.653 187.287 191.786 187.398 191.682 188.049C191.647 188.266 191.389 190.013 189.705 191.447C187.47 193.35 184.926 193.004 183.719 192.568C183.169 192.369 182.788 192.134 182.598 192.006C182.395 191.87 182.273 191.762 182.235 191.729C182.17 191.67 182.235 191.72 182.441 191.968C182.851 192.459 183.476 193.311 184.339 194.63L189.777 191.069ZM185.44 189.501L179.035 190.611C179.259 191.904 179.561 193.267 180.02 194.463C180.246 195.052 180.616 195.885 181.225 196.709C181.794 197.478 183.044 198.875 185.19 199.438C187.614 200.075 189.688 199.28 190.963 198.395C192.091 197.613 192.783 196.662 193.151 196.095C193.908 194.928 194.436 193.566 194.822 192.42L188.661 190.347L182.501 188.274C182.21 189.138 182.096 189.25 182.246 189.017C182.311 188.918 182.709 188.3 183.551 187.716C184.54 187.029 186.336 186.298 188.492 186.864C190.369 187.357 191.36 188.549 191.678 188.979C191.873 189.243 191.992 189.459 192.054 189.58C192.118 189.706 192.15 189.787 192.156 189.803C192.165 189.828 192.128 189.732 192.062 189.464C191.999 189.207 191.925 188.855 191.844 188.391L185.44 189.501ZM188.661 190.347L194.822 192.42C195.504 190.391 196.062 188.545 196.321 187.133C196.396 186.723 196.706 185.167 196.317 183.512C196.119 182.666 195.331 180.116 192.483 178.87C189.697 177.651 187.333 178.739 186.625 179.115L189.669 184.857L192.714 190.6C192.176 190.886 189.95 191.952 187.271 190.78C184.529 189.58 183.817 187.145 183.661 186.484C183.47 185.667 183.513 185.059 183.519 184.962C183.531 184.782 183.549 184.707 183.535 184.785C183.458 185.203 183.171 186.282 182.501 188.274L188.661 190.347ZM189.669 184.857L186.155 179.389L185.164 180.026L188.678 185.494L192.192 190.963L193.183 190.326L189.669 184.857ZM188.678 185.494L194.867 183.507L194.837 183.412L188.648 185.399L182.459 187.386L182.489 187.481L188.678 185.494Z" fill="black"/>
<path d="M325.358 199.989C325.269 196.4 322.288 193.563 318.699 193.651C315.111 193.74 312.273 196.721 312.362 200.31L318.86 200.149L325.358 199.989ZM318.862 200.249L324.873 202.724L325.394 201.458L325.36 200.089L318.862 200.249ZM320.034 224.513L321.058 230.932L320.034 224.513ZM310.87 200.606L304.523 199.203L310.87 200.606ZM310.098 212.238L304.78 215.974L304.847 216.071L304.919 216.165L310.098 212.238ZM311.507 214.095L317.498 216.616L318.953 213.158L316.686 210.168L311.507 214.095ZM305.476 211.667C304.084 214.976 305.638 218.787 308.947 220.179C312.256 221.571 316.067 220.017 317.459 216.708L311.468 214.188L305.476 211.667ZM318.86 200.149L312.362 200.31L312.364 200.41L318.862 200.249L325.36 200.089L325.358 199.989L318.86 200.149ZM318.862 200.249L312.852 197.774C310.842 202.656 310.435 208.818 310.954 215.647L317.435 215.154L323.916 214.662C323.457 208.616 324.001 204.842 324.873 202.724L318.862 200.249ZM317.435 215.154L310.954 215.647C311.205 218.959 311.579 221.867 312.189 224.062C312.474 225.09 312.963 226.544 313.903 227.846C314.901 229.226 317.332 231.526 321.058 230.932L320.034 224.513L319.01 218.094C320.343 217.881 321.648 218.149 322.714 218.734C323.67 219.259 324.208 219.91 324.441 220.233C324.854 220.805 324.862 221.114 324.715 220.582C324.458 219.657 324.154 217.787 323.916 214.662L317.435 215.154ZM320.034 224.513L321.058 230.932C324.281 230.418 325.918 228.065 326.538 226.965C327.238 225.726 327.631 224.382 327.881 223.287C328.399 221.024 328.686 218.081 328.84 214.701L322.346 214.406L315.853 214.11C315.709 217.27 315.462 219.282 315.209 220.388C315.074 220.977 315.022 220.922 315.218 220.574C315.335 220.366 316.409 218.509 319.01 218.094L320.034 224.513ZM322.346 214.406L328.84 214.701C329.159 207.691 328.719 200.692 327.525 193.712L321.118 194.808L314.711 195.904C315.75 201.975 316.129 208.041 315.853 214.11L322.346 214.406ZM321.118 194.808L327.525 193.712C326.969 190.458 326.115 186.897 324.345 184.423C323.37 183.06 321.415 181.073 318.273 180.815C315.217 180.563 312.994 182.118 311.833 183.183L316.228 187.972L320.622 192.762C320.533 192.843 319.318 193.945 317.206 193.771C315.007 193.59 313.932 192.211 313.772 191.988C313.602 191.749 313.728 191.838 313.98 192.646C314.209 193.382 314.462 194.446 314.711 195.904L321.118 194.808ZM316.228 187.972L311.833 183.183C309.796 185.052 308.366 187.545 307.296 190.069C306.196 192.663 305.288 195.742 304.523 199.203L310.87 200.606L317.216 202.01C317.879 199.016 318.578 196.762 319.264 195.145C319.979 193.457 320.514 192.861 320.622 192.762L316.228 187.972ZM310.87 200.606L304.523 199.203C303.78 202.562 303.281 205.51 303.121 207.925C303.041 209.13 303.031 210.389 303.184 211.597C303.324 212.696 303.671 214.396 304.78 215.974L310.098 212.238L315.417 208.502C316.069 209.43 316.106 210.158 316.081 209.963C316.07 209.877 316.043 209.52 316.092 208.785C316.189 207.323 316.532 205.106 317.216 202.01L310.87 200.606ZM310.098 212.238L304.919 216.165L306.327 218.023L311.507 214.095L316.686 210.168L315.278 208.311L310.098 212.238ZM311.507 214.095L305.515 211.575L305.476 211.667L311.468 214.188L317.459 216.708L317.498 216.616L311.507 214.095Z" fill="black"/>
<path d="M160.31 34.2962C157.477 36.5004 156.966 40.5842 159.171 43.4177C161.375 46.2512 165.459 46.7613 168.292 44.5571L164.301 39.4267L160.31 34.2962ZM164.38 39.3653L168.371 44.4957L169.2 43.8513L169.783 42.9788L164.38 39.3653ZM219.85 6.5612L219.547 0.0682578L219.85 6.5612ZM257.588 14.274L256.01 20.5796L257.588 14.274ZM286.657 33.6933L288.48 27.454L286.657 33.6933ZM302.624 32.6296L300.628 26.4437L302.624 32.6296ZM321.64 30.8122L320.849 37.2639L321.64 30.8122ZM340.861 34.501L339.21 40.7879L340.861 34.501ZM358.6 42.5787L354.949 47.9568L358.6 42.5787ZM372.056 56.7421L366.507 60.1276L372.056 56.7421ZM374.032 94.5247L367.665 93.2168L374.032 94.5247ZM369.854 105.939L373.838 111.074L373.905 111.023L373.969 110.97L369.854 105.939ZM367.659 107.642L363.674 102.507L361.433 104.245L361.184 107.07L367.659 107.642ZM361.175 107.17C360.859 110.746 363.502 113.901 367.078 114.216C370.654 114.532 373.809 111.889 374.125 108.313L367.65 107.742L361.175 107.17ZM164.301 39.4267L168.292 44.5571L168.371 44.4957L164.38 39.3653L160.389 34.2348L160.31 34.2962L164.301 39.4267ZM164.38 39.3653L169.783 42.9788C176.867 32.3862 182.588 26.0446 186.906 23.0906L183.235 17.7261L179.565 12.3616C173.109 16.7789 166.259 24.8634 158.977 35.7517L164.38 39.3653ZM183.235 17.7261L186.906 23.0906C191.701 19.8095 196.872 17.4085 202.446 15.8727L200.719 9.60626L198.992 3.33984C192.027 5.25917 185.543 8.27139 179.565 12.3616L183.235 17.7261ZM200.719 9.60626L202.446 15.8727C208.251 14.273 214.15 13.3341 220.153 13.0541L219.85 6.5612L219.547 0.0682578C212.579 0.393251 205.725 1.48442 198.992 3.33984L200.719 9.60626ZM219.85 6.5612L220.153 13.0541C225.877 12.7871 231.471 13.5084 236.969 15.2253L238.907 9.02072L240.844 2.81617C233.903 0.648714 226.792 -0.269719 219.547 0.0682578L219.85 6.5612ZM238.907 9.02072L236.969 15.2253C243.307 17.204 249.653 18.9889 256.01 20.5796L257.588 14.274L259.166 7.9684C253.054 6.43905 246.947 4.72175 240.844 2.81617L238.907 9.02072ZM257.588 14.274L256.01 20.5796C260.894 21.8017 265.037 24.3581 268.552 28.4299L273.473 24.1823L278.393 19.9348C273.196 13.9154 266.75 9.86626 259.166 7.9684L257.588 14.274ZM273.473 24.1823L268.552 28.4299C273.383 34.0251 278.776 38.1629 284.835 39.9326L286.657 33.6933L288.48 27.454C285.671 26.6336 282.274 24.4308 278.393 19.9348L273.473 24.1823ZM286.657 33.6933L284.835 39.9326C290.936 41.7146 297.663 41.0607 304.62 38.8155L302.624 32.6296L300.628 26.4437C295.164 28.2068 291.246 28.262 288.48 27.454L286.657 33.6933ZM302.624 32.6296L304.62 38.8155C309.934 37.1008 315.322 36.5864 320.849 37.2639L321.64 30.8122L322.43 24.3604C315.025 23.4528 307.736 24.1501 300.628 26.4437L302.624 32.6296ZM321.64 30.8122L320.849 37.2639C327.022 38.0206 333.142 39.1948 339.21 40.7879L340.861 34.501L342.511 28.214C335.883 26.4737 329.188 25.1888 322.43 24.3604L321.64 30.8122ZM340.861 34.501L339.21 40.7879C344.838 42.2656 350.076 44.6488 354.949 47.9568L358.6 42.5787L362.251 37.2006C356.168 33.0716 349.579 30.0697 342.511 28.214L340.861 34.501ZM358.6 42.5787L354.949 47.9568C359.65 51.1474 363.492 55.1855 366.507 60.1276L372.056 56.7421L377.605 53.3565C373.635 46.8511 368.506 41.447 362.251 37.2006L358.6 42.5787ZM372.056 56.7421L366.507 60.1276C369.32 64.738 370.504 69.5374 370.165 74.6941L376.651 75.1207L383.137 75.5472C383.656 67.6466 381.776 60.1937 377.605 53.3565L372.056 56.7421ZM376.651 75.1207L370.165 74.6941C369.755 80.9267 368.922 87.1002 367.665 93.2168L374.032 94.5247L380.399 95.8327C381.775 89.1345 382.688 82.372 383.137 75.5472L376.651 75.1207ZM374.032 94.5247L367.665 93.2168C367.038 96.2716 366.436 98.4746 365.897 99.9493C365.628 100.683 365.419 101.113 365.299 101.323C365.152 101.58 365.257 101.301 365.738 100.908L369.854 105.939L373.969 110.97C376.167 109.172 377.367 106.432 378.104 104.418C378.957 102.088 379.711 99.1852 380.399 95.8327L374.032 94.5247ZM369.854 105.939L365.869 100.803L363.674 102.507L367.659 107.642L371.643 112.777L373.838 111.074L369.854 105.939ZM367.659 107.642L361.184 107.07L361.175 107.17L367.65 107.742L374.125 108.313L374.133 108.214L367.659 107.642Z" fill="#231F20"/>
<path d="M370.901 104.865C367.476 103.79 363.828 105.695 362.753 109.12C361.677 112.545 363.582 116.193 367.007 117.268L368.954 111.067L370.901 104.865ZM369.049 111.097L367.102 117.298L367.625 117.462L368.167 117.536L369.049 111.097ZM424.121 139.73L418.826 143.501L424.121 139.73ZM433.982 195.65L427.614 194.345L433.982 195.65ZM424.717 212.624L429.337 217.197L424.717 212.624ZM439.421 228.333L436.366 234.07L439.421 228.333ZM447.284 243.106L440.825 242.377L447.284 243.106ZM441.03 280.982L435.635 277.357L441.03 280.982ZM431.219 297.906L437.047 300.784L431.219 297.906ZM374.767 333.133L370.718 338.218L370.782 338.269L370.847 338.318L374.767 333.133ZM372.169 331.065L376.218 325.98L373.403 323.739L370.01 324.933L372.169 331.065ZM369.916 324.967C366.53 326.159 364.751 329.87 365.943 333.256C367.135 336.642 370.847 338.421 374.233 337.229L372.074 331.098L369.916 324.967ZM368.954 111.067L367.007 117.268L367.102 117.298L369.049 111.097L370.996 104.895L370.901 104.865L368.954 111.067ZM369.049 111.097L368.167 117.536C380.904 119.281 390.682 120.428 397.425 120.956L397.932 114.476L398.44 107.996C392.083 107.498 382.606 106.393 369.931 104.657L369.049 111.097ZM397.932 114.476L397.425 120.956C401.961 121.312 405.184 123.233 407.641 127.03L413.098 123.499L418.555 119.967C413.891 112.76 407.003 108.667 398.44 107.996L397.932 114.476ZM413.098 123.499L407.641 127.03C411.254 132.613 414.982 138.103 418.826 143.501L424.121 139.73L429.415 135.96C425.684 130.719 422.064 125.389 418.555 119.967L413.098 123.499ZM424.121 139.73L418.826 143.501C422.207 148.248 424.748 153.408 426.46 159.006L432.676 157.106L438.892 155.205C436.772 148.274 433.61 141.85 429.415 135.96L424.121 139.73ZM432.676 157.106L426.46 159.006C428.201 164.701 429.13 170.496 429.251 176.409L435.75 176.275L442.248 176.142C442.102 169.024 440.982 162.04 438.892 155.205L432.676 157.106ZM435.75 176.275L429.251 176.409C429.375 182.439 428.83 188.415 427.614 194.345L433.982 195.65L440.349 196.956C441.758 190.082 442.392 183.141 442.248 176.142L435.75 176.275ZM433.982 195.65L427.614 194.345C426.57 199.438 424.129 203.979 420.098 208.052L424.717 212.624L429.337 217.197C435.034 211.441 438.769 204.666 440.349 196.956L433.982 195.65ZM424.717 212.624L420.098 208.052C418.695 209.469 417.436 210.936 416.467 212.441C415.538 213.883 414.589 215.798 414.396 218.036C414.176 220.577 414.982 223.096 416.853 225.04C418.497 226.749 420.552 227.587 422.215 228.041L423.926 221.77L425.637 215.499C425.131 215.362 425.593 215.375 426.22 216.026C426.572 216.392 426.917 216.902 427.136 217.542C427.353 218.175 427.383 218.744 427.347 219.157C427.286 219.871 427.044 220.027 427.397 219.479C427.71 218.993 428.308 218.237 429.337 217.197L424.717 212.624ZM423.926 221.77L422.215 228.041C425.913 229.05 430.606 231.003 436.366 234.07L439.421 228.333L442.476 222.595C436.249 219.279 430.612 216.857 425.637 215.499L423.926 221.77ZM439.421 228.333L436.366 234.07C438.472 235.192 439.562 236.38 440.144 237.474C440.722 238.56 441.084 240.087 440.825 242.377L447.284 243.106L453.743 243.835C454.236 239.469 453.662 235.204 451.62 231.366C449.581 227.535 446.363 224.666 442.476 222.595L439.421 228.333ZM447.284 243.106L440.825 242.377C440.042 249.31 439.712 256.21 439.837 263.074L446.336 262.956L452.834 262.838C452.721 256.55 453.023 250.217 453.743 243.835L447.284 243.106ZM446.336 262.956L439.837 263.074C439.932 268.323 438.546 273.025 435.635 277.357L441.03 280.982L446.425 284.607C450.827 278.057 452.978 270.741 452.834 262.838L446.336 262.956ZM441.03 280.982L435.635 277.357C431.819 283.037 428.404 288.927 425.391 295.027L431.219 297.906L437.047 300.784C439.803 295.203 442.929 289.812 446.425 284.607L441.03 280.982ZM431.219 297.906L425.391 295.027C422.936 299.997 419.561 304.149 415.222 307.543L419.227 312.663L423.232 317.782C429.113 313.181 433.732 307.495 437.047 300.784L431.219 297.906ZM419.227 312.663L415.222 307.543C410.11 311.542 405.027 315.522 399.972 319.483L403.981 324.599L407.991 329.716C413.043 325.757 418.123 321.779 423.232 317.782L419.227 312.663ZM403.981 324.599L399.972 319.483C395.656 322.866 390.815 325.213 385.387 326.54L386.931 332.854L388.474 339.168C395.674 337.408 402.201 334.253 407.991 329.716L403.981 324.599ZM386.931 332.854L385.387 326.54C382.449 327.258 380.368 327.552 379.005 327.583C378.335 327.598 378 327.545 377.91 327.526C377.812 327.505 378.176 327.562 378.687 327.948L374.767 333.133L370.847 338.318C373.537 340.352 376.851 340.636 379.303 340.58C381.995 340.518 385.098 339.993 388.474 339.168L386.931 332.854ZM374.767 333.133L378.816 328.048L376.218 325.98L372.169 331.065L368.12 336.15L370.718 338.218L374.767 333.133ZM372.169 331.065L370.01 324.933L369.916 324.967L372.074 331.098L374.233 337.229L374.327 337.196L372.169 331.065Z" fill="#231F20"/>
<path d="M381.182 342.541C383.233 339.595 382.508 335.544 379.562 333.493C376.616 331.441 372.564 332.167 370.513 335.113L375.847 338.827L381.182 342.541ZM375.79 338.909L370.456 335.195L370.138 335.652L369.902 336.156L375.79 338.909ZM316.578 399.312L315.086 392.986L316.578 399.312ZM297.47 401.945L297.21 395.45L297.47 401.945ZM280.352 407.828L284.18 413.081L280.352 407.828ZM248.114 428.572L250.336 434.68L248.114 428.572ZM229.653 430.097L228.436 436.482L229.653 430.097ZM193.907 418.182L189.935 423.327L193.907 418.182ZM179.09 405.781L174.724 410.597L179.09 405.781ZM171.549 398.903L166.762 403.3L166.84 403.384L166.921 403.466L171.549 398.903ZM171.238 398.564L176.025 394.167L175.587 393.69L175.062 393.308L171.238 398.564ZM174.981 393.249C172.079 391.137 168.013 391.778 165.901 394.681C163.789 397.584 164.43 401.649 167.333 403.761L171.157 398.505L174.981 393.249ZM375.847 338.827L370.513 335.113L370.456 335.195L375.79 338.909L381.125 342.623L381.182 342.541L375.847 338.827ZM375.79 338.909L369.902 336.156C364.488 347.736 360.159 356.013 356.892 361.175L362.384 364.652L367.876 368.128C371.599 362.246 376.208 353.362 381.678 341.662L375.79 338.909ZM362.384 364.652L356.892 361.175C353.912 365.884 350.066 369.741 345.298 372.787L348.798 378.265L352.297 383.743C358.654 379.681 363.867 374.463 367.876 368.128L362.384 364.652ZM348.798 378.265L345.298 372.787C339.399 376.556 333.909 380.825 328.834 385.592L333.284 390.33L337.733 395.068C342.218 390.856 347.071 387.081 352.297 383.743L348.798 378.265ZM333.284 390.33L328.834 385.592C324.88 389.305 320.33 391.749 315.086 392.986L316.578 399.312L318.07 405.639C325.54 403.877 332.127 400.333 337.733 395.068L333.284 390.33ZM316.578 399.312L315.086 392.986C309.124 394.391 303.167 395.211 297.21 395.45L297.47 401.945L297.731 408.439C304.537 408.166 311.318 407.231 318.07 405.639L316.578 399.312ZM297.47 401.945L297.21 395.45C289.578 395.756 282.623 398.13 276.524 402.575L280.352 407.828L284.18 413.081C288.142 410.194 292.599 408.645 297.731 408.439L297.47 401.945ZM280.352 407.828L276.524 402.575C271.45 406.272 266.295 410.125 261.057 414.133L265.007 419.295L268.957 424.457C274.118 420.508 279.193 416.716 284.18 413.081L280.352 407.828ZM265.007 419.295L261.057 414.133C256.374 417.716 251.324 420.487 245.891 422.464L248.114 428.572L250.336 434.68C257.029 432.245 263.241 428.831 268.957 424.457L265.007 419.295ZM248.114 428.572L245.891 422.464C240.911 424.276 235.945 424.679 230.869 423.712L229.653 430.097L228.436 436.482C235.849 437.894 243.19 437.281 250.336 434.68L248.114 428.572ZM229.653 430.097L230.869 423.712C224.695 422.535 218.525 421.253 212.358 419.865L210.931 426.207L209.504 432.548C215.81 433.967 222.121 435.278 228.436 436.482L229.653 430.097ZM210.931 426.207L212.358 419.865C207.057 418.672 202.249 416.41 197.879 413.036L193.907 418.182L189.935 423.327C195.791 427.847 202.332 430.934 209.504 432.548L210.931 426.207ZM193.907 418.182L197.879 413.036C192.901 409.194 188.094 405.17 183.455 400.965L179.09 405.781L174.724 410.597C179.617 415.032 184.687 419.276 189.935 423.327L193.907 418.182ZM179.09 405.781L183.455 400.965C181.074 398.806 179.26 397.158 178.011 396.019C176.648 394.776 176.151 394.311 176.178 394.339L171.549 398.903L166.921 403.466C167.351 403.903 170.1 406.405 174.724 410.597L179.09 405.781ZM171.549 398.903L176.337 394.506L176.025 394.167L171.238 398.564L166.451 402.961L166.762 403.3L171.549 398.903ZM171.238 398.564L175.062 393.308L174.981 393.249L171.157 398.505L167.333 403.761L167.414 403.82L171.238 398.564Z" fill="#231F20"/>
<path d="M171.12 405.005C174.709 405.026 177.636 402.133 177.657 398.543C177.678 394.953 174.785 392.026 171.195 392.005L171.157 398.505L171.12 405.005ZM171.057 398.505L170.728 404.996L170.873 405.004L171.02 405.005L171.057 398.505ZM122.738 398.316L121.841 404.754V404.754L122.738 398.316ZM103.415 396.912L103.377 403.412L103.415 396.912ZM85.1728 393.552L87.5053 387.485L85.1728 393.552ZM70.4555 382.897L75.4493 378.737L70.4555 382.897ZM19.3693 290.245L13.5913 293.222L19.3693 290.245ZM11.688 272.567L5.56888 274.759L11.688 272.567ZM31.9834 207.953L38.2565 206.251L38.1492 205.856L37.993 205.477L31.9834 207.953ZM31.7509 207.389L26.4171 203.674L24.3893 206.586L25.7412 209.866L31.7509 207.389ZM37.1417 211.022C39.1935 208.076 38.4688 204.025 35.523 201.973C32.5773 199.922 28.526 200.646 26.4743 203.592L31.808 207.307L37.1417 211.022ZM171.157 398.505L171.195 392.005L171.095 392.005L171.057 398.505L171.02 405.005L171.12 405.005L171.157 398.505ZM171.057 398.505L171.387 392.013C158.469 391.357 148.394 391.363 141.394 392.135L142.107 398.596L142.819 405.057C148.746 404.403 157.972 404.349 170.728 404.996L171.057 398.505ZM142.107 398.596L141.394 392.135C135.467 392.788 129.551 392.703 123.635 391.879L122.738 398.316L121.841 404.754C128.823 405.727 135.819 405.828 142.819 405.057L142.107 398.596ZM122.738 398.316L123.635 391.879C116.905 390.941 110.177 390.451 103.453 390.412L103.415 396.912L103.377 403.412C109.519 403.448 115.673 403.895 121.841 404.754L122.738 398.316ZM103.415 396.912L103.453 390.412C97.7658 390.379 92.4659 389.392 87.5053 387.485L85.1728 393.552L82.8403 399.619C89.3358 402.116 96.1973 403.37 103.377 403.412L103.415 396.912ZM85.1728 393.552L87.5053 387.485C82.8542 385.697 78.852 382.821 75.4493 378.737L70.4555 382.897L65.4617 387.058C70.2259 392.776 76.0353 397.003 82.8403 399.619L85.1728 393.552ZM70.4555 382.897L75.4493 378.737C72.0154 374.615 69.6276 369.876 68.2862 364.431L61.9749 365.987L55.6637 367.542C57.4627 374.843 60.7286 381.377 65.4617 387.058L70.4555 382.897ZM61.9749 365.987L68.2862 364.431C66.8048 358.419 65.8315 352.263 65.3688 345.959L58.8862 346.435L52.4037 346.911C52.9188 353.93 54.0046 360.808 55.6637 367.542L61.9749 365.987ZM58.8862 346.435L65.3688 345.959C64.8626 339.063 64.0111 332.728 62.7943 326.975L56.435 328.32L50.0757 329.665C51.1494 334.742 51.932 340.484 52.4037 346.911L58.8862 346.435ZM56.435 328.32L62.7943 326.975C61.1743 319.315 56.2481 313.698 49.0798 310.125L46.1801 315.943L43.2805 321.76C47.4949 323.861 49.4052 326.495 50.0757 329.665L56.435 328.32ZM46.1801 315.943L49.0798 310.125C43.9386 307.563 39.2981 304.354 35.14 300.494L30.7173 305.257L26.2946 310.02C31.3708 314.734 37.039 318.649 43.2805 321.76L46.1801 315.943ZM30.7173 305.257L35.14 300.494C31.0865 296.73 27.758 292.334 25.1472 287.267L19.3693 290.245L13.5913 293.222C16.8768 299.598 21.1137 305.21 26.2946 310.02L30.7173 305.257ZM19.3693 290.245L25.1472 287.267C22.33 281.8 19.8836 276.17 17.8072 270.374L11.688 272.567L5.56888 274.759C7.8378 281.092 10.5122 287.247 13.5913 293.222L19.3693 290.245ZM11.688 272.567L17.8072 270.374C15.7571 264.652 14.2642 258.979 13.3165 253.352L6.90677 254.431L0.497033 255.51C1.57901 261.935 3.27363 268.352 5.56888 274.759L11.688 272.567ZM6.90677 254.431L13.3165 253.352C12.5346 248.709 13.195 244.327 15.3662 240.009L9.55887 237.089L3.75154 234.169C0.356906 240.921 -0.750779 248.101 0.497033 255.51L6.90677 254.431ZM9.55887 237.089L15.3662 240.009C18.0729 234.626 21.0313 229.266 24.2429 223.932L18.6741 220.579L13.1054 217.227C9.72909 222.835 6.6107 228.483 3.75154 234.169L9.55887 237.089ZM18.6741 220.579L24.2429 223.932C27.4419 218.618 29.636 216.819 30.5124 216.432L27.8869 210.486L25.2615 204.54C20.442 206.668 16.4942 211.598 13.1054 217.227L18.6741 220.579ZM27.8869 210.486L30.5124 216.432C32.0064 215.772 33.3909 215.102 34.4649 214.439C34.9586 214.133 35.7318 213.622 36.4373 212.902C36.7895 212.542 37.3739 211.882 37.8294 210.923C38.3078 209.915 38.7934 208.229 38.2565 206.251L31.9834 207.953L25.7103 209.656C25.2026 207.785 25.6712 206.22 26.0862 205.346C26.4782 204.521 26.9529 204.007 27.149 203.806C27.5423 203.405 27.8182 203.264 27.629 203.381C27.3375 203.561 26.6154 203.942 25.2615 204.54L27.8869 210.486ZM31.9834 207.953L37.993 205.477L37.7605 204.912L31.7509 207.389L25.7412 209.866L25.9738 210.43L31.9834 207.953ZM31.7509 207.389L37.0846 211.104L37.1417 211.022L31.808 207.307L26.4743 203.592L26.4171 203.674L31.7509 207.389Z" fill="#231F20"/>
<path d="M25.3524 208.065C25.7709 211.631 29.0006 214.181 32.5659 213.763C36.1313 213.344 38.6823 210.115 38.2637 206.549L31.808 207.307L25.3524 208.065ZM31.7964 207.208L38.252 206.45L38.1688 205.742L37.934 205.068L31.7964 207.208ZM25.3732 159.396L18.9413 160.335L25.3732 159.396ZM57.578 92.6825L53.6483 87.5048L57.578 92.6825ZM74.3563 82.9408L71.8065 76.9618L74.3563 82.9408ZM90.6933 74.0578L94.376 79.4138L90.6933 74.0578ZM99.9361 59.7021L93.5681 58.3987L99.9361 59.7021ZM106.498 41.666L112.232 44.726L106.498 41.666ZM158.706 28.4819L157.368 34.8427L158.706 28.4819ZM172.109 31.4879L173.73 25.1931L173.716 25.1896L173.702 25.186L172.109 31.4879ZM176.407 32.5943L174.786 38.889L175.422 39.0529L176.079 39.086L176.407 32.5943ZM176.179 39.0911C179.764 39.2721 182.817 36.5125 182.998 32.9272C183.179 29.3419 180.42 26.2887 176.834 26.1076L176.506 32.5994L176.179 39.0911ZM31.808 207.307L38.2637 206.549L38.252 206.45L31.7964 207.208L25.3407 207.966L25.3524 208.065L31.808 207.307ZM31.7964 207.208L37.934 205.068C33.6974 192.917 32.1761 184.54 32.5538 179.393L26.0712 178.918L19.5886 178.442C19.0068 186.37 21.3023 196.853 25.6587 209.348L31.7964 207.208ZM26.0712 178.918L32.5538 179.393C33.0681 172.385 32.8186 165.404 31.8051 158.458L25.3732 159.396L18.9413 160.335C19.818 166.343 20.0338 172.376 19.5886 178.442L26.0712 178.918ZM25.3732 159.396L31.8051 158.458C30.983 152.823 31.2621 147.241 32.6511 141.665L26.3439 140.094L20.0366 138.522C18.2414 145.729 17.8734 153.016 18.9413 160.335L25.3732 159.396ZM26.3439 140.094L32.6511 141.665C34.1241 135.752 36.2301 130.137 38.9684 124.808L33.1872 121.837L27.4059 118.866C24.2041 125.097 21.748 131.652 20.0366 138.522L26.3439 140.094ZM33.1872 121.837L38.9684 124.808C41.726 119.442 44.9749 114.524 48.7134 110.039L43.7208 105.877L38.7283 101.715C34.3619 106.952 30.5884 112.673 27.4059 118.866L33.1872 121.837ZM43.7208 105.877L48.7134 110.039C52.4421 105.567 56.7022 101.507 61.5076 97.8601L57.578 92.6825L53.6483 87.5048C48.0824 91.7292 43.1044 96.4659 38.7283 101.715L43.7208 105.877ZM57.578 92.6825L61.5076 97.8601C66.2671 94.2478 71.3964 91.2695 76.9062 88.9198L74.3563 82.9408L71.8065 76.9618C65.3165 79.7296 59.2601 83.2457 53.6483 87.5048L57.578 92.6825ZM74.3563 82.9408L76.9062 88.9198C83.2649 86.2081 89.0957 83.0446 94.376 79.4138L90.6933 74.0578L87.0105 68.7018C82.5081 71.7976 77.4476 74.5561 71.8065 76.9618L74.3563 82.9408ZM90.6933 74.0578L94.376 79.4138C100.752 75.0295 104.721 68.7379 106.304 61.0056L99.9361 59.7021L93.5681 58.3987C92.6098 63.0807 90.4168 66.3596 87.0105 68.7018L90.6933 74.0578ZM99.9361 59.7021L106.304 61.0056C107.444 55.4358 109.411 50.0134 112.232 44.726L106.498 41.666L100.763 38.606C97.3766 44.9524 94.9692 51.554 93.5681 58.3987L99.9361 59.7021ZM106.498 41.666L112.232 44.726C114.443 40.5837 117.616 38.1858 122.162 37.1961L120.779 30.8449L119.396 24.4937C111.107 26.2984 104.76 31.1146 100.763 38.606L106.498 41.666ZM120.779 30.8449L122.162 37.1961C128.364 35.8456 134.568 34.8232 140.776 34.1279L140.053 27.6683L139.329 21.2087C132.672 21.9544 126.027 23.0498 119.396 24.4937L120.779 30.8449ZM140.053 27.6683L140.776 34.1279C146.559 33.4801 152.079 33.7299 157.368 34.8427L158.706 28.4819L160.045 22.1211C153.327 20.7079 146.411 20.4153 139.329 21.2087L140.053 27.6683ZM158.706 28.4819L157.368 34.8427C163.354 36.1019 167.717 37.0821 170.516 37.7897L172.109 31.4879L173.702 25.186C170.638 24.4116 166.065 23.3878 160.045 22.1211L158.706 28.4819ZM172.109 31.4879L170.488 37.7826L174.786 38.889L176.407 32.5943L178.027 26.2996L173.73 25.1931L172.109 31.4879ZM176.407 32.5943L176.079 39.086L176.179 39.0911L176.506 32.5994L176.834 26.1076L176.734 26.1026L176.407 32.5943Z" fill="#231F20"/>
<path d="M359.951 357.895C356.871 356.051 352.88 357.053 351.036 360.133C349.192 363.213 350.194 367.204 353.274 369.048L356.613 363.472L359.951 357.895ZM356.698 363.523L353.359 369.1L353.482 369.173L353.607 369.241L356.698 363.523ZM414.146 386.052L410.008 381.039L414.146 386.052ZM436.958 361.857L433.189 356.562L433.181 356.568L436.958 361.857ZM440.3 359.478L444.07 364.774L444.249 364.646L444.42 364.506L440.3 359.478ZM444.497 364.443C447.274 362.168 447.681 358.072 445.406 355.295C443.131 352.519 439.035 352.112 436.258 354.387L440.378 359.415L444.497 364.443ZM356.613 363.472L353.274 369.048L353.359 369.1L356.698 363.523L360.037 357.946L359.951 357.895L356.613 363.472ZM356.698 363.523L353.607 369.241C364.892 375.341 373.529 379.868 379.472 382.79L382.341 376.958L385.209 371.125C379.497 368.316 371.039 363.886 359.789 357.805L356.698 363.523ZM382.341 376.958L379.472 382.79C384.999 385.508 390.211 388.599 395.111 392.06L398.861 386.751L402.612 381.442C397.139 377.577 391.337 374.138 385.209 371.125L382.341 376.958ZM398.861 386.751L395.111 392.06C398.589 394.517 402.555 396.015 406.869 395.818C411.166 395.621 414.994 393.78 418.284 391.065L414.146 386.052L410.008 381.039C408.294 382.454 407.073 382.795 406.275 382.831C405.495 382.867 404.32 382.649 402.612 381.442L398.861 386.751ZM414.146 386.052L418.284 391.065C423.671 386.618 428.498 381.602 432.76 376.025L427.595 372.078L422.43 368.132C418.766 372.927 414.627 377.226 410.008 381.039L414.146 386.052ZM427.595 372.078L432.76 376.025C436.712 370.853 439.325 368.154 440.736 367.146L436.958 361.857L433.181 356.568C430.033 358.816 426.404 362.932 422.43 368.132L427.595 372.078ZM436.958 361.857L440.728 367.153L444.07 364.774L440.3 359.478L436.531 354.183L433.189 356.562L436.958 361.857ZM440.3 359.478L444.42 364.506L444.497 364.443L440.378 359.415L436.258 354.387L436.181 354.45L440.3 359.478Z" fill="#231F20"/>
<path d="M231.564 412.522C229.168 409.848 225.059 409.623 222.385 412.018C219.711 414.414 219.486 418.523 221.881 421.197L226.722 416.859L231.564 412.522ZM226.789 416.934L231.75 412.734L231.691 412.664L231.63 412.596L226.789 416.934ZM314.433 441.077L320.019 437.755L319.818 437.417L319.579 437.107L314.433 441.077ZM313.926 440.42L310.969 434.632L303.997 438.193L308.779 444.391L313.926 440.42ZM316.972 446.163C320.169 444.53 321.436 440.615 319.803 437.418C318.17 434.221 314.255 432.953 311.058 434.586L314.015 440.375L316.972 446.163ZM226.722 416.859L221.881 421.197L221.948 421.271L226.789 416.934L231.63 412.596L231.564 412.522L226.722 416.859ZM226.789 416.934L221.828 421.134C230.138 430.948 236.419 438.312 240.662 443.214L245.576 438.96L250.491 434.705C246.296 429.86 240.053 422.54 231.75 412.734L226.789 416.934ZM245.576 438.96L240.662 443.214C244.771 447.961 248.706 452.875 252.466 457.957L257.691 454.091L262.916 450.225C258.961 444.879 254.819 439.705 250.491 434.705L245.576 438.96ZM257.691 454.091L252.466 457.957C254.945 461.308 258.022 463.976 261.777 465.558C265.553 467.15 269.584 467.461 273.655 466.764L272.558 460.357L271.46 453.95C269.478 454.29 268.005 454.076 266.826 453.579C265.624 453.072 264.295 452.088 262.916 450.225L257.691 454.091ZM272.558 460.357L273.655 466.764C280.466 465.597 287.007 463.256 293.258 459.786L290.103 454.103L286.949 448.42C281.912 451.215 276.756 453.043 271.46 453.95L272.558 460.357ZM290.103 454.103L293.258 459.786C298.781 456.72 304.184 453.952 309.466 451.479L306.71 445.592L303.953 439.705C298.381 442.315 292.713 445.22 286.949 448.42L290.103 454.103ZM306.71 445.592L309.466 451.479C312.218 450.19 314.438 449.077 315.991 448.169C316.715 447.746 317.595 447.195 318.343 446.552C318.669 446.272 319.393 445.624 319.983 444.636C320.525 443.728 321.865 440.858 320.019 437.755L314.433 441.077L308.846 444.4C307.07 441.414 308.39 438.693 308.823 437.968C309.305 437.161 309.831 436.727 309.87 436.694C310.044 436.544 309.994 436.616 309.43 436.946C308.409 437.543 306.628 438.453 303.953 439.705L306.71 445.592ZM314.433 441.077L319.579 437.107L319.072 436.45L313.926 440.42L308.779 444.391L309.286 445.048L314.433 441.077ZM313.926 440.42L316.883 446.209L316.972 446.163L314.015 440.375L311.058 434.586L310.969 434.632L313.926 440.42Z" fill="#231F20"/>
</svg>
