<svg width="247" height="240" viewBox="0 0 247 240" fill="none" xmlns="http://www.w3.org/2000/svg">
<path d="M31.7771 131.209C38.2523 125.977 46.6253 123.103 55.3656 123.841C57.468 124.018 58.9592 125.871 58.6869 127.967C58.4147 130.064 56.4798 131.627 54.3775 131.45C41.121 130.33 28.9402 140.173 27.2236 153.392C26.9513 155.489 25.0165 157.052 22.9141 156.875C20.8118 156.697 19.3206 154.844 19.5928 152.748C20.7137 144.041 25.3019 136.442 31.7771 131.209Z" fill="#231F20" stroke="#231F20" stroke-width="0.766008" stroke-miterlimit="10"/>
<path d="M202.968 128.737C194.68 129.446 186.135 127.137 179.301 121.627C177.657 120.302 177.455 117.93 178.851 116.345C180.247 114.759 182.723 114.547 184.367 115.873C194.732 124.23 210.323 122.896 219.124 112.899C220.52 111.314 222.997 111.102 224.64 112.428C226.284 113.753 226.486 116.125 225.09 117.71C219.302 124.3 211.257 128.028 202.968 128.737Z" fill="#231F20" stroke="#231F20" stroke-width="0.766008" stroke-miterlimit="10"/>
<path d="M96.9667 178.106C97.0305 182.288 94.8363 189.841 92.7155 196.127C90.5512 202.542 84.4274 206.648 77.6572 206.648H66.0317" stroke="black" stroke-width="8.47029" stroke-linecap="round"/>
<path d="M135.269 178.106C135.205 182.288 137.399 189.841 139.52 196.127C141.684 202.542 147.808 206.648 154.578 206.648H166.204" stroke="black" stroke-width="8.47029" stroke-linecap="round"/>
<path fill-rule="evenodd" clip-rule="evenodd" d="M117.459 188.202C108.805 188.202 100.975 184.32 95.7677 177.497C93.2193 178.257 90.6082 178.641 87.9824 178.641C80.698 178.641 73.5645 175.611 68.4124 170.327C63.5659 165.36 60.8481 158.876 60.6713 151.946C52.5877 149.09 46.4817 142.827 43.808 134.58C41.1344 126.332 42.3976 117.671 47.2625 110.601C42.3976 103.53 41.1307 94.8695 43.808 86.6219C46.4817 78.3743 52.5877 72.112 60.6713 69.2558C60.8481 62.3256 63.5659 55.8419 68.4124 50.8748C73.5645 45.5905 80.698 42.5608 87.9824 42.5608C90.6045 42.5608 93.2193 42.9446 95.7677 43.7048C100.975 36.8853 108.808 32.9995 117.459 32.9995C126.11 32.9995 133.943 36.8816 139.15 43.7048C141.699 42.9446 144.31 42.5608 146.936 42.5608C154.22 42.5608 161.354 45.5905 166.506 50.8748C171.348 55.8419 174.07 62.3256 174.247 69.2558C182.33 72.112 188.436 78.3743 191.11 86.6219C193.784 94.8695 192.517 103.53 187.656 110.601C192.521 117.671 193.787 126.332 191.11 134.58C188.436 142.827 182.33 149.09 174.247 151.946C174.07 158.876 171.352 165.356 166.506 170.323C161.354 175.608 154.22 178.637 146.932 178.637C144.31 178.637 141.695 178.253 139.147 177.493C133.939 184.313 126.106 188.198 117.455 188.198L117.459 188.202Z" fill="#FF8C2E"/>
<path d="M98.0015 124.687C106.011 124.687 112.504 118.181 112.504 110.155C112.504 102.13 106.011 95.6235 98.0015 95.6235C89.992 95.6235 83.499 102.13 83.499 110.155C83.499 118.181 89.992 124.687 98.0015 124.687Z" fill="white"/>
<path d="M136.65 125.173C144.659 125.173 151.152 118.667 151.152 110.641C151.152 102.616 144.659 96.1094 136.65 96.1094C128.64 96.1094 122.147 102.616 122.147 110.641C122.147 118.667 128.64 125.173 136.65 125.173Z" fill="white"/>
<path d="M107.002 113.059C108.692 113.059 110.062 111.689 110.062 109.999C110.062 108.309 108.692 106.939 107.002 106.939C105.312 106.939 103.941 108.309 103.941 109.999C103.941 111.689 105.312 113.059 107.002 113.059Z" fill="#231F20"/>
<path d="M142.006 113.453C143.696 113.453 145.066 112.08 145.066 110.387C145.066 108.693 143.696 107.32 142.006 107.32C140.316 107.32 138.946 108.693 138.946 110.387C138.946 112.08 140.316 113.453 142.006 113.453Z" fill="#231F20"/>
<path d="M109.13 141.003C107.094 140.252 105.344 138.725 104.364 136.598C104.128 136.086 104.352 135.476 104.863 135.24C105.374 135.004 105.982 135.228 106.218 135.74C107.704 138.967 111.533 140.38 114.753 138.891C115.264 138.654 115.872 138.879 116.108 139.391C116.344 139.902 116.12 140.512 115.609 140.748C113.489 141.731 111.165 141.755 109.13 141.003Z" fill="#231F20" stroke="#231F20" stroke-width="0.766008" stroke-miterlimit="10"/>
<path d="M90.8826 77.7461C94.1185 77.0249 97.6365 77.5753 100.669 79.5743C101.398 80.0552 101.62 81.0542 101.163 81.7995C100.706 82.5448 99.7387 82.7603 99.0093 82.2795C94.41 79.2476 88.3229 80.6042 85.4397 85.3037C84.9825 86.049 84.0156 86.2645 83.2862 85.7837C82.5568 85.3028 82.335 84.3038 82.7923 83.5585C84.6877 80.4612 87.6468 78.4672 90.8826 77.7461Z" fill="#231F20" stroke="#231F20" stroke-width="0.766008" stroke-miterlimit="10"/>
<path d="M136.225 96.5107C133.045 97.9189 129.346 98.1499 125.881 96.8638C125.048 96.5545 124.64 95.6296 124.973 94.8038C125.305 93.978 126.256 93.5572 127.089 93.8666C132.344 95.8172 138.325 93.1682 140.423 87.9613C140.756 87.1356 141.706 86.7148 142.539 87.0241C143.373 87.3335 143.781 88.2584 143.448 89.0841C142.07 92.5148 139.404 95.1025 136.225 96.5107Z" fill="#231F20" stroke="#231F20" stroke-width="0.766008" stroke-miterlimit="10"/>
<path d="M73.1015 135.246C75.2741 134.845 77.3596 136.283 77.7597 138.455L80.8154 155.05C81.2059 155.017 81.601 155 81.9999 155H153C160.732 155 167 161.269 167 169V169.803C166.838 169.978 166.673 170.152 166.506 170.324C161.354 175.608 154.221 178.638 146.933 178.638C144.31 178.638 141.695 178.254 139.146 177.494C134.62 183.421 128.11 187.131 120.803 188H114.08C106.784 187.125 100.288 183.42 95.7675 177.497C93.2192 178.258 90.608 178.641 87.9824 178.641C80.6981 178.641 73.5651 175.612 68.413 170.328C68.2733 170.184 68.1361 170.039 67.9999 169.893V169C68 165.445 69.3252 162.199 71.5087 159.73L67.9247 140.266C67.5247 138.093 68.9621 136.008 71.1347 135.608L73.1015 135.246Z" fill="#EBE0CC"/>
<rect width="10" height="30" rx="4" transform="matrix(-0.983466 -0.181093 -0.181093 0.983466 167.268 136.811)" fill="#EBE0CC"/>
<circle cx="94" cy="167" r="5" fill="#218C8C" fill-opacity="0.85"/>
<circle cx="117" cy="176" r="4" fill="#C672C1"/>
<circle cx="140.5" cy="168.5" r="3.5" fill="#218C8C" fill-opacity="0.85"/>
<path d="M219.19 119.826C217.315 119.141 216.349 117.066 217.034 115.19L229.431 81.2349L236.222 83.7142L223.825 117.67C223.141 119.545 221.065 120.51 219.19 119.826Z" fill="#4D2101"/>
<path d="M225.281 92.6006L229.431 81.2336L236.222 83.7129L232.072 95.0799L225.281 92.6006Z" fill="#777777"/>
<path d="M241.549 53.8521C241.934 53.2487 242.882 53.4192 243.005 54.1245L246.297 72.898C247.717 80.9983 239.835 87.5984 232.11 84.7781C223.879 81.7729 223.082 71.4551 230.106 66.2144C234.221 63.1431 237.974 59.4466 241.549 53.8521Z" fill="#C7A582"/>
<path d="M227.953 68.255C228.563 67.5187 229.281 66.8316 230.106 66.2155C234.222 63.1444 237.974 59.4477 241.548 53.8537C241.934 53.2503 242.882 53.4205 243.005 54.1257L246.297 72.8998C246.329 73.0843 246.355 73.2682 246.377 73.4511C244.115 71.7657 241.018 70.0063 240.354 72.3955C240.72 74.493 232.825 74.4036 235.827 70.7427C238.829 67.0816 231.766 66.0534 231.865 69.2963C231.941 71.7968 229.208 69.4565 227.953 68.255Z" fill="#3F9996"/>
<path d="M245.03 65.6719C244.464 65.5675 244.124 65.3213 244.614 64.7743C244.709 64.6682 244.772 64.5563 244.814 64.4434L245.03 65.6719ZM241.549 53.852C241.934 53.2489 242.881 53.4196 243.005 54.1247L244.646 63.487C244.051 62.6193 242.469 62.1975 242.445 63.9826C242.41 66.5749 239.072 63.8264 239.966 63.0774C240.741 61.3816 236.835 61.3436 235.65 61.37C237.684 59.2738 239.643 56.8338 241.549 53.852Z" fill="#C672C1"/>
<path d="M85.8311 64.678C85.3634 64.7382 83.0687 64.4776 80.3288 62.6944C77.2584 60.6962 77.7722 50.9916 78.7822 45.3233C79.5314 41.1187 86.0389 39.5975 90.7883 38.1361C95.7369 36.6135 101.934 38.7064 108.44 41.67C114.655 44.5012 118.117 49.6826 120.181 53.2353C121.694 55.8408 121.011 58.4644 120.192 60.1723C119.191 62.2563 115.619 62.2579 112.051 62.5217C109.969 62.6757 107.728 61.8279 105.428 60.4334C102.688 58.7722 100.942 55.4022 99.3631 52.1923C97.8101 49.0358 97.4988 45.1554 97.1085 40.6439C96.6289 35.0999 97.2137 31.1004 97.9175 29.4534C99.3015 26.2148 103.593 24.8377 108.055 23.1802C113.495 21.1596 119.768 22.0757 123.398 23.3862C127.908 25.0146 131.164 30.5834 134.923 37.4221C138.25 43.4763 139.158 50.4934 139.801 54.972C140.174 57.5739 139.987 59.0061 139.761 60.0625C139.344 62.0035 136.46 62.691 133.602 63.2259C132.076 63.5115 130.559 63.2553 129.231 62.8652C127.918 62.4799 127.096 61.1028 126.467 59.5769C124.851 55.6581 126.146 50.0726 127.953 45.2487C129.65 40.7139 134.682 39.3201 139.107 38.1454C143.535 36.9698 147.32 37.9972 148.882 38.5704C151.956 39.6982 153.602 42.8846 155.043 45.765C156.709 49.095 156.448 53.1862 156.287 55.3254C156.066 58.2775 151.301 61.1374 148.787 62.8082C147.474 63.5088 145.682 64.217 143.787 64.8198C143.012 65.049 142.615 65.1222 141.398 65.2356" stroke="#231F20" stroke-width="2" stroke-linecap="round"/>
</svg>
