<svg width="240" height="240" viewBox="0 0 240 240" fill="none" xmlns="http://www.w3.org/2000/svg">
<path d="M64.0186 112.736C64.0186 112.736 39.0526 119.767 36.893 132.754C34.8466 145.06 53.7483 159.891 53.7483 159.891" stroke="black" stroke-width="8" stroke-linecap="round"/>
<path d="M180.267 124.087C180.267 124.087 222.629 140.053 219.976 124.772C217.531 110.688 202.031 101.688 202.031 101.688" stroke="#231F20" stroke-width="8" stroke-linecap="round"/>
<path d="M103.336 174C103.336 174 108.945 205 99.6294 205C92.6294 205 86.6294 205 86.6294 205" stroke="black" stroke-width="8" stroke-linecap="round"/>
<path d="M136.63 174C136.63 174 131.022 205 140.337 205C147.337 205 153.337 205 153.337 205" stroke="black" stroke-width="8" stroke-linecap="round"/>
<path fill-rule="evenodd" clip-rule="evenodd" d="M117.459 188.202C108.805 188.202 100.975 184.32 95.7677 177.497C93.2193 178.257 90.6082 178.641 87.9824 178.641C80.698 178.641 73.5645 175.611 68.4124 170.327C63.5659 165.36 60.8481 158.876 60.6713 151.946C52.5877 149.09 46.4817 142.827 43.808 134.58C41.1344 126.332 42.3976 117.671 47.2625 110.601C42.3976 103.53 41.1307 94.8695 43.808 86.6219C46.4817 78.3743 52.5877 72.112 60.6713 69.2558C60.8481 62.3256 63.5659 55.8419 68.4124 50.8748C73.5645 45.5905 80.698 42.5608 87.9824 42.5608C90.6045 42.5608 93.2193 42.9446 95.7677 43.7048C100.975 36.8853 108.808 32.9995 117.459 32.9995C126.11 32.9995 133.943 36.8816 139.15 43.7048C141.699 42.9446 144.31 42.5608 146.936 42.5608C154.22 42.5608 161.354 45.5905 166.506 50.8748C171.348 55.8419 174.07 62.3256 174.247 69.2558C182.33 72.112 188.436 78.3743 191.11 86.6219C193.784 94.8695 192.517 103.53 187.656 110.601C192.521 117.671 193.787 126.332 191.11 134.58C188.436 142.827 182.33 149.09 174.247 151.946C174.07 158.876 171.352 165.356 166.506 170.323C161.354 175.608 154.22 178.637 146.932 178.637C144.31 178.637 141.695 178.253 139.147 177.493C133.939 184.313 126.106 188.198 117.455 188.198L117.459 188.202Z" fill="#CCBDA8"/>
<path d="M98.0015 124.687C106.011 124.687 112.504 118.181 112.504 110.155C112.504 102.13 106.011 95.6235 98.0015 95.6235C89.992 95.6235 83.499 102.13 83.499 110.155C83.499 118.181 89.992 124.687 98.0015 124.687Z" fill="white"/>
<path d="M136.65 125.173C144.659 125.173 151.152 118.667 151.152 110.641C151.152 102.616 144.659 96.1094 136.65 96.1094C128.64 96.1094 122.147 102.616 122.147 110.641C122.147 118.667 128.64 125.173 136.65 125.173Z" fill="white"/>
<path d="M103.06 113.121C104.75 113.121 106.12 111.751 106.12 110.061C106.12 108.371 104.75 107 103.06 107C101.37 107 100 108.371 100 110.061C100 111.751 101.37 113.121 103.06 113.121Z" fill="#231F20"/>
<path d="M139.06 113.133C140.75 113.133 142.12 111.76 142.12 110.067C142.12 108.373 140.75 107 139.06 107C137.37 107 136 108.373 136 110.067C136 111.76 137.37 113.133 139.06 113.133Z" fill="#231F20"/>
<path d="M125.519 142.928C125.561 143.394 124.996 143.657 124.666 143.325L121.649 140.288C121.405 140.042 121.479 139.628 121.793 139.482L124.428 138.255C124.742 138.109 125.106 138.319 125.137 138.664L125.519 142.928Z" fill="white"/>
<path d="M118.267 140.758C116.106 140.57 114.015 139.558 112.509 137.765C112.147 137.333 112.202 136.686 112.633 136.324C113.063 135.961 113.709 136.017 114.071 136.449C116.356 139.17 120.422 139.524 123.135 137.238C123.566 136.876 124.212 136.932 124.574 137.364C124.936 137.795 124.881 138.442 124.45 138.804C122.665 140.312 120.429 140.947 118.267 140.758Z" fill="#231F20" stroke="#231F20" stroke-width="0.766008" stroke-miterlimit="10"/>
<line x1="81.5749" y1="84.8301" x2="93.8296" y2="89.4256" stroke="#231F20" stroke-width="4" stroke-linecap="round"/>
<line x1="2" y1="-2" x2="15.088" y2="-2" transform="matrix(-0.936329 0.351123 0.351123 0.936329 154 86.0005)" stroke="#231F20" stroke-width="4" stroke-linecap="round"/>
<path d="M188 62.0519C188 72.0361 155.988 79 116.5 79C77.0116 79 45 72.0361 45 62.0519C45 52.0678 77.0116 50 116.5 50C155.988 50 188 52.0678 188 62.0519Z" fill="#BF9818"/>
<path d="M180 57C180 70.2548 151.794 74 117 74C82.2061 74 54 70.2548 54 57C54 43.7452 82.2061 33 117 33C151.794 33 180 43.7452 180 57Z" fill="#EBB607"/>
<path d="M108.64 31.602C108.844 29.5572 110.565 28 112.62 28H120.38C122.435 28 124.156 29.5572 124.36 31.602L127.56 63.602C127.796 65.9567 125.947 68 123.58 68H109.42C107.053 68 105.204 65.9567 105.44 63.602L108.64 31.602Z" fill="#BF9818"/>
<path d="M130 35C130 32.7909 131.791 31 134 31H138C140.209 31 142 32.7909 142 35V64C142 66.2091 140.209 68 138 68H134C131.791 68 130 66.2091 130 64V35Z" fill="#BF9818"/>
<path d="M91 35C91 32.7909 92.7909 31 95 31H99C101.209 31 103 32.7909 103 35V64C103 66.2091 101.209 68 99 68H95C92.7909 68 91 66.2091 91 64V35Z" fill="#BF9818"/>
<rect x="224.978" y="44.9214" width="3" height="22" transform="rotate(7.99655 224.978 44.9214)" fill="#262629"/>
<rect x="201.121" y="63.7861" width="30" height="44" rx="5" transform="rotate(7.99655 201.121 63.7861)" fill="#404045"/>
<circle cx="214.167" cy="78.7461" r="3" transform="rotate(7.99655 214.167 78.7461)" fill="#737378"/>
<rect x="204.437" y="90.5068" width="16" height="6" rx="1" transform="rotate(7.99655 204.437 90.5068)" fill="#D93333"/>
<path d="M122.5 126C123.881 126 125 127.119 125 128.5C125 129.881 123.881 131 122.5 131C121.936 131 121.418 130.811 121 130.496C120.582 130.811 120.064 131 119.5 131C118.936 131 118.418 130.811 118 130.496C117.582 130.811 117.064 131 116.5 131C115.936 131 115.418 130.811 115 130.496C114.582 130.811 114.064 131 113.5 131C112.119 131 111 129.881 111 128.5C111 127.119 112.119 126 113.5 126C114.063 126 114.582 126.188 115 126.503C115.418 126.188 115.937 126 116.5 126C117.063 126 117.582 126.188 118 126.503C118.418 126.188 118.937 126 119.5 126C120.063 126 120.582 126.188 121 126.503C121.418 126.188 121.937 126 122.5 126Z" fill="#231F20"/>
</svg>
