<svg width="208" height="201" viewBox="0 0 208 201" fill="none" xmlns="http://www.w3.org/2000/svg">
<path d="M99.235 2.81021C101.06 -0.936687 106.4 -0.9367 108.225 2.81019L136.372 60.5859C137.095 62.0705 138.505 63.1022 140.139 63.3427L203.183 72.6231C207.264 73.2238 208.903 78.2292 205.968 81.1275L160.267 126.256C159.106 127.402 158.578 129.041 158.85 130.649L169.627 194.305C170.32 198.398 166.011 201.504 162.347 199.552L106.08 169.585C104.611 168.803 102.849 168.803 101.38 169.585L45.113 199.552C41.4487 201.504 37.1397 198.398 37.8327 194.305L48.61 130.649C48.8822 129.041 48.3535 127.402 47.1934 126.256L1.4922 81.1275C-1.44289 78.2292 0.196254 73.2238 4.27722 72.6231L67.3214 63.3427C68.9552 63.1022 70.3649 62.0705 71.0882 60.5859L99.235 2.81021Z" fill="#FFD108"/>
</svg>
