<svg width="81" height="78" viewBox="0 0 81 78" fill="none" xmlns="http://www.w3.org/2000/svg">
<path fill-rule="evenodd" clip-rule="evenodd" d="M56.3006 73.4851C52.1312 75.5733 47.5658 75.7371 43.6626 73.9614C42.5902 74.9141 41.4108 75.7147 40.1458 76.3482C36.6364 78.1058 32.5806 78.4805 29.0184 77.3753C25.6685 76.3373 23.034 74.1118 21.5325 71.0747C17.0543 71.7558 12.8328 70.4461 9.85916 67.426C6.88547 64.406 5.72395 60.2523 6.62265 55.9365C2.8339 53.9682 0.453484 50.425 0.0577191 46.1139C-0.339819 41.8036 1.32196 37.5475 4.6326 34.3278C3.3014 31.2054 3.28564 27.6683 4.60536 24.2917C6.00747 20.7002 8.82493 17.6328 12.3343 15.8752C13.5975 15.2425 14.9357 14.7822 16.3188 14.5051C17.4338 10.2182 20.4133 6.60139 24.5809 4.51417C28.7485 2.42694 33.3157 2.26215 37.2189 4.03791C38.2913 3.08521 39.4708 2.28467 40.7358 1.65113C44.2452 -0.106441 48.301 -0.481238 51.8631 0.624007C55.2113 1.66286 57.8476 3.88753 59.3491 6.92462C63.8272 6.24351 68.0487 7.55318 71.0224 10.5733C73.9961 13.5934 75.1558 17.7479 74.2589 22.0628C78.0476 24.0311 80.4281 27.5743 80.8238 31.8854C81.2214 36.1957 79.5596 40.4518 76.2489 43.6715C77.5801 46.7939 77.5951 50.3293 76.2754 53.706C74.8733 57.2974 72.0559 60.3649 68.5447 62.1234C67.2815 62.756 65.9433 63.2164 64.5602 63.4934C63.4452 67.7804 60.4657 71.3972 56.2981 73.4844L56.3006 73.4851Z" fill="#FF4343"/>
<path d="M34.9236 49.937C38.6359 48.1555 40.2006 43.7015 38.4185 39.9885C36.6364 36.2756 32.1824 34.7098 28.4701 36.4913C24.7578 38.2728 23.1931 42.7268 24.9751 46.4397C26.7572 50.1527 31.2113 51.7184 34.9236 49.937Z" fill="white"/>
<path d="M52.5698 41.4689C56.2821 39.6875 57.8468 35.2334 56.0647 31.5205C54.2827 27.8075 49.8286 26.2418 46.1163 28.0232C42.404 29.8047 40.8393 34.2588 42.6213 37.9717C44.4034 41.6846 48.8575 43.2504 52.5698 41.4689Z" fill="white"/>
<path d="M33.0633 44.0934C33.8719 43.6914 34.2429 42.7515 33.8921 41.9941C33.5412 41.2367 32.6013 40.9486 31.7928 41.3507C30.9842 41.7527 30.6132 42.6926 30.964 43.4499C31.3149 44.2073 32.2548 44.4954 33.0633 44.0934Z" fill="#231F20"/>
<path d="M48.9915 36.4496C49.8 36.0476 50.1711 35.1077 49.8202 34.3504C49.4694 33.593 48.5295 33.3049 47.721 33.7069C46.9124 34.109 46.5414 35.0488 46.8922 35.8062C47.2431 36.5636 48.1829 36.8517 48.9915 36.4496Z" fill="#231F20"/>
</svg>
