<svg width="300" height="310" viewBox="0 0 300 310" fill="none" xmlns="http://www.w3.org/2000/svg">
<g clip-path="url(#clip0_369_5636)">
<path fill-rule="evenodd" clip-rule="evenodd" d="M149.801 309.691C132.521 309.691 116.889 301.944 106.492 288.329C101.404 289.846 96.1904 290.612 90.9478 290.612C76.4037 290.612 62.1609 284.567 51.8741 274.022C42.1976 264.111 36.7712 251.174 36.4182 237.345C20.2785 231.646 8.08735 219.15 2.7491 202.693C-2.58913 186.236 -0.067071 168.954 9.64618 154.845C-0.067071 140.737 -2.59649 123.455 2.7491 106.998C8.08735 90.5406 20.2785 78.0449 36.4182 72.3456C36.7712 58.5171 42.1976 45.5795 51.8741 35.6683C62.1609 25.1239 76.4037 19.0786 90.9478 19.0786C96.1831 19.0786 101.404 19.8444 106.492 21.3613C116.889 7.75368 132.529 0 149.801 0C167.073 0 182.713 7.74632 193.11 21.3613C198.198 19.8444 203.411 19.0786 208.654 19.0786C223.198 19.0786 237.44 25.1239 247.727 35.6683C257.396 45.5795 262.83 58.5171 263.183 72.3456C279.323 78.0449 291.514 90.5406 296.852 106.998C302.19 123.455 299.661 140.737 289.955 154.845C299.668 168.954 302.198 186.236 296.852 202.693C291.514 219.15 279.323 231.646 263.183 237.345C262.83 251.174 257.404 264.104 247.727 274.015C237.44 284.559 223.198 290.605 208.646 290.605C203.411 290.605 198.19 289.839 193.102 288.322C182.705 301.93 167.065 309.683 149.793 309.683L149.801 309.691Z" fill="#FF8C2E"/>
<path d="M115.961 149.231C130.718 149.231 142.682 137.244 142.682 122.456C142.682 107.669 130.718 95.6816 115.961 95.6816C101.204 95.6816 89.2407 107.669 89.2407 122.456C89.2407 137.244 101.204 149.231 115.961 149.231Z" fill="white"/>
<path d="M187.17 150.124C201.927 150.124 213.891 138.136 213.891 123.349C213.891 108.562 201.927 96.5742 187.17 96.5742C172.413 96.5742 160.45 108.562 160.45 123.349C160.45 138.136 172.413 150.124 187.17 150.124Z" fill="white"/>
<path d="M132.544 127.804C135.658 127.804 138.182 125.28 138.182 122.166C138.182 119.052 135.658 116.527 132.544 116.527C129.43 116.527 126.905 119.052 126.905 122.166C126.905 125.28 129.43 127.804 132.544 127.804Z" fill="#231F20"/>
<path d="M197.039 128.532C200.153 128.532 202.677 126.003 202.677 122.882C202.677 119.762 200.153 117.232 197.039 117.232C193.925 117.232 191.4 119.762 191.4 122.882C191.4 126.003 193.925 128.532 197.039 128.532Z" fill="#231F20"/>
<path d="M102.844 62.7441C108.806 61.4154 115.288 62.4295 120.875 66.1126C122.219 66.9986 122.628 68.8393 121.786 70.2125C120.943 71.5857 119.162 71.9827 117.818 71.0968C109.343 65.5106 98.1281 68.0101 92.8159 76.6689C91.9734 78.0421 90.1919 78.4391 88.848 77.5532C87.5041 76.6673 87.0955 74.8265 87.938 73.4533C91.4303 67.7466 96.8824 64.0728 102.844 62.7441Z" fill="#231F20" stroke="#231F20" stroke-width="0.851121" stroke-miterlimit="10"/>
<path d="M186.386 97.3166C180.528 99.9111 173.713 100.337 167.329 97.9672C165.794 97.3972 165.042 95.6931 165.655 94.1716C166.268 92.6502 168.019 91.8749 169.554 92.4449C179.236 96.0389 190.257 91.1581 194.122 81.5645C194.735 80.0431 196.486 79.2678 198.021 79.8377C199.557 80.4077 200.308 82.1118 199.695 83.6333C197.157 89.9542 192.245 94.722 186.386 97.3166Z" fill="#231F20" stroke="#231F20" stroke-width="0.851121" stroke-miterlimit="10"/>
</g>
<defs>
<clipPath id="clip0_369_5636">
<rect width="300" height="310" fill="white"/>
</clipPath>
</defs>
</svg>
