<svg width="586" height="584" viewBox="0 0 586 584" fill="none" xmlns="http://www.w3.org/2000/svg">
<g clip-path="url(#clip0_430_2826)">
<path fill-rule="evenodd" clip-rule="evenodd" d="M452.142 155.147C467.473 172.964 473.367 195.946 468.574 218.73C474.65 222.633 480.065 227.329 484.716 232.735C497.621 247.732 504.034 267.774 502.304 287.724C500.684 306.483 492.178 323.541 478.253 336.157C486.705 357.849 484.656 381.491 472.447 401.576C460.238 421.662 440.206 434.374 417.061 436.858C411.153 459.374 395.603 477.294 373.915 486.364C352.233 495.441 328.55 493.941 308.361 482.349C293.809 494.238 275.673 500.105 256.883 498.909C236.898 497.645 218.036 488.315 205.132 473.318C200.487 467.92 196.643 461.858 193.69 455.268C170.454 456.604 148.594 447.347 133.268 429.538C117.943 411.728 112.043 388.739 116.836 365.955C110.76 362.052 105.346 357.355 100.694 351.95C87.7891 336.953 81.3765 316.911 83.1063 296.961C84.7322 278.21 93.2321 261.144 107.157 248.528C98.7053 226.836 100.755 203.194 112.963 183.109C125.172 163.023 145.211 150.319 168.349 147.827C174.257 125.311 189.807 107.391 211.496 98.3214C233.177 89.2444 256.861 90.7435 277.049 102.336C291.601 90.4475 309.729 84.5864 328.52 85.7826C348.504 87.0469 367.366 96.3765 380.277 111.381C384.922 116.779 388.766 122.841 391.719 129.431C414.955 128.095 436.815 137.352 452.141 155.161L452.142 155.147Z" fill="#E86868"/>
<path d="M356.09 305.448C341.901 288.959 317.032 287.095 300.543 301.283C284.053 315.472 282.188 340.342 296.377 356.831C310.566 373.321 335.436 375.186 351.926 360.996C368.415 346.808 370.279 321.938 356.09 305.448Z" fill="white"/>
<path d="M288.648 227.07C274.459 210.582 249.589 208.717 233.1 222.905C216.611 237.095 214.746 261.965 228.935 278.454C243.124 294.943 267.994 296.808 284.483 282.619C300.972 268.43 302.837 243.56 288.648 227.07Z" fill="white"/>
<path d="M276.718 406.6C269.505 401.213 264.403 392.998 263.138 383.221C262.833 380.869 264.494 378.646 266.835 378.27C269.176 377.893 271.332 379.503 271.636 381.854C273.555 396.683 287.125 406.817 301.888 404.444C304.23 404.068 306.386 405.677 306.69 408.029C306.994 410.38 305.334 412.603 302.993 412.98C293.272 414.553 283.933 411.987 276.718 406.6Z" fill="#231F20" stroke="#231F20" stroke-width="2.08" stroke-miterlimit="10"/>
<path d="M176.952 290.66C181.203 298.596 188.566 304.866 198.045 307.574C200.325 308.226 202.771 306.916 203.491 304.657C204.213 302.398 202.943 300.026 200.663 299.375C186.286 295.267 178.289 280.337 182.837 266.092C183.558 263.833 182.288 261.462 180.008 260.81C177.728 260.159 175.283 261.468 174.561 263.727C171.556 273.105 172.701 282.723 176.952 290.66Z" fill="#231F20" stroke="#231F20" stroke-width="2.08" stroke-miterlimit="10"/>
<circle cx="272.564" cy="262.561" r="10.5025" fill="black"/>
<circle cx="314.574" cy="316.574" r="10.5025" fill="black"/>
</g>
<defs>
<clipPath id="clip0_430_2826">
<rect width="408" height="421" fill="white" transform="translate(266.183 584) rotate(-130.712)"/>
</clipPath>
</defs>
</svg>
