<svg width="423" height="423" viewBox="0 0 423 423" fill="none" xmlns="http://www.w3.org/2000/svg">
<path fill-rule="evenodd" clip-rule="evenodd" d="M182.565 305.358C170.535 302.134 161.098 293.822 156.401 282.398C152.575 282.505 148.803 282.066 145.153 281.088C135.027 278.375 126.24 271.507 121.046 262.242C116.16 253.533 114.797 243.508 117.132 233.809C106.959 226.828 100.804 215.849 100.16 203.388C99.5152 190.928 104.497 179.359 113.893 171.343C109.764 159.703 111.229 147.192 118.022 136.725C124.811 126.256 135.631 119.826 147.931 118.866C150.758 109.299 156.951 101.298 165.538 96.1992C174.667 90.7727 185.712 89.2183 195.837 91.9315C199.482 92.9081 202.974 94.4155 206.233 96.4214C216.012 88.8815 228.347 86.3977 240.372 89.6197C252.397 92.8418 261.84 101.156 266.537 112.58C270.362 112.472 274.135 112.911 277.785 113.889C287.91 116.602 296.698 123.471 301.891 132.735C306.773 141.443 308.141 151.469 305.805 161.169C315.978 168.15 322.133 179.129 322.778 191.589C323.422 204.049 318.435 215.617 309.045 223.634C313.174 235.274 311.709 247.785 304.915 258.252C298.127 268.721 287.307 275.152 275.007 276.111C272.18 285.678 265.988 293.674 257.401 298.773C248.271 304.199 237.227 305.754 227.096 303.039C223.452 302.063 219.96 300.555 216.701 298.549C206.922 306.089 194.587 308.573 182.562 305.351L182.565 305.358Z" fill="#80B8EB"/>
<path d="M179.175 209.823C190.308 212.807 201.757 206.181 204.746 195.025C207.735 183.869 201.133 172.407 190 169.424C178.866 166.44 167.417 173.066 164.428 184.222C161.439 195.378 168.041 206.84 179.175 209.823Z" fill="white"/>
<path d="M232.717 224.894C243.85 227.877 255.299 221.252 258.288 210.096C261.277 198.94 254.675 187.478 243.542 184.494C232.408 181.511 220.959 188.137 217.97 199.293C214.981 210.449 221.583 221.911 232.717 224.894Z" fill="white"/>
<path d="M190.515 195.629C192.864 196.258 195.279 194.864 195.909 192.515C196.538 190.166 195.144 187.751 192.795 187.121C190.445 186.492 188.03 187.886 187.401 190.235C186.771 192.585 188.166 194.999 190.515 195.629Z" fill="#231F20"/>
<path d="M230.821 206.447C233.17 207.076 235.586 205.678 236.217 203.324C236.847 200.97 235.454 198.551 233.105 197.922C230.756 197.292 228.34 198.691 227.709 201.045C227.078 203.399 228.471 205.817 230.821 206.447Z" fill="#231F20"/>
<path d="M200.668 240.102C197.564 239.768 194.585 238.251 192.47 235.626C191.962 234.994 192.061 234.065 192.69 233.556C193.32 233.047 194.248 233.147 194.756 233.778C197.964 237.76 203.803 238.389 207.775 235.18C208.405 234.671 209.332 234.771 209.841 235.402C210.349 236.033 210.251 236.963 209.621 237.472C207.008 239.588 203.772 240.436 200.668 240.102Z" fill="#231F20" stroke="#231F20" stroke-width="1.10016" stroke-miterlimit="10"/>
<path d="M186.787 141.371C191.699 141.58 196.526 143.718 200.099 147.741C201.131 148.903 201.052 150.714 199.923 151.784C198.784 152.864 197.001 152.788 195.96 151.616C190.902 145.921 182.294 145.554 176.762 150.798C175.623 151.878 173.84 151.802 172.799 150.63C171.767 149.468 171.845 147.658 172.973 146.587C176.873 142.882 181.876 141.162 186.787 141.371Z" fill="#231F20"/>
<path d="M248.888 157.034C253.8 157.243 258.627 159.382 262.2 163.404C263.232 164.566 263.153 166.377 262.024 167.448C260.885 168.528 259.102 168.452 258.06 167.279C253.003 161.584 244.395 161.218 238.863 166.463C237.723 167.542 235.941 167.466 234.9 166.293C233.868 165.131 233.946 163.322 235.074 162.251C238.974 158.546 243.977 156.826 248.888 157.034Z" fill="#231F20"/>
<path fill-rule="evenodd" clip-rule="evenodd" d="M190.976 165.774C203.086 169.019 210.625 180.803 208.855 192.912L216.336 194.917C221.27 184.383 233.187 178.574 244.815 181.69C255.859 184.649 263.102 194.711 262.95 205.644L320.205 207.962C319.644 209.415 318.999 210.831 318.267 212.205L262.504 209.946C262.394 210.515 262.266 211.084 262.114 211.653C258.617 224.703 245.202 232.448 232.151 228.951C219.1 225.454 211.355 212.04 214.852 198.989L207.86 197.115C203.817 209.326 190.896 216.407 178.312 213.035C165.66 209.645 157.995 196.934 160.725 184.269L111.598 158.498C111.583 156.91 111.664 155.326 111.844 153.751L162.026 180.076C166.633 168.867 178.958 162.554 190.976 165.774ZM243.698 185.86C232.95 182.98 221.902 189.359 219.023 200.106C216.143 210.854 222.521 221.901 233.269 224.781C244.016 227.661 255.064 221.283 257.944 210.535C260.824 199.787 254.445 188.74 243.698 185.86ZM189.858 169.944C179.111 167.064 168.063 173.443 165.183 184.19C162.304 194.938 168.682 205.985 179.43 208.865C190.177 211.745 201.225 205.367 204.105 194.619C206.984 183.871 200.606 172.824 189.858 169.944Z" fill="black"/>
</svg>
