<svg preserveAspectRatio="none" width="100%" height="100%" overflow="visible" style="display: block;" viewBox="0 0 32 32" fill="none" xmlns="http://www.w3.org/2000/svg">
<g id="chart-circle-up-growth--chart-circle-up-growth-bull-market">
<path id="Union" fill-rule="evenodd" clip-rule="evenodd" d="M16 32C11.0354 32 6.99534 30.6002 4.1976 27.8025C1.39984 25.0046 0 20.9646 0 16C0 11.0354 1.39984 6.99534 4.1976 4.1976C6.99534 1.39984 11.0354 0 16 0C20.9646 0 25.0046 1.39984 27.8025 4.1976C30.6002 6.99534 32 11.0354 32 16C32 20.9646 30.6002 25.0046 27.8025 27.8025C25.0046 30.6002 20.9646 32 16 32Z" fill="var(--fill-0, #5AAED8)"/>
<path id="Union_2" fill-rule="evenodd" clip-rule="evenodd" d="M21.0356 10.0079C18.6975 9.76491 17.3076 9.76583 14.8787 10.0071C14.1208 10.0823 13.5035 10.6486 13.3632 11.3971C13.2229 12.1457 13.5932 12.8971 14.2723 13.2417C14.9049 13.5627 15.4793 13.9099 16.004 14.2921C14.4735 16.0553 12.7739 17.8055 11.1873 19.1396L9.00181 16.9541C8.41945 16.3717 7.50526 16.2858 6.82457 16.7494C4.51689 18.3213 2.57995 20.1161 0.89453 22.2531C1.30629 23.5422 1.86021 24.7221 2.55621 25.7831L2.55984 25.7778C3.99737 23.6674 5.63216 21.9268 7.60949 20.4105L9.83902 22.64C10.4363 23.2373 11.3796 23.3104 12.0619 22.8125C14.1394 21.2962 16.4185 19.0238 18.4096 16.7502C18.7409 17.2248 19.0456 17.7391 19.3297 18.299C19.6744 18.9782 20.4257 19.3485 21.1743 19.2082C21.9228 19.0679 22.4891 18.4506 22.5643 17.6927C22.8056 15.2638 22.8065 13.8739 22.5635 11.5358C22.4797 10.7292 21.8422 10.0917 21.0356 10.0079Z" fill="var(--fill-0, #1A5E99)"/>
</g>
</svg>
