<svg preserveAspectRatio="none" width="100%" height="100%" overflow="visible" style="display: block;" viewBox="0 0 32 32" fill="none" xmlns="http://www.w3.org/2000/svg">
<g id="briefcase-dollar--briefcase-payment-cash-money-finance-baggage-bag">
<path id="Union" fill-rule="evenodd" clip-rule="evenodd" d="M11.5255 6.57045C11.5792 4.88759 13.0363 3.42857 14.9684 3.42857H17.0319C18.9641 3.42857 20.4211 4.88759 20.4748 6.57045C18.9952 6.5371 17.507 6.5371 16.0625 6.53712H15.9375C14.4931 6.5371 13.0051 6.5371 11.5255 6.57045ZM8.09543 6.72583V6.66667C8.09543 2.9195 11.2392 0 14.9684 0H17.0319C20.7612 0 23.9049 2.9195 23.9049 6.66667V6.72585C25.0827 6.81285 26.2272 6.93993 27.3095 7.1256C29.3433 7.47456 30.9822 8.97536 31.4313 10.97C32 13.4947 32 15.847 32 19.1798V19.3573C32 22.6901 32 25.0425 31.4313 27.5671C30.9822 29.5618 29.3433 31.0626 27.3095 31.4114C23.8793 32 19.8227 32 16.0625 32H15.9375C12.1773 32 8.12078 32 4.69051 31.4114C2.65669 31.0626 1.01788 29.5618 0.568597 27.5671C-7.56582e-05 25.0425 -4.42954e-05 22.6901 7.99879e-07 19.3573V19.1798C-4.42954e-05 15.847 -7.56582e-05 13.4947 0.568597 10.97C1.01788 8.97536 2.65669 7.47456 4.69051 7.1256C5.7728 6.93991 6.91744 6.81282 8.09543 6.72583Z" fill="var(--fill-0, #5AAED8)"/>
<path id="Union_2" fill-rule="evenodd" clip-rule="evenodd" d="M17.6959 12.6858C17.6959 11.8968 17.0563 11.2573 16.2673 11.2573C15.4783 11.2573 14.8387 11.8968 14.8387 12.6858V13.673C13.0288 14.2027 11.9029 15.6215 11.9029 17.3052C11.9029 17.9277 12.0394 18.5151 12.3494 19.0329C12.6581 19.5485 13.0829 19.9015 13.5126 20.1452C14.2529 20.565 15.1648 20.7325 15.7966 20.8486L15.9058 20.8687C16.682 21.0126 17.1193 21.1134 17.3921 21.2735C17.4919 21.332 17.5152 21.3701 17.5222 21.3822C17.5285 21.3931 17.5661 21.4588 17.5717 21.6395C17.5564 21.6622 17.5232 21.7027 17.4563 21.7592C17.2798 21.9083 16.9646 22.0745 16.5336 22.1693C15.6632 22.3607 14.6685 22.1951 13.9624 21.5508C13.3796 21.0189 12.4761 21.0602 11.9442 21.643C11.4124 22.2258 11.4537 23.1294 12.0365 23.6613C12.8786 24.4297 13.8627 24.8498 14.8387 25.0153V25.8514C14.8387 26.6405 15.4783 27.28 16.2673 27.28C17.0563 27.28 17.6959 26.6405 17.6959 25.8514V24.8105C18.2857 24.6183 18.8418 24.3289 19.3003 23.9417C19.8956 23.4386 20.4295 22.6698 20.4295 21.6858C20.4295 21.0589 20.2958 20.4685 19.9925 19.9467C19.6895 19.4253 19.2698 19.0626 18.8381 18.8092C18.0802 18.3646 17.1477 18.1925 16.5071 18.0743L16.4266 18.0595C15.6415 17.9139 15.2009 17.818 14.922 17.6598C14.8229 17.6036 14.803 17.5692 14.8008 17.5654C14.8003 17.5646 14.76 17.5034 14.76 17.3052C14.76 17.1221 14.8285 16.9271 15.0026 16.7559C15.176 16.5854 15.5233 16.3752 16.1654 16.32C16.7161 16.2727 17.1648 16.4352 17.4941 16.6253L17.9518 16.9667C18.4805 17.5392 19.3729 17.5826 19.9549 17.0605C20.5422 16.5336 20.5912 15.6304 20.0643 15.0431L19.001 15.9971C20.0643 15.0431 20.0648 15.0436 20.0643 15.0431L20.0627 15.0413L20.0609 15.0393L20.057 15.0349L20.0477 15.0249L20.0238 14.9993C20.0054 14.98 19.9821 14.956 19.954 14.9282C19.8979 14.8726 19.822 14.8011 19.7271 14.7195C19.5384 14.5573 19.2681 14.3502 18.9222 14.1506C18.5887 13.9581 18.1765 13.7683 17.6959 13.6357V12.6858ZM17.4941 16.6253L17.9504 16.9651L17.9438 16.9585C17.9311 16.9459 17.9045 16.9205 17.8651 16.8866C17.7851 16.8179 17.659 16.7204 17.4941 16.6253Z" fill="var(--fill-0, #1A5E99)"/>
</g>
</svg>
