<svg preserveAspectRatio="none" width="100%" height="100%" overflow="visible" style="display: block;" viewBox="0 0 20 20" fill="none" xmlns="http://www.w3.org/2000/svg">
<g id="Icon trailing">
<path id="vector" d="M11.5694 10.0021L6.83449 5.39541C6.68121 5.24609 6.60272 5.08087 6.59903 4.89975C6.59552 4.71881 6.67401 4.55018 6.83449 4.39385C6.99516 4.23771 7.16672 4.15964 7.34918 4.15964C7.53163 4.15964 7.70624 4.24076 7.873 4.40302L13.0099 9.40082C13.095 9.49102 13.1589 9.5858 13.2016 9.68517C13.2443 9.78453 13.2656 9.89199 13.2656 10.0075C13.2656 10.1231 13.2443 10.2305 13.2016 10.3299C13.1589 10.4292 13.095 10.5204 13.0099 10.6034L7.873 15.6012C7.71345 15.7565 7.54521 15.8314 7.36829 15.826C7.19156 15.8205 7.02286 15.7396 6.86219 15.5835C6.70171 15.4271 6.62147 15.2602 6.62147 15.0827C6.62147 14.9052 6.70171 14.7382 6.86219 14.5819L11.5694 10.0021Z" fill="var(--fill-0, #FF7E1D)"/>
</g>
</svg>
