<svg width="90" height="85" viewBox="0 0 89.8406 85" fill="none" xmlns="http://www.w3.org/2000/svg">
  <path d="M33.0889 0.00957899C38.3748 0.195578 43.5016 3.07219 46.4506 7.50675C49.7811 3.35675 55.1624 0.953874 60.4403 1.24559C65.7182 1.53731 70.7894 4.51885 73.643 9.01461C76.4966 13.5112 77.0768 19.4067 74.8273 24.5034C80.3675 25.4779 85.3672 29.2066 87.9028 34.2739C90.4543 39.3411 90.4861 45.6237 87.9982 50.7228C85.5103 55.8219 80.5504 59.6189 75.034 60.626C76.6953 65.0749 76.6317 69.9975 74.8353 74.3971C73.0389 78.7959 69.5256 82.2861 65.0982 83.914C60.7264 85.5244 56.9667 85.1683 53.1593 83.9864C49.3598 82.8044 46.2837 80.1575 43.3348 76.3819C40.0599 79.8761 36.7691 82.2353 32.8743 83.0691C28.9795 83.9037 25.2039 83.9188 20.9911 81.9205C16.7306 79.8999 13.5512 76.1076 12.1522 71.5642C10.7612 67.0207 11.1427 62.1124 13.2014 57.8321C7.79628 56.3314 3.19401 52.1019 1.183 46.7994C-0.843907 41.4968 -0.231876 35.2428 2.75682 30.4259C5.74551 25.6082 11.0552 22.3453 16.659 21.8747C14.8785 16.596 15.9913 10.7768 19.2423 6.55609C22.4933 2.33614 27.8031 -0.175625 33.0889 0.00957899Z" fill="#2B7DB8"/>
  <path d="M36.3223 40.7488C35.75 43.7757 33.3336 46.138 30.1621 45.9949C26.9906 45.8518 24.8207 43.2415 24.5425 40.1765" stroke="#1B3A5C" stroke-width="4.09972" stroke-linecap="round" stroke-linejoin="round"/>
  <path d="M43.8578 41.0898C44.1598 44.1564 46.3457 46.727 49.5172 46.8701C52.6888 47.0139 55.0892 44.6103 55.6377 41.5818" stroke="#1B3A5C" stroke-width="4.09972" stroke-linecap="round" stroke-linejoin="round"/>
  <path d="M18.7913 53.3648C17.0377 53.2855 15.6803 51.7996 15.7595 50.046C15.8388 48.2923 17.3247 46.935 19.0783 47.0142C20.832 47.0935 22.1894 48.5793 22.1102 50.333C22.0309 52.0866 20.545 53.444 18.7913 53.3648Z" fill="white"/>
  <path d="M60.1495 55.2336C58.3958 55.1544 57.0384 53.6685 57.1177 51.9148C57.1969 50.1612 58.6828 48.8038 60.4365 48.8831C62.1901 48.9623 63.5475 50.4482 63.4683 52.2018C63.389 53.9555 61.9032 55.3129 60.1495 55.2336Z" fill="white"/>
  <path d="M35.3766 50.3811C35.321 51.629 36.1159 54.4715 39.4543 54.6217C42.7371 54.7703 43.834 52.0138 43.8896 50.7658" stroke="#1B3A5C" stroke-width="4.09972" stroke-linecap="round" stroke-linejoin="round"/>
</svg>
