<svg width="89" height="90" viewBox="0 0 88.9995 89.5185" fill="none" xmlns="http://www.w3.org/2000/svg">
  <path d="M45.8697 8.81012C42.5146 3.68566 34.7583 4.80825 32.9938 10.6737L29.1554 23.3906C27.007 32.8486 16.0937 38.3639 8.80935 43.2912C3.73746 46.6702 4.86842 54.4843 10.6902 56.2866L23.3184 60.177C28.459 61.7537 32.8924 65.0951 35.8437 69.602L43.1298 80.7069C46.4852 85.8333 54.2416 84.7107 56.0058 78.8433L59.8444 66.1283C61.9929 56.6703 72.9059 51.155 80.1903 46.2277C85.2622 42.8487 84.1312 35.0346 78.3094 33.2323L65.6815 29.3418C56.2881 27.1644 50.7842 16.1553 45.8697 8.81012Z" fill="#90CCEA"/>
  <ellipse cx="48.5431" cy="43.5136" rx="16.5036" ry="14.6353" fill="#E8F6FF"/>
  <path d="M61.9018 41.9386C62.3854 46.4912 56.9883 47.1327 56.358 42.5976C55.8742 38.0451 61.2712 37.4035 61.9018 41.9386Z" fill="#1B3A5C"/>
  <path d="M52.5599 41.9386C53.0435 46.4912 47.6465 47.1327 47.0162 42.5976C46.5323 38.0451 51.9294 37.4035 52.5599 41.9386Z" fill="#1B3A5C"/>
</svg>
