<svg width="320" height="320" viewBox="0 0 320 320" fill="none" xmlns="http://www.w3.org/2000/svg">
  <g transform="translate(57 97)">
    <path d="M78.3809 0C100.68 0 119.847 13.4038 128.268 32.5938C135.857 25.693 145.94 21.4874 157.006 21.4873C180.605 21.4873 199.737 40.6183 199.737 64.2178C199.737 69.724 198.695 74.9868 196.798 79.8203C200.735 83.8115 203.641 88.7662 205.061 94.4453C209.672 112.892 196.865 131.982 176.455 137.084C169.646 138.786 162.852 138.714 156.648 137.18C145.436 149.333 127.127 157.25 106.442 157.25C80.6911 157.25 58.6205 144.981 49.3438 127.541C45.6493 128.754 41.7028 129.413 37.6025 129.413C16.835 129.413 0 112.577 0 91.8096C0.00016322 75.8477 9.94541 62.2095 23.9775 56.752C23.9458 55.9891 23.9297 55.2218 23.9297 54.4512C23.9299 24.3787 48.3084 0.000193791 78.3809 0Z" fill="#B8DCFF"/>
  </g>
  <g transform="translate(109 138)">
    <circle cx="13.8342" cy="13.8342" r="13.8342" fill="white"/>
    <circle cx="13.9856" cy="13.7574" r="8.33194" fill="black"/>
  </g>
  <g transform="translate(137 138)">
    <circle cx="13.8342" cy="13.8342" r="13.8342" fill="white"/>
    <circle cx="13.9856" cy="13.7574" r="8.33194" fill="black"/>
  </g>
  <path d="M145 185C148 192 158 195 166 190" stroke="#1B3476" stroke-width="4" stroke-linecap="round"/>
  <g transform="translate(121 108) rotate(4.49 45.7723 45.7723)">
    <circle cx="32.4465" cy="32.446" r="30.1287" fill="#A8CEFC" fill-opacity="0.5"/>
    <path fill-rule="evenodd" clip-rule="evenodd" d="M32.4463 0C50.366 0 64.8927 14.5267 64.8927 32.4463C64.8927 39.3132 62.7566 45.6799 59.1168 50.9237L89.8476 81.6545C92.11 83.9172 92.1102 87.585 89.8476 89.8476C87.585 92.1102 83.9172 92.11 81.6545 89.8476L50.9237 59.1168C45.6799 62.7566 39.3132 64.8927 32.4463 64.8927C14.5267 64.8927 0 50.366 0 32.4463C0 14.5267 14.5267 0 32.4463 0ZM32.4463 4.63519C17.0867 4.63519 4.63519 17.0867 4.63519 32.4463C4.63519 47.806 17.0867 60.2575 32.4463 60.2575C47.806 60.2575 60.2575 47.806 60.2575 32.4463C60.2575 17.0867 47.806 4.63519 32.4463 4.63519Z" fill="#FFBF00"/>
  </g>
</svg>
